<svg xmlns="http://www.w3.org/2000/svg" width="40" height="40">
    <defs>
        <style>
            .cls-2{fill:#ff5200}
        </style>
    </defs>
    <g id="img_title_productcheck" transform="translate(1.75 1.5)">
        <path id="Path_48697" data-name="Path 48697" class="cls-2" d="M6.75 18h6.75v2.25H6.75z"/>
        <path id="Path_48698" data-name="Path 48698" class="cls-2" d="M6.75 13.5H18v2.25H6.75z"/>
        <path id="Path_48699" data-name="Path 48699" class="cls-2" d="M6.75 9H18v2.25H6.75z"/>
        <path id="Path_48700" data-name="Path 48700" class="cls-2" d="M15.75 29.25H4.5V6.75h27V18h2.25V6.75A2.25 2.25 0 0 0 31.5 4.5h-27a2.25 2.25 0 0 0-2.25 2.25v22.5A2.25 2.25 0 0 0 4.5 31.5h11.25z"/>
        <path id="Path_48701" data-name="Path 48701" class="cls-2" d="m24.75 28.789-2.914-2.914-1.586 1.586 4.5 4.5 9-9-1.586-1.586z"/>
    </g>
</svg>
