<svg xmlns="http://www.w3.org/2000/svg" width="18" height="18" viewBox="0 0 18 18">
    <g data-name="Ellipse 364" style="stroke:#ff5200;fill:#fff">
        <circle cx="9" cy="9" r="9" style="stroke:none"/>
        <circle cx="9" cy="9" r="8.5" style="fill:none"/>
    </g>
    <path data-name="Path 412" d="M2.08-2.4a3.424 3.424 0 0 1 .147-1.18 2.975 2.975 0 0 1 .738-.867A12.863 12.863 0 0 0 3.791-5.5a1.569 1.569 0 0 0 .246-.891 1.3 1.3 0 0 0-.331-.955 1.274 1.274 0 0 0-.946-.334 1.44 1.44 0 0 0-.908.29 1.012 1.012 0 0 0-.375.853H.375l-.018-.037a1.821 1.821 0 0 1 .665-1.512 2.624 2.624 0 0 1 1.738-.568 2.547 2.547 0 0 1 1.793.589 2.124 2.124 0 0 1 .639 1.644 2.461 2.461 0 0 1-.413 1.383 7.718 7.718 0 0 1-1.093 1.282 1.376 1.376 0 0 0-.384.568 3.314 3.314 0 0 0-.067.785zM3.275 0H2.068v-1.219h1.207z" transform="translate(6 13)" style="fill:#ff5200"/>
</svg>
