<svg xmlns="http://www.w3.org/2000/svg" width="30.998" height="21">
    <g data-name="Union 77" style="fill:#fff">
        <path d="M-16028.499 12141.06h-19.002c-1.93 0-3.5-1.57-3.5-3.5v-13c0-1.93 1.57-3.5 3.5-3.5h19.002c1.93 0 3.5 1.57 3.5 3.5v3.753l.2.149 3.463 2.6-3.463 2.598-.2.15v3.75c0 1.93-1.57 3.5-3.5 3.5z" style="stroke:none" transform="translate(16051.501 -12120.561)"/>
        <path d="M-16028.499 12140.56c1.654 0 3-1.345 3-3v-4l3.33-2.497-3.33-2.5v-4.002c0-1.655-1.346-3-3-3h-19.002c-1.654 0-3 1.345-3 3v13c0 1.654 1.346 3 3 3h19.002m0 1h-19.002c-2.208 0-4-1.793-4-4v-13c0-2.207 1.792-4 4-4h19.002c2.207 0 4 1.793 4 4v3.502l3.996 3-3.996 2.998v3.5c0 2.207-1.793 4-4 4z" style="fill:#afafaf;stroke:none" transform="translate(16051.501 -12120.561)"/>
    </g>
    <path data-name="Union 76" d="M-16041 12123a2 2 0 0 1 2-2 2 2 0 0 1 2 2 2 2 0 0 1-2 2 2 2 0 0 1-2-2zm-6 0a2 2 0 0 1 2-2 2 2 0 0 1 2 2 2 2 0 0 1-2 2 2 2 0 0 1-2-2zm-6 0a2 2 0 0 1 2-2 2 2 0 0 1 2 2 2 2 0 0 1-2 2 2 2 0 0 1-2-2z" transform="translate(16057.501 -12112.561)" style="fill:#ff5200"/>
</svg>
