<svg id="icon_list_product" xmlns="http://www.w3.org/2000/svg" width="26" height="26" viewBox="0 0 26 26">
    <defs>
        <style>
            .cls-3{fill:#fff}.cls-2{fill:#666}
        </style>
    </defs>
    <g id="data-check" transform="translate(1.492 .179)">
        <path id="Path_48693" data-name="Path 48693" class="cls-2" d="M20.25 19.615V15.75h1.932v3.865z" transform="translate(-10.215 -6.084)"/>
        <path id="Path_48694" data-name="Path 48694" class="cls-2" d="M15.75 19.3v-5.8h1.932v5.8z" transform="translate(-9.58 -5.767)"/>
        <path id="Path_48695" data-name="Path 48695" class="cls-2" d="M11.25 18.662V9h1.932v9.662z" transform="translate(-8.945 -5.131)"/>
        <path id="Path_48696" data-name="Path 48696" class="cls-2" d="M12.229 27.3h-5.8A1.934 1.934 0 0 1 4.5 25.371V4.182A1.934 1.934 0 0 1 6.432 2.25h15.459a1.934 1.934 0 0 1 1.932 1.932v4.662h-1.932V4.182H6.432v21.189h5.8z" transform="translate(-5.992 -2.179)"/>
        <circle id="Ellipse_621" data-name="Ellipse 621" class="cls-3" cx="10" cy="10" r="10" transform="translate(4.508 5.821)"/>
        <circle id="Ellipse_521" data-name="Ellipse 521" cx="8" cy="8" r="8" transform="translate(6.508 7.821)" style="fill:#ff5200"/>
        <path id="Path_49025" data-name="Path 49025" class="cls-3" d="m25.061 29.44-2.387-2.387-1.3 1.3 3.686 3.686 6.45-6.45-1.3-1.3z" transform="translate(-11.396 -12.159)"/>
    </g>
</svg>
