<svg xmlns="http://www.w3.org/2000/svg" id="iocn_notification_success" width="24" height="24" viewBox="0 0 24 24">
    <defs>
        <style>
            .cls-2{fill:#5fae04}
        </style>
    </defs>
    <path id="Path_47193" d="M12.375 27h8.151v1.63h-8.151z" class="cls-2" transform="translate(-4.65 -8.067)"/>
    <path id="Path_47194" d="M14.625 31.5h4.891v1.63h-4.891z" class="cls-2" transform="translate(-5.27 -9.308)"/>
    <path id="Path_47195" d="M24.675 18a7.837 7.837 0 0 1-1.525 1.747 4.151 4.151 0 0 0-1.775 3.144h1.63c0-.75.429-1.182 1.251-1.945A8.142 8.142 0 0 0 26.5 18z" class="cls-2" transform="translate(-7.13 -5.588)"/>
    <path id="Path_47196" d="M14.9 3.88a6.472 6.472 0 0 1 3.26.882V2.935A8.142 8.142 0 0 0 6.747 10.4a7.483 7.483 0 0 0 2.821 6.208c.825.762 1.255 1.194 1.255 1.943h1.63a4.156 4.156 0 0 0-1.782-3.151 5.856 5.856 0 0 1-2.294-5A6.529 6.529 0 0 1 14.9 3.88z" class="cls-2" transform="translate(-3.098 -1.249)"/>
    <path id="Rectangle_2608" d="M0 0H1.805V5.415H0z" class="cls-2" transform="translate(12.393 6.195) rotate(-45)"/>
    <path id="Rectangle_2609" d="M0 0H8.123V1.805H0z" class="cls-2" transform="translate(14.946 8.748) rotate(-45)"/>
</svg>
