<svg xmlns="http://www.w3.org/2000/svg" width="18" height="18">
    <defs>
        <style>
            .cls-4{opacity:.8}.cls-3,.cls-4{fill:#111;isolation:isolate}
        </style>
    </defs>
    <g id="icon_menu_refresh_normal" style="opacity:.8">
        <path id="Path_49118" data-name="Path 49118" class="cls-3" d="M678.625 382.512a5.721 5.721 0 0 1 10.221-1.125h.956a6.573 6.573 0 0 0-12.07 1.125H675l2.813 3.375 2.813-3.375z" transform="translate(-675 -375.482)"/>
        <path id="Path_49119" data-name="Path 49119" class="cls-3" d="M692.675 385.375 689.863 382l-2.813 3.375h2.183A5.741 5.741 0 0 1 678.5 386.5h-.9a6.57 6.57 0 0 0 12.488-1.123z" transform="translate(-674.676 -374.971)"/>
        <path id="Path_47162" data-name="Path 47162" class="cls-4" d="M678.625 382.512a5.721 5.721 0 0 1 10.221-1.125h.956a6.573 6.573 0 0 0-12.07 1.125H675l2.813 3.375 2.813-3.375z" transform="translate(-675 -375.482)"/>
        <path id="Path_47163" data-name="Path 47163" class="cls-4" d="M692.675 385.375 689.863 382l-2.813 3.375h2.183A5.741 5.741 0 0 1 678.5 386.5h-.9a6.57 6.57 0 0 0 12.488-1.123z" transform="translate(-674.675 -374.971)"/>
    </g>
</svg>
