<svg xmlns="http://www.w3.org/2000/svg" width="40" height="40">
    <defs>
        <style>
            .cls-2{fill:#fff}
        </style>
    </defs>
    <g id="img_title_orderinfo2" transform="translate(-4.5 2)">
        <path id="Path_48693" data-name="Path 48693" class="cls-2" d="M20.25 20.25v-4.5h2.25v4.5z" transform="translate(5)"/>
        <path id="Path_48694" data-name="Path 48694" class="cls-2" d="M15.75 20.25V13.5H18v6.75z" transform="translate(5)"/>
        <path id="Path_48695" data-name="Path 48695" class="cls-2" d="M11.25 20.25V9h2.25v11.25z" transform="translate(5)"/>
        <path id="Path_48696" data-name="Path 48696" class="cls-2" d="M13.5 33.75H6.75A2.252 2.252 0 0 1 4.5 31.5v-27a2.252 2.252 0 0 1 2.25-2.25h18A2.252 2.252 0 0 1 27 4.5v11.25h-2.25V4.5h-18v27h6.75z" transform="translate(5)"/>
        <circle id="Ellipse_517" data-name="Ellipse 517" class="cls-2" cx="2.5" cy="2.5" r="2.5" transform="translate(20.5 25)"/>
        <circle id="Ellipse_518" data-name="Ellipse 518" class="cls-2" cx="2.5" cy="2.5" r="2.5" transform="translate(27.5 25)"/>
        <circle id="Ellipse_519" data-name="Ellipse 519" class="cls-2" cx="2.5" cy="2.5" r="2.5" transform="translate(34.5 25)"/>
    </g>
</svg>
