<svg xmlns="http://www.w3.org/2000/svg" width="18" height="18">
    <defs>
        <style>
            .cls-3{fill:#e32f00}.cls-4{fill:none}.cls-5,.cls-6{stroke:none}.cls-6{fill:#e32f00}
        </style>
    </defs>
    <g id="icon_request_normal" style="opacity:.8">
        <path id="Rectangle_2525" data-name="Rectangle 2525" class="cls-3" transform="translate(11 14)" d="M0 0h6v1H0z"/>
        <g id="Path_47413" data-name="Path 47413" class="cls-4">
            <path class="cls-5" d="M0 0h16.552v3.82H0z" transform="rotate(135 7.53 5.287)"/>
            <path class="cls-6" d="M1 1v1.82h14.553V1H1M0 0h16.552v3.82H0V0z" transform="rotate(135 7.53 5.287)"/>
        </g>
        <g id="Path_47414" data-name="Path 47414" class="cls-4">
            <path class="cls-5" d="M0 0h3.82v3.82H0z" transform="rotate(135 7.53 5.287)"/>
            <path class="cls-6" d="M1 1v1.82h1.82V1H1M0 0h3.82v3.82H0V0z" transform="rotate(135 7.53 5.287)"/>
        </g>
        <path id="Polygon_64" data-name="Polygon 64" class="cls-3" d="m1.91 0 1.91 2.546H0z" transform="rotate(-135 5.134 7.981)"/>
    </g>
</svg>
