<svg id="main_navidot_off" xmlns="http://www.w3.org/2000/svg" width="20" height="20" viewBox="0 0 20 20">
    <defs>
        <style>
            .cls-3{stroke:none}
        </style>
    </defs>
    <g id="dot" style="fill:transparent">
        <path class="cls-3" d="M12.33 15H5.67c-.361 0-.695-.195-.872-.51l-3.375-6a1.006 1.006 0 0 1 0-.98l3.375-6c.177-.315.51-.51.872-.51h6.66c.361 0 .695.195.872.51l3.375 6c.17.302.17.678 0 .98l-3.375 6c-.177.315-.51.51-.872.51z" transform="rotate(-90 10.5 8.5)"/>
        <path d="M5.67 2 2.295 8l3.375 6h6.66l3.375-6-3.375-6H5.67m0-2h6.66a2 2 0 0 1 1.743 1.02l3.375 6a2 2 0 0 1 0 1.96l-3.375 6A2 2 0 0 1 12.33 16H5.67a2 2 0 0 1-1.743-1.02l-3.375-6a2 2 0 0 1 0-1.96l3.375-6A2 2 0 0 1 5.67 0z" style="fill:#ccc;stroke:none" transform="rotate(-90 10.5 8.5)"/>
    </g>
</svg>
