<svg id="icon_list_sortation" xmlns="http://www.w3.org/2000/svg" width="26" height="26" viewBox="0 0 26 26">
    <defs>
        <style>
            .cls-1{fill:#fff}.cls-2{fill:#666}
        </style>
    </defs>
    <path id="hit" class="cls-1" d="M0 0h26v26H0z"/>
    <g id="data-check" transform="translate(1.492 .179)">
        <path id="Path_49026" data-name="Path 49026" class="cls-2" d="M13.01 8.755a.88.88 0 1 1-.88-.88.88.88 0 0 1 .88.88z" transform="translate(-7.73 -4.355)"/>
        <path id="Path_49027" data-name="Path 49027" class="cls-2" d="M13.01 17.755a.88.88 0 1 1-.88-.88.88.88 0 0 1 .88.88z" transform="translate(-7.73 -6.315)"/>
        <path id="Path_49028" data-name="Path 49028" class="cls-2" d="M13.01 26.755a.88.88 0 1 1-.88-.88.88.88 0 0 1 .88.88z" transform="translate(-7.73 -8.275)"/>
        <path id="Path_49029" data-name="Path 49029" class="cls-2" d="M22.59 3.375H8.51a1.76 1.76 0 0 0-1.76 1.76v19.36a1.76 1.76 0 0 0 1.76 1.76h7.04v-1.76H8.51v-5.28h15.84V5.135a1.76 1.76 0 0 0-1.76-1.76zm0 14.08H8.51v-5.28h14.08zm0-7.04H8.51v-5.28h14.08z" transform="translate(-6.75 -3.375)"/>
        <circle id="Ellipse_621" data-name="Ellipse 621" class="cls-1" cx="10" cy="10" r="10" transform="translate(4.508 5.821)"/>
        <circle id="Ellipse_521" data-name="Ellipse 521" cx="8" cy="8" r="8" transform="translate(6.508 7.821)" style="fill:#ff5200"/>
        <path id="Path_49025" data-name="Path 49025" class="cls-1" d="m25.061 29.44-2.387-2.387-1.3 1.3 3.686 3.686 6.45-6.45-1.3-1.3z" transform="translate(-11.396 -12.159)"/>
    </g>
</svg>
