<svg xmlns="http://www.w3.org/2000/svg" xmlns:xlink="http://www.w3.org/1999/xlink" width="50" height="50">
    <defs>
        <linearGradient id="linear-gradient" x1="-.002" y1=".503" x2=".997" y2=".503" gradientUnits="objectBoundingBox">
            <stop offset="0" stop-color="#fbb78e"/>
            <stop offset="1" stop-color="#ff5402"/>
        </linearGradient>
        <linearGradient id="linear-gradient-2" y1=".5" x2="1" y2=".5" gradientUnits="objectBoundingBox">
            <stop offset="0" stop-color="#c0dde2"/>
            <stop offset="1" stop-color="#dbf9ea"/>
        </linearGradient>
        <linearGradient id="linear-gradient-3" x1="-.029" y1=".321" x2="1.03" y2=".678" gradientUnits="objectBoundingBox">
            <stop offset="0" stop-color="#fbb78e"/>
            <stop offset="1" stop-color="#e26333"/>
        </linearGradient>
        <linearGradient id="linear-gradient-4" y1=".5" x2=".999" y2=".5" gradientUnits="objectBoundingBox">
            <stop offset="0" stop-color="#fe9e49"/>
            <stop offset="1" stop-color="#ff5200"/>
        </linearGradient>
        <linearGradient id="linear-gradient-5" y1=".5" x2="1" y2=".5" gradientUnits="objectBoundingBox">
            <stop offset="0" stop-color="#fff"/>
            <stop offset="1" stop-color="#dbf9ea"/>
        </linearGradient>
        <linearGradient id="linear-gradient-6" x1="-.028" y1=".321" x2="1.033" y2=".678" xlink:href="#linear-gradient-5"/>
        <linearGradient id="linear-gradient-7" x1="-.001" y1=".5" x2=".999" y2=".5" gradientUnits="objectBoundingBox">
            <stop offset="0" stop-color="#2e0f05"/>
            <stop offset="1" stop-color="#762323"/>
        </linearGradient>
        <linearGradient id="linear-gradient-8" y1=".501" x2="1" y2=".501" gradientUnits="objectBoundingBox">
            <stop offset="0" stop-color="#fe903b"/>
            <stop offset="1" stop-color="#ff5200"/>
        </linearGradient>
        <linearGradient id="linear-gradient-9" y1=".5" x2="1" y2=".5" gradientUnits="objectBoundingBox">
            <stop offset="0" stop-color="#fe9945"/>
            <stop offset="1" stop-color="#d64600"/>
        </linearGradient>
        <linearGradient id="linear-gradient-10" y1=".499" x2="1" y2=".499" gradientUnits="objectBoundingBox">
            <stop offset="0" stop-color="#fe923d"/>
            <stop offset="1" stop-color="#ff5200"/>
        </linearGradient>
        <style>
            .cls-13{stroke:none}
        </style>
    </defs>
    <g id="mainbutton_inquiry_hover" transform="translate(-1438.714 -333)">
        <g id="Polygon_83" data-name="Polygon 83" style="fill:rgba(194,84,0,.7)">
            <path class="cls-13" d="M32.39 44.204H17.117a6.998 6.998 0 0 1-6.14-3.638L2.981 25.964a6.97 6.97 0 0 1 0-6.724l7.996-14.602A6.998 6.998 0 0 1 17.117 1H32.39a6.998 6.998 0 0 1 6.14 3.638l7.995 14.602a6.97 6.97 0 0 1 0 6.724L38.53 40.566a6.998 6.998 0 0 1-6.14 3.638z" transform="rotate(-90 912.032 -529.092)"/>
            <path d="M17.117 2a5.998 5.998 0 0 0-5.263 3.118L3.858 19.72a5.974 5.974 0 0 0 0 5.764l7.996 14.602a5.998 5.998 0 0 0 5.263 3.118H32.39a5.998 5.998 0 0 0 5.262-3.118l7.996-14.602a5.974 5.974 0 0 0 0-5.764L37.652 5.118A5.998 5.998 0 0 0 32.39 2H17.117m0-2H32.39a8 8 0 0 1 7.016 4.158l7.996 14.602a8 8 0 0 1 0 7.684l-7.996 14.603a8 8 0 0 1-7.016 4.157H17.117a8 8 0 0 1-7.017-4.157L2.104 26.444a8 8 0 0 1 0-7.684L10.1 4.158A8 8 0 0 1 17.117 0z" style="fill:#ff5200;stroke:none" transform="rotate(-90 912.032 -529.092)"/>
        </g>
        <g id="Pen" transform="rotate(-16 1955.185 -4991.647)">
            <g id="Group" transform="translate(14.869 .97)">
                <path id="Path" d="M1.5.233 0 1.1A.741.741 0 0 1 .395 1c.985 0 2.164 1.489 2.164 2.782a1.082 1.082 0 0 1-.438.968l1.515-.882a1.7 1.7 0 0 0 .817-1.52A2.367 2.367 0 0 0 2.288 0a1.623 1.623 0 0 0-.8.216" transform="translate(13.807)" style="fill:url(#linear-gradient)"/>
                <path id="Path-2" data-name="Path" d="M14.829.266a1.461 1.461 0 0 0-1.466-.125L0 7.9a1.477 1.477 0 0 1 1.466.124 4.631 4.631 0 0 1 2.164 3.63 1.5 1.5 0 0 1-.644 1.4l13.363-7.768a1.5 1.5 0 0 0 .611-1.4 4.642 4.642 0 0 0-2.131-3.62z" transform="translate(0 .227)" style="fill:url(#linear-gradient-2)"/>
            </g>
            <g id="Group-2" data-name="Group" transform="translate(.004 8.569)">
                <ellipse id="Oval" cx="1.975" cy="3.403" rx="1.975" ry="3.403" transform="rotate(-30.12 14.603 -1.278)" style="fill:url(#linear-gradient-3)"/>
                <path id="Path-3" data-name="Path" d="M12 .305a1.677 1.677 0 0 0-1.677-.146L0 6.164a1.677 1.677 0 0 1 1.677.146 5.3 5.3 0 0 1 2.445 4.144 1.7 1.7 0 0 1-.7 1.6l10.328-6a1.72 1.72 0 0 0 .7-1.623A5.286 5.286 0 0 0 12 .305z" transform="translate(4.326)" style="fill:url(#linear-gradient-4)"/>
                <path id="Path-4" data-name="Path" d="M5.183.268a1.3 1.3 0 0 0-1.764.14L0 4.818a.357.357 0 0 1 .487-.038 1.277 1.277 0 0 1 .6 1c0 .249-.108.4-.276.422l5.519-.784c.606-.087 1.006-.638 1-1.526A4.631 4.631 0 0 0 5.183.268z" transform="translate(.815 6.394)" style="fill:url(#linear-gradient-5)"/>
                <ellipse id="Oval-2" data-name="Oval" cx=".476" cy=".822" rx=".476" ry=".822" transform="rotate(-30.12 21.378 4.779)" style="fill:url(#linear-gradient-6)"/>
                <path id="Path-5" data-name="Path" d="M.3.433a.6.6 0 0 0-.27.335.611.611 0 0 0 .887.72l.7-.406A.325.325 0 0 0 1.745.8a.963.963 0 0 0-.438-.746A.314.314 0 0 0 1 .027L.3.438" transform="translate(0 11.299)" style="fill:url(#linear-gradient-7)"/>
            </g>
            <g id="Group-3" data-name="Group" transform="translate(18.461 1.581)">
                <path id="Path-6" data-name="Path" d="m9.067 1.234-6.935 4.03L0 4.031 6.936 0l2.131 1.234z" transform="translate(.005)" style="fill:url(#linear-gradient-8)"/>
                <path id="Path-7" data-name="Path" d="M6.936 0v1.055L0 5.086V4.031L6.936 0z" transform="translate(2.137 1.234)" style="fill:url(#linear-gradient-9)"/>
                <path id="Path-8" data-name="Path" d="M2.137 1.234v1.054L0 1.055.005 0l2.132 1.234z" transform="translate(0 4.031)" style="fill:url(#linear-gradient-10)"/>
            </g>
        </g>
    </g>
</svg>
