<svg id="iocn_document_normal" xmlns="http://www.w3.org/2000/svg" width="18" height="18">
    <defs>
        <style>
            .cls-2,.cls-5{fill:none}.cls-2{stroke:#111}.cls-3{fill:#111}.cls-4{stroke:none}
        </style>
    </defs>
    <g id="Rectangle_105" data-name="Rectangle 105" class="cls-2">
        <path class="cls-4" d="M0 0h14v14H0z" transform="translate(1 1)"/>
        <path class="cls-5" d="M.5.5h13v13H.5z" transform="translate(1 1)"/>
    </g>
    <g id="Rectangle_106" data-name="Rectangle 106" class="cls-2">
        <path class="cls-4" d="M0 0h4v4H0z" transform="translate(4 4)"/>
        <path class="cls-5" d="M.5.5h3v3h-3z" transform="translate(4 4)"/>
    </g>
    <path id="Rectangle_107" data-name="Rectangle 107" class="cls-3" transform="translate(4 9)" d="M0 0h6v1H0z"/>
    <path id="Rectangle_200" data-name="Rectangle 200" class="cls-3" transform="translate(4 11)" d="M0 0h4v1H0z"/>
    <path id="Rectangle_2656" data-name="Rectangle 2656" class="cls-3" transform="translate(3 14)" d="M0 0h1v3H0z"/>
    <path id="Rectangle_2657" data-name="Rectangle 2657" class="cls-3" transform="translate(3 16)" d="M0 0h14v1H0z"/>
    <path id="Rectangle_2658" data-name="Rectangle 2658" class="cls-3" transform="translate(16 3)" d="M0 0h1v14H0z"/>
    <path id="Rectangle_2659" data-name="Rectangle 2659" class="cls-3" transform="translate(15 3)" d="M0 0h2v1H0z"/>
</svg>
