<svg xmlns="http://www.w3.org/2000/svg" width="40" height="40">
    <path d="M6.75 18c3.345 0 4.761-2.532 6.013-4.767C14.034 10.962 15.131 9 18 9s3.967 1.962 5.237 4.233C24.489 15.468 25.905 18 29.25 18h4.5v-2.25h-4.5c-1.927 0-2.793-1.373-4.05-3.616C23.86 9.736 22.189 6.75 18 6.75s-5.858 2.986-7.2 5.384c-1.258 2.242-2.124 3.616-4.05 3.616H4.5V2.25H2.25V31.5a2.25 2.25 0 0 0 2.25 2.25h29.25V31.5H31.5v-6.75h-2.25v6.75h-4.5v-9H22.5v9H18V18h-2.25v13.5h-4.5v-9H9v9H4.5V18z" transform="translate(2 2)" style="fill:#ff5200"/>
</svg>
