<svg xmlns="http://www.w3.org/2000/svg" width="40" height="40">
    <path d="M29.25 24.75a4.449 4.449 0 0 0-2.272.638l-4.29-4.288a5.586 5.586 0 0 0 0-6.194l2.865-2.865a3.406 3.406 0 1 0-1.59-1.591L21.1 13.312a5.586 5.586 0 0 0-6.194 0l-4.294-4.291a4.449 4.449 0 0 0 .638-2.271 4.5 4.5 0 1 0-4.5 4.5 4.449 4.449 0 0 0 2.272-.638l4.29 4.291a5.586 5.586 0 0 0 0 6.194l-4.291 4.291a4.45 4.45 0 0 0-2.271-.638 4.5 4.5 0 1 0 4.5 4.5 4.449 4.449 0 0 0-.638-2.272l4.291-4.29a5.59 5.59 0 0 0 1.972.824v3.7a3.375 3.375 0 1 0 2.25 0v-3.7a5.59 5.59 0 0 0 1.972-.824l4.291 4.291a4.449 4.449 0 0 0-.638 2.271 4.5 4.5 0 1 0 4.5-4.5zM18 14.625A3.375 3.375 0 1 1 14.625 18 3.375 3.375 0 0 1 18 14.625zM4.5 6.75A2.25 2.25 0 1 1 6.75 9 2.25 2.25 0 0 1 4.5 6.75zM6.75 31.5A2.25 2.25 0 1 1 9 29.25a2.25 2.25 0 0 1-2.25 2.25zm22.5 0a2.25 2.25 0 1 1 2.25-2.25 2.25 2.25 0 0 1-2.25 2.25z" transform="translate(2 2.75)" style="fill:#ff5200"/>
</svg>
