<svg xmlns="http://www.w3.org/2000/svg" width="18" height="18" viewBox="0 0 18 18">
    <defs>
        <style>
            .cls-3{fill:#e32f00}
        </style>
    </defs>
    <g id="icon_link_normal" style="opacity:.8">
        <g id="link" transform="translate(-1.091 -2.813)">
            <path id="Path_49351" data-name="Path 49351" class="cls-3" d="M23.3 6.677a3.595 3.595 0 0 0-5.093 0l.85.85a2.4 2.4 0 0 1 3.4 3.4l-4.793 4.793a2.4 2.4 0 0 1-3.4-3.391l.845-.85-.845-.85-.85.85a3.6 3.6 0 0 0 5.1 5.074l4.793-4.793a3.6 3.6 0 0 0-.012-5.08z" transform="translate(-5.267)"/>
            <path id="Path_49352" data-name="Path 49352" class="cls-3" d="M3.02 19.091a2.4 2.4 0 0 1 0-3.4L7.813 10.9a2.4 2.4 0 0 1 3.4 0 2.361 2.361 0 0 1 .683 1.708 2.4 2.4 0 0 1-.7 1.707L9.922 15.6l.85.85 1.27-1.27a3.605 3.605 0 0 0-5.1-5.1l-4.791 4.799A3.568 3.568 0 0 0 4.7 21a3.637 3.637 0 0 0 2.564-1.054l-.85-.85a2.4 2.4 0 0 1-3.4 0z" transform="translate(0 -1.594)"/>
        </g>
    </g>
</svg>
