<svg id="icon_list_applicationday" xmlns="http://www.w3.org/2000/svg" width="26.125" height="26" viewBox="0 0 26.125 26">
    <defs>
        <style>
            .cls-3{fill:#707070}.cls-6{fill:#ff5200}.cls-7{stroke:none}.cls-8{fill:none}
        </style>
    </defs>
    <g id="Rectangle_2851" data-name="Rectangle 2851" style="stroke-width:2px;stroke:#707070;fill:#fff">
        <path class="cls-7" d="M0 0h23v20H0z" transform="translate(0 2)"/>
        <path class="cls-8" d="M1 1h21v18H1z" transform="translate(0 2)"/>
    </g>
    <path id="Rectangle_2852" data-name="Rectangle 2852" class="cls-3" transform="translate(4)" d="M0 0h3v6H0z"/>
    <path id="Rectangle_2853" data-name="Rectangle 2853" class="cls-3" transform="translate(16)" d="M0 0h3v6H0z"/>
    <g id="Rectangle_2854" data-name="Rectangle 2854" style="stroke:#707070;fill:#fff">
        <path class="cls-7" d="M0 0h21v2H0z" transform="translate(2 8)"/>
        <path class="cls-8" d="M.5.5h20v1H.5z" transform="translate(2 8)"/>
    </g>
    <g id="data-check" transform="translate(2.992 .679)">
        <circle id="Ellipse_624" data-name="Ellipse 624" cx="7.5" cy="7.5" r="7.5" transform="translate(7.008 8.321)" style="fill:#fff"/>
        <path id="Path_49049" data-name="Path 49049" class="cls-6" d="M23.375 33.25a8.75 8.75 0 1 1 8.75-8.75 8.75 8.75 0 0 1-8.75 8.75zm0-15.312a6.563 6.563 0 1 0 6.563 6.562 6.562 6.562 0 0 0-6.563-6.562z" transform="translate(-8.992 -8.429)"/>
        <path id="Path_49050" data-name="Path 49050" class="cls-6" d="M25.333 27.906 22.5 25.073V20.25h2.188v3.927l2.188 2.188z" transform="translate(-9.211 -8.554)"/>
    </g>
</svg>
