<svg xmlns="http://www.w3.org/2000/svg" width="32" height="32">
    <path data-name="Path 44580" d="m29.099 19.278-2.929-2.929a.976.976 0 0 0-1.381 0l-9.073 9.072v4.31h4.31l9.074-9.069a.976.976 0 0 0 0-1.381zm-9.882 8.5-1.548.003V26.23l4.882-4.882 1.548 1.548zm6.263-6.263-1.548-1.548 1.548-1.548 1.548 1.548z"/>
    <path data-name="Path 44581" d="M15.669 20.014v-3.905h1.95v3.905z"/>
    <path data-name="Path 44582" d="M11.764 20.015v-5.858h1.95v5.858z"/>
    <path data-name="Path 44583" d="M7.858 20.015v-9.764h1.95v9.764z"/>
    <path data-name="Path 44584" d="M10.811 29.732H4.953A1.954 1.954 0 0 1 3 27.78V4.344a1.954 1.954 0 0 1 1.953-1.95h15.622a1.954 1.954 0 0 1 1.952 1.95v9.764h-1.952V4.344H4.953V27.78h5.858z"/>
</svg>
