<svg id="icon_gnbglobalwhite_normal" xmlns="http://www.w3.org/2000/svg" width="34" height="34">
    <defs>
        <style>
            .cls-4{fill:#fff}.cls-5{stroke:none}
        </style>
    </defs>
    <g id="icon" transform="translate(5 3)">
        <g id="Polygon_81" data-name="Polygon 81" style="fill:none">
            <path class="cls-5" d="M19.851 0a2 2 0 0 1 1.728.992l5.833 10a2 2 0 0 1 0 2.015l-5.833 10a2 2 0 0 1-1.728.993H8.149a2 2 0 0 1-1.728-.992l-5.833-10a2 2 0 0 1 0-2.015l5.833-10A2 2 0 0 1 8.149 0z" transform="rotate(-90 14 14)"/>
            <path d="M8.149 2 2.315 12 8.15 22H19.85l5.834-10L19.85 2H8.15m0-2H19.85a2 2 0 0 1 1.728.992l5.833 10a2 2 0 0 1 0 2.016l-5.833 10A2 2 0 0 1 19.85 24H8.15a2 2 0 0 1-1.728-.992l-5.833-10a2 2 0 0 1 0-2.016l5.833-10A2 2 0 0 1 8.15 0z" style="fill:#fff;stroke:none" transform="rotate(-90 14 14)"/>
        </g>
        <g id="Ellipse_408" data-name="Ellipse 408" transform="translate(6.608 1.383)" style="stroke:#fff;stroke-width:2px;fill:none">
            <ellipse class="cls-5" cx="5.495" cy="13.022" rx="5.495" ry="13.022"/>
            <ellipse cx="5.495" cy="13.022" rx="4.495" ry="12.022" style="fill:none"/>
        </g>
        <path id="Rectangle_30" data-name="Rectangle 30" class="cls-4" transform="translate(1 13.857)" d="M0 0h22v2H0z"/>
        <path id="Rectangle_32" data-name="Rectangle 32" class="cls-4" transform="rotate(-90 18.5 7.5)" d="M0 0h24v2H0z"/>
    </g>
</svg>
