<svg id="img_search_nodata" xmlns="http://www.w3.org/2000/svg" width="106" height="80">
    <defs>
        <style>
            .cls-3{fill:#969696}.cls-4{fill:#b8b8b8}.cls-5{fill:#fff}.cls-6{fill:#dedede}.cls-7{fill:#868686}.cls-8{fill:#252525}.cls-10{fill:#b7b7b7}.cls-12{fill:#fafafa}.cls-13{fill:#bfbfbf}.cls-14{fill:#fefefe}.cls-15{fill:#e5e5e5}.cls-17{fill:#ccc}.cls-18{opacity:.8}.cls-19{fill:#ddd}.cls-20{fill:#959595}.cls-21{fill:#6e6e6e}.cls-22{fill:#3d3d3d}
        </style>
    </defs>
    <path id="hit" style="fill:transparent" d="M0 0h106v80H0z"/>
    <g id="Layer_1" data-name="Layer 1" transform="translate(-647.977 -410)">
        <g id="Group_3276" data-name="Group 3276">
            <g id="Group_3252" data-name="Group 3252">
                <path id="Path_47273" data-name="Path 47273" d="m751.119 444.2-44.9-17.71-7.374-14.166 44.9 17.71z" style="fill:#9f9f9f"/>
                <path id="Path_47274" data-name="Path 47274" class="cls-3" d="m751.474 444.52-.418-.165-44.956-17.733L698.487 412l45.376 17.9.029.056zm-45.137-18.166 44.424 17.525-7.137-13.71-44.424-17.522z"/>
            </g>
            <g id="Group_3253" data-name="Group 3253">
                <path id="Path_47275" data-name="Path 47275" class="cls-4" d="m743.743 471.856-44.9-17.71v-41.824l44.9 17.71z"/>
                <path id="Path_47276" data-name="Path 47276" class="cls-3" d="m743.911 472.1-45.235-17.84v-42.185l45.235 17.842zm-44.9-18.07 44.565 17.577v-41.46l-44.565-17.578z"/>
            </g>
            <g id="Group_3254" data-name="Group 3254">
                <path id="Path_47277" data-name="Path 47277" class="cls-4" d="m664.65 470.447 34.1-16.3v-41.825l-34.1 16.3z"/>
                <path id="Path_47278" data-name="Path 47278" class="cls-3" d="M664.483 470.713v-42.2l.1-.046 34.335-16.416v42.2l-.1.046zm.335-41.983v41.45l33.761-16.141v-41.45z"/>
            </g>
            <g id="Group_3262" data-name="Group 3262" transform="translate(-2 3)">
                <g id="Group_3255" data-name="Group 3255">
                    <path id="Path_47279" data-name="Path 47279" class="cls-5" d="M722.831 452.5a9.762 9.762 0 0 0 2.35-2.366 7.829 7.829 0 0 0 1.806-3.6c-.037-.58.851-.907.851-.907-.543.153-.851-.563-.851-.563h.851a2.092 2.092 0 0 1-.987-1.112c.235.118.716.292.716.292a14.372 14.372 0 0 1-1.773-2.49l-.1-.409c-.387-1.5-1.018-3.658-1.482-5.485a4.078 4.078 0 0 0 .928.367.4.4 0 0 1-.1-.038 2.5 2.5 0 0 1-.688-.913l.369.052c-.369-.052-.4-.945-.4-.945.21.283.685.128.685.128-.706-.325-1.233-1.587-1.423-2.1-.146-2.315-.115-6.718-.218-8.279-.179-2.7-.6-3.719-1.55-3.959s-2.027.48-3.539 1.529-7.549 4.95-7.549 4.95a16.665 16.665 0 0 0-6.9.349c-.7-.25-5.4-5.359-6.21-6.108-1.49-1.38-2.444-3.06-4.322-.508-2.214 3.007-1.129 12.314-1.129 12.314l-.085.242a3.446 3.446 0 0 1-1.557 1.449s.439.24.7 0c0 0-.191.873-.563.856l.372.017s-.461.649-.842.77a.377.377 0 0 1-.1.02 4.1 4.1 0 0 0 .944-.178c-.661 1.818-1.477 4.019-2.074 5.474-.09.219-.171.435-.246.647a11.883 11.883 0 0 1-1.609 2.252s.481-.175.716-.292a2.092 2.092 0 0 1-.987 1.112h.852s-.308.715-.852.563c0 0 .888.327.852.907a7.824 7.824 0 0 0 2.112 3.8 8.652 8.652 0 0 0 2.52 2.168"/>
                    <path id="Path_47280" data-name="Path 47280" class="cls-3" d="M692.233 452.647a8.739 8.739 0 0 1-2.575-2.213 7.862 7.862 0 0 1-2.149-3.916c.024-.371-.528-.659-.742-.738l.1-.321a.493.493 0 0 0 .509-.231h-1.421l.808-.325a1.563 1.563 0 0 0 .684-.616c-.155.061-.283.107-.294.111l-1.053.382.9-.676a10.761 10.761 0 0 0 1.565-2.2c.062-.186.144-.4.236-.626.578-1.408 1.366-3.532 1.963-5.168a3.979 3.979 0 0 1-.623.1h-.107v-.01a.224.224 0 0 1-.143-.045l-.073-.079.041-.1c.041-.1.129-.1.221-.109a.237.237 0 0 0 .06-.011 1.6 1.6 0 0 0 .555-.456h-.043l.015-.337c.1.008.21-.182.3-.414a1.054 1.054 0 0 1-.519-.126l-.378-.207.418-.105a3.112 3.112 0 0 0 1.447-1.362l.065-.185c-.085-.75-1.012-9.437 1.165-12.4.665-.9 1.253-1.344 1.849-1.389.779-.056 1.406.568 2.129 1.294.19.191.386.388.593.579.251.233.854.861 1.618 1.657a51.67 51.67 0 0 0 4.492 4.4 16.547 16.547 0 0 1 6.861-.352c.633-.409 6.073-3.928 7.485-4.908 1.465-1.016 2.623-1.819 3.674-1.554s1.493 1.341 1.677 4.111c.048.721.067 2.061.088 3.48.024 1.654.051 3.527.129 4.775.156.42.675 1.685 1.328 1.986l.391.18-.409.134a1.093 1.093 0 0 1-.533.028c.045.244.127.449.218.462l-.047.334-.042-.006a1.6 1.6 0 0 0 .464.551.241.241 0 0 0 .056.022c.089.021.175.041.2.148l.022.106-.087.064a.213.213 0 0 1-.147.017v.008l-.058-.014-.047-.013a3.926 3.926 0 0 1-.593-.214c.236.911.5 1.88.764 2.82.234.846.456 1.648.63 2.318.033.131.065.259.1.386a13.326 13.326 0 0 0 1.716 2.42l.9.676-1.053-.382c-.01 0-.138-.05-.293-.111a1.569 1.569 0 0 0 .684.616l.807.325h-1.446a.491.491 0 0 0 .508.231l.1.321c-.214.079-.766.368-.742.738a7.831 7.831 0 0 1-1.849 3.726 9.843 9.843 0 0 1-2.374 2.388l-.2-.271a9.621 9.621 0 0 0 2.31-2.324 7.789 7.789 0 0 0 1.778-3.5.984.984 0 0 1 .5-.834 1.306 1.306 0 0 1-.49-.58l-.1-.236h.549a2.571 2.571 0 0 1-.587-.885l-.147-.4.378.19.031.015c-.469-.614-1.029-1.517-1.3-1.974l-.02-.048c-.033-.135-.065-.269-.1-.407-.172-.669-.394-1.469-.627-2.313-.294-1.061-.6-2.16-.854-3.172l-.1-.38.341.191c.052.029.1.057.158.083a3.848 3.848 0 0 1-.249-.448l-.13-.282.218.031a2.309 2.309 0 0 1-.132-.708l-.015-.479a6.869 6.869 0 0 1-.713-1.443l-.01-.048c-.079-1.256-.107-3.148-.131-4.816-.02-1.414-.04-2.75-.087-3.462-.169-2.557-.555-3.588-1.423-3.807s-1.855.43-3.4 1.5c-1.5 1.039-7.494 4.914-7.554 4.953l-.06.039-.069-.017a16.581 16.581 0 0 0-6.822.348l-.05.014-.049-.018c-.487-.173-2.4-2.14-4.664-4.5-.73-.761-1.36-1.418-1.6-1.644-.21-.2-.41-.4-.6-.589-.664-.667-1.237-1.246-1.867-1.2-.486.036-1.01.447-1.6 1.253-2.15 2.92-1.108 12.1-1.1 12.194v.039l-.117.316a6.182 6.182 0 0 1-.733.92l-.1.472a2.3 2.3 0 0 1-.258.673l.22.01-.18.253a3.97 3.97 0 0 1-.326.394l.137-.041.326-.106-.118.324c-.608 1.672-1.461 3.979-2.077 5.48-.089.217-.169.429-.243.639a19.053 19.053 0 0 1-1.147 1.763l.021-.01.379-.19-.147.4a2.571 2.571 0 0 1-.587.885h.549l-.1.236a1.309 1.309 0 0 1-.489.58.984.984 0 0 1 .5.834 7.823 7.823 0 0 0 2.065 3.671 8.616 8.616 0 0 0 2.477 2.136z"/>
                </g>
                <g id="Group_3256" data-name="Group 3256">
                    <path id="Path_47281" data-name="Path 47281" class="cls-6" d="M703.8 436.089a3.24 3.24 0 0 1-.058.565c-.034.092-.182.225-.223.314s-.082.171-.128.253a3.827 3.827 0 0 1-3.491 1.979 3.9 3.9 0 0 1-3.645-3.476 1.937 1.937 0 0 0-.358-.74 6.389 6.389 0 0 0 .568-.92 3.816 3.816 0 0 1 7.336 2.03z"/>
                    <path id="Path_47282" data-name="Path 47282" class="cls-7" d="M700.061 439.37h-.161a4.039 4.039 0 0 1-3.8-3.625 1.737 1.737 0 0 0-.324-.659l-.078-.1.074-.1a5.921 5.921 0 0 0 .545-.878 3.987 3.987 0 0 1 7.663 2.119 1.117 1.117 0 0 0-.014.216 1.023 1.023 0 0 1-.052.376.824.824 0 0 1-.147.219.835.835 0 0 0-.081.107 4.343 4.343 0 0 1-.133.264 4.017 4.017 0 0 1-3.492 2.061zm-3.954-4.391a1.879 1.879 0 0 1 .318.718 3.643 3.643 0 0 0 6.825 1.442c.043-.079.084-.16.122-.242a.911.911 0 0 1 .128-.181.81.81 0 0 0 .089-.12.7.7 0 0 0 .031-.258 1.38 1.38 0 0 1 .02-.28 3.648 3.648 0 0 0-7.014-1.941 5.269 5.269 0 0 1-.519.862z"/>
                </g>
                <ellipse id="Ellipse_424" data-name="Ellipse 424" class="cls-8" cx="2.891" cy="2.909" rx="2.891" ry="2.909" transform="translate(697.391 432.328)"/>
                <ellipse id="Ellipse_425" data-name="Ellipse 425" class="cls-5" cx=".626" cy=".63" rx=".626" ry=".63" transform="translate(701.215 432.621)"/>
                <g id="Group_3257" data-name="Group 3257">
                    <path id="Path_47283" data-name="Path 47283" class="cls-6" d="M711.646 436.333a3.223 3.223 0 0 0 .093.56c.04.09.2.213.242.3a2.427 2.427 0 0 0 .143.244 3.821 3.821 0 0 0 3.607 1.755 3.9 3.9 0 0 0 3.424-3.7 1.955 1.955 0 0 1 .312-.761 6.39 6.39 0 0 1-.623-.883 3.817 3.817 0 0 0-7.2 2.484z"/>
                    <path id="Path_47284" data-name="Path 47284" class="cls-7" d="M715.346 439.38a4.022 4.022 0 0 1-3.363-1.853c-.053-.084-.1-.169-.15-.256a.748.748 0 0 0-.087-.1.836.836 0 0 1-.16-.209 1.029 1.029 0 0 1-.075-.371 1.121 1.121 0 0 0-.027-.215 4.01 4.01 0 0 1 2.876-4.886 4.07 4.07 0 0 1 .261-.058 3.957 3.957 0 0 1 4.379 2.351 5.937 5.937 0 0 0 .6.843l.081.1-.072.1a1.744 1.744 0 0 0-.283.678 4.043 4.043 0 0 1-3.573 3.855 3.929 3.929 0 0 1-.407.021zm-3.538-3.09a1.441 1.441 0 0 1 .037.277.721.721 0 0 0 .047.256.837.837 0 0 0 .1.115.927.927 0 0 1 .139.173c.043.081.089.158.137.234a3.643 3.643 0 0 0 6.722-1.866 1.88 1.88 0 0 1 .273-.737 5.234 5.234 0 0 1-.57-.829 3.624 3.624 0 0 0-4.008-2.153 3.671 3.671 0 0 0-2.926 4.289q.023.12.054.24z"/>
                </g>
                <ellipse id="Ellipse_426" data-name="Ellipse 426" class="cls-8" cx="2.883" cy="2.901" rx="2.883" ry="2.901" transform="translate(712.218 432.371)"/>
                <circle id="Ellipse_427" data-name="Ellipse 427" class="cls-5" cx=".588" cy=".588" r=".588" transform="translate(716.164 432.274)"/>
                <g id="Group_3258" data-name="Group 3258">
                    <path id="Path_47285" data-name="Path 47285" d="M708.136 438.141a.7.7 0 0 0-.565-1.12.7.7 0 0 0-.565 1.12.7.7 0 0 0 1.13 0z" style="fill:#cecece"/>
                    <path id="Path_47286" data-name="Path 47286" class="cls-10" d="M707.57 438.6a.856.856 0 0 1-.7-.358.869.869 0 1 1 1.4 0 .86.86 0 0 1-.7.358zm0-1.409a.523.523 0 0 0-.475.293.529.529 0 0 0 .044.558.546.546 0 0 0 .765.1.57.57 0 0 0 .1-.1.529.529 0 0 0 .044-.558.522.522 0 0 0-.472-.293z"/>
                </g>
                <g id="Group_3259" data-name="Group 3259">
                    <path id="Path_47287" data-name="Path 47287" d="M707.57 439.2a7.128 7.128 0 0 1-.962.988 12.337 12.337 0 0 1-1.362.912s.85-.356 1.319-.6a7.9 7.9 0 0 0 1.065-.721s.654.463.983.711a7.709 7.709 0 0 0 1.282.608 9.016 9.016 0 0 1-1.346-.912c-.443-.406-.979-.986-.979-.986z" style="fill:#adadad"/>
                    <path id="Path_47288" data-name="Path 47288" class="cls-10" d="M709.836 441.257a7.616 7.616 0 0 1-1.324-.631c-.248-.187-.681-.5-.877-.636a7.431 7.431 0 0 1-.994.662c-.469.241-1.3.589-1.331.6l-.147-.3a12.191 12.191 0 0 0 1.34-.9 6.983 6.983 0 0 0 .937-.962l.121-.155.134.144c0 .006.537.58.969.978a9.044 9.044 0 0 0 1.314.888zm-2.257-1.8a6.169 6.169 0 0 1-.465.5c.233-.165.409-.307.412-.309l.1-.079.1.073.1.071z"/>
                </g>
                <path id="Rectangle_2617" data-name="Rectangle 2617" class="cls-10" transform="translate(707.51 438.76)" d="M0 0h.119v.48H0z"/>
                <g id="Group_3260" data-name="Group 3260">
                    <path id="Path_47289" data-name="Path 47289" class="cls-12" d="M700.26 426.32a2.629 2.629 0 0 0-.44-.817.666.666 0 0 1 .3.147c-1.131-1.593-2.674-3.737-3.041-4.106-.6-.6-1.192-1.56-2.027-1.32-.617.177-1.715.562-2.109 3.581a52.6 52.6 0 0 0 0 8.212l.018-.014a2.523 2.523 0 0 1 .9-.86c.32-.2 2.385-1.56 2.742-1.92s.358-.36.6-.48a4.856 4.856 0 0 1 .835-.24c-.358-.36-1.32-.24-1.32-.24a6.134 6.134 0 0 1 1.976-.121c-.06-.241-.894-.359-.894-.359a4.356 4.356 0 0 1 1.208.14 4.313 4.313 0 0 0-1.566-.98 6.052 6.052 0 0 1 2.146.48c-.238-.84-2.384-1.68-2.384-1.68 1.073-.12 2.742 1.08 2.742 1.08-.239-.84-1.669-1.919-1.669-1.919a4.169 4.169 0 0 1 1.983 1.416z"/>
                    <path id="Path_47290" data-name="Path 47290" class="cls-13" d="m692.817 432.328-.042-.3a53.3 53.3 0 0 1 0-8.247c.418-3.2 1.642-3.551 2.23-3.721.771-.222 1.341.42 1.844.985.117.132.232.261.348.378.37.372 1.868 2.45 3.059 4.128l.58.817-.516-.368a2.077 2.077 0 0 1 .1.273l.2.679-.479-.516a9.595 9.595 0 0 0-.665-.655 2.8 2.8 0 0 1 .628 1l.131.464-.39-.28a8.483 8.483 0 0 0-1.24-.715 2.455 2.455 0 0 1 1.141 1.132l.1.347-.328-.146a6.424 6.424 0 0 0-1.1-.349 2.848 2.848 0 0 1 .719.588l.346.423-.522-.154a3.011 3.011 0 0 0-.121-.032.248.248 0 0 1 .017.048l.057.229-.233-.02c-.006 0-.292-.024-.652-.028a.724.724 0 0 1 .128.1l.222.223-.307.062a4.555 4.555 0 0 0-.792.226c-.214.108-.214.108-.553.448-.4.4-2.59 1.829-2.772 1.943a2.356 2.356 0 0 0-.842.8l-.044.052zm2.491-11.97a.746.746 0 0 0-.21.03c-.519.149-1.6.46-1.989 3.44a49.291 49.291 0 0 0-.029 7.733 3.33 3.33 0 0 1 .691-.561c.373-.234 2.377-1.558 2.713-1.9a1.809 1.809 0 0 1 .64-.511 2.38 2.38 0 0 1 .4-.142 2.886 2.886 0 0 0-.793-.02l-1.254.155 1.17-.479a3.474 3.474 0 0 1 1.122-.162l.023-.331a6.048 6.048 0 0 1 .645.032 5.282 5.282 0 0 0-1.06-.544l-.908-.328h.965a5.718 5.718 0 0 1 1.733.312 7.018 7.018 0 0 0-2.032-1.186l-.636-.249.678-.076a4.4 4.4 0 0 1 2.316.76 7.653 7.653 0 0 0-1.325-1.3l-.48-.363.6.06a2.43 2.43 0 0 1 1.179.6h.223c-1.505-2.112-2.469-3.41-2.729-3.671-.119-.12-.239-.255-.361-.391-.4-.445-.815-.91-1.3-.91z"/>
                </g>
                <ellipse id="Ellipse_428" data-name="Ellipse 428" class="cls-14" cx="4.173" cy="3.659" rx="4.173" ry="3.659" transform="translate(691.415 439.24)"/>
                <ellipse id="Ellipse_429" data-name="Ellipse 429" class="cls-14" cx="4.173" cy="3.659" rx="4.173" ry="3.659" transform="translate(714.783 439.24)"/>
                <g id="Group_3261" data-name="Group 3261">
                    <path id="Path_47291" data-name="Path 47291" class="cls-12" d="M721.639 420.7a11.064 11.064 0 0 0-2.742 1.56c-.8.577-2.312 1.879-3.219 2.64a6.547 6.547 0 0 0-1.445 1.675 1.389 1.389 0 0 1 .67-.175 3.538 3.538 0 0 0-.643 1.031c.518-.513 2.464-2.343 3.747-2.253 0 0-1.791.891-2.089 1.756a6.619 6.619 0 0 1 3.432-.632s-2.685.489-2.984 1.354a8.024 8.024 0 0 1 2.686-.1s-1.836.284-2.187 1.052a1.741 1.741 0 0 1 .9-.15s-.238.092-.238.276 1.073.3 1.192.424a13.294 13.294 0 0 0 1.908 1.2 9.073 9.073 0 0 1 1.652 1.064c-.127-.721.319-3.292.434-6.643.118-3.479-.359-4.079-1.074-4.079z"/>
                    <path id="Path_47292" data-name="Path 47292" class="cls-13" d="m722.521 431.844-.35-.288a9.017 9.017 0 0 0-1.6-1.034 12.9 12.9 0 0 1-1.973-1.241 3.955 3.955 0 0 0-.415-.109c-.5-.116-.826-.192-.826-.434a.377.377 0 0 1 .013-.1 2.383 2.383 0 0 0-.446.133l-.389.155.175-.382a2.118 2.118 0 0 1 1.263-.886 8.226 8.226 0 0 0-1.572.167l-.3.068.1-.287c.18-.521 1.043-.9 1.819-1.144a8.977 8.977 0 0 0-2.038.63l-.358.167.129-.375a3.156 3.156 0 0 1 1.211-1.28 10.382 10.382 0 0 0-2.594 1.953l-.51.5.234-.68a3.042 3.042 0 0 1 .4-.737 1.29 1.29 0 0 0-.186.084l-.535.293.31-.527a6.72 6.72 0 0 1 1.482-1.719l.62-.523c.875-.74 1.963-1.661 2.609-2.124a11.267 11.267 0 0 1 2.84-1.591.9.9 0 0 1 .689.274c.465.485.63 1.675.551 3.98-.058 1.7-.2 3.175-.312 4.36a13.1 13.1 0 0 0-.125 2.248zm-4.8-3.151a4.251 4.251 0 0 0 .544.151c.358.083.5.122.577.2a13.737 13.737 0 0 0 1.842 1.159 8.17 8.17 0 0 1 1.409.865c0-.435.063-1.085.146-1.951.113-1.18.253-2.648.311-4.339.074-2.146-.072-3.332-.457-3.734a.573.573 0 0 0-.448-.171A11.453 11.453 0 0 0 719 422.4c-.635.455-1.718 1.371-2.588 2.107l-.621.524a6.634 6.634 0 0 0-1.143 1.224 1.515 1.515 0 0 1 .26-.023h.381l-.224.246a5.182 5.182 0 0 1 2.958-1.467l.617.043-.555.276a6.57 6.57 0 0 0-1.748 1.25 5.766 5.766 0 0 1 3.057-.44l.749.191-.76.139a7.162 7.162 0 0 0-2.617.945 7.878 7.878 0 0 1 2.315-.021l1.065.168-1.065.165a5.106 5.106 0 0 0-1.668.561 1.214 1.214 0 0 1 .39.009l.56.117-.534.206a.343.343 0 0 0-.113.071z"/>
                </g>
                <path id="Path_47293" data-name="Path 47293" class="cls-3" d="m719.079 440.323-.182-.283c.06-.039 6.084-3.9 13.082-2.765l-.054.333c-6.871-1.117-12.787 2.676-12.846 2.715z"/>
                <path id="Path_47294" data-name="Path 47294" class="cls-3" d="M732.6 441.476c-6.453-2.624-13.058-.247-13.124-.222l-.115-.317c.067-.025 6.795-2.445 13.365.226z"/>
                <path id="Path_47295" data-name="Path 47295" class="cls-3" d="M697.045 440.323c-.059-.038-5.979-3.831-12.846-2.716l-.053-.333c7-1.138 13.021 2.726 13.081 2.765z"/>
                <path id="Path_47296" data-name="Path 47296" class="cls-3" d="m683.522 441.476-.126-.313c6.571-2.671 13.3-.251 13.365-.226l-.115.317c-.066-.025-6.676-2.4-13.124.222z"/>
            </g>
            <g id="Group_3263" data-name="Group 3263">
                <path id="Path_47297" data-name="Path 47297" class="cls-15" d="m709.648 487.985 34.1-16.3V429.86l-34.1 16.3z"/>
                <path id="Path_47298" data-name="Path 47298" class="cls-3" d="M709.48 488.252v-42.2l.1-.046 34.335-16.416v42.2l-.1.046zm.335-41.983v41.45l33.76-16.141v-41.45z"/>
            </g>
            <g id="Group_3264" data-name="Group 3264">
                <path id="Path_47299" data-name="Path 47299" class="cls-15" d="m709.55 487.986-44.9-17.71v-41.822l44.9 17.71z"/>
                <path id="Path_47300" data-name="Path 47300" class="cls-3" d="m709.714 488.233-45.231-17.842V428.2l45.236 17.842zm-44.9-18.072 44.569 17.579v-41.463l-44.57-17.577z"/>
            </g>
            <g id="Group_3265" data-name="Group 3265">
                <path id="Path_47301" data-name="Path 47301" d="M696.143 464.712 651.243 447l13.4-18.549 44.9 17.71z" style="fill:#efefef"/>
                <path id="Path_47302" data-name="Path 47302" class="cls-3" d="m696.2 464.917-.121-.048-45.1-17.789 13.611-18.833.121.048 45.1 17.789zm-44.7-17.992 44.577 17.582 13.2-18.269-44.57-17.583z"/>
            </g>
            <g id="Group_3270" data-name="Group 3270">
                <g id="Group_3266" data-name="Group 3266">
                    <path id="Path_47303" data-name="Path 47303" class="cls-5" d="M716.312 446.459c-1.6-.313-2.484-1.606-2.713-3.424-.523-4.165 2.09-6.736 6.6-8 3.859-1.082 8.743 1.209 9.421 5.156.426 2.484-.739 3.79-1.6 4.111a2.38 2.38 0 0 1-2.318-.091 2.955 2.955 0 0 1-1.866 1.154 3.244 3.244 0 0 1-2.316.019 3.8 3.8 0 0 1-1.872.857 4.945 4.945 0 0 1-1.786-.085 2.542 2.542 0 0 1-1.55.303z"/>
                    <path id="Path_47304" data-name="Path 47304" class="cls-3" d="M716.642 446.659a1.912 1.912 0 0 1-.362-.034c-1.585-.31-2.6-1.577-2.846-3.569-.5-3.981 1.825-6.811 6.726-8.186a8.492 8.492 0 0 1 6.643 1.061 6.34 6.34 0 0 1 2.988 4.23c.468 2.724-.914 4-1.71 4.3a2.729 2.729 0 0 1-2.331-.021 3.387 3.387 0 0 1-1.868 1.088 3.873 3.873 0 0 1-2.329.054 4.087 4.087 0 0 1-1.871.825 5.019 5.019 0 0 1-1.791-.073 2.863 2.863 0 0 1-1.249.325zm-.3-.365a2.369 2.369 0 0 0 1.438-.286.171.171 0 0 1 .125-.018 4.792 4.792 0 0 0 1.717.083 3.686 3.686 0 0 0 1.784-.813.168.168 0 0 1 .2-.022 3.219 3.219 0 0 0 2.188-.039 2.842 2.842 0 0 0 1.761-1.074.17.17 0 0 1 .115-.082.175.175 0 0 1 .136.035 2.225 2.225 0 0 0 2.153.063c.706-.262 1.926-1.42 1.5-3.925a6.011 6.011 0 0 0-2.837-4 8.153 8.153 0 0 0-6.374-1.021c-4.785 1.342-6.967 3.973-6.483 7.819a3.407 3.407 0 0 0 2.578 3.279z"/>
                </g>
                <g id="Group_3267" data-name="Group 3267">
                    <path id="Path_47305" data-name="Path 47305" class="cls-5" d="M725.746 444.178a3.776 3.776 0 0 0 .224-3.23"/>
                    <path id="Path_47306" data-name="Path 47306" class="cls-3" d="m725.882 444.277-.272-.2a3.666 3.666 0 0 0 .2-3.081l.32-.1a3.917 3.917 0 0 1-.248 3.381z"/>
                </g>
                <g id="Group_3268" data-name="Group 3268">
                    <path id="Path_47307" data-name="Path 47307" class="cls-5" d="M721.523 445.382s1.072-.846.4-3.282"/>
                    <path id="Path_47308" data-name="Path 47308" class="cls-3" d="m721.627 445.515-.208-.265c.01-.008.972-.824.341-3.1l.323-.09c.696 2.51-.409 3.417-.456 3.455z"/>
                </g>
                <g id="Group_3269" data-name="Group 3269">
                    <path id="Path_47309" data-name="Path 47309" class="cls-5" d="M717.888 446.128s.983-.894-.189-2.848"/>
                    <path id="Path_47310" data-name="Path 47310" class="cls-3" d="m718 446.253-.226-.249c.035-.034.859-.839-.219-2.637l.287-.174c1.23 2.049.203 3.02.158 3.06z"/>
                </g>
            </g>
            <g id="Group_3275" data-name="Group 3275">
                <g id="Group_3271" data-name="Group 3271">
                    <path id="Path_47311" data-name="Path 47311" class="cls-5" d="M692.112 445.286c1.733-.057 2.88-1.265 3.426-3.137 1.25-4.288-1.065-7.435-5.6-9.534-3.874-1.794-9.392-.217-10.768 3.817-.865 2.538.14 4.11.995 4.594a2.534 2.534 0 0 0 2.451.3 3.152 3.152 0 0 0 1.767 1.53 3.455 3.455 0 0 0 2.431.414 4.053 4.053 0 0 0 1.823 1.219 5.261 5.261 0 0 0 1.891.215 2.7 2.7 0 0 0 1.584.582z"/>
                    <path id="Path_47312" data-name="Path 47312" class="cls-3" d="M692.057 445.455a2.839 2.839 0 0 1-1.579-.582 5.326 5.326 0 0 1-1.894-.227 4.346 4.346 0 0 1-1.828-1.187 4.1 4.1 0 0 1-2.438-.451 3.587 3.587 0 0 1-1.78-1.465 2.884 2.884 0 0 1-2.454-.371c-.784-.445-2.018-2.019-1.07-4.795a6.72 6.72 0 0 1 3.845-3.931 9.026 9.026 0 0 1 7.151.015c4.914 2.275 6.881 5.642 5.688 9.735-.6 2.045-1.868 3.2-3.581 3.258h-.06zm-1.529-.923a.165.165 0 0 1 .106.039 2.5 2.5 0 0 0 1.47.547c2-.065 2.88-1.676 3.27-3.016 1.156-3.966-.7-7.106-5.506-9.333a8.679 8.679 0 0 0-6.879-.011 6.389 6.389 0 0 0-3.66 3.73c-.876 2.566.218 3.995.918 4.392a2.377 2.377 0 0 0 2.285.3.168.168 0 0 1 .229.062.114.114 0 0 1 .012.025 3.046 3.046 0 0 0 1.676 1.434 3.421 3.421 0 0 0 2.3.412.168.168 0 0 1 .2.055 3.952 3.952 0 0 0 1.744 1.162 5.133 5.133 0 0 0 1.823.205z"/>
                </g>
                <g id="Group_3272" data-name="Group 3272">
                    <path id="Path_47313" data-name="Path 47313" class="cls-5" d="M682.58 441.284a4.021 4.021 0 0 1 .307-3.432"/>
                    <path id="Path_47314" data-name="Path 47314" class="cls-3" d="M682.431 441.361a4.161 4.161 0 0 1 .307-3.584l.3.151a3.911 3.911 0 0 0-.307 3.282z"/>
                </g>
                <g id="Group_3273" data-name="Group 3273">
                    <path id="Path_47315" data-name="Path 47315" class="cls-5" d="M686.816 443.267s-.985-1.071.133-3.517"/>
                    <path id="Path_47316" data-name="Path 47316" class="cls-3" d="M686.693 443.382c-.043-.047-1.048-1.183.1-3.7l.3.141c-1.06 2.316-.172 3.322-.163 3.332z"/>
                </g>
                <g id="Group_3274" data-name="Group 3274">
                    <path id="Path_47317" data-name="Path 47317" class="cls-5" d="M690.51 444.67s-.882-1.107.677-2.961"/>
                    <path id="Path_47318" data-name="Path 47318" class="cls-3" d="M690.378 444.776c-.039-.05-.95-1.237.679-3.176l.256.218c-1.441 1.714-.705 2.706-.673 2.747z"/>
                </g>
            </g>
        </g>
        <ellipse id="Ellipse_430" data-name="Ellipse 430" class="cls-17" cx="4.251" cy="1.378" rx="4.251" ry="1.378" transform="rotate(-29.54 1234.595 -1123.804)"/>
        <ellipse id="Ellipse_431" data-name="Ellipse 431" class="cls-17" cx="4.251" cy="1.378" rx="4.251" ry="1.378" transform="rotate(-29.54 1228.772 -1157.366)"/>
        <g id="Group_3277" data-name="Group 3277" class="cls-18">
            <path id="Path_47319" data-name="Path 47319" class="cls-19" d="M719.642 470.254a15.513 15.513 0 0 0 .6-3.453 3.2 3.2 0 0 0-.868-2.334 1.6 1.6 0 0 1-.5-.967 5.635 5.635 0 0 1 .556-2.051 8.86 8.86 0 0 0 .81-3.281 4.927 4.927 0 0 0-.352-1.942l-2.6 1.237a.538.538 0 0 0 .068.022c.008 0 .838.232.838 1.657a4.972 4.972 0 0 1-.5 1.748 9.526 9.526 0 0 0-.868 3.584 3.334 3.334 0 0 0 .9 2.33 1.522 1.522 0 0 1 .466.882 14.546 14.546 0 0 1-.737 3.438 2.143 2.143 0 0 0-.057.2"/>
            <path id="Path_47320" data-name="Path 47320" class="cls-20" d="m717.565 471.362-.325-.082c.017-.07.037-.14.061-.212a14.327 14.327 0 0 0 .728-3.387 1.447 1.447 0 0 0-.428-.77 3.481 3.481 0 0 1-.939-2.436 9.65 9.65 0 0 1 .881-3.647 4.874 4.874 0 0 0 .486-1.685c0-1.271-.685-1.486-.714-1.495a.606.606 0 0 1-.082-.026l-.375-.139 3.123-1.483.068.161a5.129 5.129 0 0 1 .365 2.008 8.979 8.979 0 0 1-.822 3.342 5.552 5.552 0 0 0-.544 1.991c0 .262.147.473.46.861a3.389 3.389 0 0 1 .906 2.445 15.75 15.75 0 0 1-.606 3.494l-.323-.09a15.333 15.333 0 0 0 .593-3.413 3.018 3.018 0 0 0-.831-2.223 1.744 1.744 0 0 1-.534-1.073 5.761 5.761 0 0 1 .567-2.113 8.721 8.721 0 0 0 .8-3.219 4.963 4.963 0 0 0-.274-1.713l-2.122 1.008a1.9 1.9 0 0 1 .682 1.678 5.049 5.049 0 0 1-.51 1.811 9.356 9.356 0 0 0-.856 3.522 3.149 3.149 0 0 0 .863 2.223 1.653 1.653 0 0 1 .5.993 14.664 14.664 0 0 1-.747 3.489c-.016.058-.036.118-.051.18z"/>
        </g>
        <g id="Group_3278" data-name="Group 3278" class="cls-18">
            <path id="Path_47321" data-name="Path 47321" class="cls-19" d="M735.4 463.171a15.518 15.518 0 0 0 .6-3.454 3.2 3.2 0 0 0-.869-2.334 1.6 1.6 0 0 1-.5-.967 5.635 5.635 0 0 1 .556-2.051 8.861 8.861 0 0 0 .81-3.281 4.924 4.924 0 0 0-.352-1.942l-2.6 1.237a.545.545 0 0 0 .068.022c.008 0 .838.232.838 1.657a4.972 4.972 0 0 1-.5 1.748 9.525 9.525 0 0 0-.868 3.584 3.334 3.334 0 0 0 .9 2.33 1.522 1.522 0 0 1 .466.882 14.54 14.54 0 0 1-.737 3.438 2.143 2.143 0 0 0-.057.2"/>
            <path id="Path_47322" data-name="Path 47322" class="cls-20" d="m733.318 464.279-.325-.082c.018-.07.037-.14.061-.212a14.326 14.326 0 0 0 .728-3.387 1.447 1.447 0 0 0-.428-.77 3.481 3.481 0 0 1-.939-2.436 9.65 9.65 0 0 1 .88-3.647 4.874 4.874 0 0 0 .486-1.685c0-1.271-.685-1.486-.714-1.495a.612.612 0 0 1-.083-.026l-.375-.139 3.123-1.484.068.161a5.128 5.128 0 0 1 .365 2.008 8.978 8.978 0 0 1-.822 3.342 5.53 5.53 0 0 0-.544 1.991c0 .262.147.473.459.862a3.389 3.389 0 0 1 .906 2.445 15.75 15.75 0 0 1-.606 3.494l-.323-.09a15.449 15.449 0 0 0 .593-3.413 3.018 3.018 0 0 0-.831-2.223 1.744 1.744 0 0 1-.534-1.073 5.761 5.761 0 0 1 .567-2.113 8.721 8.721 0 0 0 .8-3.219 4.963 4.963 0 0 0-.274-1.713l-2.122 1.009a1.9 1.9 0 0 1 .682 1.678 5.049 5.049 0 0 1-.51 1.811 9.356 9.356 0 0 0-.856 3.522 3.149 3.149 0 0 0 .863 2.223 1.653 1.653 0 0 1 .5.993 14.715 14.715 0 0 1-.747 3.489 5.718 5.718 0 0 0-.048.179z"/>
        </g>
        <g id="Group_3282" data-name="Group 3282">
            <g id="Group_3279" data-name="Group 3279">
                <path id="Path_47323" data-name="Path 47323" class="cls-5" d="m721.426 454.021-1.751.857a1.276 1.276 0 0 1 .427 1.055 3.053 3.053 0 0 1-.428 1.474l1.751-.857a2.165 2.165 0 0 0 1.076-1.791c-.001-.696-.483-1.028-1.075-.738z"/>
                <path id="Path_47324" data-name="Path 47324" class="cls-21" d="m719.255 457.8.274-.477a2.867 2.867 0 0 0 .406-1.39 1.12 1.12 0 0 0-.361-.921l-.218-.166 2-.978a.909.909 0 0 1 .9 0 1.015 1.015 0 0 1 .413.895 2.346 2.346 0 0 1-1.17 1.942zm.707-2.875a1.585 1.585 0 0 1 .308 1.008 2.991 2.991 0 0 1-.231 1.108l1.314-.642a2.008 2.008 0 0 0 .982-1.639.694.694 0 0 0-.256-.609.587.587 0 0 0-.578.021z"/>
            </g>
            <g id="Group_3280" data-name="Group 3280">
                <path id="Path_47325" data-name="Path 47325" class="cls-5" d="m717.387 456-1.751.857a2.166 2.166 0 0 0-1.076 1.791c0 .7.484 1.028 1.075.739l1.752-.857a1.274 1.274 0 0 1-.427-1.056 3.04 3.04 0 0 1 .427-1.474z"/>
                <path id="Path_47326" data-name="Path 47326" class="cls-21" d="M715.223 459.657a.78.78 0 0 1-.418-.118 1.016 1.016 0 0 1-.414-.895 2.344 2.344 0 0 1 1.17-1.943l2.244-1.1-.275.478a2.863 2.863 0 0 0-.406 1.389 1.12 1.12 0 0 0 .361.921l.218.166-2 .977a1.115 1.115 0 0 1-.48.125zm1.8-3.294-1.314.643a2 2 0 0 0-.982 1.639.69.69 0 0 0 .256.609.585.585 0 0 0 .578-.022l1.538-.752a1.585 1.585 0 0 1-.308-1.008 2.994 2.994 0 0 1 .232-1.109z"/>
            </g>
            <g id="Group_3281" data-name="Group 3281">
                <path id="Path_47327" data-name="Path 47327" class="cls-22" d="M719.676 454.877 717.387 456a3.042 3.042 0 0 0-.428 1.474 1.274 1.274 0 0 0 .427 1.056l2.289-1.119a3.054 3.054 0 0 0 .428-1.474 1.277 1.277 0 0 0-.427-1.06z"/>
                <path id="Path_47328" data-name="Path 47328" class="cls-21" d="m717.366 458.719-.082-.063a1.44 1.44 0 0 1-.494-1.19 3.2 3.2 0 0 1 .451-1.559l.025-.045 2.427-1.187.082.063a1.44 1.44 0 0 1 .494 1.19 3.207 3.207 0 0 1-.451 1.558l-.025.045zm.14-2.6a2.843 2.843 0 0 0-.381 1.345 1.2 1.2 0 0 0 .286.855l2.142-1.048a2.843 2.843 0 0 0 .381-1.345 1.193 1.193 0 0 0-.286-.855z"/>
            </g>
        </g>
        <g id="Group_3286" data-name="Group 3286">
            <g id="Group_3283" data-name="Group 3283">
                <path id="Path_47329" data-name="Path 47329" class="cls-5" d="m737.192 446.958-1.752.857a1.276 1.276 0 0 1 .427 1.055 3.042 3.042 0 0 1-.428 1.474l1.751-.857a2.167 2.167 0 0 0 1.077-1.791c.001-.696-.483-1.028-1.075-.738z"/>
                <path id="Path_47330" data-name="Path 47330" class="cls-21" d="m735.021 450.737.274-.477a2.867 2.867 0 0 0 .406-1.39 1.12 1.12 0 0 0-.361-.921l-.218-.166 2-.977a.9.9 0 0 1 .9 0 1.014 1.014 0 0 1 .413.894 2.344 2.344 0 0 1-1.17 1.943zm.707-2.875a1.586 1.586 0 0 1 .308 1.009 2.988 2.988 0 0 1-.231 1.108l1.313-.642a2.007 2.007 0 0 0 .981-1.64.691.691 0 0 0-.256-.608.587.587 0 0 0-.578.021z"/>
            </g>
            <g id="Group_3284" data-name="Group 3284">
                <path id="Path_47331" data-name="Path 47331" class="cls-5" d="m733.153 448.934-1.751.857a2.166 2.166 0 0 0-1.076 1.791c0 .7.483 1.028 1.075.739l1.752-.857a1.277 1.277 0 0 1-.427-1.056 3.041 3.041 0 0 1 .427-1.474z"/>
                <path id="Path_47332" data-name="Path 47332" class="cls-21" d="M730.989 452.594a.763.763 0 0 1-.418-.118 1.014 1.014 0 0 1-.414-.9 2.344 2.344 0 0 1 1.17-1.942l2.244-1.1-.275.478a2.863 2.863 0 0 0-.405 1.389 1.12 1.12 0 0 0 .361.921l.218.166-2 .976a1.092 1.092 0 0 1-.481.13zm1.8-3.294-1.313.642a2 2 0 0 0-.982 1.64.691.691 0 0 0 .256.608.587.587 0 0 0 .578-.021l1.538-.752a1.586 1.586 0 0 1-.308-1.009 2.968 2.968 0 0 1 .23-1.108z"/>
            </g>
            <g id="Group_3285" data-name="Group 3285">
                <path id="Path_47333" data-name="Path 47333" class="cls-22" d="m735.442 447.815-2.289 1.119a3.043 3.043 0 0 0-.428 1.474 1.277 1.277 0 0 0 .427 1.056l2.289-1.119a3.043 3.043 0 0 0 .428-1.474 1.277 1.277 0 0 0-.427-1.056z"/>
                <path id="Path_47334" data-name="Path 47334" class="cls-21" d="m733.133 451.661-.082-.062a1.446 1.446 0 0 1-.494-1.19 3.208 3.208 0 0 1 .451-1.559l.025-.045 2.427-1.187.082.062a1.44 1.44 0 0 1 .494 1.19 3.208 3.208 0 0 1-.451 1.558l-.025.045zm.14-2.6a2.843 2.843 0 0 0-.381 1.345 1.2 1.2 0 0 0 .286.855l2.142-1.048a2.843 2.843 0 0 0 .381-1.345 1.193 1.193 0 0 0-.286-.855z"/>
            </g>
        </g>
        <g id="Group_3287" data-name="Group 3287">
            <path id="Line_120" data-name="Line 120" transform="translate(724.269 462.79)" style="fill:none" d="M0 2.569 5.728 0"/>
            <path id="Path_47335" data-name="Path 47335" class="cls-21" d="m724.337 465.514-.136-.308 5.728-2.569.136.308z"/>
        </g>
    </g>
</svg>
