<svg xmlns="http://www.w3.org/2000/svg" width="110" height="170" viewBox="0 0 110 170">
    <defs>
        <style>
            .cls-2{fill:#fff}.cls-3{fill:#262626}.cls-4{fill:#685447}.cls-5{fill:#ffeae0}.cls-7{fill:#ff8080}.cls-9{fill:#0a0a0a}.cls-11{fill:#ff4d96}
        </style>
    </defs>
    <g id="img_dormancymember" transform="translate(-478.991 -411)">
        <g id="Group_3375" transform="translate(-616.659 214.568)">
            <g id="Group_3355" transform="translate(1106.101 237.87)">
                <path id="Path_48780" d="M1178.055 297.98h-72.224c-4.71 0-8.593-4.262-8.852-9.584a8.958 8.958 0 0 1 .027-1.116c.172-2.359.83-11.763.83-17.54 0-6.644-.871-19.417-.871-19.417 0-5.583 3.99-10.151 8.866-10.151 0 0 28.567 1.661 36.692 1.661s35.531-1.661 35.531-1.661c4.289 0 7.891 3.533 8.7 8.183a10.065 10.065 0 0 1 .023 3.049c-.465 3.488-1.885 14.448-1.885 18.337 0 3.822 1.371 13.571 1.86 16.931a9.978 9.978 0 0 1-.006 3.176c-.825 4.625-4.418 8.132-8.691 8.132z" class="cls-2" transform="translate(-1096.149 -239.354)"/>
                <path id="Path_48781" d="M1178.106 298.769h-72.387c-5.092 0-9.3-4.549-9.588-10.356a10.047 10.047 0 0 1 .029-1.23c.194-2.665.829-11.8.829-17.471 0-6.537-.861-19.226-.871-19.354 0-6.112 4.306-11.033 9.6-11.033.323.018 28.743 1.661 36.775 1.661s35.3-1.643 35.575-1.659c4.6 0 8.566 3.717 9.456 8.841a10.97 10.97 0 0 1 .028 3.332c-.441 3.3-1.882 14.374-1.882 18.212 0 3.806 1.421 13.818 1.856 16.8a10.929 10.929 0 0 1-.011 3.475c-.906 5.085-4.864 8.782-9.409 8.782zm-72.423-57.808c-4.468 0-8.133 4.188-8.133 9.333.007.064.873 12.816.873 19.417 0 5.732-.639 14.927-.835 17.607a8.833 8.833 0 0 0-.025 1c.241 4.94 3.825 8.81 8.157 8.81h72.387c3.866 0 7.233-3.144 8.006-7.476a9.058 9.058 0 0 0 0-2.879c-.564-3.856-1.874-13.24-1.874-17.065 0-3.846 1.327-14.191 1.9-18.46a9.129 9.129 0 0 0-.018-2.765c-.757-4.359-4.127-7.524-8.013-7.524-.237.016-27.543 1.661-35.612 1.661s-36.526-1.643-36.813-1.66z" class="cls-3" transform="translate(-1096.118 -239.323)"/>
            </g>
            <g id="Group_3372" transform="translate(1104.799 235.549)">
                <g id="Group_3356" transform="translate(25.334 32.505)">
                    <path id="Path_48782" d="M1137.564 294.253s2.829 3.9 9.981 3.9 20.7-1.3 24.652-3.9 7.854-13 7.854-13l-5.2-9.752h-40.83l-2.078 12.485z" class="cls-4" transform="translate(-1131.122 -270.679)"/>
                    <path id="Path_48783" d="M1147.514 298.942c-7.484 0-10.517-4.066-10.644-4.24a.753.753 0 0 1-.055-.088l-5.623-10.27a.811.811 0 0 1-.09-.528l2.077-12.484a.82.82 0 0 1 .808-.685h40.831a.821.821 0 0 1 .723.435l5.2 9.751a.818.818 0 0 1 .044.673c-.163.436-4.041 10.684-8.171 13.4-4.334 2.852-18.487 4.036-25.1 4.036zm-9.292-5.168c.313.4 2.978 3.53 9.292 3.53 7.715 0 20.653-1.433 24.2-3.767 3.3-2.169 6.7-10.471 7.405-12.264l-4.793-8.986h-39.646l-1.917 11.52z" class="cls-3" transform="translate(-1131.091 -270.648)"/>
                </g>
                <g id="Group_3357" transform="translate(28.453 55.259)">
                    <path id="Path_48784" d="M1146.371 295.113v5.1c0 2.048.023 7.164-9.375 7.948l-1.567 2.176 17.247 18.013 15.664-18.554-.016-1.635c-4.551-1.3-9.4-3.917-9.6-7.85-.1-1.948 0-5.2 0-5.2z" class="cls-5" transform="translate(-1134.368 -294.294)"/>
                    <path id="Path_48785" d="M1152.675 329.547l-18.347-19.163 2.184-3.035.376-.031c8.625-.72 8.625-5.039 8.625-7.116v-5.938h14.014l-.025.844c0 .033-.1 3.242 0 5.134.22 4.268 6.95 6.517 9.008 7.1l.588.169.025 2.552zm-16.223-19.313L1152.6 327.1l14.879-17.626-.006-.727c-3.213-1-9.354-3.533-9.606-8.421-.069-1.363-.045-3.318-.022-4.424h-10.695v4.285c0 2.15 0 7.775-9.747 8.729z" class="cls-3" transform="translate(-1134.328 -294.263)"/>
                </g>
                <g id="Group_3358" transform="translate(25.563 11.051)">
                    <ellipse id="Ellipse_483" cx="20.901" cy="23.08" class="cls-5" rx="20.901" ry="23.08" transform="translate(0.819 0.819)"/>
                    <path id="Path_48786" d="M1153.049 296.18c-11.977 0-21.72-10.721-21.72-23.9s9.743-23.9 21.72-23.9 21.719 10.721 21.719 23.9-9.743 23.9-21.719 23.9zm0-46.159c-11.073 0-20.083 9.985-20.083 22.26s9.01 22.26 20.083 22.26 20.082-9.985 20.082-22.26-9.01-22.26-20.082-22.26z" class="cls-3" transform="translate(-1131.329 -248.383)"/>
                </g>
                <g id="Group_3359" transform="translate(34.436 8.293)">
                    <path id="Path_48787" fill="#493a31" d="M1142.406 254.418s2.55-2.941 9.542-1.515c0 0 5.507-2.413 10.243 1.427v-4.887l-9.892-3.073-8.1.868-2.808 3.191z" transform="translate(-1140.569 -245.552)"/>
                    <path id="Path_48788" d="M1142.375 255.2a.8.8 0 0 1-.195-.024.815.815 0 0 1-.6-.588l-1.019-3.988a.82.82 0 0 1 .179-.744l2.808-3.19a.821.821 0 0 1 .527-.274l8.1-.868a.834.834 0 0 1 .331.033l9.892 3.073a.819.819 0 0 1 .576.782v4.888a.819.819 0 0 1-1.335.636 9.556 9.556 0 0 0-9.4-1.311.832.832 0 0 1-.49.051c-6.353-1.3-8.743 1.23-8.767 1.256a.831.831 0 0 1-.607.268zm-.117-4.587l.6 2.369c1.4-.846 4.225-1.877 8.978-.962a11.358 11.358 0 0 1 9.5.711v-2.717l-9.155-2.844-7.618.817z" class="cls-3" transform="translate(-1140.538 -245.521)"/>
                </g>
                <g id="Group_3360" transform="translate(13.962)">
                    <path id="Path_48789" d="M1161.822 295.593s6.747 1.307 9.348-.589c0 0 4.551 1.264 7.152-1.263a15.827 15.827 0 0 0 4.326-14.295c-1.4-6.3-5.862-14.963-7.832-23.5-2.349-10.182-9.851-17.747-15.674-18.126-4.861-.315-5.852.632-7.476 1.58 0 0-1.3-1.264-5.2-1.264s-13.173 4.087-17.073 15.46-3.729 16.666-7.631 23.819-.651 18.215 8.451 17.583a23.016 23.016 0 0 0 10.084.023 18.292 18.292 0 0 1-5.207-11.079c-.65-6.95 3.9-18.323 4.551-20.851s.65-11.372 5.851-12.636 5.685 2.129 5.685 2.129a4.4 4.4 0 0 1 3.741-2.444c1.95 0 5.852 0 8.127 7.265 2.756 8.8 6.827 17.427 8.127 18.059s1.625 4.055 1.625 4.055l.649 2.526s-6.346 13.189-11.624 13.548z" class="cls-4" transform="translate(-1119.32 -236.945)"/>
                    <path id="Path_48790" d="M1166.427 296.829a27.513 27.513 0 0 1-4.792-.462.819.819 0 0 1 .1-1.622c3.843-.261 8.977-9.088 10.81-12.812l-.574-2.236a.8.8 0 0 1-.022-.125c-.135-1.4-.648-3.143-1.168-3.4-1.821-.885-6.092-10.7-8.551-18.552-2.1-6.692-5.51-6.692-7.345-6.692a3.563 3.563 0 0 0-3 1.972.81.81 0 0 1-.862.463.82.82 0 0 1-.691-.694 2.033 2.033 0 0 0-.881-1.239 4.946 4.946 0 0 0-3.8-.209c-3.638.884-4.417 6.49-4.881 9.839a22.172 22.172 0 0 1-.37 2.2c-.139.542-.439 1.441-.819 2.58-1.472 4.411-4.212 12.623-3.71 17.989a17.544 17.544 0 0 0 4.942 10.549.819.819 0 0 1-.341 1.4 23.588 23.588 0 0 1-10.362.011 9.385 9.385 0 0 1-8.789-4.451 14.663 14.663 0 0 1-.312-14.35c2.236-4.1 3.113-7.61 4.225-12.057.807-3.23 1.722-6.891 3.35-11.636 4.109-11.981 13.978-16.014 17.848-16.014a10.221 10.221 0 0 1 5.237 1.107c1.463-.886 2.849-1.721 7.494-1.421 5.9.383 13.86 7.665 16.418 18.759a101.66 101.66 0 0 0 4.381 13.219 79.778 79.778 0 0 1 3.453 10.283 16.516 16.516 0 0 1-4.557 15.059c-2.474 2.406-6.352 1.817-7.57 1.555a10.013 10.013 0 0 1-4.861.987zm-1.511-1.7c2.093.142 4.543.056 5.74-.816a.818.818 0 0 1 .7-.127c.04.012 4.14 1.1 6.363-1.061a15.1 15.1 0 0 0 4.1-13.53 78.417 78.417 0 0 0-3.384-10.053 104.206 104.206 0 0 1-4.447-13.435c-2.316-10.034-9.589-17.146-14.928-17.494-4.138-.268-5.2.376-6.545 1.191l-.468.279a.816.816 0 0 1-.983-.12s-1.2-1.032-4.63-1.032c-3.5 0-12.473 3.754-16.3 14.907-1.6 4.678-2.511 8.3-3.31 11.5-1.14 4.561-2.041 8.162-4.377 12.445a12.959 12.959 0 0 0 .253 12.682 7.721 7.721 0 0 0 7.423 3.691.818.818 0 0 1 .255.023 23.368 23.368 0 0 0 8.3.319 19.241 19.241 0 0 1-4.435-10.506c-.534-5.709 2.277-14.134 3.787-18.66.37-1.109.662-1.984.787-2.471.116-.451.217-1.178.333-2.021.522-3.763 1.4-10.06 6.117-11.207 2.175-.527 3.9-.372 5.131.463a3.713 3.713 0 0 1 .889.84 4.8 4.8 0 0 1 3.6-1.643c2.095 0 6.454 0 8.909 7.841 2.9 9.259 6.742 16.938 7.72 17.577 1.565.759 1.979 3.86 2.059 4.638l.633 2.467a.817.817 0 0 1-.055.559c-.553 1.14-4.689 9.525-9.237 12.752z" class="cls-3" transform="translate(-1119.289 -236.915)"/>
                </g>
                <path id="Path_48791" d="M1131.474 297.328a8.989 8.989 0 0 1-5.781-8.87 35.089 35.089 0 0 1 1.821-10.592 45.824 45.824 0 0 0 1.221-4.83l1.612.287a47.8 47.8 0 0 1-1.26 5 33.712 33.712 0 0 0-1.755 10.133c0 5.827 4.575 7.288 4.62 7.3z" class="cls-3" transform="translate(-1105.561 -238.23)"/>
                <path id="Path_48792" d="M1173.375 297.506l-.579-1.532c.195-.075 4.781-1.94 5.984-9.762l1.619.25c-1.358 8.824-6.793 10.957-7.024 11.044z" class="cls-3" transform="translate(-1107.276 -238.71)"/>
                <circle id="Ellipse_484" cx="2.275" cy="2.275" r="2.275" class="cls-3" transform="translate(35.905 35.925)"/>
                <circle id="Ellipse_485" cx="2.275" cy="2.275" r="2.275" class="cls-3" transform="translate(52.809 35.925)"/>
                <path id="Path_48793" d="M1153.354 290.423c-2.6 0-4.719-1.68-4.719-3.744h1.637c0 1.142 1.411 2.106 3.081 2.106s3.083-.965 3.083-2.106h1.638c0 2.065-2.118 3.744-4.72 3.744z" class="cls-3" transform="translate(-1106.396 -238.727)"/>
                <path id="Path_48794" d="M1141.461 270.746l-.733-.764a8.1 8.1 0 0 1 6.826-.524l-.61.867a7.575 7.575 0 0 0-5.483.421z" class="cls-3" transform="translate(-1106.108 -238.081)"/>
                <path id="Path_48795" d="M1165.1 270.746a7.574 7.574 0 0 0-5.482-.421l-.61-.867a8.1 8.1 0 0 1 6.826.524z" class="cls-3" transform="translate(-1106.774 -238.081)"/>
                <path id="Path_48796" d="M1144.588 283.868a1.664 1.664 0 0 1-1.664 1.663h-1.617a1.663 1.663 0 0 1-1.663-1.663 1.663 1.663 0 0 1 1.663-1.665h1.617a1.665 1.665 0 0 1 1.664 1.665z" class="cls-7" transform="translate(-1106.069 -238.564)"/>
                <path id="Path_48797" d="M1167.8 283.868a1.664 1.664 0 0 1-1.664 1.663h-1.617a1.664 1.664 0 0 1-1.663-1.663 1.664 1.664 0 0 1 1.663-1.665h1.617a1.665 1.665 0 0 1 1.664 1.665z" class="cls-7" transform="translate(-1106.915 -238.564)"/>
                <g id="Group_3361" transform="translate(63.955 37.176)">
                    <path id="Path_48798" d="M1172.24 276.5a4.272 4.272 0 0 1 1.134-.151 4.167 4.167 0 1 1 0 8.332 4.287 4.287 0 0 1-1.351-.217" class="cls-5" transform="translate(-1171.204 -275.527)"/>
                    <path id="Path_48799" d="M1173.343 285.466a5.126 5.126 0 0 1-1.608-.258.819.819 0 0 1 .514-1.555 3.472 3.472 0 0 0 1.095.175 3.348 3.348 0 1 0 0-6.694 3.458 3.458 0 0 0-.918.122.82.82 0 0 1-.432-1.581 5.177 5.177 0 0 1 1.35-.179 4.986 4.986 0 1 1 0 9.97z" class="cls-3" transform="translate(-1171.173 -275.496)"/>
                </g>
                <g id="Group_3362" transform="translate(24.786 37.353)">
                    <path id="Path_48800" d="M1137.229 276.852a4.311 4.311 0 0 0-1.107-.289 4.166 4.166 0 1 0-1.027 8.267 4.26 4.26 0 0 0 1.367-.048" class="cls-5" transform="translate(-1130.553 -275.71)"/>
                    <path id="Path_48801" d="M1135.6 285.652a5.13 5.13 0 0 1-4-1.924 4.937 4.937 0 0 1 .87-7.005 5.116 5.116 0 0 1 5.039-.659.819.819 0 0 1-.62 1.516 3.5 3.5 0 0 0-.9-.235 3.427 3.427 0 0 0-2.525.679 3.3 3.3 0 0 0-.582 4.687 3.486 3.486 0 0 0 3.389 1.238.819.819 0 1 1 .318 1.606 5.086 5.086 0 0 1-.989.097z" class="cls-3" transform="translate(-1130.522 -275.679)"/>
                </g>
                <path id="Path_48802" d="M1126.377 309.973l12.617-3.464 13.017 6.51 11.71-7.125 13.78 3.813-5.682 19.674v29.256c-.14-.172-40.243 0-40.243 0l-.066-29.256z" class="cls-2" transform="translate(-1105.585 -239.427)"/>
                <path id="Path_48803" d="M1131.628 360.1a.818.818 0 0 1-.818-.817l-.065-29.053-2.834-5.331a.819.819 0 0 1 1.447-.769l2.929 5.511a.816.816 0 0 1 .1.383l.064 29.256a.818.818 0 0 1-.817.821z" class="cls-3" transform="translate(-1105.638 -240.076)"/>
                <path id="Path_48804" d="M1173.506 360.016a.817.817 0 0 1-.818-.819v-29.256a.809.809 0 0 1 .08-.353l3.754-7.86a.818.818 0 1 1 1.477.705l-3.674 7.692V359.2a.818.818 0 0 1-.819.816z" class="cls-3" transform="translate(-1107.273 -239.987)"/>
                <path id="Path_48805" d="M1151.891 313.808a.817.817 0 0 1-.365-.087l-12.749-6.376-14.674 3.592a.819.819 0 0 1-.39-1.591l14.967-3.664a.828.828 0 0 1 .561.063l12.612 6.309 11.323-6.89a.826.826 0 0 1 .639-.092l15.912 4.279a.819.819 0 1 1-.425 1.581l-15.574-4.187-11.411 6.943a.82.82 0 0 1-.426.12z" class="cls-3" transform="translate(-1105.466 -239.396)"/>
                <g id="Group_3363" transform="translate(45.926 63.657)">
                    <path id="Path_44551" d="M1162.334 303.829l-9.022 9.351 7.165 6.683 6.932-12.948z" class="cls-2" transform="translate(-1152.493 -303.009)"/>
                    <path id="Path_48806" d="M1160.446 320.652a.82.82 0 0 1-.559-.221l-7.166-6.682a.821.821 0 0 1-.03-1.168l9.022-9.351a.816.816 0 0 1 1.015-.131l5.076 3.086a.817.817 0 0 1 .3 1.086l-6.932 12.948a.816.816 0 0 1-.588.421.787.787 0 0 1-.138.012zm-6-7.533l5.779 5.389 6.064-11.327-3.853-2.342z" class="cls-3" transform="translate(-1152.462 -302.978)"/>
                </g>
                <g id="Group_3364" transform="translate(31.829 63.657)">
                    <path id="Path_44553" d="M1143.965 303.828l8.03 9.352-6.173 6.682-7.142-12.947z" class="cls-2" transform="translate(-1137.863 -303.009)"/>
                    <path id="Path_48807" d="M1145.792 320.651a.859.859 0 0 1-.1-.006.818.818 0 0 1-.618-.418l-7.141-12.948a.818.818 0 0 1 .3-1.1l5.283-3.087a.819.819 0 0 1 1.035.173l8.03 9.352a.82.82 0 0 1-.02 1.09l-6.173 6.681a.816.816 0 0 1-.596.263zm-6.039-13.463l6.207 11.254 4.907-5.311-7.111-8.282z" class="cls-3" transform="translate(-1137.832 -302.978)"/>
                </g>
                <g id="Group_1661" transform="translate(19.595 110.463)">
                    <g id="Group_3365">
                        <path id="Path_44575" d="M1128.542 359.855a7.315 7.315 0 0 0 .214 1.021c.915 3.337 5.108 4.827 5.117 4.663l.533.178.041.015 2.082.691h.012l4.122 1.376a1.638 1.638 0 0 0 1.087-3.09l-.05-.016-2.112-.707 2.692.9a1.638 1.638 0 1 0 1.084-3.092l-.047-.016-2.691-.9 2.114.7a1.639 1.639 0 0 0 1.038-3.109l-2.114-.7 1.333.446a1.639 1.639 0 0 0 1.038-3.109l-6.924-2.3c-3.5-1.2-9.83.628-9.83.628l-1.294 5.619z" class="cls-5" transform="translate(-1125.166 -351.585)"/>
                        <path id="Path_48808" d="M1141.174 368.685a2.445 2.445 0 0 1-.812-.139l-4.112-1.372h-.014l-2.568-.856c-1.128-.216-4.829-1.957-5.731-5.251-.057-.2-.106-.4-.147-.606l-2.079-.649a.82.82 0 0 1-.553-.965l1.294-5.62a.819.819 0 0 1 .571-.6c.268-.077 6.619-1.882 10.322-.616l6.918 2.3a5.354 5.354 0 0 1 .514 7.577 10.276 10.276 0 0 0-1.281 5.166 2.462 2.462 0 0 1-2.322 1.631zm-4.357-3.046l4.076 1.358a.819.819 0 1 0 .554-1.541l-2.15-.72a.819.819 0 0 1 .519-1.553l2.691.9a.82.82 0 1 0 .554-1.543l-2.727-.911a.819.819 0 0 1 .518-1.554l2.114.7a.82.82 0 0 0 .506-1.559l-.673-.225c-.028-.007-.055-.015-.082-.024l-1.347-.451a.819.819 0 0 1 .518-1.554l1.387.462a.821.821 0 0 0 .455-1.574l-6.912-2.3c-2.7-.922-7.4.139-8.884.516l-1.014 4.4 1.834.573a.816.816 0 0 1 .566.671 6.54 6.54 0 0 0 .192.907c.7 2.569 3.688 3.885 4.313 4.07a.731.731 0 0 1 .276.041l2.652.885c.023.01.047.018.064.026z" class="cls-3" transform="translate(-1125.135 -351.554)"/>
                    </g>
                </g>
                <g id="Group_1662" transform="translate(0 70.657)">
                    <g id="Group_3366">
                        <path id="Path_44577" d="M1122.88 311.093l-17.23 27.412 19.58 22.713 9.4-11.749-11.748-13.314 7.3-12.878" class="cls-2" transform="translate(-1104.83 -310.273)"/>
                        <path id="Path_48809" d="M1125.2 362.005a.817.817 0 0 1-.621-.284L1105 339.008a.817.817 0 0 1-.073-.97l17.229-27.412a.819.819 0 1 1 1.387.871l-16.908 26.9 18.54 21.507 8.352-10.44-11.292-12.8a.818.818 0 0 1-.1-.945l7.3-12.879a.819.819 0 0 1 1.425.807l-7.01 12.371 11.36 12.882a.819.819 0 0 1 .026 1.053l-9.4 11.748a.817.817 0 0 1-.625.307z" class="cls-3" transform="translate(-1104.8 -310.243)"/>
                    </g>
                </g>
                <g id="Group_1661-2" transform="translate(52.472 110.463)">
                    <g id="Group_3367">
                        <path id="Path_44575-2" d="M1176.694 359.855a7.333 7.333 0 0 1-.214 1.021c-.914 3.337-5.108 4.827-5.118 4.663l-.532.178-.041.015-2.082.691h-.012l-4.123 1.376a1.638 1.638 0 1 1-1.086-3.09l.049-.016 2.113-.707-2.692.9a1.638 1.638 0 1 1-1.084-3.092l.047-.016 2.69-.9-2.113.7a1.639 1.639 0 0 1-1.038-3.109l2.114-.7-1.334.446a1.639 1.639 0 0 1-1.038-3.109l6.924-2.3c3.5-1.2 9.83.628 9.83.628l1.3 5.619z" class="cls-5" transform="translate(-1159.286 -351.585)"/>
                        <path id="Path_48810" d="M1164 368.687a2.457 2.457 0 0 1-2.389-3.04 2.65 2.65 0 0 1-.294-.119 7.641 7.641 0 0 0-1.689-4.8 2.466 2.466 0 0 0-.257-3.367 2.447 2.447 0 0 1 1.527-3.057l6.938-2.307c3.7-1.261 10.048.542 10.316.619a.819.819 0 0 1 .571.6l1.294 5.62a.82.82 0 0 1-.553.965l-2.079.649c-.042.207-.092.413-.149.615-.9 3.288-4.6 5.028-5.73 5.243l-2.571.857h-.014l-4.119 1.375a2.4 2.4 0 0 1-.802.147zm1.616-5.546a.819.819 0 0 1 .26 1.6l-2.112.707a.829.829 0 0 0-.539 1.056.82.82 0 0 0 1.044.5l4.134-1.38.05-.015 2.617-.874a.7.7 0 0 1 .277-.041c.625-.185 3.609-1.5 4.311-4.061a6.543 6.543 0 0 0 .193-.916.818.818 0 0 1 .567-.671l1.834-.573-1.014-4.4c-1.482-.377-6.185-1.44-8.878-.518l-6.93 2.3a.821.821 0 0 0 .478 1.567l1.376-.459a.819.819 0 0 1 .518 1.554l-1.334.447-.084.024-.7.233a.82.82 0 0 0 .533 1.551l2.1-.7a.819.819 0 0 1 .519 1.554l-2.687.9a.83.83 0 0 0-.54 1.057.82.82 0 0 0 1.045.5l2.7-.9a.821.821 0 0 1 .263-.042z" class="cls-3" transform="translate(-1159.255 -351.554)"/>
                    </g>
                </g>
                <g id="Group_1662-2" transform="translate(62.235 70.31)">
                    <g id="Group_3368">
                        <path id="Path_44577-2" d="M1181.087 310.733l18.129 27.759-19.58 22.713-9.4-11.749 11.748-13.314-7.947-12.1" class="cls-2" transform="translate(-1169.418 -309.914)"/>
                        <path id="Path_48811" d="M1179.6 361.992h-.014a.816.816 0 0 1-.625-.307l-9.4-11.748a.819.819 0 0 1 .026-1.053l11.334-12.845-7.6-11.573a.819.819 0 1 1 1.368-.9l7.947 12.1a.819.819 0 0 1-.07.992l-11.291 12.8 8.351 10.44 18.533-21.5-17.791-27.243a.819.819 0 0 1 1.372-.9l18.128 27.759a.82.82 0 0 1-.066.983l-19.58 22.712a.817.817 0 0 1-.622.283z" class="cls-3" transform="translate(-1169.387 -309.883)"/>
                    </g>
                </g>
                <g id="Group_3371" transform="translate(22.604 24.769)">
                    <g id="Group_3369">
                        <path id="Path_48812" fill="#050505" d="M1165.215 285.484c-6.316 0-9.945-6.047-13.439-6.047-4.166 0-5.644 6.047-12.9 6.047-7.034 0-10.617-4.777-10.617-10.616 0-5.839 3.492-8.756 10.617-10.617a53.979 53.979 0 0 1 26.34 0c5.816 1.424 10.617 4.777 10.617 10.617a10.352 10.352 0 0 1-10.618 10.616z" transform="translate(-1128.258 -262.62)"/>
                        <path id="Path_48813" d="M1152.045 263.584a71.913 71.913 0 0 1 12.941 1.6c3.69.9 9.882 3.363 9.882 9.681a9.441 9.441 0 0 1-9.653 9.652c-3.309 0-5.87-1.86-8.13-3.5-1.881-1.366-3.506-2.547-5.309-2.547-2.156 0-3.634 1.282-5.2 2.638-1.934 1.677-3.933 3.409-7.7 3.409-7.117 0-9.653-4.986-9.653-9.652 0-5.11 2.775-7.825 9.864-9.677a71.97 71.97 0 0 1 12.959-1.607m0-.964a72.365 72.365 0 0 0-13.17 1.631c-7.125 1.861-10.617 4.777-10.617 10.617s3.582 10.616 10.617 10.616c7.258 0 8.736-6.047 12.9-6.047 3.494 0 7.123 6.047 13.439 6.047a10.352 10.352 0 0 0 10.617-10.616c0-5.839-4.8-9.192-10.617-10.617a72.368 72.368 0 0 0-13.17-1.631z" class="cls-9" transform="translate(-1128.258 -262.62)"/>
                    </g>
                    <g id="Group_3370" transform="translate(1.075 1.31)">
                        <path id="Path_48814" fill="#232323" d="M1165.256 284.459c-3.273 0-5.818-1.849-8.064-3.48-1.9-1.378-3.535-2.567-5.375-2.567-2.2 0-3.691 1.294-5.272 2.664-1.917 1.663-3.9 3.383-7.63 3.383a9.411 9.411 0 0 1-7.156-2.772 9.759 9.759 0 0 1-2.386-6.769c0-5.262 3.726-7.883 9.541-9.542 0 0 9.46-1.4 13.389-1.4a113.486 113.486 0 0 1 12.951 1.4c5.379 1.223 9.541 4.28 9.541 9.542a9.613 9.613 0 0 1-2.636 6.75 9.485 9.485 0 0 1-6.903 2.791z" transform="translate(-1129.374 -263.979)"/>
                        <path id="Path_48815" d="M1152.3 264.943a112.087 112.087 0 0 1 12.767 1.379c3.287.753 8.762 2.866 8.762 8.6a8.656 8.656 0 0 1-2.365 6.079 8.531 8.531 0 0 1-6.213 2.5c-2.96 0-5.267-1.676-7.5-3.3-1.947-1.415-3.788-2.751-5.94-2.751-2.556 0-4.257 1.474-5.9 2.9-1.866 1.618-3.63 3.147-7 3.147a8.482 8.482 0 0 1-6.447-2.462 8.822 8.822 0 0 1-2.13-6.116c0-4.257 2.627-6.831 8.781-8.6.827-.12 9.537-1.377 13.186-1.377m0-.964c-3.928 0-13.389 1.4-13.389 1.4-5.815 1.659-9.541 4.28-9.541 9.542a9.759 9.759 0 0 0 2.386 6.769 9.411 9.411 0 0 0 7.156 2.772c3.728 0 5.712-1.72 7.63-3.383 1.581-1.37 3.075-2.664 5.272-2.664 1.839 0 3.478 1.189 5.375 2.567 2.245 1.631 4.791 3.48 8.064 3.48a9.484 9.484 0 0 0 6.9-2.791 9.613 9.613 0 0 0 2.636-6.75c0-5.262-4.162-8.319-9.541-9.542a113.486 113.486 0 0 0-12.951-1.4z" class="cls-9" transform="translate(-1129.374 -263.979)"/>
                    </g>
                    <path id="Path_48816" d="M1147.01 273.118l-.736-.329c-.529 1.185-2.567 2.046-4.845 2.046s-4.315-.86-4.845-2.046l-.736.329a2.968 2.968 0 0 0 .727.969l-.924 1.04.4.357.942-1.061a5.8 5.8 0 0 0 1.161.621l-.659 1.207.472.258.7-1.281a8.557 8.557 0 0 0 1.177.282l-.227 1.362.531.089.229-1.378a9.867 9.867 0 0 0 1.05.057h.2v1.481h.537v-1.506a9.269 9.269 0 0 0 1.161-.161l.468 1.288.5-.183-.447-1.23a7.3 7.3 0 0 0 1.184-.431l.809 1.105.434-.318-.762-1.04a3.535 3.535 0 0 0 1.499-1.527z" class="cls-11" transform="translate(-1128.527 -262.99)"/>
                    <path id="Path_48817" d="M1170.092 273.118l-.736-.329c-.529 1.185-2.567 2.046-4.845 2.046s-4.315-.86-4.845-2.046l-.736.329a2.97 2.97 0 0 0 .728.969l-.924 1.04.4.357.942-1.061a5.8 5.8 0 0 0 1.161.621l-.659 1.207.472.258.7-1.281a8.519 8.519 0 0 0 1.177.282l-.228 1.362.53.089.23-1.378a9.865 9.865 0 0 0 1.05.057h.2v1.481h.538v-1.506a9.226 9.226 0 0 0 1.16-.161l.469 1.288.505-.183-.447-1.23a7.288 7.288 0 0 0 1.184-.431l.809 1.105.434-.318-.762-1.04a3.534 3.534 0 0 0 1.493-1.527z" class="cls-11" transform="translate(-1129.368 -262.99)"/>
                </g>
            </g>
            <g id="Group_3373" transform="translate(1162.088 213.118)">
                <path id="Path_48818" d="M1171.4 214.607a1.7 1.7 0 0 1 .124.518 1.234 1.234 0 0 1-.044.477l-1.665 7.876 4.373-1.824.755 1.811-6.858 2.861-.41-.982a1.48 1.48 0 0 1-.092-.414 1.636 1.636 0 0 1 .032-.511l1.68-7.961-4.295 1.788-.751-1.8 6.735-2.81z" transform="translate(-1164.254 -213.635)"/>
            </g>
            <g id="Group_3374" transform="translate(1178.914 199.432)">
                <path id="Path_48819" d="M1193.6 203.136a2 2 0 0 1-.277.569 1.467 1.467 0 0 1-.4.4l-7.472 5.971 5.389 1.627-.674 2.232-8.453-2.551.366-1.21a1.72 1.72 0 0 1 .228-.449 1.992 1.992 0 0 1 .413-.446l7.552-6.037-5.283-1.595.669-2.22 8.3 2.506z" transform="translate(-1181.716 -199.432)"/>
            </g>
        </g>
    </g>
</svg>
