<svg xmlns="http://www.w3.org/2000/svg" width="110" height="170">
    <defs>
        <style>
            .cls-2{fill:#fff}.cls-3{fill:#262626}.cls-4{fill:#ffeae0}.cls-5{fill:#ff5200}.cls-7{fill:#f33}.cls-8{fill:#494949}
        </style>
    </defs>
    <g id="img_passwordsend" transform="translate(-468.991 -411)">
        <g id="Group_1663" data-name="Group 1663" transform="translate(480.767 411)">
            <g id="Group_3152" data-name="Group 3152" transform="translate(4.734 72.942)">
                <path id="Path_48698" data-name="Path 48698" class="cls-2" d="m489.455 482.18 20.364-5.18 18.473 9.73 16.619-10.648 19.556 5.7-7.362 29.4s-.591 43.869-.7 43.724c-.2-.258-56.687 0-56.687 0l-2.976-45.758z" transform="translate(-488.49 -475.118)"/>
                <path id="Path_48699" data-name="Path 48699" class="cls-3" d="M556.52 555.991a.89.89 0 0 1-.212-.025c-1.945-.161-34.727-.075-56.472.024a.965.965 0 0 1-.963-.9l-2.973-45.664-7.261-26.879a.967.967 0 0 1 .694-1.188l20.365-5.178a.975.975 0 0 1 .687.083l17.976 9.468 16.146-10.346a.96.96 0 0 1 .79-.114l19.557 5.7a.967.967 0 0 1 .667 1.162l-7.336 29.293c-.016 1.181-.154 11.457-.307 21.737-.079 5.464-.165 10.93-.235 15.03-.131 7.519-.131 7.519-.818 7.748a.973.973 0 0 1-.305.049zm-.262-1.862-.009-.03zm-15.5-.206c8.961 0 12.983.052 14.835.157.139-5.132.516-31.991.661-42.792a.965.965 0 0 1 .028-.22l7.137-28.5-18.243-5.316-16.247 10.408a.97.97 0 0 1-.971.041l-18.145-9.557-19.056 4.844 7.03 26.026a.991.991 0 0 1 .032.19l2.917 44.851c19.087-.087 31.693-.132 40.024-.132z" transform="translate(-488.605 -475.234)"/>
            </g>
            <g id="Group_1647" data-name="Group 1647" transform="translate(24.445 60.764)">
                <g id="Group_1646" data-name="Group 1646">
                    <g id="Group_1636" data-name="Group 1636" transform="translate(9.761)">
                        <path id="Rectangle_2438" data-name="Rectangle 2438" class="cls-2" transform="translate(1.136 1.137)" d="M0 0h18.375v22.363H0z"/>
                        <g id="Group_3153" data-name="Group 3153">
                            <path id="Path_44546" data-name="Path 44546" class="cls-4" d="M516.258 486.985h16.783V466.21h-16.783z" transform="translate(-514.328 -464.279)"/>
                            <path id="Path_44546-2" data-name="Path 44546" class="cls-3" d="M533.271 466.44v20.775h-16.783V466.44h16.783m0-1.93h-16.783a1.931 1.931 0 0 0-1.93 1.93v20.775a1.93 1.93 0 0 0 1.93 1.93h16.783a1.93 1.93 0 0 0 1.931-1.93V466.44a1.931 1.931 0 0 0-1.931-1.93z" transform="translate(-514.558 -464.51)"/>
                        </g>
                    </g>
                    <g id="Group_3154" data-name="Group 3154" transform="translate(9.233 24.208)">
                        <path id="Path_48700" data-name="Path 48700" class="cls-5" d="M525.711 486.678h-2.432L515 530.518l9.359 11.872 9.631-11.872z" transform="translate(-513.97 -485.713)"/>
                        <path id="Path_48701" data-name="Path 48701" class="cls-3" d="m524.471 544.052-10.378-13.166 8.509-45.058h4.032l8.51 45.066zm-8.318-13.671 8.34 10.579 8.589-10.587-8.048-42.615h-.834z" transform="translate(-514.093 -485.828)"/>
                    </g>
                    <g id="Group_3155" data-name="Group 3155" transform="translate(12.456 20.314)">
                        <path id="Path_48702" data-name="Path 48702" class="cls-5" d="m521.472 493.12 5.611.066 3.079-5.045-3.949-4.892H522.3L518.012 487z" transform="translate(-516.785 -482.284)"/>
                        <path id="Path_48703" data-name="Path 48703" class="cls-3" d="m527.768 494.272-6.716-.079-4.121-7.287 5.153-4.507h4.738l4.665 5.78zm-5.583-2 4.506.053 2.439-4-3.232-4.005h-3.088l-3.425 3z" transform="translate(-516.931 -482.399)"/>
                    </g>
                    <g id="Group_1645" data-name="Group 1645" transform="translate(0 8.376)">
                        <g id="Group_1644" data-name="Group 1644">
                            <g id="Group_1643" data-name="Group 1643">
                                <g id="Group_1641" data-name="Group 1641" transform="translate(20.104 .002)">
                                    <g id="Group_3156" data-name="Group 3156">
                                        <path id="Path_44551" data-name="Path 44551" class="cls-2" d="m534.4 472.737-9.881 11.989 7.62 7.533 10.529-15.353z" transform="translate(-523.551 -471.773)"/>
                                        <path id="Path_48704" data-name="Path 48704" class="cls-3" d="M532.252 493.339a.968.968 0 0 1-.679-.278l-7.62-7.533a.964.964 0 0 1-.066-1.3l9.881-11.989a.968.968 0 0 1 1.18-.246l8.267 4.169a.966.966 0 0 1 .362 1.408l-10.529 15.35a.958.958 0 0 1-.7.414.827.827 0 0 1-.096.005zm-6.314-8.564 6.171 6.1 9.251-13.489-6.593-3.325z" transform="translate(-523.667 -471.888)"/>
                                    </g>
                                </g>
                                <g id="Group_1642" data-name="Group 1642">
                                    <g id="Group_3157" data-name="Group 3157">
                                        <path id="Path_44553" data-name="Path 44553" class="cls-2" d="m515.082 472.736 9.881 11.989-7.619 7.533-10.531-15.353z" transform="translate(-505.847 -471.771)"/>
                                        <path id="Path_48705" data-name="Path 48705" class="cls-3" d="M517.46 493.338a.829.829 0 0 1-.092 0 .96.96 0 0 1-.7-.414l-10.531-15.352a.965.965 0 0 1 .361-1.408l8.269-4.169a.961.961 0 0 1 1.179.246l9.882 11.989a.967.967 0 0 1-.066 1.3l-7.619 7.533a.965.965 0 0 1-.683.275zm-9.112-15.952 9.254 13.489 6.171-6.1-8.829-10.713z" transform="translate(-505.962 -471.886)"/>
                                    </g>
                                </g>
                            </g>
                        </g>
                    </g>
                </g>
            </g>
            <g id="Group_1662" data-name="Group 1662" transform="translate(0 78.624)">
                <g id="Group_3158" data-name="Group 3158">
                    <path id="Path_44577" data-name="Path 44577" class="cls-2" d="M491.649 481.088a2.577 2.577 0 0 0-1.908 2.071l-4.42 40.851a2.583 2.583 0 0 0 .276 1.659l11.235 23.764a2.58 2.58 0 0 0 4 .678l11.635-10.576a2.581 2.581 0 0 0 .523-3.156L500.372 513.5a2.579 2.579 0 0 1 .216-2.821l1.6-2.077" transform="translate(-484.32 -480.123)"/>
                    <path id="Path_48706" data-name="Path 48706" class="cls-3" d="M499.224 551.864a3.547 3.547 0 0 1-3.124-1.855L484.84 526.2a3.512 3.512 0 0 1-.355-2.233l4.415-40.797a3.563 3.563 0 0 1 2.63-2.9.965.965 0 0 1 .476 1.871 1.615 1.615 0 0 0-1.195 1.3l-4.412 40.8a1.681 1.681 0 0 0 .166 1.095l11.259 23.81a1.588 1.588 0 0 0 1.125.776 1.631 1.631 0 0 0 1.356-.4l11.634-10.576a1.607 1.607 0 0 0 .327-1.975l-12.621-22.884a3.544 3.544 0 0 1 .3-3.875l1.6-2.077a.965.965 0 1 1 1.529 1.178l-1.6 2.077a1.613 1.613 0 0 0-.135 1.765l12.622 22.884a3.531 3.531 0 0 1-.72 4.336L501.6 550.94a3.518 3.518 0 0 1-2.376.924z" transform="translate(-484.435 -480.238)"/>
                </g>
            </g>
            <g id="Group_1662-2" data-name="Group 1662" transform="translate(61.261 77.702)">
                <g id="Group_3159" data-name="Group 3159">
                    <path id="Path_44577-2" data-name="Path 44577" class="cls-2" d="m547.217 505.954.773 6.172-8.758 23.317 9.8 24.233 12.648-33.155-3.642-44.909-3.535-1.334" transform="translate(-538.268 -479.31)"/>
                    <path id="Path_48707" data-name="Path 48707" class="cls-3" d="M549.147 560.756a.966.966 0 0 1-.895-.6l-9.8-24.234a.962.962 0 0 1-.009-.7l8.675-23.093-.744-5.937a.965.965 0 1 1 1.914-.24l.775 6.173a.958.958 0 0 1-.055.459l-8.626 22.963 8.737 21.607 11.696-30.654-3.574-44.081-2.964-1.12a.965.965 0 0 1 .681-1.806l3.536 1.334a.965.965 0 0 1 .621.826l3.641 44.909a.967.967 0 0 1-.06.421l-12.648 33.155a.963.963 0 0 1-.892.621z" transform="translate(-538.383 -479.426)"/>
                </g>
            </g>
        </g>
        <g id="Group_3164" data-name="Group 3164" transform="translate(477.991 506.423)">
            <g id="Group_3160" data-name="Group 3160" transform="translate(0 2.392)">
                <path id="Path_48708" data-name="Path 48708" class="cls-2" d="M526.964 534.613 489.849 508.9a4.466 4.466 0 0 0-7.008 3.671v51.415a4.466 4.466 0 0 0 7.008 3.671l37.115-25.708a4.466 4.466 0 0 0 0-7.336z" transform="translate(-481.876 -507.142)"/>
                <path id="Path_48709" data-name="Path 48709" class="cls-3" d="M487.424 569.539a5.436 5.436 0 0 1-5.433-5.434v-51.414a5.43 5.43 0 0 1 8.523-4.464l37.114 25.707a5.43 5.43 0 0 1 0 8.929l-37.114 25.708a5.429 5.429 0 0 1-3.09.968zm0-60.359a3.5 3.5 0 0 0-1.631.41 3.446 3.446 0 0 0-1.876 3.1v51.415a3.5 3.5 0 0 0 5.493 2.879l37.114-25.709a3.5 3.5 0 0 0 0-5.754l-37.114-25.707a3.473 3.473 0 0 0-1.982-.633z" transform="translate(-481.991 -507.257)"/>
            </g>
            <g id="Group_3161" data-name="Group 3161" transform="translate(45.09 2.751)">
                <path id="Path_48710" data-name="Path 48710" class="cls-2" d="m524.641 534.246 36.027-24.955a4.86 4.86 0 0 1 7.628 3.995V563.2a4.86 4.86 0 0 1-7.628 3.995l-36.027-24.955a4.859 4.859 0 0 1 0-7.994z" transform="translate(-521.583 -507.458)"/>
                <path id="Path_48711" data-name="Path 48711" class="cls-3" d="M563.548 569.139a5.814 5.814 0 0 1-3.313-1.04l-36.028-24.955a5.824 5.824 0 0 1 0-9.576l36.028-24.956a5.825 5.825 0 0 1 9.141 4.789v49.91a5.833 5.833 0 0 1-5.828 5.829zm-.006-59.643a3.857 3.857 0 0 0-2.209.7l-36.028 24.955a3.892 3.892 0 0 0 0 6.4l36.028 24.956a3.894 3.894 0 0 0 6.111-3.2V513.4a3.834 3.834 0 0 0-2.086-3.449 3.891 3.891 0 0 0-1.815-.451z" transform="translate(-521.698 -507.573)"/>
            </g>
            <g id="Group_3162" data-name="Group 3162" transform="translate(.797 19.274)">
                <path id="Path_48712" data-name="Path 48712" class="cls-2" d="m524.577 524.328-39.185 34.625a5.416 5.416 0 0 0 3.586 9.474h78.37a5.415 5.415 0 0 0 3.586-9.474l-39.185-34.625a5.415 5.415 0 0 0-7.172 0z" transform="translate(-482.577 -522.008)"/>
                <path id="Path_48713" data-name="Path 48713" class="cls-3" d="M567.465 569.507h-78.37a6.381 6.381 0 0 1-4.225-11.161l39.185-34.626a6.39 6.39 0 0 1 8.451 0l39.185 34.626a6.38 6.38 0 0 1-4.226 11.161zm-42.771-45.064.639.723-39.185 34.625a4.451 4.451 0 0 0 2.947 7.785h78.37a4.45 4.45 0 0 0 2.947-7.785l-39.185-34.625a4.457 4.457 0 0 0-5.894 0z" transform="translate(-482.693 -522.123)"/>
            </g>
            <g id="Group_3163" data-name="Group 3163" transform="translate(.982)">
                <path id="Path_48714" data-name="Path 48714" class="cls-2" d="m532 545.837 39.461-31.456c3.666-2.922 1.375-8.382-3.517-8.382h-78.92c-4.891 0-7.182 5.46-3.517 8.382l39.462 31.456a5.75 5.75 0 0 0 7.031 0z" transform="translate(-482.74 -505.035)"/>
                <path id="Path_48715" data-name="Path 48715" class="cls-3" d="M528.6 548.116a6.651 6.651 0 0 1-4.156-1.423l-39.462-31.6a5.3 5.3 0 0 1-1.714-6.274 6.162 6.162 0 0 1 5.87-3.673h78.925a6.243 6.243 0 0 1 5.87 3.673 5.235 5.235 0 0 1-1.715 6.274l-39.462 31.6a6.648 6.648 0 0 1-4.156 1.423zM489.139 506.9a4.256 4.256 0 0 0-4.064 2.543 3.624 3.624 0 0 0 1.187 4.345l39.462 31.6a4.7 4.7 0 0 0 5.755 0l39.461-31.6a3.625 3.625 0 0 0 1.188-4.345 4.257 4.257 0 0 0-4.064-2.543z" transform="translate(-482.855 -505.15)"/>
            </g>
        </g>
        <g id="Group_3170" data-name="Group 3170" transform="rotate(-74.99 585.753 -35.726)">
            <g id="Group_3166" data-name="Group 3166" transform="translate(0 3.645)">
                <rect id="Rectangle_2587" data-name="Rectangle 2587" class="cls-4" width="7.841" height="5.881" rx="2.589" transform="rotate(73.811 2.781 4.065)"/>
                <path id="Path_48718" data-name="Path 48718" class="cls-3" d="M495.4 512.794a3.923 3.923 0 0 1-3.751-2.817l-.549-1.877a3.906 3.906 0 1 1 7.5-2.179l.546 1.883a3.908 3.908 0 0 1-3.751 5zm-1.9-3.356a1.975 1.975 0 0 0 3.794-1.1l-.547-1.883a1.975 1.975 0 1 0-3.793 1.1z" transform="translate(-490.948 -503.101)"/>
            </g>
            <g id="Group_3167" data-name="Group 3167" transform="translate(4.764 1.809)">
                <rect id="Rectangle_2588" data-name="Rectangle 2588" class="cls-4" width="9.801" height="5.881" rx="2.589" transform="rotate(80.1 2.848 3.998)"/>
                <path id="Path_48719" data-name="Path 48719" class="cls-3" d="M499.718 513.16a3.917 3.917 0 0 1-3.843-3.234l-.674-3.861a3.91 3.91 0 0 1 3.175-4.52 3.914 3.914 0 0 1 4.52 3.176l.675 3.86a3.91 3.91 0 0 1-3.852 4.579zm-1.942-3.567a1.975 1.975 0 1 0 3.892-.68l-.675-3.86a1.957 1.957 0 0 0-.812-1.274 1.971 1.971 0 0 0-3.078 1.953z" transform="translate(-495.142 -501.485)"/>
            </g>
            <g id="Group_3168" data-name="Group 3168" transform="translate(9.422)">
                <rect id="Rectangle_2589" data-name="Rectangle 2589" class="cls-4" width="10.781" height="5.881" rx="2.589" transform="rotate(80.1 2.848 3.998)"/>
                <path id="Path_48720" data-name="Path 48720" class="cls-3" d="M503.989 512.532a3.914 3.914 0 0 1-3.843-3.233l-.844-4.827a3.906 3.906 0 0 1 7.7-1.344l.843 4.827a3.9 3.9 0 0 1-3.852 4.578zm-1.942-3.566a1.975 1.975 0 1 0 3.892-.679l-.843-4.827a1.969 1.969 0 0 0-.812-1.274 1.989 1.989 0 0 0-1.473-.333 1.985 1.985 0 0 0-1.607 2.286z" transform="translate(-499.245 -499.892)"/>
            </g>
            <g id="Group_3169" data-name="Group 3169" transform="translate(14.723 .092)">
                <rect id="Rectangle_2590" data-name="Rectangle 2590" class="cls-4" width="9.801" height="5.881" rx="2.589" transform="rotate(90.983 2.98 3.932)"/>
                <path id="Path_48721" data-name="Path 48721" class="cls-3" d="M507.819 511.708h-.069a3.914 3.914 0 0 1-3.837-3.971l.067-3.921a3.879 3.879 0 0 1 1.194-2.739 3.74 3.74 0 0 1 2.779-1.1 3.913 3.913 0 0 1 3.838 3.972l-.067 3.92a3.916 3.916 0 0 1-3.9 3.838zm.066-9.8a1.985 1.985 0 0 0-1.975 1.942l-.067 3.92a1.983 1.983 0 0 0 1.941 2.008 2.055 2.055 0 0 0 1.4-.556 1.953 1.953 0 0 0 .6-1.384l.067-3.92a1.984 1.984 0 0 0-1.941-2.009z" transform="translate(-503.912 -499.973)"/>
            </g>
        </g>
        <g id="Group_3175" data-name="Group 3175" transform="rotate(83 -5.48 584.58)">
            <g id="Group_3171" data-name="Group 3171" transform="translate(14.242 3.639)">
                <rect id="Rectangle_2591" data-name="Rectangle 2591" class="cls-4" width="7.841" height="5.881" rx="2.589" transform="rotate(106.189 3.333 3.992)"/>
                <path id="Path_48722" data-name="Path 48722" class="cls-3" d="M555.005 510.966a3.867 3.867 0 0 1-1.086-.156 3.912 3.912 0 0 1-2.663-4.841l.547-1.882a3.906 3.906 0 1 1 7.5 2.178l-.546 1.882a3.916 3.916 0 0 1-3.752 2.819zm.551-7.765a1.978 1.978 0 0 0-1.9 1.426l-.547 1.882a1.975 1.975 0 0 0 3.794 1.1l.546-1.884a1.978 1.978 0 0 0-1.347-2.448 1.949 1.949 0 0 0-.546-.077z" transform="translate(-551.102 -501.268)"/>
            </g>
            <g id="Group_3172" data-name="Group 3172" transform="translate(9.351 1.808)">
                <rect id="Rectangle_2592" data-name="Rectangle 2592" class="cls-4" width="9.801" height="5.881" rx="2.589" transform="rotate(99.9 3.355 4.113)"/>
                <path id="Path_48723" data-name="Path 48723" class="cls-3" d="M550.7 511.331a3.967 3.967 0 0 1-.671-.058 3.912 3.912 0 0 1-3.176-4.521l.675-3.862a3.906 3.906 0 0 1 7.695 1.344l-.674 3.862a3.914 3.914 0 0 1-3.849 3.235zm.674-9.744a1.987 1.987 0 0 0-1.945 1.635l-.674 3.863a1.975 1.975 0 1 0 3.89.679l.675-3.862a1.983 1.983 0 0 0-1.606-2.286 2.024 2.024 0 0 0-.339-.03z" transform="translate(-546.794 -499.655)"/>
            </g>
            <g id="Group_3173" data-name="Group 3173" transform="translate(4.523)">
                <rect id="Rectangle_2593" data-name="Rectangle 2593" class="cls-4" width="10.781" height="5.881" rx="2.589" transform="rotate(99.9 3.439 4.184)"/>
                <path id="Path_48724" data-name="Path 48724" class="cls-3" d="M546.452 510.7a3.91 3.91 0 0 1-3.85-4.577l.843-4.827a3.906 3.906 0 0 1 7.695 1.344l-.843 4.828a3.91 3.91 0 0 1-3.845 3.232zm.84-10.707a1.978 1.978 0 0 0-1.945 1.635l-.843 4.827a1.975 1.975 0 0 0 3.89.68l.843-4.828a1.983 1.983 0 0 0-1.606-2.286 2.026 2.026 0 0 0-.339-.026z" transform="translate(-542.543 -498.063)"/>
            </g>
            <g id="Group_3174" data-name="Group 3174" transform="translate(0 .091)">
                <rect id="Rectangle_2594" data-name="Rectangle 2594" class="cls-4" width="9.801" height="5.881" rx="2.589" transform="rotate(89.03 2.93 3.915)"/>
                <path id="Path_48725" data-name="Path 48725" class="cls-3" d="M542.532 509.879a3.916 3.916 0 0 1-3.905-3.839l-.067-3.92a3.914 3.914 0 0 1 3.838-3.972 3.746 3.746 0 0 1 2.779 1.1 3.879 3.879 0 0 1 1.193 2.739l.067 3.921a3.912 3.912 0 0 1-3.837 3.972zm-.066-9.8h-.035a1.983 1.983 0 0 0-1.941 2.008l.067 3.92a1.959 1.959 0 0 0 .605 1.384 2.086 2.086 0 0 0 1.4.558 1.979 1.979 0 0 0 1.941-2.009l-.067-3.92a1.981 1.981 0 0 0-1.974-1.941z" transform="translate(-538.56 -498.143)"/>
            </g>
        </g>
        <g id="Group_3378" data-name="Group 3378" transform="translate(-26.406)">
            <g id="Group_3343" data-name="Group 3343" transform="translate(496.991 551.43)">
                <path id="Rectangle_2633" data-name="Rectangle 2633" class="cls-2" transform="translate(1.435 1.435)" d="M0 0h104.709v26.7H0z"/>
                <path id="Path_48771" data-name="Path 48771" d="M717.08 456.735H609.5v-29.571h107.58zm-104.935-2.871h102.29v-23.829h-102.29z" transform="translate(-609.5 -427.164)" style="fill:#3f3f3f"/>
            </g>
            <circle id="Ellipse_476" data-name="Ellipse 476" class="cls-7" cx="5.01" cy="5.01" r="5.01" transform="translate(512.58 561.063)"/>
            <circle id="Ellipse_477" data-name="Ellipse 477" class="cls-7" cx="5.01" cy="5.01" r="5.01" transform="translate(527.155 561.063)"/>
            <circle id="Ellipse_478" data-name="Ellipse 478" class="cls-7" cx="5.01" cy="5.01" r="5.01" transform="translate(541.73 561.063)"/>
            <circle id="Ellipse_479" data-name="Ellipse 479" class="cls-7" cx="5.01" cy="5.01" r="5.01" transform="translate(556.306 561.063)"/>
            <circle id="Ellipse_480" data-name="Ellipse 480" class="cls-7" cx="5.01" cy="5.01" r="5.01" transform="translate(570.881 561.063)"/>
        </g>
        <g id="Group_3386" data-name="Group 3386" transform="translate(-156.873 61.072)">
            <g id="Group_3381" data-name="Group 3381" transform="translate(650.32 387.818)">
                <circle id="Ellipse_489" data-name="Ellipse 489" class="cls-4" cx="7.392" cy="7.392" r="7.392" transform="translate(.838 .838)"/>
                <path id="Path_48824" data-name="Path 48824" class="cls-3" d="M658.554 404.832a8.229 8.229 0 1 1 8.229-8.228 8.238 8.238 0 0 1-8.229 8.228zm0-14.783a6.554 6.554 0 1 0 6.554 6.555 6.562 6.562 0 0 0-6.554-6.556z" transform="translate(-650.325 -388.374)"/>
            </g>
            <g id="Group_3382" data-name="Group 3382" transform="translate(698.612 387.818)">
                <circle id="Ellipse_490" data-name="Ellipse 490" class="cls-4" cx="7.392" cy="7.392" r="7.392" transform="translate(.837 .838)"/>
                <path id="Path_48825" data-name="Path 48825" class="cls-3" d="M707.555 404.832a8.229 8.229 0 1 1 8.228-8.228 8.237 8.237 0 0 1-8.228 8.228zm0-14.783a6.554 6.554 0 1 0 6.554 6.555 6.563 6.563 0 0 0-6.554-6.556z" transform="translate(-699.326 -388.374)"/>
            </g>
            <g id="Group_3383" data-name="Group 3383" transform="translate(657.219 364.165)">
                <rect id="Rectangle_2664" data-name="Rectangle 2664" class="cls-4" width="48.291" height="52.234" rx="24.146" transform="translate(.838 .838)"/>
                <path id="Path_48826" data-name="Path 48826" class="cls-3" d="M682.308 418.282a25.011 25.011 0 0 1-24.983-24.982v-3.942a24.983 24.983 0 1 1 49.967 0v3.942a25.011 25.011 0 0 1-24.984 24.982zm0-52.233A23.335 23.335 0 0 0 659 389.357v3.943a23.309 23.309 0 0 0 46.617 0v-3.942a23.335 23.335 0 0 0-23.309-23.309z" transform="translate(-657.325 -364.374)"/>
            </g>
            <rect id="Rectangle_2665" data-name="Rectangle 2665" class="cls-3" width="3.942" height="4.928" rx="1.971" transform="translate(669.391 387.177)"/>
            <rect id="Rectangle_2666" data-name="Rectangle 2666" class="cls-3" width="3.942" height="4.928" rx="1.971" transform="translate(691.072 387.177)"/>
            <path id="Path_48827" data-name="Path 48827" class="cls-3" d="M682.985 398.554a.837.837 0 0 1-.706-1.287l2.188-3.437-2.716-1.767v-7.429a.838.838 0 0 1 1.676 0v6.52l3.344 2.175-3.079 4.836a.837.837 0 0 1-.707.389z" transform="translate(-.46 -.49)"/>
            <path id="Path_48828" data-name="Path 48828" class="cls-3" d="M683.54 408.926a9.225 9.225 0 0 1-9.215-9.214.838.838 0 1 1 1.675 0 7.54 7.54 0 0 0 15.08 0 .837.837 0 1 1 1.674 0 9.225 9.225 0 0 1-9.214 9.214z" transform="translate(-.352 -.708)"/>
            <g id="Group_3384" data-name="Group 3384" transform="translate(694.034 360.867)">
                <path id="Path_48829" data-name="Path 48829" class="cls-8" d="M697.636 370.772s0 3.942 8.87 14.783l.985 4.928s5.243-9.478 2.474-18.408c-3.459-11.158-10.358-10.173-10.358-10.173l-3.932 4.086z" transform="translate(-694.694 -361.04)"/>
                <path id="Path_48830" data-name="Path 48830" class="cls-3" d="m707.1 392.876-1.393-6.965c-7.941-9.739-8.824-13.981-8.917-14.961l-2.114-5.161 4.509-4.687.286-.04c.306-.044 7.647-.957 11.277 10.753 2.842 9.166-2.32 18.662-2.541 19.061zm-8.644-22.13c.01.15.381 4.124 8.681 14.267l.132.162.518 2.6c1.318-3.273 3.2-9.541 1.361-15.459-2.834-9.138-7.96-9.607-9.179-9.607l-3.329 3.459 1.816 4.431z" transform="translate(-694.68 -361.027)"/>
            </g>
            <path id="Path_48831" data-name="Path 48831" class="cls-3" d="m708.375 388.555-1.675-.025c.256-17.711-7.8-23.075-7.876-23.128l.894-1.416c.365.229 8.928 5.827 8.657 24.569z" transform="translate(-.706 -.203)"/>
            <path id="Path_48832" data-name="Path 48832" d="M696.535 371.805s-2.957-2.957-8.22-1.534l-.65-3.393 5.305-1.654 4.55.668.986 7.758a4.6 4.6 0 0 0-1.971-1.845z" transform="translate(-.545 -.221)" style="fill:#2d2d2d"/>
            <g id="Group_3385" data-name="Group 3385" transform="translate(649.974 349.928)">
                <path id="Path_48833" data-name="Path 48833" class="cls-8" d="M660.535 384.409s7.332.168 10.841-5.913c0 0 13.194 2.414 15.769-7.884.986-3.942 3.942-3.942 4.928-3.942a6.235 6.235 0 0 1 4.927 3.941s2.957-1.652 2.957-6.9c0-2.957-.986-4.928-4.928-7.884s-12.776-5.671-18.725-4.928c-7.884.986-20.7 5.913-21.682 19.711 0 0 0 4.928-2.957 6.9 0 0 3.942 1.971 5.913-.986l.21 11.158a6.28 6.28 0 0 1 2.747-3.273z" transform="translate(-649.998 -349.94)"/>
                <path id="Path_48834" data-name="Path 48834" class="cls-3" d="m657.015 392.393-.264-14a6.206 6.206 0 0 1-5.486-.146l-1.291-.646 1.2-.8c2.543-1.7 2.583-6.159 2.583-6.2.943-13.227 12.665-19.322 22.416-20.541 6.154-.774 15.283 2.052 19.332 5.088 3.935 2.951 5.263 5.11 5.263 8.555 0 5.673-3.247 7.552-3.385 7.63l-.822.459-.361-.869a5.479 5.479 0 0 0-4.154-3.426c-.984 0-3.288 0-4.116 3.307-2.411 9.645-13.483 8.912-16.152 8.587-3.474 5.429-9.759 5.823-11.061 5.844a5.58 5.58 0 0 0-2.163 2.708zm1.326-18.573.208 11.024a5.679 5.679 0 0 1 1.587-1.2l.185-.093h.208c.074 0 6.89.067 10.1-5.494l.295-.51.581.1c.509.093 12.453 2.145 14.807-7.262.758-3.037 2.689-4.577 5.74-4.577a6.959 6.959 0 0 1 5.2 3.467 7.829 7.829 0 0 0 1.842-5.586c0-2.555-.687-4.285-4.593-7.214-3.793-2.845-12.349-5.485-18.119-4.767-3.3.413-19.831 3.266-20.951 18.939 0 .139-.026 4.048-2.174 6.516a3.2 3.2 0 0 0 3.6-1.127z" transform="translate(-649.974 -349.928)"/>
            </g>
            <path id="Path_48835" data-name="Path 48835" class="cls-3" d="m670.221 381.189-1.13-1.237c2.143-1.957 3.474-6.25 4.648-10.037.955-3.083 1.857-5.994 3.148-7.607a11.793 11.793 0 0 1 15.94-2.118l-1.005 1.34a10.082 10.082 0 0 0-13.627 1.824c-1.092 1.365-1.948 4.13-2.855 7.056-1.299 4.19-2.64 8.514-5.119 10.779z" transform="translate(-.276 -.117)"/>
        </g>
    </g>
</svg>
