<svg xmlns="http://www.w3.org/2000/svg" width="110" height="150" viewBox="0 0 110 150">
    <defs>
        <style>
            .cls-6{fill:#fff}.cls-2{fill:#ffeae0}.cls-3{fill:#262626}.cls-4{fill:#494949}.cls-7{fill:#685447}.cls-9{fill:#ff8080}
        </style>
    </defs>
    <g id="img_existingmember" transform="translate(-630.445 -305.615)">
        <g id="Group_1879" transform="translate(636.655 310.616)">
            <g id="Group_1867" transform="translate(21.834 49.325)">
                <path id="Rectangle_2489" d="M0 0H15.08V12.926H0z" class="cls-2" transform="translate(0.666 0.667)"/>
                <path id="Path_45638" d="M674.217 372.757H657.8v-14.262h16.416zm-15.08-1.339h13.746V359.83h-13.748z" class="cls-3" transform="translate(-657.803 -358.495)"/>
            </g>
            <g id="Group_1873" transform="translate(4.917)">
                <g id="Group_1868" transform="translate(0 28.662)">
                    <circle id="Ellipse_432" cx="5.702" cy="5.702" r="5.702" class="cls-2" transform="translate(0.719 0.561)"/>
                    <path id="Path_45639" d="M647.814 351.047h-.254a6.306 6.306 0 1 1 .254 0zm-.007-11.405a5.058 5.058 0 1 0 5.057 5.254 5.061 5.061 0 0 0-4.864-5.255h-.2z" class="cls-3" transform="translate(-641.382 -338.438)"/>
                </g>
                <g id="Group_1869" transform="translate(37.311 30.036)">
                    <circle id="Ellipse_433" cx="5.702" cy="5.702" r="5.702" class="cls-2" transform="translate(0.636 0.637)"/>
                    <path id="Path_45640" d="M683.941 352.457h-.241a6.345 6.345 0 1 1 6.587-6.094 6.353 6.353 0 0 1-6.346 6.094zm-.008-11.405a5.048 5.048 0 1 0 .206 0z" class="cls-3" transform="translate(-677.599 -339.771)"/>
                </g>
                <g id="Group_1870" transform="translate(5.473 11.158)">
                    <path id="Rectangle_2490" d="M666.789 321.976a18.629 18.629 0 0 1 17.889 19.34l-.118 3.038a18.627 18.627 0 0 1-19.338 17.89 18.629 18.629 0 0 1-17.891-19.337l.119-3.038a18.628 18.628 0 0 1 19.339-17.893z" class="cls-2" transform="translate(-646.676 -321.431)"/>
                    <path id="Path_45641" d="M665.975 362.919c-.252 0-.5-.005-.76-.014a19.294 19.294 0 0 1-18.507-20.005l.123-3.039a19.272 19.272 0 0 1 38.514 1.5l-.123 3.039a19.3 19.3 0 0 1-19.247 18.519zm-.709-1.3a18.03 18.03 0 0 0 18.672-17.271l.123-3.039a17.985 17.985 0 0 0-35.943-1.4l-.118 3.039a18.006 18.006 0 0 0 17.271 18.67z" class="cls-3" transform="translate(-646.694 -321.447)"/>
                </g>
                <path id="Rectangle_2491" d="M657.507 338.254a1.521 1.521 0 0 1 1.46 1.578l-.031.759a1.519 1.519 0 0 1-1.576 1.46 1.522 1.522 0 0 1-1.46-1.578l.031-.759a1.52 1.52 0 0 1 1.577-1.46z" class="cls-3" transform="translate(-640.943 -309.781)"/>
                <path id="Rectangle_2492" d="M673.732 338.886a1.52 1.52 0 0 1 1.46 1.577l-.03.757a1.522 1.522 0 0 1-1.578 1.462 1.521 1.521 0 0 1-1.46-1.58l.029-.757a1.519 1.519 0 0 1 1.578-1.46z" class="cls-3" transform="translate(-640.453 -309.762)"/>
                <path id="Path_45642" d="M665.544 347.058a.643.643 0 0 1-.529-1.01l1.793-2.59-2.042-1.442.223-5.726a.657.657 0 0 1 .669-.618.644.644 0 0 1 .618.669l-.2 5.028 2.513 1.777-2.517 3.633a.639.639 0 0 1-.528.279z" class="cls-3" transform="translate(-640.675 -309.859)"/>
                <path id="Path_45643" d="M666.177 354.579h-.277a7.109 7.109 0 0 1-6.824-7.376.643.643 0 1 1 1.286.05 5.82 5.82 0 0 0 11.63.452.654.654 0 0 1 .668-.618.643.643 0 0 1 .618.669 7.127 7.127 0 0 1-7.1 6.829z" class="cls-3" transform="translate(-640.847 -309.53)"/>
                <g id="Group_1871" transform="translate(34.691 9.03)">
                    <path id="Path_45644" d="M677.151 326.793s-.124 3.039 6.393 11.663l.611 3.828s4.328-7.15 2.46-14.114c-2.331-8.706-7.679-8.152-7.679-8.152l-3.153 3.033z" class="cls-4" transform="translate(-675.034 -319.363)"/>
                    <path id="Path_45645" d="M683.819 344.139l-.862-5.4c-5.829-7.748-6.387-11.044-6.424-11.8l-1.476-4.043 3.617-3.476.221-.024c.244-.022 5.922-.5 8.367 8.628 1.916 7.151-2.349 14.315-2.531 14.617zm-6-17.307c0 .114.17 3.194 6.264 11.26l.1.123.323 2.026c1.114-2.481 2.756-7.263 1.516-11.888-1.918-7.162-5.837-7.67-6.791-7.684l-2.672 2.566 1.268 3.473z" class="cls-3" transform="translate(-675.056 -319.382)"/>
                </g>
                <path id="Path_45646" d="M684.785 340.752l-1.286-.07c.734-13.647-5.318-18.029-5.377-18.067l.734-1.06c.272.189 6.703 4.754 5.929 19.197z" class="cls-3" transform="translate(-640.272 -310.286)"/>
                <path id="Path_45647" fill="#2d2d2d" d="M676.54 327.455a6.626 6.626 0 0 0-6.29-1.43l-.4-2.635 4.139-1.116 3.487.651.526 6.01a3.543 3.543 0 0 0-1.462-1.48z" transform="translate(-640.522 -310.264)"/>
                <g id="Group_1872" transform="translate(0.366)">
                    <path id="Path_45648" d="M649.616 336.6s5.649.349 8.535-4.233c0 0 10.1 2.257 12.392-5.6a3.56 3.56 0 0 1 3.915-2.891 4.809 4.809 0 0 1 3.68 3.186s2.329-1.186 2.487-5.229c.09-2.279-.611-3.828-3.561-6.232a24.14 24.14 0 0 0-14.289-4.361c-6.109.523-16.129 3.937-17.307 14.54 0 0-.147 3.8-2.486 5.229 0 0 2.98 1.639 4.589-.581l-.172 8.608a4.85 4.85 0 0 1 2.217-2.436z" class="cls-4" transform="translate(-641.699 -310.597)"/>
                    <path id="Path_45649" d="M646.72 342.734l.217-10.86a4.782 4.782 0 0 1-4.223-.275l-.978-.534.946-.579c2.012-1.236 2.179-4.673 2.18-4.707 1.123-10.166 10.341-14.513 17.894-15.158a24.958 24.958 0 0 1 14.749 4.5c2.943 2.392 3.9 4.1 3.8 6.75-.17 4.372-2.728 5.724-2.837 5.778l-.645.329-.25-.678a4.225 4.225 0 0 0-3.1-2.766 2.917 2.917 0 0 0-3.275 2.428c-2.149 7.363-10.664 6.462-12.708 6.133a10.548 10.548 0 0 1-8.7 4.174 4.328 4.328 0 0 0-1.751 2.023zm1.574-14.32l-.171 8.5a4.411 4.411 0 0 1 1.266-.881l.144-.065.16.009c.053 0 5.311.26 7.951-3.934l.244-.383.442.1c.388.085 9.54 2.026 11.641-5.156a4.166 4.166 0 0 1 4.56-3.354 5.37 5.37 0 0 1 3.915 2.83 6.05 6.05 0 0 0 1.589-4.256c.076-1.97-.4-3.324-3.324-5.7a23.4 23.4 0 0 0-13.826-4.224c-2.558.218-15.387 1.922-16.721 13.974a8.621 8.621 0 0 1-1.876 4.96 2.474 2.474 0 0 0 2.81-.761z" class="cls-3" transform="translate(-641.737 -310.616)"/>
                </g>
                <path id="Path_45650" d="M656.6 334.152l-.829-.978c1.711-1.442 2.865-4.714 3.885-7.6a19.848 19.848 0 0 1 2.655-5.769 9.1 9.1 0 0 1 12.348-1.154l-.813 1a7.782 7.782 0 0 0-10.564 1 19.357 19.357 0 0 0-2.415 5.357c-1.123 3.183-2.288 6.473-4.267 8.144z" class="cls-3" transform="translate(-640.947 -310.431)"/>
            </g>
            <path id="Path_45651" d="M637.257 370.454l15.337-3.9 13.908 7.331 12.516-8.019 14.731 4.293-5.549 22.15s-.444 33.038-.529 32.927c-.15-.195-42.692 0-42.692 0l-2.244-34.462z" class="cls-6" transform="translate(-636.589 -308.947)"/>
            <g id="Group_1874" transform="translate(3.442 56.242)">
                <path id="Path_45652" d="M644.883 416.609l-2.241-25.843-2.042-20.072 11.893-4.141 13.908 7.331 12.516-8.019 14.732 4.293-5.545 22.149s-.443 24.416-.528 24.313" class="cls-6" transform="translate(-639.93 -365.189)"/>
                <path id="Path_45653" d="M644.9 417.291a.668.668 0 0 1-.664-.611l-2.241-25.843-2.042-20.061a.667.667 0 0 1 .445-.7l11.892-4.141a.66.66 0 0 1 .532.04l13.562 7.146 12.188-7.809a.665.665 0 0 1 .547-.078l14.731 4.291a.668.668 0 0 1 .462.8l-5.512 22.081c-.012.721-.123 6.387-.23 12.07-.06 3.038-.123 6.078-.177 8.358-.1 4.276-.1 4.276-.577 4.43l-.389-1.275.182.643-.658-.1c.07-.668.348-14.853.515-24.225a.677.677 0 0 1 .021-.15l5.389-21.521-13.829-4.036-12.26 7.855a.669.669 0 0 1-.672.028l-13.655-7.192-11.119 3.873 1.988 19.55 2.242 25.858a.666.666 0 0 1-.606.721z" class="cls-3" transform="translate(-639.95 -365.209)"/>
            </g>
            <g id="Group_1645" transform="translate(14.838 53.388)">
                <g id="Group_1644">
                    <g id="Group_1640" transform="translate(9.193 9.509)">
                        <g id="Group_1639">
                            <g id="Group_1638">
                                <path id="Path_44549" d="M671.708 371.669h-11.773l3.482 6.033h4.812z" class="cls-6" transform="translate(-659.935 -371.669)"/>
                            </g>
                        </g>
                    </g>
                    <g id="Group_1643">
                        <g id="Group_1641" transform="translate(15.141)">
                            <g id="Group_1875">
                                <path id="Path_44551" d="M673.8 363.085l-7.442 9.03 5.743 5.673 7.933-11.563z" class="cls-6" transform="translate(-665.689 -362.419)"/>
                                <path id="Path_45654" d="M672.119 378.475a.672.672 0 0 1-.469-.192l-5.743-5.673a.668.668 0 0 1-.045-.9l7.441-9.03a.668.668 0 0 1 .815-.171l6.232 3.14a.667.667 0 0 1 .3.9.528.528 0 0 1-.047.08l-7.933 11.562a.664.664 0 0 1-.488.287zm-4.835-6.387l4.739 4.683 7.047-10.271-5.07-2.558z" class="cls-3" transform="translate(-665.709 -362.439)"/>
                            </g>
                        </g>
                        <g id="Group_1642" transform="translate(0 0)">
                            <g id="Group_1876">
                                <path id="Path_44553" d="M657.893 363.084l7.446 9.03-5.743 5.673-7.932-11.562z" class="cls-6" transform="translate(-650.992 -362.42)"/>
                                <path id="Path_45655" d="M659.615 378.475h-.064a.668.668 0 0 1-.488-.287l-7.933-11.562a.668.668 0 0 1 .166-.927.51.51 0 0 1 .078-.047l6.232-3.14a.665.665 0 0 1 .815.171l7.442 9.03a.667.667 0 0 1-.046.9l-5.743 5.673a.662.662 0 0 1-.459.189zm-6.948-11.975l7.047 10.273 4.739-4.683-6.714-8.148z" class="cls-3" transform="translate(-651.012 -362.439)"/>
                            </g>
                        </g>
                    </g>
                </g>
            </g>
            <g id="Group_1662" transform="translate(0 59.623)">
                <g id="Group_1877">
                    <path id="Path_44577" d="M644.291 369.159L640.7 370.6l-3.444 29.2 7.035 20.35h4.676l.35-7.9" class="cls-6" transform="translate(-636.589 -368.471)"/>
                    <path id="Path_45656" d="M644.915 420.8c-.284 0-1.14-.149-1.234-.418l-7.034-20.35a.661.661 0 0 1-.033-.3l3.445-29.2a.67.67 0 0 1 .413-.543l3.591-1.436a.667.667 0 0 1 .582 1.2c-.029.013-.058.025-.087.035l-3.222 1.289-3.381 28.657 7.054 19.768z" class="cls-3" transform="translate(-636.609 -368.491)"/>
                </g>
            </g>
            <g id="Group_1662-2" transform="translate(45.579 59.851)">
                <g id="Group_1878">
                    <path id="Path_44577-2" d="M687.627 386.867l4.643 6.464-10.77 12.206 8.618 10.772 17.954-20.826-15.414-25.137-2.664-1.005" class="cls-6" transform="translate(-680.831 -368.693)"/>
                    <path id="Path_45657" d="M690.133 417h-.012a.671.671 0 0 1-.508-.244L681 405.98a.668.668 0 0 1 .022-.855l10.419-11.808-4.327-6.031a.668.668 0 0 1 1.085-.778l4.643 6.464a.667.667 0 0 1-.041.83l-10.4 11.787 7.765 9.708 17.106-19.849-15.04-24.525-2.444-.927a.669.669 0 0 1 .472-1.25l2.661 1.005a.666.666 0 0 1 .334.276l15.414 25.137a.667.667 0 0 1-.064.786l-17.953 20.826a.667.667 0 0 1-.519.224z" class="cls-3" transform="translate(-680.851 -368.712)"/>
                </g>
            </g>
        </g>
        <g id="Group_1889" transform="translate(678.837 319.712)">
            <path id="Path_45658" d="M691.724 418.04v-24.783l-3.342-16.425 7.869-2.5 11.53 5.048 12.078-5.048 7.211 2.274-4.01 16.645v24.789h-31.336" class="cls-6" transform="translate(-677.227 -317.788)"/>
            <g id="Group_1880" transform="translate(12.918 27.211)">
                <path id="Path_45659" d="M695.451 365.562s2.369 3.266 8.357 3.266 17.331-1.089 20.641-3.266 6.576-10.887 6.576-10.887l-4.354-8.166h-34.189l-1.739 10.453z" class="cls-7" transform="translate(-690.074 -345.839)"/>
                <path id="Path_45660" d="M703.826 369.516c-6.256 0-8.8-3.4-8.9-3.544a.662.662 0 0 1-.045-.072l-4.708-8.6a.68.68 0 0 1-.073-.431l1.741-10.455a.667.667 0 0 1 .657-.557h34.187a.665.665 0 0 1 .59.353l4.354 8.165a.669.669 0 0 1 .038.549c-.137.367-3.383 8.939-6.836 11.211-3.624 2.392-15.47 3.381-21.005 3.381zm-7.794-4.3c.261.331 2.5 2.963 7.794 2.963 6.463 0 17.3-1.2 20.274-3.157 2.77-1.821 5.621-8.8 6.211-10.285l-4.018-7.541h-33.226l-1.609 9.672z" class="cls-3" transform="translate(-690.094 -345.859)"/>
            </g>
            <g id="Group_1881" transform="translate(15.535 46.267)">
                <path id="Path_45661" d="M702.637 365v4.276c0 1.711.02 6-7.849 6.653l-1.311 1.821 14.44 15.082 13.116-15.532-.014-1.37c-3.812-1.089-7.869-3.278-8.036-6.573-.084-1.631 0-4.355 0-4.355z" class="cls-2" transform="translate(-692.609 -364.337)"/>
                <path id="Path_45662" d="M707.973 393.853l-15.339-16.021 1.817-2.522.309-.026c7.238-.6 7.237-4.231 7.237-5.975v-4.953h11.7l-.022.688c0 .027-.08 2.717 0 4.3.183 3.585 5.828 5.471 7.554 5.965l.48.137.022 2.116zm-13.607-16.141l13.548 14.146 12.477-14.778-.007-.629c-2.688-.829-7.83-2.951-8.043-7.038-.059-1.149-.038-2.8-.018-3.721h-8.991v3.608c0 1.8 0 6.5-8.152 7.291z" class="cls-3" transform="translate(-692.634 -364.356)"/>
            </g>
            <g id="Group_1882" transform="translate(13.11 9.25)">
                <ellipse id="Ellipse_434" cx="17.5" cy="19.325" class="cls-2" rx="17.5" ry="19.325" transform="translate(0.669 0.666)"/>
                <path id="Path_45663" d="M708.449 368.409c-10.02 0-18.169-8.969-18.169-19.992s8.151-19.992 18.169-19.992 18.168 8.969 18.168 19.992-8.151 19.992-18.168 19.992zm0-38.649c-9.286 0-16.832 8.37-16.832 18.657s7.55 18.657 16.832 18.657 16.833-8.37 16.833-18.657-7.551-18.657-16.833-18.657z" class="cls-3" transform="translate(-690.28 -328.425)"/>
            </g>
            <g id="Group_1883" transform="translate(20.538 6.93)">
                <path id="Path_45664" fill="#493a31" d="M698.993 333.57s2.136-2.463 7.99-1.268a8.77 8.77 0 0 1 8.576 1.2V329.4l-8.282-2.576-6.785.733-2.351 2.671z" transform="translate(-697.47 -326.152)"/>
                <path id="Path_45665" d="M699.013 334.254a.686.686 0 0 1-.158-.019.667.667 0 0 1-.488-.48l-.855-3.339a.668.668 0 0 1 .145-.611l2.351-2.671a.666.666 0 0 1 .43-.224l6.785-.733a.61.61 0 0 1 .269.026l8.283 2.576a.666.666 0 0 1 .47.637v4.092a.668.668 0 0 1-1.088.515 8.029 8.029 0 0 0-7.89-1.1.673.673 0 0 1-.4.043c-5.333-1.09-7.337 1.03-7.357 1.056a.675.675 0 0 1-.497.232zm-.123-3.827l.515 2.017c1.164-.709 3.527-1.589 7.53-.815a9.483 9.483 0 0 1 7.974.611v-2.322l-7.682-2.386-6.387.684z" class="cls-3" transform="translate(-697.49 -326.172)"/>
            </g>
            <g id="Group_1884" transform="translate(3.39)">
                <path id="Path_45666" d="M716.4 368.512s5.65 1.1 7.829-.488c0 0 3.812 1.058 5.988-1.058A13.248 13.248 0 0 0 733.842 355c-1.171-5.275-4.909-12.529-6.558-19.677-1.968-8.525-8.249-14.86-13.125-15.176-4.07-.265-4.9.53-6.26 1.322 0 0-1.089-1.058-4.355-1.058s-11.029 3.421-14.3 12.945-3.123 13.955-6.387 19.945-.544 15.247 7.078 14.723a19.27 19.27 0 0 0 8.448.02 15.316 15.316 0 0 1-4.36-9.278c-.545-5.819 3.265-15.341 3.812-17.457s.544-9.522 4.9-10.58 4.765 1.771 4.765 1.771a3.682 3.682 0 0 1 3.134-2.047c1.633 0 4.9 0 6.8 6.083 2.31 7.368 5.718 14.592 6.8 15.121s1.361 3.395 1.361 3.395l.544 2.116s-5.317 11.043-9.739 11.344z" class="cls-7" transform="translate(-680.825 -319.426)"/>
                <path id="Path_45667" d="M720.3 369.573a22.985 22.985 0 0 1-4.011-.387.668.668 0 0 1 .081-1.321c3.231-.22 7.537-7.624 9.066-10.743l-.488-1.878a.892.892 0 0 1-.018-.1c-.113-1.181-.547-2.645-.989-2.859-1.52-.734-5.09-8.95-7.15-15.518-1.759-5.621-4.626-5.621-6.168-5.621a2.993 2.993 0 0 0-2.529 1.664.669.669 0 0 1-1.265-.191 1.718 1.718 0 0 0-.746-1.05 4.166 4.166 0 0 0-3.194-.178c-3.055.744-3.709 5.446-4.1 8.255a18.644 18.644 0 0 1-.309 1.844c-.116.453-.367 1.205-.684 2.158-1.236 3.7-3.527 10.574-3.107 15.071a14.791 14.791 0 0 0 4.15 8.842.668.668 0 0 1-.278 1.14 19.693 19.693 0 0 1-8.675.007 7.853 7.853 0 0 1-7.343-3.717 12.262 12.262 0 0 1-.262-12 38.864 38.864 0 0 0 3.543-10.1c.676-2.7 1.442-5.769 2.81-9.743 3.439-10.02 11.691-13.393 14.928-13.393a8.5 8.5 0 0 1 4.384.927h.006c1.222-.741 2.38-1.442 6.267-1.189 4.937.321 11.589 6.411 13.731 15.693a85.2 85.2 0 0 0 3.665 11.071 66.288 66.288 0 0 1 2.89 8.608 13.8 13.8 0 0 1-3.812 12.593c-2.071 2.014-5.321 1.514-6.329 1.295a8.356 8.356 0 0 1-4.064.82zm-1.319-1.392c1.765.123 3.853.057 4.868-.683a.667.667 0 0 1 .571-.1c.034.009 3.474.927 5.346-.893a12.66 12.66 0 0 0 3.437-11.346 65.674 65.674 0 0 0-2.833-8.42 87.578 87.578 0 0 1-3.723-11.248c-1.94-8.408-8.036-14.369-12.517-14.663-3.473-.227-4.36.315-5.489 1l-.391.235a.667.667 0 0 1-.8-.1s-1.011-.868-3.889-.868c-2.939 0-10.459 3.146-13.665 12.494-1.339 3.915-2.1 6.955-2.772 9.633a39.945 39.945 0 0 1-3.666 10.414 10.875 10.875 0 0 0 .214 10.637 6.493 6.493 0 0 0 6.232 3.1.689.689 0 0 1 .206.019 19.477 19.477 0 0 0 6.986.263 16.087 16.087 0 0 1-3.728-8.811c-.448-4.778 1.9-11.829 3.17-15.618.309-.927.553-1.661.658-2.068.1-.379.181-.989.279-1.694.436-3.146 1.166-8.412 5.108-9.37a5.28 5.28 0 0 1 4.276.385 3.078 3.078 0 0 1 .754.721 4 4 0 0 1 3.015-1.386c1.751 0 5.389 0 7.441 6.552 2.434 7.773 5.654 14.2 6.476 14.732 1.305.635 1.648 3.225 1.71 3.873l.532 2.067a.669.669 0 0 1-.046.455c-.449.949-3.938 8.014-7.757 10.685z" class="cls-3" transform="translate(-680.845 -319.446)"/>
            </g>
            <path id="Path_45668" d="M690.7 368.036a7.512 7.512 0 0 1-4.828-7.409 29.386 29.386 0 0 1 1.525-8.86 37.81 37.81 0 0 0 1.022-4.048l1.315.235a39.842 39.842 0 0 1-1.055 4.186 28.191 28.191 0 0 0-1.465 8.489 6.138 6.138 0 0 0 3.881 6.133z" class="cls-3" transform="translate(-677.303 -318.592)"/>
            <path id="Path_45669" d="M723.216 367.473l-.472-1.25c.164-.062 4.018-1.628 5.022-8.187l1.32.206c-1.135 7.374-5.676 9.158-5.87 9.231z" class="cls-3" transform="translate(-676.189 -318.28)"/>
            <circle id="Ellipse_435" cx="1.905" cy="1.905" r="1.905" class="cls-3" transform="translate(21.753 30.058)"/>
            <circle id="Ellipse_436" cx="1.905" cy="1.905" r="1.905" class="cls-3" transform="translate(35.906 30.058)"/>
            <path id="Path_45670" d="M707.767 361.516c-2.169 0-3.933-1.4-3.933-3.117h1.339c0 .966 1.19 1.781 2.6 1.781s2.6-.816 2.6-1.781h1.339c-.012 1.718-1.777 3.117-3.945 3.117z" class="cls-3" transform="translate(-676.76 -318.269)"/>
            <path id="Path_45671" d="M698.229 346.01l-.6-.618a6.772 6.772 0 0 1 5.7-.438l-.5.707a6.342 6.342 0 0 0-4.6.354z" class="cls-3" transform="translate(-676.948 -318.688)"/>
            <path id="Path_45672" d="M717.047 346.01a6.333 6.333 0 0 0-4.6-.353l-.5-.708a6.779 6.779 0 0 1 5.7.439z" class="cls-3" transform="translate(-676.515 -318.688)"/>
            <path id="Path_45673" d="M700.914 356.287a1.391 1.391 0 0 1-1.391 1.393h-1.356a1.394 1.394 0 0 1-1.393-1.393 1.393 1.393 0 0 1 1.393-1.393h1.354a1.391 1.391 0 0 1 1.393 1.391z" class="cls-9" transform="translate(-676.973 -318.375)"/>
            <path id="Path_45674" d="M719.088 356.287a1.393 1.393 0 0 1-1.392 1.393h-1.355a1.394 1.394 0 0 1-1.393-1.393 1.393 1.393 0 0 1 1.393-1.393h1.359a1.39 1.39 0 0 1 1.392 1.391z" class="cls-9" transform="translate(-676.424 -318.375)"/>
            <g id="Group_1885" transform="translate(45.244 31.126)">
                <path id="Path_45675" d="M722.315 350.433a3.556 3.556 0 0 1 .95-.123 3.488 3.488 0 1 1 .129 6.976h-.129a3.648 3.648 0 0 1-1.133-.181" class="cls-2" transform="translate(-721.451 -349.639)"/>
                <path id="Path_45676" d="M723.284 357.971a4.321 4.321 0 0 1-1.339-.215.668.668 0 1 1 .388-1.277l.031.01a2.957 2.957 0 0 0 .927.146 2.822 2.822 0 1 0 .251-5.638h-.252a2.948 2.948 0 0 0-.775.1.668.668 0 0 1-.365-1.285h.012a4.257 4.257 0 0 1 1.127-.15 4.155 4.155 0 0 1 .016 8.309h-.016z" class="cls-3" transform="translate(-721.471 -349.659)"/>
            </g>
            <g id="Group_1886" transform="translate(12.522 31.274)">
                <path id="Path_45677" d="M695.2 350.718a3.6 3.6 0 0 0-.927-.244 3.488 3.488 0 0 0-.981 6.9l.126.015a3.615 3.615 0 0 0 1.144-.04" class="cls-2" transform="translate(-689.688 -349.783)"/>
                <path id="Path_45678" d="M693.881 358.116a4.326 4.326 0 0 1-.53-.033 4.156 4.156 0 1 1 1.03-8.248 4.28 4.28 0 0 1 1.1.287.669.669 0 0 1-.462 1.255l-.045-.02a2.915 2.915 0 0 0-.755-.2 2.822 2.822 0 0 0-.852 5.578c.052.008.1.014.156.02a2.986 2.986 0 0 0 .933-.033.668.668 0 1 1 .258 1.31 4.33 4.33 0 0 1-.833.084z" class="cls-3" transform="translate(-689.709 -349.803)"/>
            </g>
            <path id="Path_45679" d="M687.053 376.861l9.549-2.9 9.851 5.451 8.86-5.965 10.429 3.194-4.3 16.474v24.5c-.1-.144-30.455 0-30.455 0l-.048-24.5z" class="cls-6" transform="translate(-677.267 -317.815)"/>
            <path id="Path_45680" d="M688.691 376.763l-7.088 9.488-3.4 23.426 2.353 7.83h15.016v-27.89z" class="cls-6" transform="translate(-677.534 -317.714)"/>
            <path id="Path_45681" d="M692.291 418.006a.668.668 0 0 1-.668-.666l-.048-24.416-2.323-9.717a.668.668 0 1 1 1.3-.309l2.341 9.792a.629.629 0 0 1 .019.152l.048 24.5a.666.666 0 0 1-.663.67z" class="cls-3" transform="translate(-677.201 -317.545)"/>
            <path id="Path_45682" d="M721.784 417.95a.668.668 0 0 1-.668-.666v-24.5a.659.659 0 0 1 .022-.169l2.06-7.907a.668.668 0 0 1 1.293.337l-2.042 7.82v24.416a.667.667 0 0 1-.662.671z" class="cls-3" transform="translate(-676.238 -317.489)"/>
            <path id="Path_45683" d="M707.8 380.1a.674.674 0 0 1-.324-.085l-9.6-5.314-9.276 2.819a.668.668 0 1 1-.388-1.278l9.548-2.9a.656.656 0 0 1 .515.054l9.492 5.254 8.524-5.743a.67.67 0 0 1 .569-.084l10.429 3.194a.667.667 0 1 1-.383 1.278h-.008l-10.125-3.1-8.6 5.79a.66.66 0 0 1-.373.115z" class="cls-3" transform="translate(-677.247 -317.834)"/>
            <g id="Group_1887" transform="translate(30.159 53.303)">
                <path id="Path_44551-2" d="M715.034 371.83l-7.555 7.83 6 5.6 5.805-10.841z" class="cls-6" transform="translate(-706.809 -371.167)"/>
                <path id="Path_45684" d="M713.5 385.943a.667.667 0 0 1-.454-.179l-6-5.6a.668.668 0 0 1-.034-.943l.008-.007 7.555-7.83a.666.666 0 0 1 .824-.1l4.25 2.585a.67.67 0 0 1 .244.886l-5.8 10.846a.665.665 0 0 1-.48.343.678.678 0 0 1-.113-.001zm-5.048-6.284l4.868 4.541 5.1-9.52-3.26-1.98z" class="cls-3" transform="translate(-706.829 -371.186)"/>
            </g>
            <g id="Group_1888" transform="translate(18.362 53.297)">
                <path id="Path_44553-2" d="M700.447 371.83l6.72 7.83-5.169 5.6-5.975-10.841z" class="cls-6" transform="translate(-695.358 -371.161)"/>
                <path id="Path_45685" d="M702.021 385.942a.527.527 0 0 1-.08 0 .669.669 0 0 1-.5-.34l-5.975-10.846a.669.669 0 0 1 .244-.9l4.425-2.585a.666.666 0 0 1 .843.142l6.72 7.83a.668.668 0 0 1-.018.888l-5.169 5.594a.669.669 0 0 1-.49.217zm-5.078-11.261l5.218 9.46 4.137-4.478-5.975-6.956z" class="cls-3" transform="translate(-695.378 -371.18)"/>
            </g>
            <path id="Path_45686" d="M679.936 417.712l-2.353-7.83a.648.648 0 0 1-.022-.287l3.4-23.427a.66.66 0 0 1 .124-.3l7.087-9.488 1.069.8-6.992 9.351-3.354 23.113 2.311 7.69z" class="cls-3" transform="translate(-677.554 -317.726)"/>
            <path id="Path_45687" d="M726.973 417.712l-1.279-.383 5.151-7.727 1.545-23.109-6.964-9.316 1.07-.8 7.087 9.488a.673.673 0 0 1 .133.383l-1.533 23.427a.7.7 0 0 1-.028.206z" class="cls-3" transform="translate(-676.108 -317.726)"/>
        </g>
        <g id="Ellipse_471" fill="#fff" stroke="#ff5200" stroke-miterlimit="10" stroke-width="6px" transform="translate(643.297 368.76)">
            <circle cx="39.606" cy="39.606" r="39.606" stroke="none"/>
            <circle cx="39.606" cy="39.606" r="36.606" fill="none"/>
        </g>
        <path id="Path_48744" fill="#ff5200" d="M695.785 401.3h-10.3V391H679.3v10.3H669v6.181h10.3v10.3h6.181v-10.3h10.3z" transform="translate(1.025 2.428)"/>
        <g id="Group_1895" transform="translate(638.071 408.183)">
            <g id="Group_1891" transform="translate(2.369 12.248)">
                <path id="Rectangle_2494" d="M640.025 408.53l1.606-.311a2.453 2.453 0 0 1 2.872 1.943 2.452 2.452 0 0 1-1.941 2.872l-1.606.311a2.453 2.453 0 0 1-2.872-1.942 2.453 2.453 0 0 1 1.941-2.873z" class="cls-2" transform="translate(-637.351 -407.484)"/>
                <path id="Path_45688" d="M640.763 414.1a3.147 3.147 0 0 1-.852-6.226l1.605-.311a3.147 3.147 0 0 1 1.2 6.18l-1.605.31a3.225 3.225 0 0 1-.348.047zm1.209-5.2a1.721 1.721 0 0 0-.192.027l-1.605.311a1.757 1.757 0 0 0 .664 3.45l1.605-.31a1.757 1.757 0 0 0-.476-3.476z" class="cls-3" transform="translate(-637.371 -407.504)"/>
            </g>
            <g id="Group_1892" transform="translate(1.14 8.185)">
                <path id="Rectangle_2495" d="M639.167 404.518l3.26-.266a2.451 2.451 0 0 1 2.642 2.243 2.453 2.453 0 0 1-2.245 2.644l-3.26.266a2.451 2.451 0 0 1-2.641-2.245 2.451 2.451 0 0 1 2.242-2.643z" class="cls-2" transform="translate(-636.156 -403.54)"/>
                <path id="Path_45689" d="M642.9 409.85l-3.26.266a3.147 3.147 0 0 1-.637-6.263l.127-.011 3.259-.265a3.147 3.147 0 0 1 .637 6.263c-.037.003-.082.005-.126.01zm-3.656-4.621a1.757 1.757 0 0 0 .285 3.5l3.257-.266a1.757 1.757 0 1 0-.187-3.51c-.032 0-.064 0-.1.008z" class="cls-3" transform="translate(-636.178 -403.561)"/>
            </g>
            <g id="Group_1893" transform="translate(0 4.121)">
                <path id="Rectangle_2496" d="M638.053 400.631l4.073-.332a2.45 2.45 0 0 1 2.644 2.242 2.452 2.452 0 0 1-2.244 2.643l-4.074.332a2.452 2.452 0 0 1-2.644-2.244 2.452 2.452 0 0 1 2.245-2.641z" class="cls-2" transform="translate(-635.049 -399.595)"/>
                <path id="Path_45690" d="M642.611 405.9l-4.075.332a3.147 3.147 0 0 1-.637-6.263c.041 0 .084-.008.127-.01l4.075-.332a3.149 3.149 0 0 1 .508 6.277zm-4.473-4.558a1.758 1.758 0 0 0 .285 3.5l4.074-.332a1.758 1.758 0 0 0-.285-3.5z" class="cls-3" transform="translate(-635.071 -399.616)"/>
            </g>
            <g id="Group_1894" transform="translate(0.496)">
                <path id="Rectangle_2497" d="M638.991 396.307l3.249.354a2.451 2.451 0 0 1 2.172 2.7 2.451 2.451 0 0 1-2.7 2.172l-3.249-.354a2.45 2.45 0 0 1-2.172-2.7 2.451 2.451 0 0 1 2.7-2.172z" class="cls-2" transform="translate(-635.531 -395.595)"/>
                <path id="Path_45691" d="M642.256 402.257a3.217 3.217 0 0 1-.6 0l-3.249-.355a3.147 3.147 0 1 1 .583-6.268l.1.011 3.25.355a3.147 3.147 0 0 1-.084 6.259zm-.447-1.391a1.758 1.758 0 0 0 .384-3.494l-3.25-.354a1.757 1.757 0 1 0-.385 3.493z" class="cls-3" transform="translate(-635.552 -395.616)"/>
            </g>
        </g>
        <g id="Group_1900" transform="translate(716.978 409.595)">
            <g id="Group_1896" transform="translate(0 11.305)">
                <path id="Rectangle_2498" d="M719.963 422.763l-1.448-.763a2.451 2.451 0 0 1-1.023-3.312 2.452 2.452 0 0 1 3.312-1.024l1.446.764a2.452 2.452 0 0 1 1.023 3.313 2.453 2.453 0 0 1-3.31 1.022z" class="cls-2" transform="translate(-716.497 -416.675)"/>
                <path id="Path_45692" d="M719.976 423.543a3.25 3.25 0 0 1-.316-.144l-1.447-.764a3.146 3.146 0 0 1 2.9-5.583l.036.019 1.445.762a3.147 3.147 0 0 1-2.621 5.71zm.354-5.329a1.758 1.758 0 0 0-1.465 3.187l1.446.762a1.757 1.757 0 1 0 1.639-3.109l-1.444-.761c-.058-.029-.116-.055-.175-.078z" class="cls-3" transform="translate(-716.518 -416.695)"/>
            </g>
            <g id="Group_1897" transform="translate(0.651 7.264)">
                <path id="Rectangle_2499" d="M722.485 419.409l-3.041-1.2a2.451 2.451 0 0 1-1.379-3.179 2.451 2.451 0 0 1 3.179-1.38l3.041 1.2a2.452 2.452 0 0 1 1.381 3.181 2.452 2.452 0 0 1-3.18 1.383z" class="cls-2" transform="translate(-717.127 -412.752)"/>
                <path id="Path_45693" d="M722.241 420.073l-3.041-1.2a3.147 3.147 0 0 1 2.194-5.9l.117.046 3.041 1.2a3.148 3.148 0 0 1-2.2 5.9zM721 414.31a1.757 1.757 0 0 0-1.292 3.269l3.042 1.2a1.757 1.757 0 0 0 1.291-3.269z" class="cls-3" transform="translate(-717.149 -412.774)"/>
            </g>
            <g id="Group_1898" transform="translate(2.16 3.468)">
                <path id="Rectangle_2500" d="M724.7 416.021l-3.8-1.5a2.452 2.452 0 0 1-1.379-3.18 2.451 2.451 0 0 1 3.179-1.38l3.8 1.5a2.452 2.452 0 0 1 1.379 3.181 2.451 2.451 0 0 1-3.179 1.379z" class="cls-2" transform="translate(-718.592 -409.067)"/>
                <path id="Path_45694" d="M724.467 416.688l-3.8-1.5a3.148 3.148 0 0 1 2.2-5.9l.116.046 3.8 1.5a3.147 3.147 0 0 1-2.312 5.854zm-2-6.063a1.757 1.757 0 0 0-1.291 3.269l3.8 1.5a1.757 1.757 0 0 0 1.292-3.269z" class="cls-3" transform="translate(-718.615 -409.089)"/>
            </g>
            <g id="Group_1899" transform="translate(3.671)">
                <path id="Rectangle_2501" d="M725.936 411.855l-3.214-.6a2.452 2.452 0 0 1-1.955-2.863 2.453 2.453 0 0 1 2.862-1.956l3.214.6a2.452 2.452 0 0 1 1.957 2.864 2.45 2.45 0 0 1-2.861 1.955z" class="cls-2" transform="translate(-720.062 -405.702)"/>
                <path id="Path_45695" d="M722.039 411.784a3.147 3.147 0 0 1 1.737-6.013l3.214.6a3.147 3.147 0 0 1-1.145 6.19h-.021l-3.213-.6a3.184 3.184 0 0 1-.572-.177zm5.015-3.957a1.987 1.987 0 0 0-.319-.092l-3.213-.6a1.758 1.758 0 1 0-.65 3.455l3.213.6a1.759 1.759 0 0 0 .969-3.363z" class="cls-3" transform="translate(-720.081 -405.722)"/>
            </g>
        </g>
    </g>
</svg>
