<svg xmlns="http://www.w3.org/2000/svg" width="110" height="170" viewBox="0 0 110 170">
    <defs>
        <style>
            .cls-7{fill:#fff}.cls-2{fill:#685447}.cls-3{fill:#262626}.cls-4{fill:#ffeae0}.cls-9{fill:#f33}.cls-10{fill:#b1b7ba}
        </style>
    </defs>
    <g id="img_passwordfailure" transform="translate(-478.991 -411)">
        <g id="Group_3354" transform="translate(-135.662 116.571)">
            <g id="Group_3340" transform="translate(632.501 302.151)">
                <g id="Group_3332" transform="translate(12.548 35.861)">
                    <path id="Path_48745" d="M653.427 365.583s3.12 4.3 11.01 4.3 22.835-1.434 27.2-4.3 8.666-14.346 8.666-14.346l-5.738-10.758h-45.05l-2.292 13.773z" class="cls-2" transform="translate(-646.41 -339.665)"/>
                    <path id="Path_48746" d="M664.4 370.664c-8.21 0-11.531-4.45-11.668-4.64a.845.845 0 0 1-.055-.087l-6.2-11.331a.818.818 0 0 1-.089-.524l2.292-13.773a.814.814 0 0 1 .8-.68h45.047a.813.813 0 0 1 .718.432l5.738 10.758a.81.81 0 0 1 .044.669c-.179.478-4.449 11.758-8.98 14.739-4.77 3.134-20.36 4.437-27.647 4.437zm-10.325-5.564c.333.426 3.289 3.934 10.326 3.934 8.523 0 22.822-1.586 26.751-4.169 3.685-2.424 7.473-11.712 8.22-13.612l-5.333-10h-43.872l-2.132 12.817z" class="cls-3" transform="translate(-646.374 -339.628)"/>
                </g>
                <g id="Group_3333" transform="translate(16.014 60.966)">
                    <path id="Path_48747" d="M663.17 366.714v5.631c0 2.258.026 7.9-10.343 8.767l-1.728 2.4 19.028 19.874 17.281-20.47-.018-1.8c-5.021-1.434-10.369-4.32-10.592-8.661-.11-2.148 0-5.738 0-5.738z" class="cls-4" transform="translate(-650.044 -365.901)"/>
                    <path id="Path_48748" d="M670.116 404.565L650 383.55l2.342-3.253.373-.032c9.6-.8 9.6-5.623 9.6-7.94v-6.461h15.275l-.026.838c0 .035-.108 3.581 0 5.671.245 4.766 7.717 7.268 10 7.92l.584.167.028 2.714zM652.107 383.4l17.934 18.732 16.5-19.547-.009-.9c-3.506-1.077-10.321-3.859-10.6-9.227-.079-1.541-.048-3.766-.022-4.966h-11.98v4.818c0 2.351 0 8.511-10.713 9.544z" class="cls-3" transform="translate(-649.996 -365.864)"/>
                </g>
                <g id="Group_3334" transform="translate(12.8 12.193)">
                    <ellipse id="Ellipse_473" cx="23.059" cy="25.463" class="cls-4" rx="23.059" ry="25.463" transform="translate(0.813 0.813)"/>
                    <path id="Path_48749" d="M670.508 367.445c-13.163 0-23.871-11.788-23.871-26.276s10.708-26.276 23.871-26.276 23.872 11.787 23.872 26.276-10.708 26.276-23.872 26.276zm0-50.925c-12.265 0-22.245 11.057-22.245 24.649s9.979 24.648 22.245 24.648 22.247-11.057 22.247-24.648-9.98-24.649-22.247-24.649z" class="cls-3" transform="translate(-646.637 -314.893)"/>
                </g>
                <g id="Group_3335" transform="translate(22.589 9.149)">
                    <path id="Path_48750" fill="#493a31" d="M658.841 321.44s2.813-3.244 10.528-1.671c0 0 6.075-2.661 11.3 1.574v-5.391l-10.914-3.39-8.94.958-3.1 3.52z" transform="translate(-656.904 -311.749)"/>
                    <path id="Path_48751" d="M658.8 322.214a.834.834 0 0 1-.193-.024.813.813 0 0 1-.6-.585l-1.123-4.4a.814.814 0 0 1 .177-.739l3.1-3.519a.815.815 0 0 1 .524-.272l8.94-.958a.815.815 0 0 1 .328.032l10.914 3.391a.812.812 0 0 1 .572.776v5.391a.814.814 0 0 1-1.326.632c-4.786-3.879-10.407-1.484-10.462-1.46a.822.822 0 0 1-.489.053c-7.072-1.446-9.732 1.384-9.756 1.412a.825.825 0 0 1-.606.27zm-.23-5l.71 2.779c1.493-.936 4.611-2.148 9.969-1.108a12.407 12.407 0 0 1 10.566.851v-3.225l-10.182-3.163-8.458.907z" class="cls-3" transform="translate(-656.867 -311.712)"/>
                </g>
                <g id="Group_3336">
                    <path id="Path_48752" d="M680.1 366.8s7.444 1.441 10.312-.65c0 0 5.021 1.394 7.89-1.394a17.465 17.465 0 0 0 4.774-15.77c-1.544-6.95-6.469-16.508-8.641-25.922-2.592-11.233-10.868-19.579-17.293-20-5.362-.348-6.455.7-8.248 1.743 0 0-1.434-1.394-5.737-1.394s-14.534 4.509-18.837 17.056-4.114 18.388-8.419 26.28-.718 20.1 9.324 19.4a25.388 25.388 0 0 0 11.126.025 20.183 20.183 0 0 1-5.746-12.223c-.718-7.668 4.3-20.214 5.021-23s.718-12.547 6.455-13.941 6.272 2.347 6.272 2.347a4.855 4.855 0 0 1 4.128-2.7c2.152 0 6.455 0 8.966 8.017 3.04 9.71 7.531 19.227 8.965 19.923s1.793 4.473 1.793 4.473l.718 2.787s-7.001 14.548-12.823 14.943z" class="cls-2" transform="translate(-633.297 -302.188)"/>
                    <path id="Path_48753" d="M685.182 368.073a30.15 30.15 0 0 1-5.275-.51.813.813 0 0 1 .1-1.609c4.294-.293 10-10.111 12.017-14.215l-.643-2.5a.7.7 0 0 1-.021-.125c-.135-1.394-.675-3.5-1.34-3.819-1.988-.966-6.678-11.766-9.386-20.412-2.332-7.446-6.143-7.446-8.19-7.446a4 4 0 0 0-3.392 2.231.822.822 0 0 1-.858.455.812.812 0 0 1-.682-.687 2.328 2.328 0 0 0-1.009-1.427c-.929-.613-2.4-.7-4.266-.246-4.074.989-4.937 7.213-5.453 10.931-.136.982-.254 1.83-.406 2.422s-.484 1.585-.9 2.839c-1.626 4.873-4.652 13.946-4.1 19.885a19.557 19.557 0 0 0 5.483 11.7.813.813 0 0 1-.339 1.387 25.917 25.917 0 0 1-11.4.009 10.275 10.275 0 0 1-9.626-4.867 16.083 16.083 0 0 1-.342-15.742c2.471-4.531 3.441-8.41 4.669-13.322.89-3.562 1.9-7.6 3.695-12.833 4.518-13.173 15.355-17.606 19.606-17.606a11.055 11.055 0 0 1 5.776 1.234l.041-.025c1.6-.971 3.119-1.889 8.22-1.558 6.508.423 15.306 8.812 18.032 20.626a112.394 112.394 0 0 0 4.837 14.6 87.674 87.674 0 0 1 3.807 11.332 18.126 18.126 0 0 1-5 16.529c-2.725 2.649-7.016 1.967-8.3 1.685a10.867 10.867 0 0 1-5.355 1.084zm-1.929-1.717c2.38.18 5.256.113 6.642-.9a.813.813 0 0 1 .7-.126c.044.011 4.611 1.23 7.106-1.193 2.408-2.34 6.074-8.134 4.547-15.012a86.843 86.843 0 0 0-3.737-11.1 115.007 115.007 0 0 1-4.9-14.813c-2.562-11.109-10.628-18.983-16.552-19.368-4.59-.3-5.832.455-7.271 1.326-.168.1-.338.2-.515.308a.812.812 0 0 1-.976-.12s-1.342-1.164-5.172-1.164c-3.886 0-13.831 4.156-18.067 16.506-1.772 5.166-2.772 9.168-3.655 12.7-1.255 5.025-2.248 8.993-4.819 13.706a14.391 14.391 0 0 0 .283 14.084 8.62 8.62 0 0 0 8.271 4.114.948.948 0 0 1 .254.022 25.694 25.694 0 0 0 9.346.327 21.13 21.13 0 0 1-4.974-11.661c-.588-6.28 2.51-15.564 4.173-20.551.409-1.224.731-2.191.87-2.73.129-.5.241-1.307.37-2.239.572-4.129 1.531-11.039 6.681-12.29 2.37-.576 4.25-.409 5.588.5a4.013 4.013 0 0 1 1.023 1 5.224 5.224 0 0 1 3.981-1.868c2.29 0 7.053 0 9.742 8.587 3.232 10.319 7.483 18.78 8.556 19.441 1.7.824 2.144 4.22 2.23 5.056l.7 2.728a.818.818 0 0 1-.056.555c-.617 1.269-5.295 10.749-10.369 14.175z" class="cls-3" transform="translate(-633.26 -302.151)"/>
                </g>
                <path id="Path_48754" d="M646.691 368.9c-.063-.02-6.315-2.013-6.315-9.7a38.61 38.61 0 0 1 2.007-11.661 50.963 50.963 0 0 0 1.348-5.339l1.6.286a51.725 51.725 0 0 1-1.387 5.514A37.277 37.277 0 0 0 642 359.2c0 6.451 4.954 8.077 5.165 8.144z" class="cls-3" transform="translate(-633.567 -303.878)"/>
                <path id="Path_48755" d="M693.22 369.2l-.572-1.522.286.761-.289-.76c.216-.083 5.322-2.153 6.659-10.84l1.607.248c-1.489 9.685-7.438 12.019-7.691 12.113z" class="cls-3" transform="translate(-635.821 -304.509)"/>
                <circle id="Ellipse_474" cx="2.51" cy="2.51" r="2.51" class="cls-3" transform="translate(24.12 39.544)"/>
                <circle id="Ellipse_475" cx="2.51" cy="2.51" r="2.51" class="cls-3" transform="translate(42.769 39.544)"/>
                <path id="Path_48756" d="M657.937 340.009l-.833-.643a8.907 8.907 0 0 1 7.296-1.666l-.472.941a8.373 8.373 0 0 0-5.986 1.365z" class="cls-3" transform="translate(-634.288 -303.673)"/>
                <path id="Path_48757" d="M683.734 340.269a8.368 8.368 0 0 0-5.823-1.944l-.378-.983a8.9 8.9 0 0 1 7.093 2.369z" class="cls-3" transform="translate(-635.169 -303.662)"/>
                <g id="Group_3337" transform="translate(55.157 41.015)">
                    <path id="Path_48758" d="M691.991 346.03a4.771 4.771 0 0 1 1.252-.166 4.6 4.6 0 1 1 0 9.192 4.734 4.734 0 0 1-1.491-.238" class="cls-4" transform="translate(-690.939 -345.051)"/>
                    <path id="Path_48759" d="M693.206 355.833a5.56 5.56 0 0 1-1.746-.279.813.813 0 0 1 .511-1.544 3.931 3.931 0 0 0 1.235.2 3.783 3.783 0 1 0 0-7.565 3.957 3.957 0 0 0-1.037.138.813.813 0 0 1-.429-1.569 5.593 5.593 0 0 1 1.466-.2 5.41 5.41 0 1 1 0 10.819z" class="cls-3" transform="translate(-690.902 -345.014)"/>
                </g>
                <g id="Group_3338" transform="translate(11.941 41.21)">
                    <path id="Path_48760" d="M653.052 346.424a4.758 4.758 0 0 0-1.221-.32 4.6 4.6 0 1 0-1.134 9.122 4.748 4.748 0 0 0 1.508-.054" class="cls-4" transform="translate(-645.776 -345.254)"/>
                    <path id="Path_48761" d="M651.253 356.039a5.616 5.616 0 0 1-.693-.043 5.493 5.493 0 0 1-3.651-2.045 5.355 5.355 0 0 1 .945-7.6 5.56 5.56 0 0 1 5.471-.715.813.813 0 0 1-.618 1.5 3.935 3.935 0 0 0-1.012-.264 3.867 3.867 0 0 0-2.852.766 3.73 3.73 0 0 0-.658 5.3 3.934 3.934 0 0 0 3.827 1.4.813.813 0 1 1 .317 1.6 5.478 5.478 0 0 1-1.076.101z" class="cls-3" transform="translate(-645.74 -345.217)"/>
                </g>
                <g id="Group_3339" transform="translate(30.853 50.367)">
                    <path id="Path_48762" fill="#ff7171" d="M671.185 355.637a4.964 4.964 0 0 0-4.832 5.087h9.664a4.964 4.964 0 0 0-4.832-5.087z" transform="translate(-665.54 -354.824)"/>
                    <path id="Path_48763" d="M675.981 361.5h-9.664a.814.814 0 0 1-.813-.813 5.651 5.651 0 1 1 11.291 0 .814.814 0 0 1-.814.813zm-8.779-1.627h7.891a3.98 3.98 0 0 0-7.891 0z" class="cls-3" transform="translate(-665.503 -354.787)"/>
                </g>
                <path id="Path_48764" d="M687.3 352.439a2.012 2.012 0 0 1-2.01-2.009v-1.24a.813.813 0 1 1 1.626 0v1.239a.384.384 0 0 0 .767 0v-3.988a.813.813 0 1 1 1.626 0v3.988a2.011 2.011 0 0 1-2.009 2.01z" class="cls-3" transform="translate(-635.504 -304.025)"/>
            </g>
            <path id="Path_48765" d="M639.746 384.509l14.676-4.029 15.14 7.572 13.62-8.287 16.029 4.434-6.61 22.884v34.029c-.162-.2-46.807 0-46.807 0l-.076-34.029z" class="cls-7" transform="translate(-1.039 -3.346)"/>
            <path id="Path_48766" d="M645.866 442.468a.773.773 0 0 1-.774-.772l-.077-33.928-3.572-13.505a.774.774 0 1 1 1.5-.4l3.6 13.6a.8.8 0 0 1 .026.2l.076 34.029a.772.772 0 0 1-.772.775z" class="cls-3" transform="translate(-1.111 -3.929)"/>
            <path id="Path_48767" d="M694.947 442.586a.773.773 0 0 1-.774-.773v-34.029a.784.784 0 0 1 .031-.215l3.172-10.984a.775.775 0 0 1 1.488.431l-3.141 10.878v33.92a.774.774 0 0 1-.776.772z" class="cls-3" transform="translate(-3.385 -4.047)"/>
            <path id="Path_48768" d="M630.548 437.855a.773.773 0 0 1-.769-.7l-2.925-31.4a.789.789 0 0 1 .057-.373l8.833-20.972a.773.773 0 0 1 .529-.452l17.408-4.261a.769.769 0 0 1 .53.06l14.758 7.379 13.255-8.065a.776.776 0 0 1 .6-.087l18.51 4.977a.779.779 0 0 1 .553.572l5.742 24.616a.785.785 0 0 1 .013.279l-3.117 23.17a.774.774 0 1 1-1.535-.207l3.1-23.029-5.605-24.026-17.741-4.77-13.337 8.116a.778.778 0 0 1-.749.031l-14.886-7.445-16.753 4.1-8.604 20.432 2.906 31.209a.774.774 0 0 1-.7.843z" class="cls-3" transform="translate(-0.483 -3.311)"/>
            <g id="Group_3341" transform="translate(668.121 373.33)">
                <path id="Path_44551" d="M681.787 377.346l-10.493 10.878 8.334 7.776 8.064-15.059z" class="cls-7" transform="translate(-670.52 -376.572)"/>
                <path id="Path_48769" d="M679.593 396.735a.774.774 0 0 1-.528-.208l-8.333-7.772a.774.774 0 0 1-.029-1.1l10.497-10.881a.775.775 0 0 1 .96-.124l5.9 3.589a.774.774 0 0 1 .28 1.028l-8.063 15.059a.776.776 0 0 1-.556.4.816.816 0 0 1-.128.009zm-7.229-8.576l7.022 6.549 7.243-13.527-4.748-2.887z" class="cls-3" transform="translate(-670.485 -376.537)"/>
            </g>
            <g id="Group_3342" transform="translate(651.723 373.328)">
                <path id="Path_44553" d="M660.3 377.345l9.34 10.879-7.175 7.776-8.307-15.06z" class="cls-7" transform="translate(-653.383 -376.57)"/>
                <path id="Path_48770" d="M662.43 396.734h-.094a.776.776 0 0 1-.585-.4l-8.307-15.059a.776.776 0 0 1 .288-1.043l6.145-3.59a.774.774 0 0 1 .978.165l9.341 10.878a.775.775 0 0 1-.019 1.031l-7.177 7.77a.776.776 0 0 1-.57.248zm-7.264-15.546l7.424 13.458 5.982-6.476-8.47-9.865z" class="cls-3" transform="translate(-653.348 -376.535)"/>
            </g>
            <g id="Group_3343" transform="translate(615.653 421.774)">
                <path id="Rectangle_2633" d="M0 0H104.709V26.7H0z" class="cls-7" transform="translate(1.435 1.435)"/>
                <path id="Path_48771" fill="#3f3f3f" d="M717.08 456.735H609.5v-29.571h107.58zm-104.935-2.871h102.29v-23.829h-102.29z" transform="translate(-609.5 -427.164)"/>
            </g>
            <circle id="Ellipse_476" cx="5.01" cy="5.01" r="5.01" class="cls-9" transform="translate(631.242 431.408)"/>
            <circle id="Ellipse_477" cx="5.01" cy="5.01" r="5.01" class="cls-9" transform="translate(645.817 431.408)"/>
            <circle id="Ellipse_478" cx="5.01" cy="5.01" r="5.01" class="cls-9" transform="translate(660.392 431.408)"/>
            <circle id="Ellipse_479" cx="5.01" cy="5.01" r="5.01" class="cls-9" transform="translate(674.968 431.408)"/>
            <circle id="Ellipse_480" cx="5.01" cy="5.01" r="5.01" class="cls-9" transform="translate(689.543 431.408)"/>
            <g id="Group_3348" transform="translate(618.851 414.001)">
                <g id="Group_3344" transform="translate(0 2.824)">
                    <rect id="Rectangle_2634" width="7.288" height="5.466" class="cls-4" rx="2.733" transform="translate(5.581 0.246) rotate(77.433)"/>
                    <path id="Path_48772" d="M619.016 425.88a3.507 3.507 0 0 1 6.91-1.143l.4 1.777a3.507 3.507 0 0 1-6.847 1.527l-.4-1.778a3.525 3.525 0 0 1-.063-.383zm5.83 1.185a1.821 1.821 0 0 0-.035-.212l-.4-1.778a1.958 1.958 0 0 0-3.823.853l.4 1.777a1.959 1.959 0 0 0 3.858-.64z" class="cls-3" transform="translate(-618.995 -421.992)"/>
                </g>
                <g id="Group_3345" transform="translate(4.527 1.404)">
                    <rect id="Rectangle_2635" width="9.11" height="5.466" class="cls-4" rx="2.733" transform="matrix(0.109, 0.994, -0.994, 0.109, 5.924, 0.492)"/>
                    <path id="Path_48773" d="M624.146 428.021l-.4-3.622a3.507 3.507 0 1 1 6.972-.767l.4 3.622a3.507 3.507 0 0 1-6.972.767zm5.034-4.22a1.959 1.959 0 1 0-3.895.429l.4 3.622a1.959 1.959 0 0 0 3.895-.429z" class="cls-3" transform="translate(-623.726 -420.508)"/>
                </g>
                <g id="Group_3346" transform="translate(8.954)">
                    <rect id="Rectangle_2636" width="10.021" height="5.466" class="cls-4" rx="2.733" transform="translate(5.925 0.492) rotate(83.716)"/>
                    <path id="Path_48774" d="M628.873 427.46l-.5-4.527a3.507 3.507 0 1 1 6.972-.768l.5 4.528a3.507 3.507 0 0 1-6.972.767zm4.935-5.126a1.959 1.959 0 0 0-3.895.429l.5 4.528a1.959 1.959 0 0 0 3.895-.429z" class="cls-3" transform="translate(-628.353 -419.041)"/>
                </g>
                <g id="Group_3347" transform="translate(13.634 0.402)">
                    <rect id="Rectangle_2637" width="9.11" height="5.466" class="cls-4" rx="2.733" transform="matrix(-0.08, 0.997, -0.997, -0.08, 6.744, 1.003)"/>
                    <path id="Path_48775" d="M633.265 426.985a3.508 3.508 0 0 1-.01-.666l.293-3.632a3.508 3.508 0 0 1 6.993.563l-.293 3.632a3.508 3.508 0 0 1-6.982.1zm1.534-.542a1.958 1.958 0 0 0 3.9.315l.293-3.632a1.955 1.955 0 0 0-3.219-1.647 1.939 1.939 0 0 0-.685 1.332z" class="cls-3" transform="translate(-633.243 -419.461)"/>
                </g>
            </g>
            <g id="Group_3353" transform="translate(700.004 415.947)">
                <g id="Group_3349" transform="translate(13.765 2.262)">
                    <rect id="Rectangle_2638" width="7.288" height="5.466" class="cls-4" rx="2.733" transform="translate(6.919 1.237) rotate(99.007)"/>
                    <path id="Path_48776" d="M725.486 427.109a3.554 3.554 0 0 1-.039.387l-.286 1.8a3.507 3.507 0 0 1-6.928-1.1l.286-1.8a3.507 3.507 0 0 1 6.967.713zm-5.745 1.544a1.959 1.959 0 0 0 3.891.4l.286-1.8a1.959 1.959 0 0 0-3.87-.613l-.286 1.8a1.807 1.807 0 0 0-.021.213z" class="cls-3" transform="translate(-718.19 -423.438)"/>
                </g>
                <g id="Group_3350" transform="translate(9.272 1.126)">
                    <rect id="Rectangle_2639" width="9.11" height="5.466" class="cls-4" rx="2.733" transform="matrix(-0.048, 0.999, -0.999, -0.048, 6.539, 0.907)"/>
                    <path id="Path_48777" d="M720.677 425.924l-.173 3.64a3.507 3.507 0 1 1-7.005-.334l.173-3.639a3.507 3.507 0 1 1 7.005.333zm-5.632 3.38a1.959 1.959 0 1 0 3.913.187l.173-3.64a1.959 1.959 0 1 0-3.914-.186z" class="cls-3" transform="translate(-713.495 -422.251)"/>
                </g>
                <g id="Group_3351" transform="translate(4.722)">
                    <rect id="Rectangle_2640" width="10.021" height="5.466" class="cls-4" rx="2.733" transform="translate(6.583 0.907) rotate(92.723)"/>
                    <path id="Path_48778" d="M715.966 424.747l-.217 4.55a3.507 3.507 0 1 1-7.005-.334l.216-4.549a3.507 3.507 0 0 1 7.006.333zm-5.676 4.29a1.959 1.959 0 0 0 3.914.187l.216-4.55a1.959 1.959 0 0 0-3.914-.186z" class="cls-3" transform="translate(-708.74 -421.074)"/>
                </g>
                <g id="Group_3352" transform="translate(0 0.709)">
                    <rect id="Rectangle_2641" width="9.11" height="5.466" class="cls-4" rx="2.733" transform="translate(5.824 0.414) rotate(81.835)"/>
                    <path id="Path_48779" d="M711.334 429.1a3.5 3.5 0 0 1-5.6 2.637 3.478 3.478 0 0 1-1.371-2.306l-.519-3.607a3.516 3.516 0 0 1 2.975-3.969 3.517 3.517 0 0 1 3.97 2.973l.518 3.607a3.542 3.542 0 0 1 .027.665zm-5.979-3.868a1.957 1.957 0 0 0 .018.372l.518 3.606a1.967 1.967 0 0 0 2.217 1.66 1.96 1.96 0 0 0 1.66-2.217l-.518-3.607a1.965 1.965 0 0 0-2.217-1.66 1.962 1.962 0 0 0-1.678 1.843z" class="cls-3" transform="translate(-703.805 -421.815)"/>
                </g>
            </g>
            <circle id="Ellipse_481" cx="2.277" cy="2.277" r="2.277" class="cls-10" transform="translate(665.906 393.565)"/>
            <circle id="Ellipse_482" cx="2.277" cy="2.277" r="2.277" class="cls-10" transform="translate(665.858 407.723)"/>
        </g>
    </g>
</svg>
