<svg xmlns="http://www.w3.org/2000/svg" width="110" height="170" viewBox="0 0 110 170">
    <defs>
        <style>
            .cls-2{fill:#fff}.cls-3{fill:#262626}.cls-4{fill:#ffeae0}.cls-5{fill:#ff5200}.cls-6{fill:#494949}
        </style>
    </defs>
    <g id="img_membercertified1" transform="translate(-478.991 -411)">
        <g id="Group_1663" transform="translate(-141.589 108.482)">
            <g id="Group_3176" transform="translate(639.833 370.602)">
                <path id="Path_48726" d="M643.431 386.619l18.689-4.752 16.954 8.93 15.251-9.773 17.948 5.23-6.757 26.985s-.541 40.26-.644 40.126c-.182-.236-52.024 0-52.024 0l-2.731-41.994z" class="cls-2" transform="translate(-642.687 -380.28)"/>
                <path id="Path_48727" d="M704.767 454a.77.77 0 0 1-.173-.02c-1.865-.17-37.988-.044-51.848.019a.743.743 0 0 1-.742-.7l-2.727-41.919-6.667-24.68a.745.745 0 0 1 .535-.915l18.69-4.752a.751.751 0 0 1 .529.063l16.57 8.728 14.886-9.54a.746.746 0 0 1 .61-.088l17.948 5.23a.744.744 0 0 1 .513.894l-6.735 26.9c-.014 1-.142 10.481-.282 19.965-.074 5.014-.151 10.03-.216 13.794-.117 6.8-.117 6.8-.654 6.977a.754.754 0 0 1-.237.044zm-60.527-66.955l6.49 24.023a.762.762 0 0 1 .024.146l2.686 41.295c2.862-.013 14.045-.06 25.245-.086 17.3-.04 23.243-.045 25.372.074.126-4.452.476-29.384.61-39.378a.694.694 0 0 1 .023-.17l6.582-26.291-16.935-4.935-14.966 9.591a.743.743 0 0 1-.748.031l-16.7-8.8z" class="cls-3" transform="translate(-642.581 -380.174)"/>
                <path id="Rectangle_2597" d="M0 0H57V3H0z" class="cls-2" transform="translate(7.746 71.568)"/>
            </g>
            <g id="Group_1636" transform="translate(667.023 359.568)">
                <path id="Rectangle_2438" d="M0 0H16.864V20.523H0z" class="cls-2" transform="translate(0.758 0.759)"/>
                <g id="Group_3177">
                    <path id="Path_44546" d="M675.35 388.332h15.4v-19.066h-15.4z" class="cls-4" transform="translate(-673.862 -367.778)"/>
                    <path id="Path_44546-2" d="M690.54 369.054v19.066h-15.4v-19.066h15.4m0-1.488h-15.4a1.488 1.488 0 0 0-1.488 1.488v19.066a1.488 1.488 0 0 0 1.488 1.488h15.4a1.488 1.488 0 0 0 1.488-1.488v-19.066a1.488 1.488 0 0 0-1.488-1.488z" class="cls-3" transform="translate(-673.65 -367.566)"/>
                </g>
            </g>
            <g id="Group_3178" transform="translate(667.624 379.531)">
                <path id="Path_48728" d="M683.127 391.233l-7.878 40.536 7.876 9.348 8.1-9.348-7.878-40.534z" class="cls-5" transform="translate(-674.451 -390.485)"/>
                <path id="Path_48729" d="M683 442.156l-8.666-10.286 8.064-41.492 1.453.011.115.6 7.946 40.889zm-7.07-10.7l7.086 8.412 7.3-8.417-7.191-37z" class="cls-3" transform="translate(-674.337 -390.378)"/>
            </g>
            <g id="Group_3179" transform="translate(669.389 377.925)">
                <path id="Path_48730" d="M689.428 389.391h-11.775l3.481 7.968h4.815z" class="cls-5" transform="translate(-676.516 -388.648)"/>
                <path id="Path_48731" d="M686.274 398h-5.788l-4.132-9.455H690.4zm-4.815-1.488h3.841l2.83-6.48h-9.5z" class="cls-3" transform="translate(-676.354 -388.542)"/>
            </g>
            <g id="Group_1645" transform="translate(657.923 367.112)">
                <g id="Group_1644">
                    <g id="Group_1643">
                        <g id="Group_1641" transform="translate(18.45 0.001)">
                            <g id="Group_3180">
                                <path id="Path_44551" d="M694.253 377.038l-9.068 11 6.993 6.914 9.662-14.089z" class="cls-2" transform="translate(-684.441 -376.294)"/>
                                <path id="Path_48732" d="M692.072 395.591a.744.744 0 0 1-.523-.214l-6.993-6.913a.745.745 0 0 1-.052-1l9.069-11a.742.742 0 0 1 .909-.192l7.587 3.827a.745.745 0 0 1 .278 1.085l-9.662 14.089a.741.741 0 0 1-.543.319.656.656 0 0 1-.07-.001zm-5.988-7.707l5.877 5.809 8.678-12.654-6.3-3.176z" class="cls-3" transform="translate(-684.334 -376.188)"/>
                            </g>
                        </g>
                        <g id="Group_1642">
                            <g id="Group_3181">
                                <path id="Path_44553" d="M671.691 377.037l9.068 11-6.992 6.914-9.665-14.09z" class="cls-2" transform="translate(-663.358 -376.293)"/>
                                <path id="Path_48733" d="M673.661 395.59a.662.662 0 0 1-.071 0 .742.742 0 0 1-.544-.319l-9.665-14.089a.744.744 0 0 1 .279-1.085l7.589-3.827a.741.741 0 0 1 .908.192l9.069 11a.745.745 0 0 1-.052 1l-6.992 6.913a.744.744 0 0 1-.521.215zm-8.57-14.552l8.68 12.653 5.877-5.809-8.258-10.02z" class="cls-3" transform="translate(-663.251 -376.187)"/>
                            </g>
                        </g>
                    </g>
                </g>
            </g>
            <g id="Group_1648" transform="translate(647.958 339.057)">
                <path id="Path_44555" d="M666.293 351.757a6.8 6.8 0 1 1-6.8-6.8 6.8 6.8 0 0 1 6.8 6.8z" class="cls-4" transform="translate(-651.968 -344.232)"/>
                <path id="Path_44556" d="M659.39 359.18a7.526 7.526 0 1 1 7.526-7.526 7.536 7.536 0 0 1-7.526 7.526zm0-13.6a6.07 6.07 0 1 0 6.07 6.07 6.077 6.077 0 0 0-6.07-6.067z" class="cls-3" transform="translate(-651.864 -344.128)"/>
            </g>
            <g id="Group_1649" transform="translate(689.736 339.057)">
                <path id="Path_44557" d="M714.032 351.757a6.8 6.8 0 1 1-6.8-6.8 6.8 6.8 0 0 1 6.8 6.8z" class="cls-4" transform="translate(-699.708 -344.232)"/>
                <path id="Path_44558" d="M707.13 359.18a7.526 7.526 0 1 1 7.526-7.526 7.536 7.536 0 0 1-7.526 7.526zm0-13.6a6.07 6.07 0 1 0 6.07 6.07 6.076 6.076 0 0 0-6.07-6.067z" class="cls-3" transform="translate(-699.604 -344.128)"/>
            </g>
            <g id="Group_1650" transform="translate(653.749 314.257)">
                <path id="Path_44559" d="M702.1 346.8a21.392 21.392 0 0 1-21.391 21.393 21.392 21.392 0 0 1-21.394-21.393v-8.784a21.392 21.392 0 0 1 21.392-21.392 21.392 21.392 0 0 1 21.393 21.39z" class="cls-4" transform="translate(-658.586 -315.893)"/>
                <path id="Path_44560" d="M680.6 368.816a22.146 22.146 0 0 1-22.121-22.124v-8.782a22.121 22.121 0 1 1 44.242 0v8.781a22.147 22.147 0 0 1-22.121 22.125zm0-51.568a20.685 20.685 0 0 0-20.663 20.663v8.78a20.664 20.664 0 0 0 41.327.01v-8.791a20.688 20.688 0 0 0-20.664-20.662z" class="cls-3" transform="translate(-658.482 -315.789)"/>
            </g>
            <g id="Group_1651" transform="translate(683.962 315.22)">
                <path id="Path_44561" d="M695.449 325.67c.988.9 2.2 1.652 3.08 2.387a25.85 25.85 0 0 1 5.816 7.661c.375.7 2.776 4.638 2.375 5.327 2.907-4.969 3.816-10.84 1.323-16.212-1.291-2.781-3.827-5.969-6.873-6.882-4.624-1.384-10.116 3.702-5.721 7.719z" class="cls-6" transform="translate(-693.11 -316.994)"/>
                <path id="Path_44562" d="M706.615 341.671a.729.729 0 0 1-.728-.73.709.709 0 0 1 .045-.249c-.02-.342-.4-1.356-2.025-4.187-.14-.244-.249-.438-.308-.545a24.76 24.76 0 0 0-5.642-7.446c-.35-.294-.766-.6-1.205-.916a21.338 21.338 0 0 1-1.9-1.488 4.731 4.731 0 0 1-1.546-5.333 6.671 6.671 0 0 1 6.149-3.886 6.3 6.3 0 0 1 1.817.263c3.382 1.012 6 4.421 7.326 7.272 2.432 5.24 1.951 11.238-1.355 16.89a.731.731 0 0 1-.628.355zm-7.158-23.326a5.242 5.242 0 0 0-4.79 2.955 3.268 3.268 0 0 0 1.168 3.729 20.43 20.43 0 0 0 1.772 1.39c.461.335.9.651 1.285.977a26.137 26.137 0 0 1 5.991 7.876c.055.1.157.281.287.509.775 1.353 1.323 2.377 1.68 3.164a16.008 16.008 0 0 0 .426-13.908c-1.138-2.45-3.5-5.616-6.422-6.491a4.883 4.883 0 0 0-1.4-.2z" class="cls-3" transform="translate(-693.006 -316.89)"/>
            </g>
            <g id="Group_1653" transform="translate(650.402 318.427)">
                <g id="Group_1652" transform="translate(0 0)">
                    <path id="Path_44563" d="M665.711 321.544a6.065 6.065 0 0 0-4.237.492 12.656 12.656 0 0 0-4.053 4.5c-1.779 3.337-1.934 7.229-1.934 11 0 3.97 3.349 9.364 3.349 9.364-1.018-2.968 1.158-5.457 3.1-7.425a37.738 37.738 0 0 0 5.982-8.051c2.149-3.712 3.272-8.83-2.207-9.88z" class="cls-6" transform="translate(-654.761 -320.656)"/>
                    <path id="Path_44564" d="M658.736 347.519a.727.727 0 0 1-.62-.345c-.141-.228-3.459-5.616-3.459-9.745 0-3.822.156-7.846 2.02-11.341a13.422 13.422 0 0 1 4.295-4.763 5.559 5.559 0 0 1 3.051-.766 9.284 9.284 0 0 1 1.725.167 5.249 5.249 0 0 1 4.12 2.835c1.307 2.863-.554 6.629-1.415 8.116a38.381 38.381 0 0 1-6.094 8.2c-1.876 1.9-3.8 4.133-2.932 6.675a.729.729 0 0 1-.69.963zm5.287-25.5a4.2 4.2 0 0 0-2.247.525 11.932 11.932 0 0 0-3.812 4.232c-1.7 3.2-1.848 7.017-1.848 10.655a16.468 16.468 0 0 0 1.838 6.363 12.158 12.158 0 0 1 3.366-4.938 36.529 36.529 0 0 0 5.869-7.907c1.556-2.687 2.061-5.222 1.35-6.78a3.888 3.888 0 0 0-3.067-2.008 7.757 7.757 0 0 0-1.45-.142z" class="cls-3" transform="translate(-654.657 -320.555)"/>
                </g>
            </g>
            <g id="Group_1654" transform="translate(685.864 316.501)">
                <path id="Path_44565" d="M707.139 341.605a.729.729 0 0 1-.729-.729c0-5.2 0-17.378-10.718-21.1a.729.729 0 0 1 .431-1.392l.046.016c11.7 4.059 11.7 17.438 11.7 22.474a.729.729 0 0 1-.729.729z" class="cls-3" transform="translate(-695.179 -318.353)"/>
            </g>
            <g id="Group_1655" transform="translate(659.573 303.518)">
                <path id="Path_44566" d="M666.206 319.488a5.953 5.953 0 0 1 .332-4.214c2.486-5.309 8.963-5.251 13.978-5.243 6.794.007 12.71-1.012 18.009-5.68.322 4.077.525 9.058-1.1 12.962-4.726 11.365-15.46 11.363-23.546 9.364-3.045-.749-6.812-4.105-7.673-7.189z" class="cls-6" transform="translate(-665.24 -303.622)"/>
                <path id="Path_44567" d="M681.413 328.309a32.863 32.863 0 0 1-7.812-1.027c-3.4-.838-7.308-4.51-8.2-7.7a6.715 6.715 0 0 1 .374-4.719c2.652-5.664 9.458-5.664 13.962-5.664h.747c5.827 0 11.973-.666 17.457-5.5a.728.728 0 0 1 1.028.065.737.737 0 0 1 .18.424c.363 4.594.474 9.386-1.152 13.3-2.985 7.181-8.566 10.821-16.584 10.821zm-1.678-17.656c-5.471 0-10.556.369-12.641 4.825a5.211 5.211 0 0 0-.29 3.709c.758 2.713 4.23 5.961 7.145 6.68a31.351 31.351 0 0 0 7.463.985c7.373 0 12.5-3.339 15.236-9.923 1.349-3.245 1.4-7.252 1.147-11.218-5.549 4.32-11.586 4.944-17.313 4.944z" class="cls-3" transform="translate(-665.137 -303.518)"/>
            </g>
            <g id="Group_1656" transform="translate(669.175 349.593)">
                <path id="Path_44568" d="M683.623 363.738a8.192 8.192 0 0 1-5.121-1.678 6.365 6.365 0 0 1-2.39-5.163.729.729 0 0 1 1.458 0c0 3.7 3.138 5.381 6.053 5.381a7.018 7.018 0 0 0 4.288-1.38 4.913 4.913 0 0 0 1.882-4 .729.729 0 0 1 1.458 0c-.002 4.488-3.841 6.84-7.628 6.84z" class="cls-3" transform="translate(-676.109 -356.167)"/>
            </g>
            <path id="Path_44569" d="M673.736 347.239a1.72 1.72 0 0 1-1.72 1.72 1.718 1.718 0 0 1-1.719-1.719v-.563a1.718 1.718 0 0 1 1.719-1.719 1.719 1.719 0 0 1 1.72 1.718v.564z" class="cls-3" transform="translate(-6.208 -5.175)"/>
            <path id="Path_44570" d="M696.026 347.239a1.72 1.72 0 0 1-1.72 1.72 1.72 1.72 0 0 1-1.719-1.72v-.562a1.719 1.719 0 0 1 1.719-1.72 1.72 1.72 0 0 1 1.72 1.72z" class="cls-3" transform="translate(-8.992 -5.175)"/>
            <g id="Group_1657" transform="translate(674.983 336.232)">
                <path id="Path_44571" d="M683.841 354.007a.728.728 0 0 1-.625-1.1l2.164-3.614-1.908-1.12a.728.728 0 0 1-.359-.584l-.366-5.911a.729.729 0 1 1 1.455-.088l.341 5.525 2.207 1.3a.73.73 0 0 1 .258 1l-2.538 4.246a.731.731 0 0 1-.629.346z" class="cls-3" transform="translate(-682.746 -340.901)"/>
            </g>
            <g id="Group_1658" transform="translate(660.102 305.253)">
                <path id="Path_44572" d="M666.469 321.361a.729.729 0 0 1-.684-.978c2.639-7.264 11.862-6.289 15.8-5.874 5.379.741 9.337.138 11.784-1.789a9.1 9.1 0 0 0 3.156-6.563.729.729 0 0 1 1.451.145 10.5 10.5 0 0 1-3.705 7.564c-2.81 2.212-7.017 2.9-12.864 2.091-5.923-.622-12.273-.525-14.255 4.925a.73.73 0 0 1-.683.479z" class="cls-3" transform="translate(-665.741 -305.501)"/>
            </g>
            <g id="Group_1659" transform="translate(660.659 303.816)">
                <path id="Path_44573" d="M682.664 322.286h-.018a24.171 24.171 0 0 1-5.54-.984c-3.556-.9-7.235-1.831-9.539-.018a.729.729 0 1 1-.918-1.132l.017-.014c2.869-2.255 7.082-1.189 10.8-.249a23.288 23.288 0 0 0 5.184.94h.018c12.675 0 13.589-7.555 14.649-16.3a.729.729 0 1 1 1.452.127.445.445 0 0 1-.005.048c-1.051 8.641-2.135 17.581-16.1 17.582z" class="cls-3" transform="translate(-666.378 -303.859)"/>
            </g>
            <g id="Group_1660" transform="translate(652.676 319.357)">
                <path id="Path_44574" d="M658.065 345.4a.729.729 0 0 1-.726-.676c-.768-10.414 3.9-19.826 7.3-22.9a.729.729 0 1 1 1.013 1.048l-.035.031c-3.184 2.888-7.554 11.782-6.826 21.716a.729.729 0 0 1-.673.78z" class="cls-3" transform="translate(-657.255 -321.617)"/>
            </g>
            <g id="Group_1661" transform="translate(642.476 420.673)">
                <g id="Group_3182" transform="translate(0)">
                    <path id="Path_44575" d="M649.307 446.569a8.346 8.346 0 0 0 .239 1.141c1.022 3.728 5.708 5.393 5.718 5.21l.594.2.046.017 2.327.774.014.005 4.607 1.537a1.83 1.83 0 1 0 1.213-3.453l-.055-.018-2.361-.791 3.009 1a1.831 1.831 0 1 0 1.211-3.455l-.053-.017-3.006-1 2.361.786a1.832 1.832 0 0 0 1.161-3.474l-2.363-.786 1.489.5a1.832 1.832 0 0 0 1.16-3.474l-7.738-2.572c-3.912-1.335-10.984.7-10.984.7l-1.447 6.278z" class="cls-4" transform="translate(-645.706 -437.496)"/>
                    <path id="Path_48734" d="M663.349 456.192a2.562 2.562 0 0 1-.851-.146l-7.463-2.49c-1.111-.158-5.3-2.067-6.313-5.757-.071-.249-.131-.506-.181-.764l-2.42-.757a.743.743 0 0 1-.5-.877l1.447-6.278a.742.742 0 0 1 .519-.548c.3-.087 7.342-2.089 11.43-.692l7.732 2.57a71.574 71.574 0 0 0 1.326 6.97 1.031 1.031 0 0 0-.594 1.821 6.805 6.805 0 0 0-1.7 5.227 2.579 2.579 0 0 1-2.432 1.721zm-8.191-4.123a.73.73 0 0 1 .236.039l.6.2c.016 0 .076.028.092.034l6.9 2.3a1.086 1.086 0 1 0 .732-2.045l-2.406-.806a.744.744 0 0 1 .473-1.412l3.008 1.006a1.087 1.087 0 1 0 .73-2.048l-3.049-1.018a.744.744 0 0 1 .47-1.412l2.361.785a1.088 1.088 0 0 0 .678-2.066l-.775-.258-.074-.022-1.5-.5a.744.744 0 0 1 .471-1.411l1.54.513a1.073 1.073 0 0 0 .765-.091 1.088 1.088 0 0 0-.141-1.991l-7.725-2.568c-3.124-1.066-8.579.2-10.125.6l-1.191 5.171 2.2.688a.745.745 0 0 1 .515.61 7.425 7.425 0 0 0 .217 1.038c.819 2.989 4.313 4.485 4.964 4.671z" class="cls-3" transform="translate(-645.6 -437.39)"/>
                </g>
            </g>
            <g id="Group_1662" transform="translate(620.58 375.816)">
                <g id="Group_3183">
                    <path id="Path_44577" d="M642.179 386.983l-1.495.38-19.253 30.629 21.878 25.379 10.5-13.127-13.127-14.877 6.126-9.626" class="cls-2" transform="translate(-620.687 -386.239)"/>
                    <path id="Path_48735" d="M643.2 444.009a.746.746 0 0 1-.564-.258l-21.878-25.379a.743.743 0 0 1-.066-.881l19.253-30.629a.745.745 0 0 1 .446-.326l1.5-.381a.745.745 0 0 1 .367 1.443l-1.207.306-18.8 29.913 20.93 24.283 9.552-11.94-12.714-14.408a.744.744 0 0 1-.07-.891l6.126-9.626a.744.744 0 0 1 1.256.8l-5.826 9.155 12.757 14.457a.744.744 0 0 1 .023.957l-10.5 13.127a.739.739 0 0 1-.567.279z" class="cls-3" transform="translate(-620.581 -386.133)"/>
                </g>
            </g>
            <g id="Group_3188" transform="translate(676.698 324.649)">
                <path id="Rectangle_2595" d="M0 0H1.75V15.752H0z" class="cls-3" transform="translate(17.49 33.62) rotate(5.815)"/>
                <g id="Group_3186" transform="translate(0 0)">
                    <g id="Group_3184" transform="translate(2.407 2.407)">
                        <path id="Path_48736" d="M706.619 331.352a16.627 16.627 0 1 0 14.857 18.226 16.628 16.628 0 0 0-14.857-18.226zm12.245 17.96a14 14 0 1 1-12.511-15.349 14 14 0 0 1 12.511 15.349z" class="cls-2" transform="translate(-687.562 -330.521)"/>
                        <path id="Path_48737" d="M704.84 365.159a17.372 17.372 0 1 1 1.747-34.654 17.372 17.372 0 0 1-1.747 34.654zm-.024-33.257a15.894 15.894 0 1 0 1.622.082 16.122 16.122 0 0 0-1.622-.084zm.022 30.631a14.747 14.747 0 1 1 14.66-13.253 14.769 14.769 0 0 1-14.66 13.254zm-.019-28.006a13.267 13.267 0 1 0 1.353.069 13.278 13.278 0 0 0-1.353-.068zm13.94 14.678z" class="cls-3" transform="translate(-687.456 -330.415)"/>
                    </g>
                    <g id="Group_3185" opacity="0.6">
                        <circle id="Ellipse_470" cx="14.002" cy="14.002" r="14.002" fill="#92d3ff" transform="translate(0 20.732) rotate(-47.76)"/>
                        <path id="Path_48738" d="M705.212 362.909a14.747 14.747 0 1 1 14.66-13.253 14.774 14.774 0 0 1-14.66 13.253zm-.019-28.006a13.266 13.266 0 1 0 1.353.069 13.278 13.278 0 0 0-1.353-.072z" class="cls-3" transform="translate(-685.424 -328.383)"/>
                    </g>
                </g>
                <g id="Group_3187" transform="translate(13.304 42.366)">
                    <path id="Rectangle_2596" d="M0 0H3.501V15.752H0z" class="cls-2" transform="translate(2.34 0.743) rotate(5.815)"/>
                    <path id="Path_48739" d="M704.135 393.588h-.076l-3.482-.354a.745.745 0 0 1-.665-.816l1.6-15.672a.745.745 0 0 1 .816-.664l3.482.354a.742.742 0 0 1 .665.816l-1.6 15.671a.744.744 0 0 1-.74.665zm-2.668-1.763l2 .2 1.446-14.192-2-.2z" class="cls-3" transform="translate(-699.908 -376.075)"/>
                </g>
            </g>
            <g id="Group_1661-2" transform="translate(682.324 370.371)">
                <g id="Group_3189">
                    <path id="Path_44575-2" d="M710.815 391.285a8.309 8.309 0 0 0-.11-1.16c-.6-3.819-5.07-6-5.1-5.817l-.569-.263-.043-.022-2.226-1.028-.013-.007-4.406-2.043a1.83 1.83 0 0 0-1.592 3.3l.053.025 2.257 1.049-2.877-1.335a1.831 1.831 0 1 0-1.59 3.3l.051.024 2.876 1.334-2.259-1.044a1.832 1.832 0 0 0-1.541 3.323l2.26 1.045-1.424-.662a1.832 1.832 0 0 0-1.541 3.323l7.4 3.42c3.739 1.765 10.994.53 10.994.53l2.139-6.077z" class="cls-4" transform="translate(-691.24 -380.017)"/>
                    <path id="Path_48740" d="M706.066 399.629a14.976 14.976 0 0 1-6.066-1.023l-7.395-3.417a71.2 71.2 0 0 0-.54-7.074 2.672 2.672 0 0 0 .906-3.711 2.577 2.577 0 0 0 2.16-3.038 2.575 2.575 0 0 1 3.438-1.2l4.395 2.037c.025.011.06.031.083.044l2.155.991.079.039.423.2c1.086.28 5.04 2.642 5.633 6.428.043.255.074.517.094.781l2.32 1.023a.743.743 0 0 1 .4.927l-2.14 6.078a.742.742 0 0 1-.577.486 35.35 35.35 0 0 1-5.368.429zm-12.352-7.853a1.089 1.089 0 0 0-.477 2.069l7.389 3.414c2.988 1.411 8.546.76 10.13.537l1.761-5.007-2.108-.93a.741.741 0 0 1-.444-.662 7.337 7.337 0 0 0-.1-1.056c-.48-3.061-3.785-4.94-4.411-5.2a.764.764 0 0 1-.268-.067l-7.257-3.364a1.086 1.086 0 1 0-.955 1.952l2.3 1.069a.744.744 0 0 1-.627 1.349l-2.877-1.335a1.093 1.093 0 0 0-1.461.5 1.086 1.086 0 0 0 .508 1.451l2.916 1.353a.744.744 0 0 1-.626 1.35l-2.257-1.044a1.088 1.088 0 0 0-.9 1.978l.743.344.069.029 1.437.668a.744.744 0 0 1-.626 1.349l-1.472-.682a1.049 1.049 0 0 0-.386-.065z" class="cls-3" transform="translate(-691.134 -379.911)"/>
                </g>
            </g>
            <g id="Group_1662-2" transform="translate(700.327 375.516)">
                <g id="Group_3190">
                    <path id="Path_44577-2" d="M712.556 405.892l17.234 15.4 11.377-9.626-18.984-24.15-2.625-.875" class="cls-2" transform="translate(-711.812 -385.896)"/>
                    <path id="Path_48741" d="M729.684 421.928a.74.74 0 0 1-.5-.189l-17.235-15.4a.744.744 0 0 1 .991-1.109l16.76 14.97 10.334-8.745-18.4-23.411-2.414-.8a.744.744 0 0 1 .47-1.412l2.625.875a.746.746 0 0 1 .35.246l18.984 24.15a.744.744 0 0 1-.1 1.027l-11.377 9.626a.737.737 0 0 1-.488.172z" class="cls-3" transform="translate(-711.706 -385.79)"/>
                </g>
            </g>
            <g id="Group_3191" transform="translate(692.182 378.228)">
                <path id="Path_48742" d="M740.16 412.356l-2.781 8.447-8.751 4.376-25.379-22.753 11.35-12.686z" class="cls-2" transform="translate(-702.505 -388.995)"/>
                <path id="Path_48743" d="M728.522 425.816a.742.742 0 0 1-.5-.19l-25.379-22.753a.743.743 0 0 1-.059-1.049l11.35-12.686a.743.743 0 0 1 1.047-.061l25.561 22.616a.745.745 0 0 1 .214.79l-2.78 8.447a.746.746 0 0 1-.375.433l-8.751 4.376a.742.742 0 0 1-.328.077zm-24.329-23.555l24.449 21.92 8.022-4.011 2.53-7.688-24.64-21.8z" class="cls-3" transform="translate(-702.399 -388.889)"/>
            </g>
        </g>
        <g id="Group_3165" transform="translate(530.509 526)">
            <circle id="Ellipse_469" cx="25.242" cy="25.242" r="25.242" class="cls-2" transform="translate(1.993 1.992)"/>
            <path id="Path_48716" fill="#d4d4d4" d="M552.734 571a27.234 27.234 0 1 1 27.234-27.234A27.266 27.266 0 0 1 552.734 571zm0-50.483a23.248 23.248 0 1 0 23.249 23.248 23.275 23.275 0 0 0-23.249-23.245z" transform="translate(-525.5 -516.534)"/>
            <path id="Path_48717" fill="#bcbcbc" d="M552.309 554.609a5.3 5.3 0 0 1-3.758-1.557l-10.412-10.412a5.314 5.314 0 0 1 7.515-7.515l6.655 6.654 21.1-21.1a5.314 5.314 0 0 1 7.515 7.516l-24.855 24.855a5.3 5.3 0 0 1-3.76 1.559z" transform="translate(-523.998 -517.317)"/>
        </g>
    </g>
</svg>
