<svg xmlns="http://www.w3.org/2000/svg" width="106" height="80.001" viewBox="0 0 106 80.001">
    <defs>
        <style>
            .cls-5{fill:#fff}.cls-3{fill:#898989}.cls-4{fill:#c1a787}.cls-6{fill:#b2daf7}.cls-7{fill:#737b84}.cls-8{fill:#131828}.cls-10{fill:#c997bb}.cls-12{fill:#ffe6e6}.cls-13{fill:#c9a9a9}.cls-14{fill:#f8edf9}.cls-15{fill:#ead5b9}.cls-17{fill:#f9d}.cls-18{opacity:.8}.cls-19{fill:#78f6f9}.cls-20{fill:#17b4ce}.cls-21{fill:#5d6266}.cls-22{fill:#303030}
        </style>
    </defs>
    <g id="img_search_nodata" transform="translate(0 0.001)">
        <g id="Layer_1" transform="translate(3.975 1.999)">
            <g id="Group_3276">
                <g id="Group_3252" transform="translate(47.512)">
                    <path id="Path_47273" fill="#a58e76" d="M728.6 370.651l-44.9-17.71-7.374-14.166 44.9 17.71z" transform="translate(-675.968 -338.453)"/>
                    <path id="Path_47274" d="M728.247 370.341l-.418-.165-44.958-17.733-7.611-14.622 45.376 17.9.029.056zm-45.137-18.166l44.424 17.525-7.137-13.71-44.424-17.522z" class="cls-3" transform="translate(-675.26 -337.821)"/>
                </g>
                <g id="Group_3253" transform="translate(47.701 0.075)">
                    <path id="Path_47275" d="M721.224 398.309l-44.9-17.71v-41.824l44.9 17.71z" class="cls-4" transform="translate(-676.157 -338.528)"/>
                    <path id="Path_47276" d="M721.059 398.07l-45.235-17.843v-42.185l45.235 17.842zm-44.9-18.07l44.565 17.577v-41.463l-44.565-17.578z" class="cls-3" transform="translate(-675.824 -338.042)"/>
                </g>
                <g id="Group_3254" transform="translate(13.503 0.055)">
                    <path id="Path_47277" d="M574.3 396.9l34.1-16.3v-41.825l-34.1 16.3z" class="cls-4" transform="translate(-574.128 -338.508)"/>
                    <path id="Path_47278" d="M573.8 396.642v-42.2l.1-.046 34.335-16.416v42.2l-.1.046zm.335-41.983v41.45l33.761-16.141v-41.45z" class="cls-3" transform="translate(-573.795 -337.984)"/>
                </g>
                <g id="Group_3262" transform="translate(32.421 6.883)">
                    <g id="Group_3255" transform="translate(2.559)">
                        <path id="Path_47279" d="M676.472 392.173a9.741 9.741 0 0 0 2.35-2.366 7.831 7.831 0 0 0 1.806-3.6c-.037-.58.851-.907.851-.907-.543.153-.851-.563-.851-.563h.851a2.089 2.089 0 0 1-.987-1.112c.235.118.716.292.716.292a14.4 14.4 0 0 1-1.773-2.49l-.1-.409c-.387-1.5-1.018-3.658-1.482-5.485a4.1 4.1 0 0 0 .928.367.4.4 0 0 1-.1-.038 2.5 2.5 0 0 1-.688-.913l.369.052c-.369-.052-.4-.945-.4-.945.21.283.685.128.685.128-.706-.325-1.233-1.587-1.423-2.1-.146-2.315-.115-6.718-.218-8.279-.179-2.7-.6-3.719-1.55-3.959s-2.027.48-3.539 1.529-7.549 4.95-7.549 4.95a16.651 16.651 0 0 0-6.9.349c-.7-.25-5.4-5.359-6.21-6.108-1.49-1.38-2.444-3.06-4.322-.508-2.214 3.007-1.129 12.314-1.129 12.314l-.085.242a3.443 3.443 0 0 1-1.557 1.449s.439.24.7 0c0 0-.191.873-.563.856l.372.017s-.461.649-.842.77a.406.406 0 0 1-.1.02 4.077 4.077 0 0 0 .944-.178c-.661 1.818-1.477 4.019-2.074 5.474-.09.219-.171.435-.246.647a11.848 11.848 0 0 1-1.609 2.252s.481-.175.716-.292a2.089 2.089 0 0 1-.987 1.112h.852s-.308.715-.852.563c0 0 .888.327.852.907a7.832 7.832 0 0 0 2.112 3.8 8.659 8.659 0 0 0 2.52 2.168" class="cls-5" transform="translate(-639.596 -358.559)"/>
                        <path id="Path_47280" d="M644.148 391.992a8.75 8.75 0 0 1-2.575-2.213 7.861 7.861 0 0 1-2.149-3.916c.024-.371-.528-.659-.742-.738l.1-.321a.492.492 0 0 0 .509-.231h-1.421l.808-.325a1.56 1.56 0 0 0 .684-.616c-.155.061-.283.107-.294.111l-1.053.382.9-.676a10.781 10.781 0 0 0 1.565-2.2c.062-.186.144-.4.236-.626.578-1.408 1.366-3.532 1.963-5.168a3.931 3.931 0 0 1-.623.1h-.107v-.007a.219.219 0 0 1-.143-.045l-.073-.079.041-.1c.041-.1.129-.1.221-.109a.237.237 0 0 0 .06-.011 1.591 1.591 0 0 0 .555-.456h-.043l.015-.337c.1.008.21-.182.3-.414a1.051 1.051 0 0 1-.519-.126l-.378-.207.418-.105a3.111 3.111 0 0 0 1.447-1.362l.065-.185c-.085-.75-1.012-9.437 1.165-12.4.665-.9 1.253-1.344 1.849-1.389.779-.056 1.406.568 2.129 1.294.19.191.386.388.593.579.251.233.854.861 1.618 1.657a51.644 51.644 0 0 0 4.492 4.4 16.554 16.554 0 0 1 6.861-.352c.633-.409 6.073-3.928 7.485-4.908 1.465-1.016 2.623-1.819 3.674-1.554s1.493 1.341 1.677 4.111c.048.721.067 2.061.088 3.48.024 1.654.051 3.527.129 4.775.156.42.675 1.685 1.328 1.986l.391.18-.409.134a1.1 1.1 0 0 1-.533.028c.045.244.127.449.218.462l-.047.334-.042-.006a1.6 1.6 0 0 0 .464.551.224.224 0 0 0 .056.022c.089.021.175.041.2.148l.022.106-.087.064a.217.217 0 0 1-.147.017v.008l-.058-.014-.047-.013a3.954 3.954 0 0 1-.593-.214c.236.911.5 1.88.764 2.82.234.846.456 1.648.63 2.318.033.131.065.259.1.386a13.3 13.3 0 0 0 1.716 2.42l.9.676-1.053-.382c-.01 0-.138-.05-.293-.111a1.565 1.565 0 0 0 .684.616l.807.325H679.2a.491.491 0 0 0 .508.231l.1.321c-.214.079-.766.368-.742.738a7.835 7.835 0 0 1-1.849 3.726 9.849 9.849 0 0 1-2.374 2.388l-.2-.271a9.6 9.6 0 0 0 2.31-2.324 7.789 7.789 0 0 0 1.778-3.5.986.986 0 0 1 .5-.834 1.308 1.308 0 0 1-.49-.58l-.1-.236h.549a2.574 2.574 0 0 1-.587-.885l-.147-.4.378.19.031.015c-.469-.614-1.029-1.517-1.305-1.974l-.02-.048c-.033-.135-.065-.269-.1-.407-.172-.669-.394-1.469-.627-2.313-.294-1.061-.6-2.16-.854-3.172l-.1-.38.341.191c.052.029.1.057.158.083a3.871 3.871 0 0 1-.249-.448l-.13-.282.218.031a2.3 2.3 0 0 1-.132-.708l-.015-.479a6.852 6.852 0 0 1-.713-1.443l-.01-.048c-.079-1.256-.107-3.148-.131-4.816-.02-1.414-.04-2.75-.087-3.462-.169-2.557-.555-3.588-1.423-3.807s-1.855.43-3.4 1.5c-1.5 1.039-7.494 4.914-7.554 4.953l-.06.039-.069-.017a16.585 16.585 0 0 0-6.822.348l-.05.014-.049-.018c-.487-.173-2.4-2.14-4.664-4.5-.73-.761-1.36-1.418-1.6-1.644-.21-.195-.41-.395-.6-.589-.664-.667-1.237-1.246-1.867-1.2-.486.036-1.01.447-1.6 1.253-2.15 2.92-1.108 12.1-1.1 12.194v.039l-.117.316a6.2 6.2 0 0 1-.733.92l-.1.472a2.321 2.321 0 0 1-.258.673l.22.01-.18.253a3.9 3.9 0 0 1-.326.394l.137-.041.326-.106-.118.324c-.608 1.672-1.461 3.979-2.077 5.48-.089.217-.169.429-.243.639a19.18 19.18 0 0 1-1.147 1.763l.021-.01.379-.19-.147.4a2.575 2.575 0 0 1-.587.885h.549l-.1.236a1.31 1.31 0 0 1-.489.58.985.985 0 0 1 .5.834 7.822 7.822 0 0 0 2.065 3.671 8.594 8.594 0 0 0 2.477 2.136z" class="cls-3" transform="translate(-637.87 -358.228)"/>
                    </g>
                    <g id="Group_3256" transform="translate(12.295 12.469)">
                        <path id="Path_47281" d="M675.446 400.267a3.218 3.218 0 0 1-.058.565c-.034.092-.182.225-.223.314s-.082.171-.128.253a3.827 3.827 0 0 1-3.492 1.977 3.9 3.9 0 0 1-3.645-3.476 1.94 1.94 0 0 0-.358-.74 6.358 6.358 0 0 0 .568-.92 3.816 3.816 0 0 1 7.336 2.03z" class="cls-6" transform="translate(-667.332 -395.53)"/>
                        <path id="Path_47282" d="M671.287 403.214h-.164a4.039 4.039 0 0 1-3.8-3.625 1.742 1.742 0 0 0-.324-.659l-.078-.1.074-.1a5.939 5.939 0 0 0 .545-.878 3.973 3.973 0 0 1 6.963-1.005 4 4 0 0 1 .7 3.124 1.108 1.108 0 0 0-.014.216 1.023 1.023 0 0 1-.052.376.818.818 0 0 1-.147.219.875.875 0 0 0-.081.107c-.041.089-.086.178-.133.264a4.017 4.017 0 0 1-3.489 2.061zm-3.954-4.391a1.879 1.879 0 0 1 .318.718 3.643 3.643 0 0 0 6.825 1.442c.043-.079.084-.16.122-.242a.888.888 0 0 1 .128-.181.8.8 0 0 0 .089-.12.7.7 0 0 0 .031-.258 1.42 1.42 0 0 1 .02-.28 3.648 3.648 0 0 0-7.014-1.941 5.216 5.216 0 0 1-.519.862z" class="cls-7" transform="translate(-666.917 -395.196)"/>
                    </g>
                    <ellipse id="Ellipse_424" cx="2.891" cy="2.909" class="cls-8" rx="2.891" ry="2.909" transform="translate(13.995 13.445)"/>
                    <ellipse id="Ellipse_425" cx=".626" cy=".63" class="cls-5" rx=".626" ry=".63" transform="translate(17.819 13.738)"/>
                    <g id="Group_3257" transform="translate(27.959 12.48)">
                        <path id="Path_47283" d="M714.276 400.53a3.226 3.226 0 0 0 .093.56c.04.09.2.213.242.3s.093.165.143.244a3.822 3.822 0 0 0 3.607 1.755 3.9 3.9 0 0 0 3.424-3.7 1.948 1.948 0 0 1 .312-.761 6.351 6.351 0 0 1-.623-.883 3.817 3.817 0 0 0-7.2 2.484z" class="cls-6" transform="translate(-713.985 -395.56)"/>
                        <path id="Path_47284" d="M717.641 403.245a4.022 4.022 0 0 1-3.363-1.853c-.053-.084-.1-.169-.15-.256a.839.839 0 0 0-.087-.1.826.826 0 0 1-.16-.209 1.017 1.017 0 0 1-.075-.371 1.088 1.088 0 0 0-.027-.215 4.009 4.009 0 0 1 3.137-4.944 3.957 3.957 0 0 1 4.377 2.351 5.92 5.92 0 0 0 .6.843l.081.1-.072.1a1.746 1.746 0 0 0-.283.678 4.043 4.043 0 0 1-3.573 3.855 3.832 3.832 0 0 1-.405.021zm-3.538-3.09a1.42 1.42 0 0 1 .037.277.708.708 0 0 0 .047.256.8.8 0 0 0 .1.115.9.9 0 0 1 .139.173c.043.081.089.158.137.234a3.643 3.643 0 0 0 6.722-1.866 1.891 1.891 0 0 1 .273-.737 5.221 5.221 0 0 1-.57-.829 3.624 3.624 0 0 0-4.008-2.153 3.671 3.671 0 0 0-2.872 4.529z" class="cls-7" transform="translate(-713.65 -395.228)"/>
                    </g>
                    <ellipse id="Ellipse_426" cx="2.883" cy="2.901" class="cls-8" rx="2.883" ry="2.901" transform="translate(28.822 13.488)"/>
                    <ellipse id="Ellipse_427" cx=".588" cy=".591" class="cls-5" rx=".588" ry=".591" transform="translate(32.768 13.388)"/>
                    <g id="Group_3258" transform="translate(23.306 17.969)">
                        <path id="Path_47285" fill="#ddb1cf" d="M701.534 413.122a.7.7 0 0 0-.565-1.12.7.7 0 0 0-.565 1.12.7.7 0 0 0 1.13 0z" transform="translate(-700.1 -411.833)"/>
                        <path id="Path_47286" d="M700.636 413.248a.857.857 0 0 1-.7-.358.872.872 0 0 1-.072-.91.865.865 0 0 1 1.546 0 .873.873 0 0 1-.072.91.858.858 0 0 1-.702.358zm0-1.409a.523.523 0 0 0-.475.293.529.529 0 0 0 .044.558.545.545 0 0 0 .86 0 .528.528 0 0 0 .044-.558.522.522 0 0 0-.472-.293z" class="cls-10" transform="translate(-699.768 -411.502)"/>
                    </g>
                    <g id="Group_3259" transform="translate(21.766 20.058)">
                        <path id="Path_47287" fill="#bf8eb1" d="M697.748 418.465a7.154 7.154 0 0 1-.962.988 12.4 12.4 0 0 1-1.362.912s.85-.356 1.319-.6a7.938 7.938 0 0 0 1.065-.721s.654.463.983.711a7.709 7.709 0 0 0 1.282.608 9.092 9.092 0 0 1-1.346-.912c-.443-.406-.979-.986-.979-.986z" transform="translate(-695.34 -418.206)"/>
                        <path id="Path_47288" d="M699.849 420.013a7.611 7.611 0 0 1-1.324-.631c-.248-.187-.681-.5-.877-.636a7.43 7.43 0 0 1-.994.662c-.469.241-1.3.589-1.331.6l-.147-.3a12.329 12.329 0 0 0 1.34-.9 7 7 0 0 0 .937-.962l.121-.155.134.144c0 .006.537.58.969.978a8.97 8.97 0 0 0 1.314.888zm-2.257-1.8c-.1.123-.267.308-.465.5.233-.165.409-.307.412-.309l.1-.079.1.073.1.071z" class="cls-10" transform="translate(-695.175 -417.697)"/>
                    </g>
                    <path id="Rectangle_2617" d="M0 0H0.119V0.48H0z" class="cls-10" transform="translate(24.114 19.877)"/>
                    <g id="Group_3260" transform="translate(9.205 1.134)">
                        <path id="Path_47289" d="M665.687 368.225a2.633 2.633 0 0 0-.44-.817.666.666 0 0 1 .3.147c-1.131-1.593-2.674-3.737-3.041-4.106-.6-.6-1.192-1.56-2.027-1.32-.617.177-1.715.562-2.109 3.581a52.729 52.729 0 0 0 0 8.212l.018-.014a2.522 2.522 0 0 1 .9-.86c.32-.2 2.385-1.56 2.742-1.92s.358-.36.6-.48a4.839 4.839 0 0 1 .835-.24c-.358-.36-1.32-.24-1.32-.24a6.125 6.125 0 0 1 1.976-.121c-.06-.241-.894-.359-.894-.359a4.323 4.323 0 0 1 1.208.14 4.312 4.312 0 0 0-1.566-.98 6.06 6.06 0 0 1 2.146.48c-.238-.84-2.384-1.68-2.384-1.68 1.073-.12 2.742 1.08 2.742 1.08-.239-.84-1.669-1.919-1.669-1.919a4.168 4.168 0 0 1 1.983 1.416z" class="cls-12" transform="translate(-658.028 -361.922)"/>
                        <path id="Path_47290" d="M657.914 373.9l-.042-.3a53.281 53.281 0 0 1 0-8.247c.418-3.2 1.642-3.551 2.23-3.721.771-.222 1.341.42 1.844.985.117.132.232.261.348.378.37.372 1.868 2.45 3.059 4.128l.58.817-.516-.369a2.124 2.124 0 0 1 .1.273l.2.679-.479-.516c-.234-.252-.457-.471-.665-.655a2.814 2.814 0 0 1 .628 1l.131.464-.39-.28a8.556 8.556 0 0 0-1.24-.715 2.455 2.455 0 0 1 1.141 1.132l.1.347-.328-.146a6.435 6.435 0 0 0-1.1-.349 2.843 2.843 0 0 1 .719.588l.346.423-.522-.154c-.039-.011-.079-.022-.121-.032a.271.271 0 0 1 .017.048l.057.229-.233-.02c-.006 0-.292-.024-.652-.028a.727.727 0 0 1 .128.1l.222.223-.307.062a4.506 4.506 0 0 0-.792.226c-.214.108-.214.108-.553.448-.4.4-2.59 1.829-2.772 1.943a2.359 2.359 0 0 0-.842.8l-.044.052zm2.491-11.97a.755.755 0 0 0-.21.03c-.519.149-1.6.46-1.989 3.44a49.318 49.318 0 0 0-.029 7.733 3.355 3.355 0 0 1 .691-.561c.373-.234 2.377-1.558 2.713-1.9a1.811 1.811 0 0 1 .64-.511 2.381 2.381 0 0 1 .4-.142 2.874 2.874 0 0 0-.793-.02l-1.254.155 1.17-.479a3.474 3.474 0 0 1 1.122-.162l.023-.331a6.13 6.13 0 0 1 .645.032 5.3 5.3 0 0 0-1.06-.544l-.908-.328h.965a5.72 5.72 0 0 1 1.733.312 7.02 7.02 0 0 0-2.032-1.186l-.636-.249.678-.076a4.4 4.4 0 0 1 2.316.76 7.651 7.651 0 0 0-1.325-1.3l-.48-.363.6.06a2.426 2.426 0 0 1 1.179.6h.223c-1.505-2.112-2.469-3.41-2.729-3.671-.119-.12-.239-.255-.361-.391-.397-.445-.815-.91-1.297-.91z" class="cls-13" transform="translate(-657.698 -361.589)"/>
                    </g>
                    <ellipse id="Ellipse_428" cx="4.173" cy="3.659" class="cls-14" rx="4.173" ry="3.659" transform="translate(8.019 20.357)"/>
                    <ellipse id="Ellipse_429" cx="4.173" cy="3.659" class="cls-14" rx="4.173" ry="3.659" transform="translate(31.387 20.357)"/>
                    <g id="Group_3261" transform="translate(30.382 1.652)">
                        <path id="Path_47291" d="M729.642 363.626a11.046 11.046 0 0 0-2.742 1.56c-.8.577-2.312 1.879-3.219 2.64a6.537 6.537 0 0 0-1.445 1.675 1.383 1.383 0 0 1 .67-.175 3.543 3.543 0 0 0-.643 1.031c.518-.513 2.464-2.343 3.747-2.253 0 0-1.791.891-2.089 1.756a6.616 6.616 0 0 1 3.432-.632s-2.685.489-2.984 1.354a8.023 8.023 0 0 1 2.686-.1s-1.836.284-2.187 1.052a1.733 1.733 0 0 1 .9-.15s-.238.092-.238.276 1.073.3 1.192.424a13.318 13.318 0 0 0 1.908 1.2 9.065 9.065 0 0 1 1.652 1.064c-.127-.721.319-3.292.434-6.643.118-3.479-.359-4.079-1.074-4.079z" class="cls-12" transform="translate(-721.781 -363.457)"/>
                        <path id="Path_47292" d="M729.623 374.435l-.35-.288a9.01 9.01 0 0 0-1.6-1.034 12.93 12.93 0 0 1-1.973-1.241 3.911 3.911 0 0 0-.415-.109c-.5-.116-.826-.192-.826-.434a.377.377 0 0 1 .013-.1 2.375 2.375 0 0 0-.446.133l-.389.155.175-.382a2.118 2.118 0 0 1 1.263-.886 8.245 8.245 0 0 0-1.572.167l-.3.068.1-.287c.18-.521 1.043-.9 1.819-1.144a8.952 8.952 0 0 0-2.038.63l-.358.167.129-.375a3.152 3.152 0 0 1 1.211-1.28 10.4 10.4 0 0 0-2.594 1.953l-.51.5.234-.68a3.038 3.038 0 0 1 .4-.737 1.337 1.337 0 0 0-.186.084l-.535.293.31-.527a6.737 6.737 0 0 1 1.482-1.719l.62-.523c.875-.74 1.963-1.661 2.609-2.124a11.242 11.242 0 0 1 2.84-1.591.9.9 0 0 1 .689.274c.465.485.63 1.675.551 3.98-.058 1.7-.2 3.175-.312 4.36a13.017 13.017 0 0 0-.125 2.248zm-4.8-3.151a4.253 4.253 0 0 0 .544.151c.358.083.5.122.577.2a13.732 13.732 0 0 0 1.842 1.159 8.132 8.132 0 0 1 1.409.865c0-.435.063-1.085.146-1.951.113-1.18.253-2.648.311-4.339.074-2.146-.072-3.332-.457-3.734a.572.572 0 0 0-.448-.171 11.454 11.454 0 0 0-2.645 1.529c-.635.455-1.718 1.371-2.588 2.107l-.621.524a6.657 6.657 0 0 0-1.143 1.224 1.49 1.49 0 0 1 .26-.023h.381l-.224.246a5.183 5.183 0 0 1 2.958-1.467l.617.043-.555.276a6.59 6.59 0 0 0-1.748 1.25 5.769 5.769 0 0 1 3.057-.44l.749.191-.76.139a7.149 7.149 0 0 0-2.617.945 7.883 7.883 0 0 1 2.315-.021l1.065.168-1.065.165a5.1 5.1 0 0 0-1.668.561 1.192 1.192 0 0 1 .39.009l.56.117-.534.206a.333.333 0 0 0-.113.071z" class="cls-13" transform="translate(-720.88 -363.126)"/>
                    </g>
                    <path id="Path_47293" d="M736.335 415.391l-.182-.283c.06-.039 6.084-3.9 13.082-2.765l-.054.333c-6.871-1.117-12.787 2.676-12.846 2.715z" class="cls-3" transform="translate(-700.652 -393.951)"/>
                    <path id="Path_47294" d="M750.783 422.132c-6.453-2.624-13.058-.247-13.124-.222l-.115-.317c.067-.025 6.795-2.445 13.365.226z" class="cls-3" transform="translate(-701.576 -399.539)"/>
                    <path id="Path_47295" d="M645.372 415.391c-.059-.038-5.979-3.831-12.846-2.716l-.053-.333c7-1.138 13.021 2.726 13.081 2.765z" class="cls-3" transform="translate(-631.723 -393.951)"/>
                    <path id="Path_47296" d="M630.362 422.132l-.126-.313c6.571-2.671 13.3-.251 13.365-.226l-.115.317c-.066-.025-6.676-2.4-13.124.222z" class="cls-3" transform="translate(-630.236 -399.539)"/>
                </g>
                <g id="Group_3263" transform="translate(58.505 17.594)">
                    <path id="Path_47297" d="M708.559 448.9l34.1-16.3v-41.825l-34.1 16.3z" class="cls-15" transform="translate(-708.391 -390.509)"/>
                    <path id="Path_47298" d="M708.059 448.642v-42.2l.1-.046 34.335-16.416v42.2l-.1.046zm.335-41.983v41.45l33.76-16.141v-41.45z" class="cls-3" transform="translate(-708.059 -389.984)"/>
                </g>
                <g id="Group_3264" transform="translate(13.503 16.205)">
                    <path id="Path_47299" d="M619.2 446.132l-44.9-17.71V386.6l44.9 17.71z" class="cls-15" transform="translate(-574.128 -386.351)"/>
                    <path id="Path_47300" d="M619.031 445.893L573.8 428.051v-42.186l45.236 17.842zm-44.9-18.072L618.7 445.4v-41.463l-44.57-17.577z" class="cls-3" transform="translate(-573.795 -385.865)"/>
                </g>
                <g id="Group_3265" transform="translate(0 16.247)">
                    <path id="Path_47301" fill="#efe0ce" d="M579.2 422.859l-44.9-17.71 13.4-18.549 44.9 17.71z" transform="translate(-534.032 -386.394)"/>
                    <path id="Path_47302" d="M578.733 422.662l-.121-.048-45.1-17.789 13.611-18.833.121.048 45.1 17.789zm-44.7-17.992l44.577 17.582 13.2-18.269-44.57-17.583z" class="cls-3" transform="translate(-533.51 -385.992)"/>
                </g>
                <g id="Group_3270" transform="translate(62.392 22.599)">
                    <g id="Group_3266">
                        <path id="Path_47303" d="M722.929 417.01c-1.6-.313-2.484-1.606-2.713-3.424-.523-4.165 2.09-6.736 6.6-8 3.859-1.082 8.743 1.209 9.421 5.156.426 2.484-.739 3.79-1.6 4.111a2.381 2.381 0 0 1-2.318-.091 2.951 2.951 0 0 1-1.866 1.154 3.247 3.247 0 0 1-2.316.019 3.809 3.809 0 0 1-1.872.857 4.946 4.946 0 0 1-1.786-.085 2.537 2.537 0 0 1-1.55.303z" class="cls-5" transform="translate(-719.984 -405.15)"/>
                        <path id="Path_47304" d="M722.929 416.884a1.9 1.9 0 0 1-.362-.034c-1.585-.31-2.6-1.577-2.846-3.569-.5-3.981 1.825-6.811 6.726-8.186a8.491 8.491 0 0 1 6.643 1.061 6.341 6.341 0 0 1 2.988 4.23c.468 2.724-.914 4-1.71 4.3a2.728 2.728 0 0 1-2.331-.021 3.385 3.385 0 0 1-1.868 1.088 3.874 3.874 0 0 1-2.329.054 4.083 4.083 0 0 1-1.871.825 5.017 5.017 0 0 1-1.791-.073 2.857 2.857 0 0 1-1.249.325zm-.3-.365a2.369 2.369 0 0 0 1.438-.286.169.169 0 0 1 .125-.018 4.789 4.789 0 0 0 1.717.083 3.687 3.687 0 0 0 1.784-.813.167.167 0 0 1 .2-.022 3.221 3.221 0 0 0 2.188-.039 2.841 2.841 0 0 0 1.761-1.074.169.169 0 0 1 .115-.082.172.172 0 0 1 .136.035 2.226 2.226 0 0 0 2.153.063c.706-.262 1.926-1.42 1.5-3.925a6.009 6.009 0 0 0-2.837-4 8.15 8.15 0 0 0-6.374-1.021c-4.785 1.342-6.967 3.973-6.483 7.819a3.409 3.409 0 0 0 2.578 3.279z" class="cls-3" transform="translate(-719.654 -404.824)"/>
                    </g>
                    <g id="Group_3267" transform="translate(12.243 6.299)">
                        <path id="Path_47305" d="M756.586 426.88a3.777 3.777 0 0 0 .224-3.23" class="cls-5" transform="translate(-756.45 -423.6)"/>
                        <path id="Path_47306" d="M756.452 426.88l-.272-.2a3.664 3.664 0 0 0 .2-3.081l.32-.1a3.917 3.917 0 0 1-.248 3.381z" class="cls-3" transform="translate(-756.18 -423.501)"/>
                    </g>
                    <g id="Group_3268" transform="translate(8.052 7.456)">
                        <path id="Path_47307" d="M743.989 430.344s1.072-.846.4-3.282" class="cls-5" transform="translate(-743.885 -427.017)"/>
                        <path id="Path_47308" d="M743.885 430.389l-.208-.265c.01-.008.972-.824.341-3.1l.323-.09c.696 2.51-.409 3.417-.456 3.455z" class="cls-3" transform="translate(-743.677 -426.929)"/>
                    </g>
                    <g id="Group_3269" transform="translate(4.189 8.594)">
                        <path id="Path_47309" d="M732.77 433.41s.983-.894-.189-2.848" class="cls-5" transform="translate(-732.438 -430.475)"/>
                        <path id="Path_47310" d="M732.6 433.364l-.226-.249c.035-.034.859-.839-.219-2.637l.287-.174c1.227 2.049.2 3.02.158 3.06z" class="cls-3" transform="translate(-732.153 -430.304)"/>
                    </g>
                </g>
                <g id="Group_3275" transform="translate(27.697 19.716)">
                    <g id="Group_3271">
                        <path id="Path_47311" d="M629.92 410.17c1.733-.057 2.88-1.265 3.426-3.137 1.25-4.288-1.065-7.435-5.6-9.534-3.874-1.794-9.392-.217-10.768 3.817-.865 2.538.14 4.11.995 4.594a2.534 2.534 0 0 0 2.451.3 3.15 3.15 0 0 0 1.767 1.53 3.457 3.457 0 0 0 2.431.414 4.061 4.061 0 0 0 1.823 1.219 5.264 5.264 0 0 0 1.891.215 2.706 2.706 0 0 0 1.584.582z" class="cls-5" transform="translate(-616.48 -396.6)"/>
                        <path id="Path_47312" d="M629.529 410.015a2.84 2.84 0 0 1-1.579-.582 5.326 5.326 0 0 1-1.894-.227 4.345 4.345 0 0 1-1.828-1.187 4.1 4.1 0 0 1-2.438-.451 3.591 3.591 0 0 1-1.78-1.465 2.883 2.883 0 0 1-2.454-.371c-.784-.445-2.018-2.019-1.07-4.795a6.721 6.721 0 0 1 3.845-3.931 9.025 9.025 0 0 1 7.151.015c4.914 2.275 6.881 5.642 5.688 9.735-.6 2.045-1.868 3.2-3.581 3.258h-.06zm-1.529-.923a.167.167 0 0 1 .106.039 2.5 2.5 0 0 0 1.47.547c2-.065 2.88-1.676 3.27-3.016 1.156-3.966-.7-7.106-5.506-9.333a8.676 8.676 0 0 0-6.879-.011 6.388 6.388 0 0 0-3.66 3.73c-.876 2.566.218 3.995.918 4.392a2.377 2.377 0 0 0 2.285.3.168.168 0 0 1 .241.087 3.046 3.046 0 0 0 1.676 1.434 3.424 3.424 0 0 0 2.3.412.169.169 0 0 1 .2.055 3.949 3.949 0 0 0 1.744 1.162 5.125 5.125 0 0 0 1.823.205z" class="cls-3" transform="translate(-616.144 -396.276)"/>
                    </g>
                    <g id="Group_3272" transform="translate(3.501 6.061)">
                        <path id="Path_47313" d="M627.334 417.9a4.02 4.02 0 0 1 .307-3.432" class="cls-5" transform="translate(-626.927 -414.393)"/>
                        <path id="Path_47314" d="M626.847 417.829a4.16 4.16 0 0 1 .307-3.584l.3.151a3.909 3.909 0 0 0-.307 3.282z" class="cls-3" transform="translate(-626.589 -414.245)"/>
                    </g>
                    <g id="Group_3273" transform="translate(7.574 7.964)">
                        <path id="Path_47315" d="M639.647 423.613s-.985-1.071.133-3.517" class="cls-5" transform="translate(-639.077 -420.026)"/>
                        <path id="Path_47316" d="M639.189 423.59c-.043-.047-1.048-1.183.1-3.7l.3.141c-1.06 2.316-.172 3.322-.163 3.332z" class="cls-3" transform="translate(-638.742 -419.888)"/>
                    </g>
                    <g id="Group_3274" transform="translate(11.419 9.884)">
                        <path id="Path_47317" d="M650.971 428.864s-.882-1.107.677-2.961" class="cls-5" transform="translate(-650.552 -425.794)"/>
                        <path id="Path_47318" d="M650.5 428.756c-.039-.05-.95-1.237.679-3.176l.256.218c-1.441 1.714-.705 2.706-.673 2.747z" class="cls-3" transform="translate(-650.213 -425.58)"/>
                    </g>
                </g>
            </g>
            <ellipse id="Ellipse_430" cx="4.251" cy="1.378" class="cls-17" rx="4.251" ry="1.378" transform="matrix(0.87, -0.493, 0.493, 0.87, 63.558, 50.561)"/>
            <ellipse id="Ellipse_431" cx="4.251" cy="1.378" class="cls-17" rx="4.251" ry="1.378" transform="matrix(0.87, -0.493, 0.493, 0.87, 79.347, 43.327)"/>
            <g id="Group_3277" class="cls-18" transform="translate(65.688 43.998)">
                <path id="Path_47319" d="M732.8 482.97a15.51 15.51 0 0 0 .6-3.453 3.2 3.2 0 0 0-.868-2.334 1.6 1.6 0 0 1-.5-.967 5.637 5.637 0 0 1 .556-2.051 8.855 8.855 0 0 0 .81-3.281 4.915 4.915 0 0 0-.352-1.942l-2.6 1.237a.575.575 0 0 0 .068.022c.008 0 .838.232.838 1.657a4.965 4.965 0 0 1-.5 1.748 9.51 9.51 0 0 0-.868 3.584 3.333 3.333 0 0 0 .9 2.33 1.526 1.526 0 0 1 .466.882 14.553 14.553 0 0 1-.737 3.438c-.023.067-.041.133-.057.2" class="cls-19" transform="translate(-729.821 -468.714)"/>
                <path id="Path_47320" d="M730.39 483.632l-.325-.082c.017-.07.037-.14.061-.212a14.331 14.331 0 0 0 .728-3.387 1.447 1.447 0 0 0-.428-.77 3.481 3.481 0 0 1-.939-2.436 9.65 9.65 0 0 1 .881-3.647 4.875 4.875 0 0 0 .486-1.685c0-1.271-.685-1.486-.714-1.495a.625.625 0 0 1-.082-.026l-.375-.139 3.123-1.484.068.161a5.127 5.127 0 0 1 .365 2.008 8.992 8.992 0 0 1-.822 3.342 5.538 5.538 0 0 0-.544 1.991c0 .262.147.473.46.861a3.388 3.388 0 0 1 .906 2.445 15.722 15.722 0 0 1-.606 3.494l-.323-.09a15.38 15.38 0 0 0 .593-3.413 3.017 3.017 0 0 0-.831-2.223 1.743 1.743 0 0 1-.534-1.073 5.763 5.763 0 0 1 .567-2.113 8.721 8.721 0 0 0 .8-3.219 4.954 4.954 0 0 0-.274-1.713l-2.122 1.008a1.9 1.9 0 0 1 .682 1.678 5.057 5.057 0 0 1-.51 1.811 9.371 9.371 0 0 0-.856 3.522 3.15 3.15 0 0 0 .863 2.223 1.654 1.654 0 0 1 .5.993 14.706 14.706 0 0 1-.747 3.489c-.02.059-.036.12-.051.181z" class="cls-20" transform="translate(-729.488 -468.268)"/>
            </g>
            <g id="Group_3278" class="cls-18" transform="translate(81.441 36.915)">
                <path id="Path_47321" d="M779.8 461.97a15.514 15.514 0 0 0 .6-3.454 3.2 3.2 0 0 0-.869-2.334 1.6 1.6 0 0 1-.5-.967 5.636 5.636 0 0 1 .556-2.051 8.856 8.856 0 0 0 .81-3.281 4.912 4.912 0 0 0-.352-1.942l-2.6 1.237a.587.587 0 0 0 .068.022c.008 0 .838.232.838 1.657a4.965 4.965 0 0 1-.5 1.748 9.512 9.512 0 0 0-.868 3.584 3.333 3.333 0 0 0 .9 2.33 1.525 1.525 0 0 1 .466.882 14.554 14.554 0 0 1-.737 3.438c-.023.067-.041.133-.057.2" class="cls-19" transform="translate(-776.821 -447.714)"/>
                <path id="Path_47322" d="M777.39 462.632l-.325-.082c.018-.07.037-.14.061-.212a14.325 14.325 0 0 0 .728-3.387 1.447 1.447 0 0 0-.428-.77 3.481 3.481 0 0 1-.939-2.436 9.652 9.652 0 0 1 .88-3.647 4.873 4.873 0 0 0 .486-1.685c0-1.271-.685-1.486-.714-1.495a.626.626 0 0 1-.083-.026l-.375-.139 3.123-1.484.068.161a5.128 5.128 0 0 1 .365 2.008 8.99 8.99 0 0 1-.822 3.342 5.535 5.535 0 0 0-.544 1.991c0 .262.147.473.459.862a3.387 3.387 0 0 1 .906 2.445 15.73 15.73 0 0 1-.606 3.494l-.323-.09a15.405 15.405 0 0 0 .593-3.413 3.016 3.016 0 0 0-.831-2.223 1.743 1.743 0 0 1-.534-1.073 5.763 5.763 0 0 1 .567-2.113 8.719 8.719 0 0 0 .8-3.219 4.955 4.955 0 0 0-.274-1.713l-2.122 1.009a1.9 1.9 0 0 1 .682 1.678 5.058 5.058 0 0 1-.51 1.811 9.369 9.369 0 0 0-.856 3.522 3.15 3.15 0 0 0 .863 2.223 1.654 1.654 0 0 1 .5.993 14.712 14.712 0 0 1-.747 3.489c-.016.057-.033.118-.048.179z" class="cls-20" transform="translate(-776.488 -447.268)"/>
            </g>
            <g id="Group_3282" transform="translate(63.417 41.747)">
                <g id="Group_3279" transform="translate(4.863)">
                    <path id="Path_47323" d="M740.227 462.2l-1.751.857a1.276 1.276 0 0 1 .427 1.055 3.047 3.047 0 0 1-.428 1.474l1.751-.857a2.165 2.165 0 0 0 1.076-1.791c-.002-.696-.483-1.028-1.075-.738z" class="cls-5" transform="translate(-738.056 -461.926)"/>
                    <path id="Path_47324" d="M737.224 465.646l.274-.477a2.871 2.871 0 0 0 .406-1.39 1.12 1.12 0 0 0-.361-.921l-.218-.166 2-.978a.909.909 0 0 1 .9 0 1.015 1.015 0 0 1 .413.895 2.346 2.346 0 0 1-1.17 1.942zm.707-2.875a1.585 1.585 0 0 1 .308 1.008 3 3 0 0 1-.231 1.108l1.314-.642a2.007 2.007 0 0 0 .982-1.639.692.692 0 0 0-.256-.609.588.588 0 0 0-.578.021z" class="cls-21" transform="translate(-737.224 -461.594)"/>
                </g>
                <g id="Group_3280" transform="translate(0 1.857)">
                    <path id="Path_47325" d="M726.041 468.264l-1.751.857a2.166 2.166 0 0 0-1.076 1.791c0 .7.484 1.028 1.075.739l1.752-.857a1.275 1.275 0 0 1-.427-1.056 3.041 3.041 0 0 1 .427-1.474z" class="cls-5" transform="translate(-723.046 -467.871)"/>
                    <path id="Path_47326" d="M723.545 471.152a.773.773 0 0 1-.418-.118 1.015 1.015 0 0 1-.414-.895 2.344 2.344 0 0 1 1.17-1.943l2.244-1.1-.275.478a2.861 2.861 0 0 0-.406 1.389 1.12 1.12 0 0 0 .361.921l.218.166-2 .977a1.106 1.106 0 0 1-.48.125zm1.8-3.294l-1.314.643a2 2 0 0 0-.982 1.639.691.691 0 0 0 .256.609.586.586 0 0 0 .578-.022l1.538-.752a1.584 1.584 0 0 1-.308-1.008 2.987 2.987 0 0 1 .232-1.109z" class="cls-21" transform="translate(-722.714 -467.099)"/>
                </g>
                <g id="Group_3281" transform="translate(2.399 0.933)">
                    <path id="Path_47327" d="M733.089 464.945l-2.289 1.119a3.043 3.043 0 0 0-.428 1.474 1.275 1.275 0 0 0 .427 1.056l2.289-1.119a3.047 3.047 0 0 0 .428-1.474 1.276 1.276 0 0 0-.427-1.056z" class="cls-22" transform="translate(-730.204 -464.748)"/>
                    <path id="Path_47328" d="M730.447 468.4l-.082-.063a1.441 1.441 0 0 1-.494-1.19 3.205 3.205 0 0 1 .451-1.559l.025-.045 2.427-1.187.082.063a1.441 1.441 0 0 1 .494 1.19 3.21 3.21 0 0 1-.451 1.558l-.025.045zm.14-2.6a2.839 2.839 0 0 0-.381 1.345 1.193 1.193 0 0 0 .286.855l2.142-1.048a2.848 2.848 0 0 0 .381-1.345 1.193 1.193 0 0 0-.286-.855z" class="cls-21" transform="translate(-729.872 -464.361)"/>
                </g>
            </g>
            <g id="Group_3286" transform="translate(79.183 34.684)">
                <g id="Group_3283" transform="translate(4.863)">
                    <path id="Path_47329" d="M787.265 441.262l-1.752.857a1.276 1.276 0 0 1 .427 1.055 3.043 3.043 0 0 1-.428 1.474l1.751-.857A2.165 2.165 0 0 0 788.34 442c.001-.7-.483-1.028-1.075-.738z" class="cls-5" transform="translate(-785.094 -440.988)"/>
                    <path id="Path_47330" d="M784.262 444.708l.274-.477a2.868 2.868 0 0 0 .406-1.39 1.12 1.12 0 0 0-.361-.921l-.218-.166 2-.977a.9.9 0 0 1 .9 0 1.014 1.014 0 0 1 .413.894 2.345 2.345 0 0 1-1.17 1.943zm.707-2.875a1.587 1.587 0 0 1 .308 1.009 3 3 0 0 1-.231 1.108l1.313-.642a2.007 2.007 0 0 0 .981-1.64.691.691 0 0 0-.256-.608.587.587 0 0 0-.578.021z" class="cls-21" transform="translate(-784.262 -440.655)"/>
                </g>
                <g id="Group_3284" transform="translate(0 1.857)">
                    <path id="Path_47331" d="M773.079 447.326l-1.751.857a2.165 2.165 0 0 0-1.076 1.791c0 .7.483 1.028 1.075.739l1.752-.857a1.276 1.276 0 0 1-.427-1.056 3.042 3.042 0 0 1 .427-1.474z" class="cls-5" transform="translate(-770.084 -446.933)"/>
                    <path id="Path_47332" d="M770.583 450.214a.771.771 0 0 1-.418-.118 1.014 1.014 0 0 1-.414-.895 2.345 2.345 0 0 1 1.17-1.942l2.244-1.1-.275.478a2.864 2.864 0 0 0-.405 1.389 1.121 1.121 0 0 0 .361.921l.218.166-2 .976a1.1 1.1 0 0 1-.481.125zm1.8-3.294l-1.313.642a2.006 2.006 0 0 0-.982 1.64.691.691 0 0 0 .256.608.588.588 0 0 0 .578-.021l1.538-.752a1.588 1.588 0 0 1-.308-1.009 2.987 2.987 0 0 1 .23-1.108z" class="cls-21" transform="translate(-769.752 -446.161)"/>
                </g>
                <g id="Group_3285" transform="translate(2.399 0.934)">
                    <path id="Path_47333" d="M780.127 444.007l-2.289 1.119a3.042 3.042 0 0 0-.428 1.474 1.276 1.276 0 0 0 .427 1.056l2.289-1.119a3.043 3.043 0 0 0 .428-1.474 1.276 1.276 0 0 0-.427-1.056z" class="cls-22" transform="translate(-777.242 -443.81)"/>
                    <path id="Path_47334" d="M777.486 447.466l-.082-.062a1.443 1.443 0 0 1-.494-1.19 3.209 3.209 0 0 1 .451-1.559l.025-.045 2.427-1.187.082.062a1.442 1.442 0 0 1 .494 1.19 3.209 3.209 0 0 1-.451 1.558l-.025.045zm.14-2.6a2.839 2.839 0 0 0-.381 1.345 1.194 1.194 0 0 0 .286.855l2.142-1.048a2.842 2.842 0 0 0 .381-1.345 1.194 1.194 0 0 0-.286-.855z" class="cls-21" transform="translate(-776.91 -443.423)"/>
                </g>
            </g>
            <g id="Group_3287" transform="translate(73.226 50.636)">
                <path id="Line_120" d="M0 2.569L5.728 0" class="cls-22" transform="translate(0.068 0.154)"/>
                <path id="Path_47335" d="M752.115 490.826l-.136-.308 5.728-2.569.136.308z" class="cls-21" transform="translate(-751.979 -487.948)"/>
            </g>
        </g>
    </g>
</svg>
