<svg xmlns="http://www.w3.org/2000/svg" width="40" height="30">
    <g style="opacity:.8">
        <path data-name="Path 48972" d="M549.708 406h-1.491l-8.171 7.332a7.681 7.681 0 0 1-10.275 0L521.6 406h-2.983l9.824 8.814a9.669 9.669 0 0 0 12.937 0L551.2 406z" transform="translate(-515.615 -403)" style="opacity:.2;fill:#8d9095"/>
        <path data-name="Path 48973" d="M549.708 406h-1.491l-8.171 7.332a7.681 7.681 0 0 1-10.275 0L521.6 406h-2.983l9.824 8.814a9.669 9.669 0 0 0 12.937 0L551.2 406z" transform="translate(-515.615 -397)" style="opacity:.4;fill:#8d9095"/>
        <path data-name="Path 48974" d="M549.708 406h-1.491l-8.171 7.332a7.681 7.681 0 0 1-10.275 0L521.6 406h-2.983l9.824 8.814a9.669 9.669 0 0 0 12.937 0L551.2 406z" transform="translate(-515.615 -391)" style="opacity:.7;fill:#8d9095"/>
    </g>
</svg>
