<svg xmlns="http://www.w3.org/2000/svg" width="110" height="170">
    <defs>
        <style>
            .cls-2{fill:#fff}.cls-3{fill:#262626}.cls-4{fill:#ffeae0}.cls-5{fill:#ff5200}.cls-6{fill:#494949}
        </style>
    </defs>
    <g id="img_mailcertified2" transform="translate(-476.991 -411)">
        <g id="Group_1663" data-name="Group 1663" transform="translate(480.767 412)">
            <g id="Group_3152" data-name="Group 3152" transform="translate(4.734 72.942)">
                <path id="Path_48698" data-name="Path 48698" class="cls-2" d="m489.455 482.18 20.364-5.18 18.473 9.73 16.619-10.648 19.556 5.7-7.362 29.4s-.591 43.869-.7 43.724c-.2-.258-56.687 0-56.687 0l-2.976-45.758z" transform="translate(-488.49 -475.118)"/>
                <path id="Path_48699" data-name="Path 48699" class="cls-3" d="M556.52 555.991a.89.89 0 0 1-.212-.025c-1.945-.161-34.727-.075-56.472.024a.965.965 0 0 1-.963-.9l-2.973-45.664-7.261-26.879a.967.967 0 0 1 .694-1.188l20.365-5.178a.975.975 0 0 1 .687.083l17.976 9.468 16.146-10.346a.96.96 0 0 1 .79-.114l19.557 5.7a.967.967 0 0 1 .667 1.162l-7.336 29.293c-.016 1.181-.154 11.457-.307 21.737-.079 5.464-.165 10.93-.235 15.03-.131 7.519-.131 7.519-.818 7.748a.973.973 0 0 1-.305.049zm-.262-1.862-.009-.03zm-15.5-.206c8.961 0 12.983.052 14.835.157.139-5.132.516-31.991.661-42.792a.965.965 0 0 1 .028-.22l7.137-28.5-18.243-5.316-16.247 10.408a.97.97 0 0 1-.971.041l-18.145-9.557-19.056 4.844 7.03 26.026a.991.991 0 0 1 .032.19l2.917 44.851c19.087-.087 31.693-.132 40.024-.132z" transform="translate(-488.605 -475.234)"/>
                <g id="Group_1662" data-name="Group 1662" transform="translate(56.526 4.76)">
                    <g id="Group_3159" data-name="Group 3159">
                        <path id="Path_44577" data-name="Path 44577" class="cls-2" d="m547.217 505.954.773 6.172-8.758 23.317 9.8 24.233 12.648-33.155-3.642-44.909-3.535-1.334" transform="translate(-538.268 -479.31)"/>
                        <path id="Path_48707" data-name="Path 48707" class="cls-3" d="M549.147 560.756a.966.966 0 0 1-.895-.6l-9.8-24.234a.962.962 0 0 1-.009-.7l8.675-23.093-.744-5.937a.965.965 0 1 1 1.914-.24l.775 6.173a.958.958 0 0 1-.055.459l-8.626 22.963 8.737 21.607 11.696-30.654-3.574-44.081-2.964-1.12a.965.965 0 0 1 .681-1.806l3.536 1.334a.965.965 0 0 1 .621.826l3.641 44.909a.967.967 0 0 1-.06.421l-12.648 33.155a.963.963 0 0 1-.892.621z" transform="translate(-538.383 -479.426)"/>
                    </g>
                </g>
            </g>
            <g id="Group_1647" data-name="Group 1647" transform="translate(24.445 60.764)">
                <g id="Group_1646" data-name="Group 1646">
                    <g id="Group_1636" data-name="Group 1636" transform="translate(9.761)">
                        <path id="Rectangle_2438" data-name="Rectangle 2438" class="cls-2" transform="translate(1.136 1.137)" d="M0 0h18.375v22.363H0z"/>
                        <g id="Group_3153" data-name="Group 3153">
                            <path id="Path_44546" data-name="Path 44546" class="cls-4" d="M516.258 486.985h16.783V466.21h-16.783z" transform="translate(-514.328 -464.279)"/>
                            <path id="Path_44546-2" data-name="Path 44546" class="cls-3" d="M533.271 466.44v20.775h-16.783V466.44h16.783m0-1.93h-16.783a1.931 1.931 0 0 0-1.93 1.93v20.775a1.93 1.93 0 0 0 1.93 1.93h16.783a1.93 1.93 0 0 0 1.931-1.93V466.44a1.931 1.931 0 0 0-1.931-1.93z" transform="translate(-514.558 -464.51)"/>
                        </g>
                    </g>
                    <g id="Group_3154" data-name="Group 3154" transform="translate(9.233 24.208)">
                        <path id="Path_48700" data-name="Path 48700" class="cls-5" d="M525.711 486.678h-2.432L515 530.518l9.359 11.872 9.631-11.872z" transform="translate(-513.97 -485.713)"/>
                        <path id="Path_48701" data-name="Path 48701" class="cls-3" d="m524.471 544.052-10.378-13.166 8.509-45.058h4.032l8.51 45.066zm-8.318-13.671 8.34 10.579 8.589-10.587-8.048-42.615h-.834z" transform="translate(-514.093 -485.828)"/>
                    </g>
                    <g id="Group_3155" data-name="Group 3155" transform="translate(12.456 20.314)">
                        <path id="Path_48702" data-name="Path 48702" class="cls-5" d="m521.472 493.12 5.611.066 3.079-5.045-3.949-4.892H522.3L518.012 487z" transform="translate(-516.785 -482.284)"/>
                        <path id="Path_48703" data-name="Path 48703" class="cls-3" d="m527.768 494.272-6.716-.079-4.121-7.287 5.153-4.507h4.738l4.665 5.78zm-5.583-2 4.506.053 2.439-4-3.232-4.005h-3.088l-3.425 3z" transform="translate(-516.931 -482.399)"/>
                    </g>
                    <g id="Group_1645" data-name="Group 1645" transform="translate(0 8.376)">
                        <g id="Group_1644" data-name="Group 1644">
                            <g id="Group_1643" data-name="Group 1643">
                                <g id="Group_1641" data-name="Group 1641" transform="translate(20.104 .002)">
                                    <g id="Group_3156" data-name="Group 3156">
                                        <path id="Path_44551" data-name="Path 44551" class="cls-2" d="m534.4 472.737-9.881 11.989 7.62 7.533 10.529-15.353z" transform="translate(-523.551 -471.773)"/>
                                        <path id="Path_48704" data-name="Path 48704" class="cls-3" d="M532.252 493.339a.968.968 0 0 1-.679-.278l-7.62-7.533a.964.964 0 0 1-.066-1.3l9.881-11.989a.968.968 0 0 1 1.18-.246l8.267 4.169a.966.966 0 0 1 .362 1.408l-10.529 15.35a.958.958 0 0 1-.7.414.827.827 0 0 1-.096.005zm-6.314-8.564 6.171 6.1 9.251-13.489-6.593-3.325z" transform="translate(-523.667 -471.888)"/>
                                    </g>
                                </g>
                                <g id="Group_1642" data-name="Group 1642">
                                    <g id="Group_3157" data-name="Group 3157">
                                        <path id="Path_44553" data-name="Path 44553" class="cls-2" d="m515.082 472.736 9.881 11.989-7.619 7.533-10.531-15.353z" transform="translate(-505.847 -471.771)"/>
                                        <path id="Path_48705" data-name="Path 48705" class="cls-3" d="M517.46 493.338a.829.829 0 0 1-.092 0 .96.96 0 0 1-.7-.414l-10.531-15.352a.965.965 0 0 1 .361-1.408l8.269-4.169a.961.961 0 0 1 1.179.246l9.882 11.989a.967.967 0 0 1-.066 1.3l-7.619 7.533a.965.965 0 0 1-.683.275zm-9.112-15.952 9.254 13.489 6.171-6.1-8.829-10.713z" transform="translate(-505.962 -471.886)"/>
                                    </g>
                                </g>
                            </g>
                        </g>
                    </g>
                </g>
            </g>
            <g id="Group_1662-2" data-name="Group 1662" transform="translate(0 78.624)">
                <g id="Group_3158" data-name="Group 3158">
                    <path id="Path_44577-2" data-name="Path 44577" class="cls-2" d="M491.649 481.088a2.577 2.577 0 0 0-1.908 2.071l-4.42 40.851a2.583 2.583 0 0 0 .276 1.659l11.235 23.764a2.58 2.58 0 0 0 4 .678l11.635-10.576a2.581 2.581 0 0 0 .523-3.156L500.372 513.5a2.579 2.579 0 0 1 .216-2.821l1.6-2.077" transform="translate(-484.32 -480.123)"/>
                    <path id="Path_48706" data-name="Path 48706" class="cls-3" d="M499.224 551.864a3.547 3.547 0 0 1-3.124-1.855L484.84 526.2a3.512 3.512 0 0 1-.355-2.233l4.415-40.797a3.563 3.563 0 0 1 2.63-2.9.965.965 0 0 1 .476 1.871 1.615 1.615 0 0 0-1.195 1.3l-4.412 40.8a1.681 1.681 0 0 0 .166 1.095l11.259 23.81a1.588 1.588 0 0 0 1.125.776 1.631 1.631 0 0 0 1.356-.4l11.634-10.576a1.607 1.607 0 0 0 .327-1.975l-12.621-22.884a3.544 3.544 0 0 1 .3-3.875l1.6-2.077a.965.965 0 1 1 1.529 1.178l-1.6 2.077a1.613 1.613 0 0 0-.135 1.765l12.622 22.884a3.531 3.531 0 0 1-.72 4.336L501.6 550.94a3.518 3.518 0 0 1-2.376.924z" transform="translate(-484.435 -480.238)"/>
                </g>
            </g>
            <g id="Group_3549" data-name="Group 3549" transform="translate(-804.833 -343.115)">
                <g id="Group_3547" data-name="Group 3547" transform="translate(818.638 348.251)">
                    <g id="Group_3542" data-name="Group 3542" transform="translate(.327 35.776)">
                        <circle id="Ellipse_515" data-name="Ellipse 515" class="cls-4" cx="6.979" cy="6.979" r="6.979" transform="translate(.791 .79)"/>
                        <path id="Path_49008" data-name="Path 49008" class="cls-3" d="M826.759 402.237a7.77 7.77 0 1 1 7.769-7.77 7.779 7.779 0 0 1-7.769 7.77zm0-13.959a6.188 6.188 0 1 0 6.188 6.188 6.2 6.2 0 0 0-6.188-6.188z" transform="translate(-818.989 -386.696)"/>
                    </g>
                    <g id="Group_3543" data-name="Group 3543" transform="translate(45.924 35.776)">
                        <circle id="Ellipse_516" data-name="Ellipse 516" class="cls-4" cx="6.979" cy="6.979" r="6.979" transform="translate(.791 .79)"/>
                        <path id="Path_49009" data-name="Path 49009" class="cls-3" d="M875.759 402.237a7.77 7.77 0 1 1 7.769-7.77 7.779 7.779 0 0 1-7.769 7.77zm0-13.959a6.188 6.188 0 1 0 6.188 6.188 6.2 6.2 0 0 0-6.188-6.188z" transform="translate(-867.989 -386.696)"/>
                    </g>
                    <g id="Group_3544" data-name="Group 3544" transform="translate(6.841 13.441)">
                        <rect id="Rectangle_2778" data-name="Rectangle 2778" class="cls-4" width="45.598" height="49.32" rx="22.799" transform="translate(.791 .791)"/>
                        <path id="Path_49010" data-name="Path 49010" class="cls-3" d="M849.579 413.6a23.616 23.616 0 0 1-23.59-23.59v-3.722a23.589 23.589 0 1 1 47.179 0v3.722a23.616 23.616 0 0 1-23.589 23.59zm0-49.32a22.033 22.033 0 0 0-22.009 22.008v3.722a22.008 22.008 0 0 0 44.017 0v-3.722a22.033 22.033 0 0 0-22.008-22.01z" transform="translate(-825.989 -362.695)"/>
                    </g>
                    <rect id="Rectangle_2779" data-name="Rectangle 2779" class="cls-3" width="3.722" height="4.653" rx="1.861" transform="translate(18.333 35.17)"/>
                    <rect id="Rectangle_2780" data-name="Rectangle 2780" class="cls-3" width="3.722" height="4.653" rx="1.861" transform="translate(38.806 35.17)"/>
                    <path id="Path_49011" data-name="Path 49011" class="cls-3" d="M851.58 396.053a.78.78 0 0 1-.423-.125.79.79 0 0 1-.243-1.092l2.065-3.244-2.563-1.668v-7.014a.791.791 0 1 1 1.581 0v6.157l3.157 2.054-2.906 4.565a.793.793 0 0 1-.668.367z" transform="translate(-820.844 -350.602)"/>
                    <g id="Group_3545" data-name="Group 3545" transform="translate(41.601 10.327)">
                        <path id="Path_49012" data-name="Path 49012" class="cls-6" d="M866.19 368.6s0 3.722 8.375 13.958l.93 4.653s4.952-8.948 2.337-17.381c-3.267-10.536-9.781-9.605-9.781-9.605l-3.712 3.859z" transform="translate(-863.412 -359.407)"/>
                        <path id="Path_49013" data-name="Path 49013" class="cls-3" d="m875.074 389.42-1.315-6.575c-7.5-9.2-8.331-13.2-8.42-14.127l-2-4.874 4.257-4.426.27-.038c.289-.043 7.22-.9 10.648 10.153 2.684 8.655-2.191 17.621-2.4 18zm-8.162-20.9c.009.141.36 3.894 8.2 13.472l.125.152.489 2.451c1.244-3.09 3.018-9.008 1.285-14.6-2.686-8.662-7.511-9.106-8.666-9.072L865.2 364.2l1.715 4.184z" transform="translate(-863.343 -359.348)"/>
                    </g>
                    <path id="Path_49014" data-name="Path 49014" class="cls-3" d="m876.505 385.505-1.581-.023c.243-16.814-7.358-21.787-7.434-21.835l.842-1.34c.344.217 8.429 5.503 8.173 23.198z" transform="translate(-822.03 -349.227)"/>
                    <path id="Path_49015" data-name="Path 49015" d="M864.7 369.759s-2.792-2.792-7.761-1.448l-.614-3.2 5.009-1.561 4.3.631.931 7.326a4.348 4.348 0 0 0-1.865-1.748z" transform="translate(-821.255 -349.313)" style="fill:#2d2d2d"/>
                    <g id="Group_3546" data-name="Group 3546">
                        <path id="Path_49016" data-name="Path 49016" class="cls-6" d="M828.7 380.854s6.924.159 10.236-5.583c0 0 12.458 2.279 14.889-7.445.931-3.722 3.722-3.722 4.653-3.722a5.888 5.888 0 0 1 4.653 3.722s2.792-1.56 2.792-6.514c0-2.792-.931-4.653-4.653-7.445s-12.064-5.355-17.681-4.653c-7.444.931-19.542 5.583-20.473 18.611 0 0 0 4.653-2.792 6.514 0 0 3.722 1.861 5.583-.931l.2 10.536a5.931 5.931 0 0 1 2.593-3.09z" transform="translate(-818.755 -348.31)"/>
                        <path id="Path_49017" data-name="Path 49017" class="cls-3" d="m825.286 388.348-.249-13.222a5.859 5.859 0 0 1-5.179-.137l-1.219-.609 1.133-.756c2.4-1.6 2.44-5.815 2.441-5.857.89-12.489 11.957-18.245 21.165-19.4 5.811-.723 14.429 1.937 18.253 4.8 3.716 2.787 4.969 4.826 4.969 8.078 0 5.355-3.066 7.131-3.2 7.2l-.777.434-.34-.822a5.172 5.172 0 0 0-3.922-3.234c-.929 0-3.1 0-3.886 3.123-2.276 9.107-12.729 8.415-15.25 8.108-3.281 5.126-9.216 5.5-10.444 5.518a5.273 5.273 0 0 0-2.044 2.557zm1.252-17.538.2 10.409a5.387 5.387 0 0 1 1.5-1.132l.175-.087h.2c.086.006 6.5.074 9.535-5.188l.278-.482.548.1c.478.087 11.76 2.025 13.981-6.857a5.132 5.132 0 0 1 5.42-4.322 6.569 6.569 0 0 1 4.914 3.273 7.389 7.389 0 0 0 1.74-5.274c0-2.412-.649-4.047-4.337-6.812-3.581-2.687-11.661-5.181-17.108-4.5-3.118.39-18.725 3.084-19.782 17.883 0 .131-.025 3.822-2.054 6.153a3.017 3.017 0 0 0 3.4-1.065z" transform="translate(-818.638 -348.251)"/>
                    </g>
                    <path id="Path_49018" data-name="Path 49018" class="cls-3" d="m838.822 378.218-1.067-1.168c2.024-1.849 3.279-5.9 4.388-9.477.9-2.911 1.753-5.66 2.972-7.184a11.136 11.136 0 0 1 15.051-2l-.949 1.267a9.519 9.519 0 0 0-12.866 1.722c-1.031 1.29-1.841 3.9-2.7 6.664-1.223 3.952-2.488 8.038-4.829 10.176z" transform="translate(-819.965 -348.812)"/>
                </g>
                <g id="Group_3548" data-name="Group 3548" transform="translate(841.51 398.215)">
                    <path id="Path_49019" data-name="Path 49019" d="M851.138 402.793c-3.906 0-7.072 2.245-7.072 5.014h14.145c0-2.769-3.167-5.014-7.073-5.014z" transform="translate(-843.276 -402.002)" style="fill:#ff7171"/>
                    <path id="Path_49020" data-name="Path 49020" class="cls-3" d="M858.152 408.538h-14.145a.79.79 0 0 1-.79-.79c0-3.2 3.527-5.8 7.862-5.8s7.862 2.6 7.862 5.8a.79.79 0 0 1-.789.79zm-13.243-1.581h12.341c-.553-1.952-3.109-3.432-6.171-3.432s-5.617 1.475-6.17 3.432z" transform="translate(-843.217 -401.943)"/>
                </g>
                <path id="Path_49021" data-name="Path 49021" class="cls-3" d="M830.815 397.5a2.081 2.081 0 0 1-2.08-2.079v-1.334a.791.791 0 0 1 1.582 0v1.334a.5.5 0 0 0 1 0v-4.295a.791.791 0 1 1 1.581 0v4.295a2.081 2.081 0 0 1-2.083 2.079z" transform="translate(-.701 -2.922)"/>
            </g>
        </g>
        <g id="Group_3164" data-name="Group 3164" transform="translate(477.991 506.423)">
            <g id="Group_3160" data-name="Group 3160" transform="translate(0 2.392)">
                <path id="Path_48708" data-name="Path 48708" class="cls-2" d="M526.964 534.613 489.849 508.9a4.466 4.466 0 0 0-7.008 3.671v51.415a4.466 4.466 0 0 0 7.008 3.671l37.115-25.708a4.466 4.466 0 0 0 0-7.336z" transform="translate(-481.876 -507.142)"/>
                <path id="Path_48709" data-name="Path 48709" class="cls-3" d="M487.424 569.539a5.436 5.436 0 0 1-5.433-5.434v-51.414a5.43 5.43 0 0 1 8.523-4.464l37.114 25.707a5.43 5.43 0 0 1 0 8.929l-37.114 25.708a5.429 5.429 0 0 1-3.09.968zm0-60.359a3.5 3.5 0 0 0-1.631.41 3.446 3.446 0 0 0-1.876 3.1v51.415a3.5 3.5 0 0 0 5.493 2.879l37.114-25.709a3.5 3.5 0 0 0 0-5.754l-37.114-25.707a3.473 3.473 0 0 0-1.982-.633z" transform="translate(-481.991 -507.257)"/>
            </g>
            <g id="Group_3161" data-name="Group 3161" transform="translate(45.09 2.751)">
                <path id="Path_48710" data-name="Path 48710" class="cls-2" d="m524.641 534.246 36.027-24.955a4.86 4.86 0 0 1 7.628 3.995V563.2a4.86 4.86 0 0 1-7.628 3.995l-36.027-24.955a4.859 4.859 0 0 1 0-7.994z" transform="translate(-521.583 -507.458)"/>
                <path id="Path_48711" data-name="Path 48711" class="cls-3" d="M563.548 569.139a5.814 5.814 0 0 1-3.313-1.04l-36.028-24.955a5.824 5.824 0 0 1 0-9.576l36.028-24.956a5.825 5.825 0 0 1 9.141 4.789v49.91a5.833 5.833 0 0 1-5.828 5.829zm-.006-59.643a3.857 3.857 0 0 0-2.209.7l-36.028 24.955a3.892 3.892 0 0 0 0 6.4l36.028 24.956a3.894 3.894 0 0 0 6.111-3.2V513.4a3.834 3.834 0 0 0-2.086-3.449 3.891 3.891 0 0 0-1.815-.451z" transform="translate(-521.698 -507.573)"/>
            </g>
            <g id="Group_3162" data-name="Group 3162" transform="translate(.797 19.274)">
                <path id="Path_48712" data-name="Path 48712" class="cls-2" d="m524.577 524.328-39.185 34.625a5.416 5.416 0 0 0 3.586 9.474h78.37a5.415 5.415 0 0 0 3.586-9.474l-39.185-34.625a5.415 5.415 0 0 0-7.172 0z" transform="translate(-482.577 -522.008)"/>
                <path id="Path_48713" data-name="Path 48713" class="cls-3" d="M567.465 569.507h-78.37a6.381 6.381 0 0 1-4.225-11.161l39.185-34.626a6.39 6.39 0 0 1 8.451 0l39.185 34.626a6.38 6.38 0 0 1-4.226 11.161zm-42.771-45.064.639.723-39.185 34.625a4.451 4.451 0 0 0 2.947 7.785h78.37a4.45 4.45 0 0 0 2.947-7.785l-39.185-34.625a4.457 4.457 0 0 0-5.894 0z" transform="translate(-482.693 -522.123)"/>
            </g>
            <g id="Group_3163" data-name="Group 3163" transform="translate(.982)">
                <path id="Path_48714" data-name="Path 48714" class="cls-2" d="m532 550.16 39.461-34.869a5.311 5.311 0 0 0-3.513-9.291h-78.924a5.311 5.311 0 0 0-3.517 9.291l39.463 34.869a5.311 5.311 0 0 0 7.03 0z" transform="translate(-482.74 -505.035)"/>
                <path id="Path_48715" data-name="Path 48715" class="cls-3" d="M528.6 552.569a6.262 6.262 0 0 1-4.156-1.57l-39.462-34.87a6.228 6.228 0 0 1-1.714-6.925 6.152 6.152 0 0 1 5.87-4.054h78.925a6.231 6.231 0 0 1 5.87 4.054 6.151 6.151 0 0 1-1.715 6.925L532.757 551a6.26 6.26 0 0 1-4.157 1.569zm-39.461-45.489a4.346 4.346 0 0 0-2.878 7.6l39.462 34.87a4.357 4.357 0 0 0 5.755 0l39.461-34.87a4.345 4.345 0 0 0-2.876-7.6z" transform="translate(-482.855 -505.15)"/>
            </g>
        </g>
        <g id="Group_3170" data-name="Group 3170" transform="translate(488.161 500.451)">
            <g id="Group_3166" data-name="Group 3166" transform="translate(0 3.645)">
                <rect id="Rectangle_2587" data-name="Rectangle 2587" class="cls-4" width="7.841" height="5.881" rx="2.589" transform="rotate(73.811 2.781 4.065)"/>
                <path id="Path_48718" data-name="Path 48718" class="cls-3" d="M495.4 512.794a3.923 3.923 0 0 1-3.751-2.817l-.549-1.877a3.906 3.906 0 1 1 7.5-2.179l.546 1.883a3.908 3.908 0 0 1-3.751 5zm-1.9-3.356a1.975 1.975 0 0 0 3.794-1.1l-.547-1.883a1.975 1.975 0 1 0-3.793 1.1z" transform="translate(-490.948 -503.101)"/>
            </g>
            <g id="Group_3167" data-name="Group 3167" transform="translate(4.764 1.809)">
                <rect id="Rectangle_2588" data-name="Rectangle 2588" class="cls-4" width="9.801" height="5.881" rx="2.589" transform="rotate(80.1 2.848 3.998)"/>
                <path id="Path_48719" data-name="Path 48719" class="cls-3" d="M499.718 513.16a3.917 3.917 0 0 1-3.843-3.234l-.674-3.861a3.91 3.91 0 0 1 3.175-4.52 3.914 3.914 0 0 1 4.52 3.176l.675 3.86a3.91 3.91 0 0 1-3.852 4.579zm-1.942-3.567a1.975 1.975 0 1 0 3.892-.68l-.675-3.86a1.957 1.957 0 0 0-.812-1.274 1.971 1.971 0 0 0-3.078 1.953z" transform="translate(-495.142 -501.485)"/>
            </g>
            <g id="Group_3168" data-name="Group 3168" transform="translate(9.422)">
                <rect id="Rectangle_2589" data-name="Rectangle 2589" class="cls-4" width="10.781" height="5.881" rx="2.589" transform="rotate(80.1 2.848 3.998)"/>
                <path id="Path_48720" data-name="Path 48720" class="cls-3" d="M503.989 512.532a3.914 3.914 0 0 1-3.843-3.233l-.844-4.827a3.906 3.906 0 0 1 7.7-1.344l.843 4.827a3.9 3.9 0 0 1-3.852 4.578zm-1.942-3.566a1.975 1.975 0 1 0 3.892-.679l-.843-4.827a1.969 1.969 0 0 0-.812-1.274 1.989 1.989 0 0 0-1.473-.333 1.985 1.985 0 0 0-1.607 2.286z" transform="translate(-499.245 -499.892)"/>
            </g>
            <g id="Group_3169" data-name="Group 3169" transform="translate(14.723 .092)">
                <rect id="Rectangle_2590" data-name="Rectangle 2590" class="cls-4" width="9.801" height="5.881" rx="2.589" transform="rotate(90.983 2.98 3.932)"/>
                <path id="Path_48721" data-name="Path 48721" class="cls-3" d="M507.819 511.708h-.069a3.914 3.914 0 0 1-3.837-3.971l.067-3.921a3.879 3.879 0 0 1 1.194-2.739 3.74 3.74 0 0 1 2.779-1.1 3.913 3.913 0 0 1 3.838 3.972l-.067 3.92a3.916 3.916 0 0 1-3.9 3.838zm.066-9.8a1.985 1.985 0 0 0-1.975 1.942l-.067 3.92a1.983 1.983 0 0 0 1.941 2.008 2.055 2.055 0 0 0 1.4-.556 1.953 1.953 0 0 0 .6-1.384l.067-3.92a1.984 1.984 0 0 0-1.941-2.009z" transform="translate(-503.912 -499.973)"/>
            </g>
        </g>
        <g id="Group_3175" data-name="Group 3175" transform="translate(542.229 498.375)">
            <g id="Group_3171" data-name="Group 3171" transform="translate(14.242 3.639)">
                <rect id="Rectangle_2591" data-name="Rectangle 2591" class="cls-4" width="7.841" height="5.881" rx="2.589" transform="rotate(106.189 3.333 3.992)"/>
                <path id="Path_48722" data-name="Path 48722" class="cls-3" d="M555.005 510.966a3.867 3.867 0 0 1-1.086-.156 3.912 3.912 0 0 1-2.663-4.841l.547-1.882a3.906 3.906 0 1 1 7.5 2.178l-.546 1.882a3.916 3.916 0 0 1-3.752 2.819zm.551-7.765a1.978 1.978 0 0 0-1.9 1.426l-.547 1.882a1.975 1.975 0 0 0 3.794 1.1l.546-1.884a1.978 1.978 0 0 0-1.347-2.448 1.949 1.949 0 0 0-.546-.077z" transform="translate(-551.102 -501.268)"/>
            </g>
            <g id="Group_3172" data-name="Group 3172" transform="translate(9.351 1.808)">
                <rect id="Rectangle_2592" data-name="Rectangle 2592" class="cls-4" width="9.801" height="5.881" rx="2.589" transform="rotate(99.9 3.355 4.113)"/>
                <path id="Path_48723" data-name="Path 48723" class="cls-3" d="M550.7 511.331a3.967 3.967 0 0 1-.671-.058 3.912 3.912 0 0 1-3.176-4.521l.675-3.862a3.906 3.906 0 0 1 7.695 1.344l-.674 3.862a3.914 3.914 0 0 1-3.849 3.235zm.674-9.744a1.987 1.987 0 0 0-1.945 1.635l-.674 3.863a1.975 1.975 0 1 0 3.89.679l.675-3.862a1.983 1.983 0 0 0-1.606-2.286 2.024 2.024 0 0 0-.339-.03z" transform="translate(-546.794 -499.655)"/>
            </g>
            <g id="Group_3173" data-name="Group 3173" transform="translate(4.523)">
                <rect id="Rectangle_2593" data-name="Rectangle 2593" class="cls-4" width="10.781" height="5.881" rx="2.589" transform="rotate(99.9 3.439 4.184)"/>
                <path id="Path_48724" data-name="Path 48724" class="cls-3" d="M546.452 510.7a3.91 3.91 0 0 1-3.85-4.577l.843-4.827a3.906 3.906 0 0 1 7.695 1.344l-.843 4.828a3.91 3.91 0 0 1-3.845 3.232zm.84-10.707a1.978 1.978 0 0 0-1.945 1.635l-.843 4.827a1.975 1.975 0 0 0 3.89.68l.843-4.828a1.983 1.983 0 0 0-1.606-2.286 2.026 2.026 0 0 0-.339-.026z" transform="translate(-542.543 -498.063)"/>
            </g>
            <g id="Group_3174" data-name="Group 3174" transform="translate(0 .091)">
                <rect id="Rectangle_2594" data-name="Rectangle 2594" class="cls-4" width="9.801" height="5.881" rx="2.589" transform="rotate(89.03 2.93 3.915)"/>
                <path id="Path_48725" data-name="Path 48725" class="cls-3" d="M542.532 509.879a3.916 3.916 0 0 1-3.905-3.839l-.067-3.92a3.914 3.914 0 0 1 3.838-3.972 3.746 3.746 0 0 1 2.779 1.1 3.879 3.879 0 0 1 1.193 2.739l.067 3.921a3.912 3.912 0 0 1-3.837 3.972zm-.066-9.8h-.035a1.983 1.983 0 0 0-1.941 2.008l.067 3.92a1.959 1.959 0 0 0 .605 1.384 2.086 2.086 0 0 0 1.4.558 1.979 1.979 0 0 0 1.941-2.009l-.067-3.92a1.981 1.981 0 0 0-1.974-1.941z" transform="translate(-538.56 -498.143)"/>
            </g>
        </g>
        <g id="Polygon_94" data-name="Polygon 94" style="fill:#fff">
            <path d="M59.938 61H12.062a4.95 4.95 0 0 1-4.324-2.49 4.95 4.95 0 0 1-.017-4.99l23.938-41.892A4.946 4.946 0 0 1 36 9.11c1.817 0 3.44.942 4.341 2.52l23.938 41.89a4.95 4.95 0 0 1-.017 4.99A4.95 4.95 0 0 1 59.938 61z" style="stroke:none" transform="translate(513.991 517)"/>
            <path d="M36 11.109c-.523 0-1.825.147-2.605 1.512L9.458 54.51c-.774 1.354-.251 2.546.01 2.995.26.449 1.035 1.494 2.594 1.494h47.876c1.559 0 2.334-1.045 2.594-1.494.261-.45.784-1.64.01-2.994L38.605 12.62c-.78-1.365-2.082-1.512-2.605-1.512m0-4c2.367 0 4.734 1.176 6.078 3.527l23.937 41.891C68.682 57.194 65.312 63 59.938 63H12.062c-5.374 0-8.744-5.806-6.077-10.473l23.937-41.891C31.266 8.285 33.633 7.109 36 7.109z" style="fill:#f33;stroke:none" transform="translate(513.991 517)"/>
        </g>
        <path id="Path_49007" data-name="Path 49007" d="M9.233-32.9v11.464q0 1.141-.051 2.232t-.139 2.194q-.089 1.1-.216 2.27t-.279 2.46H5.2q-.152-1.293-.279-2.46t-.216-2.27q-.089-1.1-.139-2.194t-.051-2.232V-32.9zM3.45-2.491a3.329 3.329 0 0 1 .25-1.293 3.268 3.268 0 0 1 .71-1.065 3.442 3.442 0 0 1 1.065-.723A3.254 3.254 0 0 1 6.8-5.838a3.192 3.192 0 0 1 1.293.266 3.442 3.442 0 0 1 1.065.723 3.442 3.442 0 0 1 .723 1.065 3.192 3.192 0 0 1 .266 1.293 3.254 3.254 0 0 1-.266 1.319 3.442 3.442 0 0 1-.724 1.065A3.268 3.268 0 0 1 8.091.6 3.329 3.329 0 0 1 6.8.857 3.4 3.4 0 0 1 5.479.6a3.268 3.268 0 0 1-1.065-.71A3.268 3.268 0 0 1 3.7-1.172a3.4 3.4 0 0 1-.25-1.319z" transform="translate(542.991 570)" style="fill:#f33"/>
    </g>
</svg>
