<svg xmlns="http://www.w3.org/2000/svg" width="110" height="150" viewBox="0 0 110 150">
    <defs>
        <style>
            .cls-7{fill:#fff}.cls-2{fill:#685447}.cls-3{fill:#262626}.cls-4{fill:#ffeae0}.cls-6{fill:#ff8080}
        </style>
    </defs>
    <g id="img_newmember" transform="translate(-511 -449)">
        <g id="IMG" transform="translate(520.537 452)">
            <g id="Group_1824" transform="translate(25.756 30.927)">
                <path id="Path_45570" d="M369.307 347.115s2.691 3.712 9.495 3.712 19.693-1.238 23.454-3.712 7.473-12.371 7.473-12.371l-4.948-9.278h-38.848l-1.976 11.878z" class="cls-2" transform="translate(-363.324 -324.832)"/>
                <path id="Path_45571" d="M378.585 351.243c-7.045 0-9.89-3.811-10.007-3.973a.674.674 0 0 1-.043-.068l-5.35-9.771a.63.63 0 0 1-.069-.408l1.976-11.878a.633.633 0 0 1 .624-.53h38.848a.635.635 0 0 1 .559.335l4.948 9.279a.631.631 0 0 1 .034.52c-.154.413-3.829 10.12-7.718 12.678-4.099 2.697-17.525 3.816-23.802 3.816zm-8.962-4.69c.277.356 2.839 3.422 8.962 3.422 7.2 0 19.575-1.284 23.106-3.607 3.214-2.114 6.51-10.226 7.126-11.8l-4.633-8.688h-37.93l-1.854 11.135z" class="cls-3" transform="translate(-363.107 -324.615)"/>
            </g>
            <g id="Group_1825" transform="translate(28.765 52.576)">
                <path id="Path_45572" d="M378.659 354.519v4.856c0 1.948.022 6.816-8.919 7.561l-1.49 2.07 16.409 17.138 14.9-17.652-.016-1.556c-4.33-1.238-8.942-3.726-9.134-7.469-.1-1.853 0-4.949 0-4.949z" class="cls-4" transform="translate(-367.427 -353.886)"/>
                <path id="Path_45573" d="M384.407 386.874l-17.261-18.027 1.969-2.735.291-.025c8.34-.694 8.339-5.054 8.339-6.914v-5.5h13.039l-.02.653c0 .03-.094 3.091 0 4.9.213 4.156 6.694 6.326 8.675 6.892l.455.13.022 2.265zm-15.617-18.143l15.557 16.249 14.3-16.934-.009-.853c-2.995-.914-8.9-3.3-9.138-7.91-.069-1.357-.04-3.332-.017-4.347h-10.472v4.223c0 2.013 0 7.289-9.208 8.166z" class="cls-3" transform="translate(-367.146 -353.669)"/>
            </g>
            <g id="Group_1826" transform="translate(25.973 10.515)">
                <ellipse id="Ellipse_421" cx="19.885" cy="21.958" class="cls-4" rx="19.885" ry="21.958" transform="translate(0.633 0.634)"/>
                <path id="Path_45574" d="M383.917 342.406c-11.314 0-20.518-10.135-20.518-22.591s9.2-22.592 20.518-22.592 20.519 10.135 20.519 22.592-9.204 22.591-20.519 22.591zm0-43.917c-10.615 0-19.252 9.566-19.252 21.325s8.636 21.325 19.252 21.325 19.252-9.566 19.252-21.325-8.636-21.325-19.252-21.325z" class="cls-3" transform="translate(-363.399 -297.222)"/>
            </g>
            <g id="Group_1827" transform="translate(34.416 7.89)">
                <path id="Path_45575" fill="#493a31" d="M376.547 302.206s2.426-2.8 9.079-1.44c0 0 5.239-2.3 9.746 1.357v-4.649l-9.413-2.924-7.709.826-2.672 3.036z" transform="translate(-374.945 -293.916)"/>
                <path id="Path_45576" d="M376.331 302.621a.606.606 0 0 1-.15-.019.634.634 0 0 1-.464-.455l-.969-3.8a.635.635 0 0 1 .138-.575l2.671-3.036a.638.638 0 0 1 .408-.212l7.709-.826a.607.607 0 0 1 .256.025l9.413 2.924a.633.633 0 0 1 .446.605v4.649a.634.634 0 0 1-1.033.492 9.236 9.236 0 0 0-9.093-1.268.639.639 0 0 1-.38.04c-6.145-1.255-8.455 1.214-8.478 1.239a.64.64 0 0 1-.474.217zm-.273-4.259l.644 2.521c1.243-.806 3.932-1.911 8.646-.993a10.615 10.615 0 0 1 9.174.786v-2.953l-8.842-2.747-7.334.786z" class="cls-3" transform="translate(-374.729 -293.699)"/>
            </g>
            <g id="Group_1828" transform="translate(14.935)">
                <path id="Path_45577" d="M389.093 338.981s6.42 1.243 8.894-.56c0 0 4.33 1.2 6.8-1.2a15.06 15.06 0 0 0 4.117-13.6c-1.331-5.994-5.578-14.237-7.451-22.354-2.235-9.687-9.372-16.885-14.913-17.245-4.624-.3-5.567.6-7.113 1.5 0 0-1.237-1.2-4.948-1.2s-12.533 3.889-16.244 14.709-3.548 15.857-7.26 22.663-.618 17.33 8.041 16.729a21.893 21.893 0 0 0 9.594.022 17.4 17.4 0 0 1-4.955-10.541c-.618-6.612 3.711-17.433 4.329-19.837s.618-10.82 5.567-12.022 5.409 2.025 5.409 2.025a4.186 4.186 0 0 1 3.56-2.326c1.855 0 5.566 0 7.732 6.913 2.622 8.373 6.495 16.581 7.732 17.182s1.546 3.858 1.546 3.858l.618 2.4s-6.031 12.543-11.055 12.884z" class="cls-2" transform="translate(-348.801 -283.327)"/>
                <path id="Path_45578" d="M393.287 339.813a26.476 26.476 0 0 1-4.53-.427.633.633 0 0 1 .078-1.253c3.744-.255 8.7-8.783 10.431-12.319l-.561-2.179a.718.718 0 0 1-.017-.1c-.112-1.171-.569-3.046-1.192-3.348-1.7-.826-5.729-10.119-8.06-17.562-2.026-6.469-5.345-6.469-7.127-6.469a3.546 3.546 0 0 0-2.987 1.96.633.633 0 0 1-1.2-.178 2.074 2.074 0 0 0-.9-1.276 4.831 4.831 0 0 0-3.735-.223c-3.559.864-4.307 6.26-4.754 9.484-.118.844-.218 1.574-.349 2.08s-.417 1.364-.777 2.445c-1.4 4.208-4.016 12.039-3.536 17.176a16.929 16.929 0 0 0 4.75 10.132.633.633 0 0 1-.264 1.081 22.3 22.3 0 0 1-9.811 0 8.789 8.789 0 0 1-8.25-4.165 13.8 13.8 0 0 1-.292-13.506c2.135-3.915 2.972-7.264 4.033-11.505.767-3.071 1.638-6.551 3.184-11.059 3.884-11.326 13.194-15.137 16.843-15.137a9.362 9.362 0 0 1 4.984 1.078l.071-.043c1.373-.832 2.673-1.62 7.049-1.334 5.587.364 13.144 7.577 15.488 17.735a96.8 96.8 0 0 0 4.174 12.6 75.712 75.712 0 0 1 3.279 9.763 15.834 15.834 0 0 1-4.294 14.191c-2.346 2.281-6.06 1.665-7.126 1.429a9.335 9.335 0 0 1-4.602.929zm-1.878-1.351c2.1.175 4.736.144 5.99-.77a.637.637 0 0 1 .542-.1c.039.011 4.014 1.071 6.194-1.046a14.517 14.517 0 0 0 3.94-13.008 74.673 74.673 0 0 0-3.225-9.584 97.63 97.63 0 0 1-4.225-12.765c-2.218-9.609-9.2-16.422-14.337-16.755-3.981-.259-5.06.4-6.31 1.153-.145.088-.291.177-.443.265a.634.634 0 0 1-.76-.093s-1.171-1.023-4.507-1.023c-3.367 0-11.981 3.6-15.645 14.281-1.529 4.458-2.392 7.91-3.154 10.956-1.082 4.329-1.937 7.748-4.15 11.805a12.479 12.479 0 0 0 .247 12.214 7.585 7.585 0 0 0 7.194 3.579.645.645 0 0 1 .2.018 22.17 22.17 0 0 0 8.207.262 18.148 18.148 0 0 1-4.352-10.108c-.505-5.4 2.162-13.4 3.6-17.694.353-1.057.632-1.893.752-2.36.113-.437.209-1.133.321-1.939.491-3.543 1.314-9.473 5.71-10.541 2.025-.492 3.627-.352 4.765.419a3.373 3.373 0 0 1 .914.915 4.457 4.457 0 0 1 3.44-1.653c1.958 0 6.032 0 8.336 7.358 2.767 8.833 6.512 16.286 7.409 16.8 1.44.7 1.819 3.609 1.89 4.314l.607 2.358a.632.632 0 0 1-.042.432c-.224.448-4.553 9.356-9.108 12.31z" class="cls-3" transform="translate(-348.585 -283.111)"/>
            </g>
            <path id="Path_45579" d="M361.863 350.338a8.4 8.4 0 0 1-5.4-8.3 33.25 33.25 0 0 1 1.73-10.038 43.6 43.6 0 0 0 1.165-4.612l1.247.223a44.57 44.57 0 0 1-1.2 4.744 32.191 32.191 0 0 0-1.676 9.68c0 5.618 4.317 7.031 4.5 7.089z" class="cls-3" transform="translate(-335.659 -294.396)"/>
            <path id="Path_45580" d="M414.739 354.184l-.448-1.184c.189-.073 4.625-1.866 5.785-9.4l1.252.193c-1.279 8.307-6.373 10.307-6.589 10.391z" class="cls-3" transform="translate(-350.396 -298.526)"/>
            <circle id="Ellipse_422" cx="2.165" cy="2.165" r="2.165" class="cls-3" transform="translate(35.667 34.035)"/>
            <circle id="Ellipse_423" cx="2.165" cy="2.165" r="2.165" class="cls-3" transform="translate(51.75 34.035)"/>
            <path id="Path_45581" d="M389.034 347.559c-2.4 0-4.345-1.533-4.345-3.416h1.268c0 1.165 1.409 2.15 3.077 2.15s3.078-.984 3.078-2.15h1.267c0 1.884-1.949 3.416-4.345 3.416z" class="cls-3" transform="translate(-342.851 -298.665)"/>
            <path id="Path_45582" d="M375.422 324l-.568-.591a7.647 7.647 0 0 1 6.375-.49l-.472.671a7.232 7.232 0 0 0-5.335.411z" class="cls-3" transform="translate(-340.345 -293.132)"/>
            <path id="Path_45583" d="M403.138 324a7.232 7.232 0 0 0-5.335-.411l-.472-.671a7.647 7.647 0 0 1 6.375.49z" class="cls-3" transform="translate(-346.073 -293.132)"/>
            <path id="Path_45584" d="M378.137 340.219a1.583 1.583 0 0 1-1.583 1.583h-1.538a1.583 1.583 0 0 1-1.583-1.583 1.583 1.583 0 0 1 1.583-1.583h1.538a1.584 1.584 0 0 1 1.583 1.583z" class="cls-6" transform="translate(-339.983 -297.261)"/>
            <path id="Path_45585" d="M406.7 340.219a1.583 1.583 0 0 1-1.583 1.583h-1.538a1.583 1.583 0 0 1-1.579-1.583 1.583 1.583 0 0 1 1.583-1.583h1.538a1.584 1.584 0 0 1 1.583 1.583z" class="cls-6" transform="translate(-347.262 -297.261)"/>
            <g id="Group_1829" transform="translate(62.5 35.371)">
                <path id="Path_45586" d="M413.475 331.573a4.122 4.122 0 0 1 1.08-.144 3.964 3.964 0 1 1 0 7.927 4.091 4.091 0 0 1-1.286-.206" class="cls-4" transform="translate(-412.635 -330.796)"/>
                <path id="Path_45587" d="M414.338 339.773a4.717 4.717 0 0 1-1.485-.238.633.633 0 1 1 .4-1.2 3.454 3.454 0 0 0 1.087.174 3.331 3.331 0 1 0 0-6.66 3.488 3.488 0 0 0-.914.121.633.633 0 1 1-.332-1.222 4.733 4.733 0 0 1 1.246-.166 4.6 4.6 0 1 1 0 9.194z" class="cls-3" transform="translate(-412.419 -330.579)"/>
            </g>
            <g id="Group_1830" transform="translate(25.233 35.538)">
                <path id="Path_45588" d="M368.828 331.962a4.123 4.123 0 0 0-1.054-.276 3.964 3.964 0 1 0-.978 7.867 4.1 4.1 0 0 0 1.3-.045" class="cls-4" transform="translate(-362.622 -331.021)"/>
                <path id="Path_45589" d="M367.092 340a4.74 4.74 0 0 1-.59-.036 4.667 4.667 0 0 1-3.1-1.738 4.551 4.551 0 0 1 .8-6.459 4.656 4.656 0 0 1 3.434-.926 4.745 4.745 0 0 1 1.216.318.634.634 0 0 1-.481 1.172 3.457 3.457 0 0 0-3.4.441 3.284 3.284 0 0 0-.58 4.666 3.459 3.459 0 0 0 3.367 1.23.634.634 0 1 1 .246 1.243 4.743 4.743 0 0 1-.912.089z" class="cls-3" transform="translate(-362.406 -330.804)"/>
            </g>
            <path id="Path_45590" d="M357.111 371.664l12-3.3 12.385 6.195 11.141-6.779 13.111 3.628-5.406 18.719v27.834c-.133-.164-38.288 0-38.288 0l-.062-27.834z" class="cls-7" transform="translate(-335.823 -304.689)"/>
            <path id="Path_45591" d="M362.5 422.217a.633.633 0 0 1-.633-.632l-.062-27.753-2.922-11.048a.633.633 0 0 1 1.224-.324l2.943 11.127a.645.645 0 0 1 .022.161l.062 27.834a.633.633 0 0 1-.632.635z" class="cls-3" transform="translate(-336.27 -308.31)"/>
            <path id="Path_45592" d="M414.915 422.95a.633.633 0 0 1-.633-.633v-27.836a.639.639 0 0 1 .025-.176l2.6-8.984a.633.633 0 1 1 1.217.352l-2.57 8.9v27.745a.633.633 0 0 1-.639.632z" class="cls-3" transform="translate(-350.393 -309.043)"/>
            <path id="Path_45593" d="M346.59 415.112a.633.633 0 0 1-.63-.575l-2.392-25.687a.626.626 0 0 1 .047-.3l7.225-17.155a.632.632 0 0 1 .433-.37l14.239-3.487a.641.641 0 0 1 .434.049l12.071 6.037 10.842-6.6a.633.633 0 0 1 .493-.071l15.141 4.071a.633.633 0 0 1 .451.468l4.7 20.135a.639.639 0 0 1 .01.229l-2.554 18.952a.633.633 0 1 1-1.255-.168l2.533-18.837-4.578-19.654-14.513-3.9-10.909 6.638a.635.635 0 0 1-.613.025l-12.176-6.09-13.7 3.355-7.039 16.714 2.378 25.529a.634.634 0 0 1-.572.69z" class="cls-3" transform="translate(-332.371 -304.473)"/>
            <g id="Group_1831" transform="translate(45.347 60.567)">
                <path id="Path_44551" d="M398.832 365.242l-8.583 8.9 6.817 6.358 6.6-12.319z" class="cls-7" transform="translate(-389.615 -364.609)"/>
                <path id="Path_45594" d="M396.849 380.913a.636.636 0 0 1-.431-.169l-6.817-6.358a.633.633 0 0 1-.024-.9l8.584-8.9a.633.633 0 0 1 .785-.1l4.828 2.937a.634.634 0 0 1 .23.84l-6.6 12.319a.635.635 0 0 1-.455.326.606.606 0 0 1-.1.005zm-5.913-7.015l5.744 5.358 5.925-11.065-3.884-2.361z" class="cls-3" transform="translate(-389.399 -364.392)"/>
            </g>
            <g id="Group_1832" transform="translate(31.934 60.566)">
                <path id="Path_44553" d="M377.276 365.241l7.641 8.9-5.873 6.357-6.794-12.318z" class="cls-7" transform="translate(-371.616 -364.607)"/>
                <path id="Path_45595" d="M378.827 380.912a.646.646 0 0 1-.076 0 .637.637 0 0 1-.478-.323l-6.794-12.318a.633.633 0 0 1 .235-.852l5.027-2.937a.633.633 0 0 1 .8.135l7.641 8.9a.634.634 0 0 1-.015.842l-5.873 6.358a.634.634 0 0 1-.467.195zm-5.941-12.712l6.071 11.008 4.895-5.3-6.929-8.069z" class="cls-3" transform="translate(-371.399 -364.391)"/>
            </g>
            <g id="Group_1835" transform="translate(4.732 65.8)">
                <g id="Group_1834" transform="translate(0)">
                    <path id="Rectangle_2469" fill="#ff5200" d="M0 0H83.746V73.187H0z"/>
                    <path id="Path_45597" fill="#2f2f60" d="M425.048 376.322v69.79h-80.717v-69.79h80.717m1.515-1.7h-83.746v73.187h83.746v-73.185z" transform="translate(-342.817 -374.624)"/>
                </g>
            </g>
            <g id="Group_1840" transform="translate(0 96.071)">
                <g id="Group_1836" transform="translate(1.494 11.377)">
                    <path id="Path_48320" d="M2.235 0h1.49a2.235 2.235 0 0 1 0 4.471h-1.49a2.235 2.235 0 0 1 0-4.471z" class="cls-4" transform="translate(0.402 1.055) rotate(-6.284)"/>
                    <path id="Path_45598" d="M341.439 433.209a2.869 2.869 0 0 1-.313-5.721l1.481-.163a2.869 2.869 0 0 1 .628 5.7l-1.482.164a2.8 2.8 0 0 1-.314.02zm1.483-4.635a1.544 1.544 0 0 0-.176.01l-1.481.162a1.6 1.6 0 0 0 .35 3.186l1.481-.164a1.6 1.6 0 0 0-.174-3.194z" class="cls-3" transform="translate(-338.571 -427.308)"/>
                </g>
                <g id="Group_1837" transform="translate(0.745 7.734)">
                    <rect id="Rectangle_2471" width="7.451" height="4.471" class="cls-4" rx="2.235" transform="translate(0.633 0.633)"/>
                    <path id="Path_45599" d="M343.414 428.155h-2.981a2.868 2.868 0 1 1 0-5.737h2.981a2.868 2.868 0 1 1 0 5.737zm-2.981-4.471a1.6 1.6 0 0 0 0 3.2h2.981a1.6 1.6 0 0 0 0-3.2z" class="cls-3" transform="translate(-337.565 -422.418)"/>
                </g>
                <g id="Group_1838" transform="translate(0 4.008)">
                    <rect id="Rectangle_2472" width="8.197" height="4.471" class="cls-4" rx="2.235" transform="translate(0.633 0.633)"/>
                    <path id="Path_45600" d="M343.16 423.155h-3.726a2.868 2.868 0 1 1 0-5.737h3.726a2.868 2.868 0 1 1 0 5.737zm-3.726-4.471a1.6 1.6 0 0 0 0 3.2h3.726a1.6 1.6 0 0 0 0-3.2z" class="cls-3" transform="translate(-336.565 -417.418)"/>
                </g>
                <g id="Group_1839" transform="translate(0.772)">
                    <path id="Path_48321" d="M2.235 0h2.981a2.235 2.235 0 1 1 0 4.471H2.235a2.235 2.235 0 0 1 0-4.471z" class="cls-4" transform="matrix(0.982, 0.189, -0.189, 0.982, 1.096, 0.252)"/>
                    <path id="Path_45601" d="M343.4 418.341a2.882 2.882 0 0 1-.545-.052l-2.926-.563a2.869 2.869 0 0 1 1.083-5.636l2.927.563a2.87 2.87 0 0 1-.539 5.687zm-2.929-5.035a1.6 1.6 0 0 0-.3 3.176l2.927.563a1.6 1.6 0 0 0 .605-3.146l-2.927-.563a1.6 1.6 0 0 0-.306-.03z" class="cls-3" transform="translate(-337.601 -412.039)"/>
                </g>
            </g>
            <g id="Group_1845" transform="translate(82 96.071)">
                <g id="Group_1841" transform="translate(0.749 11.377)">
                    <path id="Path_48322" d="M2.235 0h1.49a2.235 2.235 0 0 1 2.236 2.235 2.235 2.235 0 0 1-2.235 2.236H2.235a2.235 2.235 0 1 1 0-4.471z" class="cls-4" transform="translate(6.328 5.499) rotate(-173.716)"/>
                    <path id="Path_45602" d="M435.922 433.21a2.829 2.829 0 0 1-.314-.018l-1.481-.164a2.869 2.869 0 0 1 .627-5.7l1.481.163a2.869 2.869 0 0 1-.313 5.721zm-1.483-4.635a1.6 1.6 0 0 0-.174 3.194l1.481.164a1.6 1.6 0 0 0 .35-3.186l-1.481-.162a1.555 1.555 0 0 0-.176-.01z" class="cls-3" transform="translate(-431.571 -427.308)"/>
                </g>
                <g id="Group_1842" transform="translate(0 7.733)">
                    <rect id="Rectangle_2475" width="7.451" height="4.471" class="cls-4" rx="2.235" transform="translate(8.085 5.104) rotate(180)"/>
                    <path id="Path_45603" d="M436.414 428.155h-2.981a2.868 2.868 0 1 1 0-5.737h2.981a2.868 2.868 0 1 1 0 5.737zm-2.981-4.471a1.6 1.6 0 0 0 0 3.2h2.981a1.6 1.6 0 0 0 0-3.2z" class="cls-3" transform="translate(-430.565 -422.418)"/>
                </g>
                <g id="Group_1843" transform="translate(0 4.008)">
                    <rect id="Rectangle_2476" width="8.197" height="4.471" class="cls-4" rx="2.235" transform="translate(8.83 5.104) rotate(180)"/>
                    <path id="Path_45604" d="M437.159 423.155h-3.726a2.868 2.868 0 1 1 0-5.737h3.726a2.868 2.868 0 1 1 0 5.737zm-3.726-4.471a1.6 1.6 0 0 0 0 3.2h3.726a1.6 1.6 0 0 0 0-3.2z" class="cls-3" transform="translate(-430.565 -417.418)"/>
                </g>
                <g id="Group_1844" transform="translate(0.026)">
                    <path id="Path_48323" d="M2.235 0h2.981a2.235 2.235 0 1 1 0 4.471H2.235a2.235 2.235 0 0 1 0-4.471z" class="cls-4" transform="matrix(-0.982, 0.189, -0.189, -0.982, 8.413, 4.642)"/>
                    <path id="Path_45605" d="M433.467 418.341a2.869 2.869 0 0 1-.539-5.687l2.926-.563a2.874 2.874 0 0 1 3.359 2.276 2.876 2.876 0 0 1-2.275 3.359l-2.926.563a2.887 2.887 0 0 1-.545.052zm2.93-5.035a1.609 1.609 0 0 0-.3.029l-2.927.563a1.6 1.6 0 0 0-.595 2.9 1.582 1.582 0 0 0 1.2.249l2.927-.563a1.607 1.607 0 0 0 1.27-1.876 1.605 1.605 0 0 0-1.572-1.302z" class="cls-3" transform="translate(-430.601 -412.04)"/>
                </g>
            </g>
            <text id="NEW_MEMBER" fill="#fff" font-family="Roboto-Bold, Roboto" font-size="14px" font-weight="700" letter-spacing="-0.01em" transform="translate(46.833 97.394)">
                <tspan x="-16.535" y="0">NEW </tspan><tspan x="-28.723" y="19">MEMBER</tspan>
            </text>
        </g>
    </g>
</svg>
