<svg xmlns="http://www.w3.org/2000/svg" width="144" height="170">
    <defs>
        <style>
            .cls-5{fill:#fff}.cls-2{fill:#ffeae0}.cls-3{fill:#262626}.cls-4{fill:#494949}.cls-6{fill:#685447}.cls-8{fill:#ff8080}
        </style>
    </defs>
    <g id="img_withdrawal" transform="translate(-451.991 -411)">
        <g id="Group_3424" data-name="Group 3424" transform="translate(-157.239 114.341)">
            <g id="Group_3401" data-name="Group 3401" transform="translate(619.036 297.659)">
                <g id="Group_3389" data-name="Group 3389" transform="translate(27.061 62.031)">
                    <path id="Rectangle_2672" data-name="Rectangle 2672" class="cls-2" transform="translate(.827 .828)" d="M0 0h18.692v16.022H0z"/>
                    <path id="Path_48837" data-name="Path 48837" class="cls-3" d="M667.406 379.062H647.06v-17.677h20.346zm-18.691-1.655h17.037V363.04h-17.037z" transform="translate(-647.06 -361.385)"/>
                </g>
                <g id="Group_3390" data-name="Group 3390" transform="translate(7.923 39.334)">
                    <circle id="Ellipse_491" data-name="Ellipse 491" class="cls-2" cx="6.676" cy="6.676" r="6.676" transform="translate(.827 .827)"/>
                    <path id="Path_48838" data-name="Path 48838" class="cls-3" d="M634.9 353.074a7.5 7.5 0 1 1 7.5-7.5 7.512 7.512 0 0 1-7.5 7.5zm0-13.351a5.848 5.848 0 1 0 5.848 5.848 5.855 5.855 0 0 0-5.848-5.848z" transform="translate(-627.4 -338.068)"/>
                </g>
                <g id="Group_3391" data-name="Group 3391" transform="translate(51.538 39.334)">
                    <circle id="Ellipse_492" data-name="Ellipse 492" class="cls-2" cx="6.676" cy="6.676" r="6.676" transform="translate(.828 .827)"/>
                    <path id="Path_48839" data-name="Path 48839" class="cls-3" d="M679.709 353.074a7.5 7.5 0 1 1 7.5-7.5 7.512 7.512 0 0 1-7.5 7.5zm0-13.351a5.848 5.848 0 1 0 5.849 5.848 5.855 5.855 0 0 0-5.849-5.848z" transform="translate(-672.206 -338.068)"/>
                </g>
                <g id="Group_3392" data-name="Group 3392" transform="translate(14.154 17.972)">
                    <rect id="Rectangle_2673" data-name="Rectangle 2673" class="cls-2" width="43.614" height="47.175" rx="21.807" transform="translate(.827 .827)"/>
                    <path id="Path_48840" data-name="Path 48840" class="cls-3" d="M656.436 364.952a22.661 22.661 0 0 1-22.636-22.635v-3.561a22.635 22.635 0 0 1 45.269 0v3.561a22.661 22.661 0 0 1-22.633 22.635zm0-47.175a21 21 0 0 0-20.98 20.98v3.561a21 21 0 0 0 20.98 20.98 21 21 0 0 0 20.98-20.98v-3.561a21 21 0 0 0-20.98-20.98z" transform="translate(-633.801 -316.122)"/>
                </g>
                <rect id="Rectangle_2674" data-name="Rectangle 2674" class="cls-3" width="3.56" height="4.45" rx="1.78" transform="translate(25.217 38.827)"/>
                <rect id="Rectangle_2675" data-name="Rectangle 2675" class="cls-3" width="3.56" height="4.45" rx="1.78" transform="translate(44.799 38.827)"/>
                <path id="Path_48841" data-name="Path 48841" class="cls-3" d="M657.322 347.353a.828.828 0 0 1-.7-1.272l1.938-3.045-2.426-1.578v-6.748a.827.827 0 1 1 1.655 0v5.85l3.047 1.982-2.817 4.427a.826.826 0 0 1-.697.384z" transform="translate(-620.241 -298.622)"/>
                <path id="Path_48842" data-name="Path 48842" class="cls-3" d="M657.739 356.89a8.4 8.4 0 0 1-8.393-8.394.827.827 0 1 1 1.655 0 6.738 6.738 0 0 0 13.477 0 .827.827 0 1 1 1.655 0 8.4 8.4 0 0 1-8.394 8.394z" transform="translate(-620.06 -298.989)"/>
                <g id="Group_3393" data-name="Group 3393" transform="translate(10.723 17.388)">
                    <path id="Path_48843" data-name="Path 48843" class="cls-4" d="M642.156 316.824s-1.454-1.023-4.081 0-6.8 4.265-6.94 11.989 1.643 9.505 3.423 13.511v-3.561s-.445-2.67 4.006-4.45 8.9-9.791 7.12-14.241c-.001 0-2.161-3.381-3.528-3.248z" transform="translate(-630.299 -315.544)"/>
                    <path id="Path_48844" data-name="Path 48844" class="cls-3" d="m635.362 346.2-1.584-3.564c-.323-.729-.648-1.383-.96-2.013-1.422-2.871-2.65-5.35-2.535-11.848.164-9.193 5.758-12.08 7.468-12.746a5.588 5.588 0 0 1 4.6-.054c1.607.143 3.315 2.549 4 3.627l.071.138c2 5.011-2.808 13.408-7.581 15.317-3.7 1.481-3.505 3.48-3.494 3.564l.009.119zm4.922-29.029a5.32 5.32 0 0 0-1.931.4c-1.469.571-6.269 3.07-6.414 11.233-.091 5.176.68 7.543 1.76 9.846-.028-.784.223-3.4 4.534-5.129 3.943-1.577 8.253-8.971 6.687-13.1-.953-1.47-2.264-2.824-2.708-2.8l-.282.013-.26-.152a2.674 2.674 0 0 0-1.386-.31z" transform="translate(-630.276 -315.522)"/>
                </g>
                <path id="Path_48845" data-name="Path 48845" class="cls-3" d="M633.117 341c-1.579-17.259 7.189-23.909 7.562-24.183l.979 1.334-.49-.667.492.666c-.084.062-8.384 6.432-6.9 22.7z" transform="translate(-619.624 -298.168)"/>
                <g id="Group_3394" data-name="Group 3394" transform="translate(46.357 14.11)">
                    <path id="Path_48846" data-name="Path 48846" class="cls-4" d="M667.886 321.25s10.818 5.856 11.708 13.866v3.561s4.9-7.565 2.225-15.576-8.475-9.971-8.475-9.971l-4.431 4.474z" transform="translate(-666.911 -312.181)"/>
                    <path id="Path_48847" data-name="Path 48847" class="cls-3" d="M678.74 341.453v-6.363c-.827-7.4-11.17-13.082-11.275-13.138l-.581-.315 1.264-4.489 4.944-4.993.49.165c.252.086 6.227 2.186 9 10.492s-2.106 15.965-2.315 16.288zm-9.909-20.626c2.326 1.377 10.744 6.833 11.559 14.174v.045a17.555 17.555 0 0 0 .618-11.708c-2.094-6.282-6.121-8.62-7.494-9.256l-3.889 3.927z" transform="translate(-666.884 -312.155)"/>
                </g>
                <path id="Path_48848" data-name="Path 48848" class="cls-3" d="m680.324 336.751-1.655-.024c.23-15.856-6.733-19.469-6.8-19.5l.715-1.492c.324.15 7.986 3.985 7.74 21.016z" transform="translate(-620.659 -298.14)"/>
                <g id="Group_3395" data-name="Group 3395" transform="translate(19.854)">
                    <path id="Path_48849" data-name="Path 48849" class="cls-4" d="M641.927 319.188c-.95-1.444-2.67-5.952 0-8.762s5.341-3.7 10.681-3.7 12.271-.247 15.927-2.349a20.855 20.855 0 0 0 5.25-4.208c.16-.184.239-.288.239-.288s1.008 10.391-.859 14.4a19.785 19.785 0 0 1-10.718 9.617c-4.5 1.516-13.684.341-17.529-1.776a7.694 7.694 0 0 1-2.991-2.934z" transform="translate(-639.679 -297.718)"/>
                    <path id="Path_48850" data-name="Path 48850" class="cls-3" d="M657.084 325.369c-4.611 0-9.871-1.081-12.586-2.577a8.589 8.589 0 0 1-3.308-3.244c-1.225-1.894-2.783-6.7.115-9.752 2.812-2.958 5.659-3.957 11.281-3.957 5.411 0 12.064-.254 15.514-2.238a19.978 19.978 0 0 0 5.038-4.033c.13-.15.2-.239.207-.249l1.277-1.661.2 2.084c.042.433 1.008 10.664-.932 14.833a20.576 20.576 0 0 1-11.2 10.052 18.217 18.217 0 0 1-5.606.742zm-14.44-6.612a6.962 6.962 0 0 0 2.653 2.585c3.563 1.962 12.553 3.171 16.865 1.717a19.074 19.074 0 0 0 10.232-9.181c1.29-2.772 1.111-8.986.924-12.108a22.9 22.9 0 0 1-4.393 3.266c-3.789 2.18-10.722 2.46-16.339 2.46-5.154 0-7.6.836-10.081 3.441-2.43 2.555-.513 6.82.091 7.738z" transform="translate(-639.657 -297.659)"/>
                </g>
                <path id="Path_48851" data-name="Path 48851" class="cls-3" d="m641.822 317.675-1.583-.484c1.649-5.392 9.592-6.847 13.576-6.145 4.526.8 9.7 1.339 13.712-.668 4.7-2.348 5.462-9.451 5.47-9.523l1.646.163c-.032.329-.854 8.081-6.376 10.841-4.446 2.221-9.945 1.66-14.738.817-3.37-.591-10.363.602-11.707 4.999z" transform="translate(-619.818 -297.744)"/>
                <path id="Path_48852" data-name="Path 48852" class="cls-3" d="M658.489 319.508a21.1 21.1 0 0 1-6.634-1.343 18.131 18.131 0 0 0-4.375-1.042 11.552 11.552 0 0 0-6.02 1.014l-.844-1.423a12.927 12.927 0 0 1 6.956-1.244 19.278 19.278 0 0 1 4.792 1.12c2.79.9 5.676 1.835 9.234.825 5.377-1.523 11.628-6.863 11.548-16.9l1.655-.014c.087 10.964-6.815 16.819-12.752 18.5a12.96 12.96 0 0 1-3.56.507z" transform="translate(-619.828 -297.735)"/>
                <g id="Group_3396" data-name="Group 3396" transform="translate(4.269 70.612)">
                    <path id="Path_48854" data-name="Path 48854" class="cls-5" d="m629.8 433.947-2.778-32.03-2.522-24.878 14.74-5.132 17.243 9.083 15.512-9.94 18.254 5.32-6.872 27.446s-.55 30.267-.655 30.131" transform="translate(-623.668 -370.223)"/>
                    <path id="Path_48855" data-name="Path 48855" class="cls-3" d="M629.781 434.751a.826.826 0 0 1-.823-.756l-2.778-32.03-2.53-24.865a.828.828 0 0 1 .552-.865l14.739-5.133a.833.833 0 0 1 .658.05l16.817 8.858 15.107-9.68a.83.83 0 0 1 .677-.1l18.253 5.32a.825.825 0 0 1 .571.995l-6.848 27.355c-.017.89-.144 7.923-.285 14.959a3290.94 3290.94 0 0 1-.219 10.36c-.125 5.294-.125 5.294-.717 5.489l-.482-1.582.225.8-.817-.122c.087-.827.432-18.408.643-30.025a.839.839 0 0 1 .024-.185l6.678-26.674-17.126-4.992-15.2 9.737a.827.827 0 0 1-.832.035l-16.926-8.915-13.782 4.8 2.465 24.226 2.779 32.043a.827.827 0 0 1-.753.9c-.021-.004-.045-.003-.07-.003z" transform="translate(-623.646 -370.2)"/>
                </g>
                <g id="Group_1645" data-name="Group 1645" transform="translate(18.399 67.063)">
                    <g id="Group_1644" data-name="Group 1644">
                        <g id="Group_1640" data-name="Group 1640" transform="translate(11.382 11.789)">
                            <g id="Group_1639" data-name="Group 1639">
                                <g id="Group_1638" data-name="Group 1638">
                                    <path id="Path_44549" data-name="Path 44549" class="cls-5" d="M664.451 378.666h-14.6l4.315 7.477h5.964z" transform="translate(-649.854 -378.666)"/>
                                </g>
                            </g>
                        </g>
                        <g id="Group_1643" data-name="Group 1643">
                            <g id="Group_1641" data-name="Group 1641" transform="translate(18.766 .002)">
                                <g id="Group_3397" data-name="Group 3397">
                                    <path id="Path_44551" data-name="Path 44551" class="cls-5" d="M667.514 367.406 658.29 378.6l7.114 7.032 9.827-14.33z" transform="translate(-657.463 -366.579)"/>
                                    <path id="Path_48856" data-name="Path 48856" class="cls-3" d="M665.381 386.433a.824.824 0 0 1-.582-.239l-7.113-7.031a.827.827 0 0 1-.056-1.115l9.223-11.191a.828.828 0 0 1 1.01-.212l7.717 3.893a.827.827 0 0 1 .311 1.206l-9.827 14.329a.829.829 0 0 1-.6.356.685.685 0 0 1-.083.004zm-5.994-7.916 5.872 5.8 8.731-12.733-6.281-3.168z" transform="translate(-657.44 -366.556)"/>
                                </g>
                            </g>
                            <g id="Group_1642" data-name="Group 1642">
                                <g id="Group_3398" data-name="Group 3398">
                                    <path id="Path_44553" data-name="Path 44553" class="cls-5" d="m646.731 367.4 9.223 11.191-7.112 7.031-9.83-14.33z" transform="translate(-638.184 -366.577)"/>
                                    <path id="Path_48857" data-name="Path 48857" class="cls-3" d="M648.82 386.432a.709.709 0 0 1-.079 0 .827.827 0 0 1-.6-.356l-9.83-14.329a.825.825 0 0 1 .31-1.206l7.719-3.893a.827.827 0 0 1 1.011.212l9.223 11.191a.828.828 0 0 1-.056 1.115l-7.113 7.031a.822.822 0 0 1-.585.235zm-8.613-14.844 8.734 12.733 5.871-5.8-8.322-10.1z" transform="translate(-638.161 -366.554)"/>
                                </g>
                            </g>
                        </g>
                    </g>
                </g>
                <g id="Group_1662" data-name="Group 1662" transform="translate(0 74.82)">
                    <g id="Group_3399" data-name="Group 3399">
                        <path id="Path_44577" data-name="Path 44577" class="cls-5" d="m628.83 375.375-4.45 1.779-4.269 36.2 8.72 25.222h5.8l.435-9.791" transform="translate(-619.283 -374.546)"/>
                        <path id="Path_48858" data-name="Path 48858" class="cls-3" d="M634.6 439.375h-5.795a.826.826 0 0 1-.782-.557l-8.72-25.222a.824.824 0 0 1-.04-.367l4.269-36.194a.825.825 0 0 1 .514-.671l4.45-1.781a.828.828 0 0 1 .615 1.537l-3.994 1.6-4.189 35.518 8.465 24.486h4.413l.4-9a.838.838 0 0 1 .863-.789.827.827 0 0 1 .789.863l-.435 9.791a.827.827 0 0 1-.823.786z" transform="translate(-619.26 -374.523)"/>
                    </g>
                </g>
                <g id="Group_1662-2" data-name="Group 1662" transform="translate(56.488 75.056)">
                    <g id="Group_3400" data-name="Group 3400">
                        <path id="Path_44577-2" data-name="Path 44577" class="cls-5" d="m685.74 397.335 5.753 8.01-13.352 15.132 10.681 13.351 22.253-25.812-19.1-31.154-3.3-1.246" transform="translate(-677.314 -374.788)"/>
                        <path id="Path_48859" data-name="Path 48859" class="cls-3" d="M688.8 434.633h-.015a.831.831 0 0 1-.632-.311l-10.68-13.352a.827.827 0 0 1 .025-1.064l12.914-14.637-5.367-7.475a.828.828 0 1 1 1.344-.966l5.753 8.01a.829.829 0 0 1-.052 1.031L679.2 420.48l9.625 12.031 21.208-24.6-18.641-30.4-3.035-1.145a.828.828 0 0 1 .584-1.549l3.3 1.246a.82.82 0 0 1 .414.342l19.1 31.153a.826.826 0 0 1-.079.972l-22.252 25.814a.829.829 0 0 1-.624.289z" transform="translate(-677.292 -374.765)"/>
                    </g>
                </g>
            </g>
            <g id="Group_3411" data-name="Group 3411" transform="translate(671.312 309.824)">
                <path id="Path_48860" data-name="Path 48860" class="cls-5" d="M691.316 436.326v-30.713l-4.142-20.354 9.753-3.1 14.291 6.256 14.969-6.256 8.941 2.819-4.969 20.63v30.713h-38.843" transform="translate(-673.343 -312.071)"/>
                <g id="Group_3402" data-name="Group 3402" transform="translate(16.018 33.733)">
                    <path id="Path_48861" data-name="Path 48861" class="cls-6" d="M696.107 369.275s2.935 4.048 10.357 4.048 21.48-1.349 25.583-4.048 8.151-13.493 8.151-13.493l-5.4-10.12h-42.372l-2.155 12.957z" transform="translate(-689.443 -344.834)"/>
                    <path id="Path_48862" data-name="Path 48862" class="cls-3" d="M706.44 374.128c-7.754 0-10.9-4.21-11.027-4.39a.735.735 0 0 1-.055-.088l-5.837-10.658a.826.826 0 0 1-.091-.533l2.155-12.957a.829.829 0 0 1 .817-.691h42.374a.829.829 0 0 1 .73.438l5.4 10.12a.825.825 0 0 1 .044.679c-.168.452-4.19 11.08-8.472 13.894-4.496 2.958-19.178 4.186-26.038 4.186zm-9.661-5.327c.323.411 3.092 3.673 9.661 3.673 8.01 0 21.444-1.488 25.129-3.912 3.434-2.258 6.972-10.905 7.7-12.748l-4.985-9.348h-41.179l-1.995 11.983z" transform="translate(-689.42 -344.811)"/>
                </g>
                <g id="Group_3403" data-name="Group 3403" transform="translate(19.261 57.347)">
                    <path id="Path_48863" data-name="Path 48863" class="cls-2" d="M705.21 369.92v5.3c0 2.125.023 7.434-9.73 8.247l-1.625 2.258 17.9 18.693 16.256-19.254-.018-1.7c-4.723-1.349-9.753-4.064-9.963-8.146-.1-2.021 0-5.4 0-5.4z" transform="translate(-692.781 -369.093)"/>
                    <path id="Path_48864" data-name="Path 48864" class="cls-3" d="m711.763 405.63-19.011-19.856 2.25-3.126.381-.032c8.971-.748 8.971-5.246 8.971-7.407v-6.14h14.5l-.026.853c0 .034-.1 3.366 0 5.33.229 4.443 7.226 6.782 9.364 7.393l.595.169.026 2.622zM694.9 385.625l16.786 17.532 15.464-18.317-.008-.78c-3.324-1.028-9.708-3.657-9.968-8.723-.073-1.425-.047-3.469-.022-4.612h-11.145v4.469c0 2.225 0 8.052-10.106 9.037z" transform="translate(-692.752 -369.07)"/>
                </g>
                <g id="Group_3404" data-name="Group 3404" transform="translate(16.256 11.469)">
                    <ellipse id="Ellipse_493" data-name="Ellipse 493" class="cls-2" cx="21.69" cy="23.951" rx="21.69" ry="23.951" transform="translate(.827 .828)"/>
                    <path id="Path_48865" data-name="Path 48865" class="cls-3" d="M712.182 371.5c-12.416 0-22.517-11.116-22.517-24.779s10.1-24.779 22.517-24.779 22.518 11.111 22.518 24.775-10.1 24.783-22.518 24.783zm0-47.9c-11.5 0-20.863 10.374-20.863 23.124s9.359 23.123 20.863 23.123 20.863-10.373 20.863-23.123-9.36-23.131-20.863-23.131z" transform="translate(-689.665 -321.938)"/>
                </g>
                <g id="Group_3405" data-name="Group 3405" transform="translate(25.464 8.606)">
                    <path id="Path_48866" data-name="Path 48866" d="M701.031 328.2s2.647-3.053 9.9-1.572c0 0 5.715-2.5 10.63 1.481v-5.07l-10.266-3.19-8.409.9-2.913 3.311z" transform="translate(-699.147 -319.02)" style="fill:#493a31"/>
                    <path id="Path_48867" data-name="Path 48867" class="cls-3" d="M701.01 329a.805.805 0 0 1-.2-.023.829.829 0 0 1-.6-.595l-1.057-4.139a.827.827 0 0 1 .181-.751l2.913-3.312a.832.832 0 0 1 .532-.275l8.41-.9a.819.819 0 0 1 .333.033l10.267 3.189a.826.826 0 0 1 .582.79v5.07a.827.827 0 0 1-1.348.642 9.947 9.947 0 0 0-9.778-1.365.837.837 0 0 1-.5.053c-6.607-1.351-9.095 1.283-9.119 1.31a.838.838 0 0 1-.616.273zm-.148-4.743.639 2.5c1.442-.879 4.375-1.968 9.333-1.01a11.748 11.748 0 0 1 9.882.755v-2.876l-9.522-2.958-7.919.849z" transform="translate(-699.125 -318.997)"/>
                </g>
                <g id="Group_3406" data-name="Group 3406" transform="translate(4.215)">
                    <path id="Path_48868" data-name="Path 48868" class="cls-6" d="M721.4 371.019s7 1.356 9.7-.611c0 0 4.723 1.312 7.421-1.311a16.426 16.426 0 0 0 4.491-14.834c-1.452-6.538-6.085-15.529-8.128-24.384-2.438-10.566-10.224-18.417-16.267-18.81-5.044-.327-6.072.656-7.758 1.639 0 0-1.35-1.311-5.4-1.311s-13.671 4.242-17.719 16.044-3.87 17.3-7.92 24.72-.675 18.9 8.771 18.247a23.887 23.887 0 0 0 10.464.024 18.985 18.985 0 0 1-5.4-11.5c-.675-7.213 4.048-19.015 4.723-21.638s.675-11.8 6.072-13.114 5.9 2.209 5.9 2.209a4.566 4.566 0 0 1 3.883-2.537c2.025 0 6.072 0 8.434 7.541 2.861 9.132 7.084 18.086 8.434 18.741s1.687 4.207 1.687 4.207l.675 2.623s-6.581 13.682-12.063 14.055z" transform="translate(-677.318 -310.179)"/>
                    <path id="Path_48869" data-name="Path 48869" class="cls-3" d="M726.192 372.289a28.419 28.419 0 0 1-4.968-.48.828.828 0 0 1 .1-1.638c4-.272 9.341-9.453 11.241-13.316l-.6-2.327a.811.811 0 0 1-.022-.128c-.141-1.462-.678-3.276-1.225-3.541-1.885-.916-6.312-11.094-8.863-19.238-2.179-6.96-5.732-6.96-7.642-6.96a3.706 3.706 0 0 0-3.135 2.062.828.828 0 0 1-1.567-.237 2.132 2.132 0 0 0-.925-1.3 5.164 5.164 0 0 0-3.962-.221c-3.79.921-4.6 6.749-5.083 10.23a23.061 23.061 0 0 1-.383 2.286c-.145.562-.456 1.5-.851 2.679-1.528 4.58-4.371 13.1-3.849 18.676A18.333 18.333 0 0 0 699.6 369.8a.827.827 0 0 1-.345 1.411 24.412 24.412 0 0 1-10.747.011 9.728 9.728 0 0 1-9.1-4.607 15.191 15.191 0 0 1-.324-14.871c2.321-4.255 3.233-7.9 4.386-12.517.838-3.352 1.788-7.152 3.477-12.075 4.26-12.422 14.489-16.6 18.5-16.6a10.547 10.547 0 0 1 5.435 1.152h.008c1.517-.919 2.953-1.787 7.767-1.474 6.118.4 14.364 7.947 17.019 19.45a105.523 105.523 0 0 0 4.547 13.723 82.414 82.414 0 0 1 3.577 10.657 17.119 17.119 0 0 1-4.721 15.607c-2.569 2.5-6.6 1.876-7.846 1.606a10.343 10.343 0 0 1-5.041 1.016zm-1.631-1.726c2.188.154 4.776.071 6.033-.847a.83.83 0 0 1 .708-.128c.043.012 4.307 1.148 6.625-1.107a15.7 15.7 0 0 0 4.26-14.062 81.488 81.488 0 0 0-3.511-10.434 108.2 108.2 0 0 1-4.616-13.943c-2.4-10.422-9.963-17.809-15.512-18.171-4.3-.279-5.4.39-6.8 1.238l-.486.291a.828.828 0 0 1-.994-.122s-1.253-1.078-4.82-1.078c-3.642 0-12.963 3.9-16.937 15.485-1.664 4.856-2.606 8.62-3.436 11.939-1.183 4.731-2.116 8.468-4.539 12.909a13.47 13.47 0 0 0 .265 13.184 8.038 8.038 0 0 0 7.723 3.841.857.857 0 0 1 .258.023 24.138 24.138 0 0 0 8.658.325 19.951 19.951 0 0 1-4.624-10.92c-.553-5.919 2.361-14.658 3.928-19.352.385-1.152.688-2.063.818-2.568.121-.47.226-1.225.347-2.1.54-3.9 1.446-10.425 6.332-11.612 2.246-.545 4.033-.385 5.306.477a3.87 3.87 0 0 1 .935.89 4.956 4.956 0 0 1 3.733-1.721c2.168 0 6.68 0 9.222 8.121 3.017 9.633 7.008 17.6 8.022 18.253 1.618.785 2.044 4 2.127 4.8l.658 2.561a.826.826 0 0 1-.056.565c-.571 1.189-4.894 9.946-9.627 13.264z" transform="translate(-677.296 -310.156)"/>
                </g>
                <path id="Path_48870" data-name="Path 48870" class="cls-3" d="M689.859 372.428a9.3 9.3 0 0 1-5.984-9.183 36.358 36.358 0 0 1 1.89-10.986 47.68 47.68 0 0 0 1.267-5.014l1.629.29a49.675 49.675 0 0 1-1.308 5.187 35 35 0 0 0-1.824 10.522c0 6.021 4.618 7.54 4.814 7.6z" transform="translate(-673.255 -311.142)"/>
                <path id="Path_48871" data-name="Path 48871" class="cls-3" d="m732.834 372.475-.582-1.549.291.775-.295-.774c.2-.078 4.972-2.016 6.225-10.148l1.634.252c-1.407 9.146-7.035 11.356-7.273 11.444z" transform="translate(-674.542 -311.502)"/>
                <circle id="Ellipse_494" data-name="Ellipse 494" class="cls-3" cx="2.361" cy="2.361" r="2.361" transform="translate(26.966 37.26)"/>
                <circle id="Ellipse_495" data-name="Ellipse 495" class="cls-3" cx="2.361" cy="2.361" r="2.361" transform="translate(44.508 37.26)"/>
                <path id="Path_48872" data-name="Path 48872" class="cls-3" d="M712.318 365.12c-2.688 0-4.876-1.734-4.876-3.864h1.658c0 1.2 1.475 2.209 3.221 2.209s3.221-1.011 3.221-2.209h1.654c-.003 2.131-2.19 3.864-4.878 3.864z" transform="translate(-673.882 -311.515)"/>
                <path id="Path_48873" data-name="Path 48873" class="cls-3" d="m700.049 344.9-.743-.771a8.4 8.4 0 0 1 7.065-.544l-.615.877a7.856 7.856 0 0 0-5.707.438z" transform="translate(-673.666 -311.03)"/>
                <path id="Path_48874" data-name="Path 48874" class="cls-3" d="M724.408 344.9a5.77 5.77 0 0 0-2.812-.757 5.707 5.707 0 0 0-2.894.319l-.616-.877a8.406 8.406 0 0 1 7.066.544z" transform="translate(-674.165 -311.03)"/>
                <path id="Path_48875" data-name="Path 48875" class="cls-8" d="M703.314 358.386a1.727 1.727 0 0 1-1.727 1.726h-1.678a1.726 1.726 0 0 1-1.726-1.726 1.727 1.727 0 0 1 1.726-1.728h1.678a1.727 1.727 0 0 1 1.727 1.728z" transform="translate(-673.636 -311.393)"/>
                <path id="Path_48876" data-name="Path 48876" class="cls-8" d="M727.164 358.386a1.727 1.727 0 0 1-1.727 1.726h-1.678a1.726 1.726 0 0 1-1.726-1.726 1.727 1.727 0 0 1 1.726-1.728h1.678a1.727 1.727 0 0 1 1.727 1.728z" transform="translate(-674.27 -311.393)"/>
                <g id="Group_3407" data-name="Group 3407" transform="translate(56.097 38.581)">
                    <path id="Path_48877" data-name="Path 48877" class="cls-2" d="M731.671 350.8a4.464 4.464 0 0 1 1.177-.157 4.324 4.324 0 1 1 0 8.647 4.475 4.475 0 0 1-1.4-.225" transform="translate(-730.618 -349.814)"/>
                    <path id="Path_48878" data-name="Path 48878" class="cls-3" d="M732.826 360.093a5.284 5.284 0 0 1-1.663-.267.827.827 0 1 1 .519-1.571 3.653 3.653 0 0 0 1.144.182 3.5 3.5 0 1 0 0-6.991 3.662 3.662 0 0 0-.961.128.827.827 0 1 1-.435-1.6 5.3 5.3 0 0 1 1.4-.186 5.151 5.151 0 1 1 0 10.3z" transform="translate(-730.595 -349.791)"/>
                </g>
                <g id="Group_3408" data-name="Group 3408" transform="translate(15.448 38.763)">
                    <path id="Path_48879" data-name="Path 48879" class="cls-2" d="M695.764 351.164a4.508 4.508 0 0 0-1.15-.3 4.324 4.324 0 1 0-1.066 8.581 4.454 4.454 0 0 0 1.419-.05" transform="translate(-688.858 -350.001)"/>
                    <path id="Path_48880" data-name="Path 48880" class="cls-3" d="M694.084 360.283a5.351 5.351 0 0 1-.66-.041 5.225 5.225 0 0 1-3.475-1.948 5.1 5.1 0 0 1 .9-7.238 5.237 5.237 0 0 1 3.847-1.037 5.322 5.322 0 0 1 1.361.356.827.827 0 1 1-.628 1.531 3.651 3.651 0 0 0-.936-.245 3.584 3.584 0 0 0-2.637.71 3.445 3.445 0 0 0-.608 4.9 3.577 3.577 0 0 0 2.382 1.332 3.647 3.647 0 0 0 1.155-.04.827.827 0 1 1 .323 1.623 5.213 5.213 0 0 1-1.024.097z" transform="translate(-688.835 -349.978)"/>
                </g>
                <path id="Path_48881" data-name="Path 48881" class="cls-5" d="m685.43 385.228 11.835-3.6 12.209 6.756 10.984-7.394 12.926 3.957-5.33 20.418v30.36c-.13-.179-37.747 0-37.747 0l-.061-30.36z" transform="translate(-673.297 -312.04)"/>
                <path id="Path_48882" data-name="Path 48882" class="cls-5" d="m686.819 385.344-8.79 11.756-4.214 29.036 2.916 9.707h18.61v-34.565z" transform="translate(-672.988 -312.156)"/>
                <path id="Path_48883" data-name="Path 48883" class="cls-3" d="M692.081 436.869a.827.827 0 0 1-.827-.824l-.062-30.265-2.879-12.043a.828.828 0 0 1 1.611-.384l2.9 12.137a.83.83 0 0 1 .022.19l.061 30.361a.827.827 0 0 1-.824.828z" transform="translate(-673.373 -312.352)"/>
                <path id="Path_48884" data-name="Path 48884" class="cls-3" d="M730.94 436.933a.827.827 0 0 1-.827-.826v-30.362a.807.807 0 0 1 .027-.209l2.558-9.8a.827.827 0 0 1 1.6.419l-2.532 9.7v30.254a.826.826 0 0 1-.826.824z" transform="translate(-674.485 -312.416)"/>
                <path id="Path_48885" data-name="Path 48885" class="cls-3" d="M711.2 389.194a.832.832 0 0 1-.4-.1l-11.9-6.588L687.393 386a.828.828 0 1 1-.481-1.584l11.834-3.595a.826.826 0 0 1 .64.068l11.768 6.512 10.564-7.113a.825.825 0 0 1 .7-.105l12.925 3.958a.827.827 0 1 1-.485 1.582l-12.547-3.842-10.657 7.175a.821.821 0 0 1-.454.138z" transform="translate(-673.32 -312.017)"/>
                <g id="Group_3409" data-name="Group 3409" transform="translate(37.388 66.063)">
                    <path id="Path_44551-2" data-name="Path 44551" class="cls-5" d="m721.587 378.874-9.363 9.7 7.436 6.936 7.194-13.438z" transform="translate(-711.397 -378.046)"/>
                    <path id="Path_48886" data-name="Path 48886" class="cls-3" d="M719.637 396.318a.827.827 0 0 1-.565-.222l-7.435-6.936a.826.826 0 0 1-.031-1.179l9.362-9.7a.824.824 0 0 1 1.025-.132l5.267 3.2a.827.827 0 0 1 .3 1.1l-7.194 13.438a.827.827 0 0 1-.594.426.909.909 0 0 1-.135.005zm-6.255-7.793 6.034 5.628 6.316-11.8-4.032-2.453z" transform="translate(-711.375 -378.023)"/>
                </g>
                <g id="Group_3410" data-name="Group 3410" transform="translate(22.758 66.062)">
                    <path id="Path_44553-2" data-name="Path 44553" class="cls-5" d="m702.678 378.873 8.333 9.706-6.406 6.935-7.411-13.437z" transform="translate(-696.367 -378.045)"/>
                    <path id="Path_48887" data-name="Path 48887" class="cls-3" d="M704.584 396.317h-.1a.832.832 0 0 1-.625-.422l-7.411-13.436a.828.828 0 0 1 .308-1.115l5.482-3.2a.827.827 0 0 1 1.045.175l8.334 9.706a.828.828 0 0 1-.019 1.1l-6.406 6.935a.827.827 0 0 1-.608.257zm-6.3-13.957 6.467 11.726 5.129-5.55-7.406-8.623z" transform="translate(-696.344 -378.023)"/>
                </g>
                <path id="Path_48888" data-name="Path 48888" class="cls-3" d="M675.916 436.07 673 426.362a.817.817 0 0 1-.026-.356l4.213-29.035a.829.829 0 0 1 .157-.377l8.791-11.76 1.325.991-8.664 11.591-4.157 28.644 2.864 9.533z" transform="translate(-672.965 -312.142)"/>
                <path id="Path_48889" data-name="Path 48889" class="cls-3" d="m743.741 436.07-1.586-.476 2.879-9.581-.644-28.64-8.632-11.547 1.325-.991 8.791 11.76a.82.82 0 0 1 .164.476l.653 29.035a.844.844 0 0 1-.034.257z" transform="translate(-674.635 -312.142)"/>
            </g>
            <g id="Group_3413" data-name="Group 3413" transform="translate(616.334 386.091)">
                <rect id="Rectangle_2676" data-name="Rectangle 2676" width="130.978" height="79.001" rx="6.285" style="fill:#ff5200"/>
                <g id="Group_3412" data-name="Group 3412" transform="translate(4.835 4.241)">
                    <path id="Path_48890" data-name="Path 48890" d="M731.785 393.837a11.61 11.61 0 0 0 10.606 10.38v56.613a2.085 2.085 0 0 1-2.083 2.083h-107.39a11.582 11.582 0 0 0-10.492-10.769V395.92a2.085 2.085 0 0 1 2.083-2.083h107.276m.919-.973H624.508a3.056 3.056 0 0 0-3.056 3.056v57.152a10.574 10.574 0 0 1 10.516 10.573c0 .081 0 .161-.007.241h108.347a3.057 3.057 0 0 0 3.057-3.056v-57.554h-.091a10.573 10.573 0 0 1-10.57-10.414z" transform="translate(-621.452 -392.864)" style="fill:#ffac15"/>
                </g>
                <text id="THANK_YOU" data-name="THANK YOU" transform="translate(15.28 45.693)" style="font-size:18px;font-family:Roboto-Bold,Roboto;font-weight:700;fill:#fff"><tspan x="0" y="0">THANK YOU</tspan></text>
            </g>
            <g id="Group_3418" data-name="Group 3418" transform="translate(610.824 429.006)">
                <g id="Group_3414" data-name="Group 3414" transform="translate(1.952 14.863)">
                    <rect id="Rectangle_2677" data-name="Rectangle 2677" class="cls-2" width="7.787" height="5.84" rx="2.92" transform="rotate(-6.284 12.805 -4.094)"/>
                    <path id="Path_48891" data-name="Path 48891" class="cls-3" d="M616.575 455.571a3.748 3.748 0 0 1-.408-7.473l1.936-.212a3.747 3.747 0 0 1 .82 7.449l-1.935.213a3.941 3.941 0 0 1-.413.023zm1.939-6.054a2.032 2.032 0 0 0-.23.013l-1.936.213a2.093 2.093 0 1 0 .458 4.16l1.935-.212a2.093 2.093 0 0 0-.228-4.174z" transform="translate(-612.83 -447.863)"/>
                </g>
                <g id="Group_3415" data-name="Group 3415" transform="translate(.973 10.102)">
                    <rect id="Rectangle_2678" data-name="Rectangle 2678" class="cls-2" width="9.734" height="5.84" rx="2.92" transform="translate(.827 .827)"/>
                    <path id="Path_48892" data-name="Path 48892" class="cls-3" d="M619.465 450.467h-3.894a3.747 3.747 0 1 1 0-7.494h3.894a3.747 3.747 0 1 1 0 7.494zm-3.894-5.84a2.093 2.093 0 0 0 0 4.187h3.894a2.093 2.093 0 0 0 0-4.187z" transform="translate(-611.824 -442.973)"/>
                </g>
                <g id="Group_3416" data-name="Group 3416" transform="translate(0 5.235)">
                    <rect id="Rectangle_2679" data-name="Rectangle 2679" class="cls-2" width="10.707" height="5.84" rx="2.92" transform="translate(.827 .827)"/>
                    <path id="Path_48893" data-name="Path 48893" class="cls-3" d="M619.439 445.467h-4.867a3.747 3.747 0 1 1 0-7.494h4.867a3.747 3.747 0 1 1 0 7.494zm-4.867-5.84a2.093 2.093 0 0 0 0 4.187h4.867a2.093 2.093 0 0 0 0-4.187z" transform="translate(-610.824 -437.973)"/>
                </g>
                <g id="Group_3417" data-name="Group 3417" transform="translate(1.008)">
                    <rect id="Rectangle_2680" data-name="Rectangle 2680" class="cls-2" width="9.734" height="5.84" rx="2.92" transform="rotate(10.89 -1.005 7.672)"/>
                    <path id="Path_48894" data-name="Path 48894" class="cls-3" d="M619.432 440.826a3.746 3.746 0 0 1-.709-.068l-3.825-.735a3.748 3.748 0 0 1 1.416-7.361l3.823.735a3.748 3.748 0 0 1-.707 7.429zm-.4-1.693a2.093 2.093 0 1 0 .789-4.111l-3.821-.734a2.093 2.093 0 1 0-.79 4.11z" transform="translate(-611.859 -432.595)"/>
                </g>
            </g>
            <g id="Group_3423" data-name="Group 3423" transform="translate(738.976 397.599)">
                <g id="Group_3419" data-name="Group 3419" transform="translate(.979 14.861)">
                    <rect id="Rectangle_2681" data-name="Rectangle 2681" class="cls-2" width="7.787" height="5.84" rx="2.92" transform="rotate(-173.716 4.33 3.365)"/>
                    <path id="Path_48895" data-name="Path 48895" class="cls-3" d="M749.17 423.306a3.716 3.716 0 0 1-.415-.023l-1.935-.213a3.747 3.747 0 0 1 .82-7.449l1.935.213a3.748 3.748 0 0 1-.4 7.473zm-2.17-1.88 1.935.213a2.093 2.093 0 0 0 .458-4.161l-1.936-.212a2.093 2.093 0 0 0-.458 4.16z" transform="translate(-743.483 -415.597)"/>
                </g>
                <g id="Group_3420" data-name="Group 3420" transform="translate(0 10.102)">
                    <rect id="Rectangle_2682" data-name="Rectangle 2682" class="cls-2" width="9.734" height="5.84" rx="2.92" transform="rotate(-180 5.28 3.333)"/>
                    <path id="Path_48896" data-name="Path 48896" class="cls-3" d="M750.117 418.2h-3.894a3.747 3.747 0 0 1 0-7.494h3.894a3.747 3.747 0 1 1 0 7.494zm-3.894-5.84a2.093 2.093 0 0 0 0 4.187h3.894a2.093 2.093 0 1 0 0-4.187z" transform="translate(-742.477 -410.708)"/>
                </g>
                <g id="Group_3421" data-name="Group 3421" transform="translate(0 5.235)">
                    <rect id="Rectangle_2683" data-name="Rectangle 2683" class="cls-2" width="10.707" height="5.84" rx="2.92" transform="rotate(180 5.767 3.334)"/>
                    <path id="Path_48897" data-name="Path 48897" class="cls-3" d="M751.091 413.2h-4.867a3.747 3.747 0 0 1 0-7.494h4.867a3.747 3.747 0 1 1 0 7.494zm-4.867-5.84a2.093 2.093 0 0 0 0 4.187h4.867a2.093 2.093 0 1 0 0-4.187z" transform="translate(-742.477 -405.708)"/>
                </g>
                <g id="Group_3422" data-name="Group 3422" transform="translate(.034)">
                    <rect id="Rectangle_2684" data-name="Rectangle 2684" class="cls-2" width="9.734" height="5.84" rx="2.92" transform="rotate(169.11 5.206 3.556)"/>
                    <path id="Path_48898" data-name="Path 48898" class="cls-3" d="M746.256 408.561a3.749 3.749 0 0 1-.7-7.429l3.823-.736a3.748 3.748 0 0 1 1.415 7.362l-3.824.735a3.748 3.748 0 0 1-.714.068zm3.826-6.577a2.08 2.08 0 0 0-.394.038l-3.823.736a2.093 2.093 0 0 0 .79 4.11l3.823-.735a2.094 2.094 0 0 0-.4-4.149z" transform="translate(-742.511 -400.33)"/>
                </g>
            </g>
        </g>
    </g>
</svg>
