<svg xmlns="http://www.w3.org/2000/svg" width="154" height="166" viewBox="0 0 154 166">
    <defs>
        <clipPath id="clip-path">
            <path id="Path_49353" data-name="Path 49353" d="M31.958 62.295v-34.5h16.719V1.651H-.263v60.644z" style="stroke:#707070;fill:none"/>
        </clipPath>
        <style>
            .cls-9{fill:none}.cls-4{fill:#fff;stroke:#ff5200;stroke-width:3px}.cls-5{fill:#c1c1c1}.cls-7{stroke:none}
        </style>
    </defs>
    <g id="img_info2_step03" transform="translate(-201 -757.987)">
        <g id="Path_49266" data-name="Path 49266" style="stroke-dasharray:2 2;fill:#fff">
            <path class="cls-7" d="M117.83 247.492v47.436a35.533 35.533 0 0 0 17.864 30.8l41.271 23.718a35.871 35.871 0 0 0 35.729 0l41.271-23.718a35.533 35.533 0 0 0 17.864-30.8v-47.436a35.533 35.533 0 0 0-17.864-30.8l-41.271-23.718a35.871 35.871 0 0 0-35.729 0l-41.271 23.718a35.534 35.534 0 0 0-17.864 30.8z" transform="translate(83.17 569.777)"/>
            <path d="M194.83 188.21h.255l.019.001h.089l.018.001h.053l.073.002H195.373l.071.001h.036c.45.009.9.026 1.349.05l-.111 1.998a34.071 34.071 0 0 0-1.888-.053v-2zm3.992.222c.298.034.596.07.893.112l.017.002h.002l.035.005.017.002.017.003.017.002.016.002.016.003.036.005.015.002.016.002.016.003h.005c.185.027.37.055.553.084l.076.012.014.003.016.002.015.003.017.002.016.003.021.004a.824.824 0 0 0 .017.002l.018.003.016.003.083.014-.332 1.972a34.025 34.025 0 0 0-1.87-.262l.222-1.988zm3.942.665c.65.147 1.295.313 1.937.496l-.55 1.923a33.977 33.977 0 0 0-1.829-.468l.442-1.95zm3.844 1.1.264.093h.001l.014.005.015.006c.529.189 1.054.39 1.575.605l-.76 1.85a33.925 33.925 0 0 0-1.766-.67l.657-1.889zm3.697 1.522c.416.2.83.407 1.24.623h.001l.013.007.002.002.012.006.003.001.011.006.002.001.019.01.008.005.006.003.01.005.005.002.011.007.004.002.015.007.417.226-.963 1.753a34.032 34.032 0 0 0-1.68-.862l.864-1.804zm3.516 1.903.786.452h.001l.028.017.003.002h.002l.914.526-.996 1.734-1.734-.996.996-1.735zm3.468 1.994.705.405h.002l.017.01.007.005.003.001.003.002.002.001.995.572-.996 1.734-1.734-.996.996-1.734zm3.469 1.993.16.091.024.015h.002l.009.006.002.001.003.002h.001l.002.001v.001l.003.001.002.001 1.526.877-.997 1.734-1.734-.996.997-1.734zm3.468 1.993 1.145.658.003.001.007.005.003.001.006.004.57.327-.997 1.734-1.734-.996.997-1.734zm3.468 1.993 1.734.996-.997 1.734-1.734-.996.997-1.734zm3.468 1.993.88.505v.001l.004.002.004.002.846.486-.997 1.734-1.734-.996.997-1.734zm3.468 1.993 1.734.996-.997 1.734-1.734-.996.997-1.734zm3.468 1.993 1.267.728.004.002.006.004h.002l.455.262-.996 1.735-1.735-.997.997-1.734zm3.468 1.993.648.372.017.01.001.001c.49.28 1.068.614 1.068.614l-.996 1.734-1.734-.997.996-1.734zm3.468 1.993.025.014.001.001h.001v.001h.002v.001l.005.002.002.002a.42.42 0 0 0 .006.003l.003.002h.001l.029.017 1.66.954-.997 1.734-1.734-.997.996-1.734zm3.468 1.993.866.498.007.004.003.001.002.002.004.002h.001l.003.002.004.002.004.003.005.003.002.001.022.012.811.467-.996 1.734-1.734-.997.996-1.734zm3.468 1.993 1.734.997-.996 1.734-1.734-.997.996-1.734zm3.448 2.028c.207.132.412.266.616.403l.03.02h.001l.015.01.003.003c.008.005.017.01.024.016l.01.006.017.012.01.007.012.007.017.012.01.007.014.01.01.006.017.012.007.004.021.015a.362.362 0 0 0 .006.004l.022.015h.001l.023.016.003.002.024.017h.002c.249.17.495.344.74.52l-1.17 1.622a33.937 33.937 0 0 0-1.562-1.061l1.077-1.685zm3.242 2.339a41.108 41.108 0 0 1 .147.12l.023.018.002.002.022.017v.001l.022.018a.46.46 0 0 0 .004.004l.02.016a.622.622 0 0 1 .006.004l.02.017.004.003.018.015.005.004.019.016.007.006.018.015.007.006.014.012.01.007.015.013.008.007a4.121 4.121 0 0 1 .04.033l.01.008.013.012a1.726 1.726 0 0 1 .034.028l.017.014.008.007.013.01.01.01a10.89 10.89 0 0 1 .049.041l.013.011.01.008.014.012.007.007.018.014.008.007a7.657 7.657 0 0 1 .038.033l.007.006.018.015.007.006.018.015.007.006c.005.005.01.01.015.013l.008.007.016.014.007.005.018.016.006.006.02.016.003.004.018.014.005.005.019.016.005.005.02.017.005.004.018.016.003.003.02.017a.355.355 0 0 0 .005.004l.02.017a11.976 11.976 0 0 1 .025.022l.001.002.02.017.003.003.02.018c.002 0 .003.002.005.003l.02.018.003.003.02.017.002.002a12.305 12.305 0 0 1 .025.022l.02.017.004.004.02.019h.001l.021.018.003.003.02.018a.441.441 0 0 0 .025.022l.003.003.02.018h.001l.022.02.003.003.02.018.004.003.02.019h.002l.02.018.004.004.02.018.004.004.02.017.003.004.018.015a.547.547 0 0 1 .023.021l.006.005.018.017.006.005.017.016.005.004.016.015a.555.555 0 0 0 .004.004l-1.344 1.48a33.79 33.79 0 0 0-1.433-1.228l1.26-1.554zm2.96 2.687c.47.476.923.964 1.363 1.464l-1.502 1.32c-.414-.47-.846-.934-1.286-1.38l1.426-1.404zm2.64 3.002.215.276.002.003.01.012v.002l.01.012a.1.1 0 0 0 .002.002l.02.027.003.003.008.011.004.005.006.008.005.007.005.006.005.007.005.006.006.008.004.005.006.008v.001c.3.394.592.793.874 1.199l-1.64 1.144a33.74 33.74 0 0 0-1.123-1.517l1.574-1.235zm2.288 3.28c.115.187.228.374.34.563l.002.003.006.011.004.006.005.009.004.006.004.008.004.007.005.008.004.007.004.005.02.035v.001l.008.013.008.013v.002c.1.17.199.341.296.513v.001l.008.013.03.054.006.01.003.006.005.008.003.007a.957.957 0 0 0 .013.023l.005.008a.92.92 0 0 1 .003.005l.025.046v.002c.064.112.125.224.186.337l-1.758.953c-.299-.55-.617-1.1-.946-1.633l1.703-1.05zm1.904 3.515c.284.603.551 1.214.8 1.832l-1.854.75a33.609 33.609 0 0 0-.755-1.73l1.809-.852zm1.497 3.707.057.168.005.016.001.002.005.014v.004l.005.012.001.004.005.014.004.012.002.006.004.013v.001l.005.015c.178.538.344 1.082.496 1.63l-1.927.535a33.58 33.58 0 0 0-.556-1.803l1.893-.643zm1.07 3.852c.142.65.265 1.305.37 1.965l-1.974.314a33.527 33.527 0 0 0-.35-1.854l1.954-.425zm.63 3.948c.023.237.045.475.064.713v.002l.002.013v.016l.001.005.003.04v.003l.001.01.001.008v.008l.002.01v.007l.001.011v.006l.004.053.002.018v.001c.027.356.048.712.064 1.07l-1.998.09a33.558 33.558 0 0 0-.138-1.882l1.99-.202zm-1.819 3.994h2v2h-2v-2zm0 4h2v2h-2v-2zm0 4h2v2h-2v-2zm0 4h2v2h-2v-2zm0 4h2v2h-2v-2zm0 4h2v2h-2v-2zm0 4h2v2h-2v-2zm0 4h2v2h-2v-2zm0 4h2v2h-2v-2zm0 4h2v2h-2v-2zm0 4h2v2h-2v-2zm0 4h2v2h-2v-2zm-.012 3.946 1.999.054-.012.374v.004l-.001.012v.016l-.001.01v.006l-.001.018V296.358l-.001.017v.001c-.013.302-.029.603-.049.903v.001l-.001.016v.004l-.001.014v.003l-.002.017V297.352l-.001.008v.008l-.002.01v.017l-.001.006-.001.012c-.011.16-.024.321-.037.482l-1.993-.167c.052-.624.087-1.258.105-1.884zm-.316 3.758 1.98.28c-.013.098-.028.196-.042.293v.002l-.003.013v.004l-.002.012v.004l-.002.012v.003l-.004.02-.001.009-.001.006-.002.011v.007l-.002.01-.001.007-.002.011-.001.005a1.91 1.91 0 0 1-.014.088 35.38 35.38 0 0 1-.258 1.455l-1.962-.392c.123-.614.23-1.24.317-1.86zm-.738 3.7 1.937.5a35.404 35.404 0 0 1-.556 1.922l-1.905-.61c.191-.597.367-1.206.524-1.813zm-1.15 3.592 1.868.716-.003.007-.003.009-.003.006a1.315 1.315 0 0 1-.004.01l-.002.005-.004.012-.002.004-.005.013v.002c-.232.6-.48 1.193-.743 1.778l-1.824-.82c.257-.571.501-1.157.725-1.742zm-1.547 3.44 1.775.922a32.26 32.26 0 0 1-.067.13h-.001l-.007.014a3.834 3.834 0 0 0-.008.015l-.002.004-.006.01-.003.006a.328.328 0 0 1-.003.007l-.018.033c0 .001 0 .002-.002.003l-.006.012-.001.002-.007.013v.001c-.239.45-.487.896-.745 1.336v.002l-.008.011-.001.003-.007.011-.002.004-.006.01a3.662 3.662 0 0 0-.01.02c-.002.002-.005.005-.006.008l-.003.005a1.014 1.014 0 0 1-.006.01l-.003.005-.006.01-.003.005-.006.01-.002.004-.008.013v.001l-.018.03-1.72-1.02a33.7 33.7 0 0 0 .916-1.65zm-1.925 3.246 1.66 1.115a35.57 35.57 0 0 1-.68.977l-.01.014v.002a2.812 2.812 0 0 1-.01.012s0 .002-.002.003a1.575 1.575 0 0 1-.01.014l-.008.012-.002.002-.02.028-.003.004-.007.01-.004.005-.006.008-.005.007-.005.007-.005.007-.004.005-.006.009-.003.004-.033.045-.002.003-.008.01-.001.002-.008.012h-.002c-.104.144-.21.285-.316.426l-1.595-1.206c.377-.5.746-1.017 1.095-1.537zm-2.276 3.01 1.525 1.294-.192.224-.003.003-.02.024-.002.002-.034.039-.005.006-.016.019-.007.007-.011.013-.011.013-.01.01-.01.012a4.231 4.231 0 0 1-.03.035l-.012.014a1.861 1.861 0 0 0-.007.007l-.016.019-.005.005-.016.02a.235.235 0 0 0-.004.003l-.016.018-.003.004-.018.02-.004.004-.017.02a13.455 13.455 0 0 1-.022.024v.001l-.02.022-.002.002a12.13 12.13 0 0 1-.019.022l-.002.002-.06.069c-.23.256-.462.509-.699.758l-.001.002-.02.021-.002.001-.02.022-1.45-1.377c.431-.454.856-.927 1.261-1.404zm-2.6 2.735 1.37 1.457c-.28.263-.564.522-.853.777h-.001l-.07.061v.002l-.023.02h-.001l-.046.04-.001.001-.022.02c-.001 0-.002 0-.003.002l-.045.039h-.001l-.022.02-.003.002-.021.019-.002.002-.045.038-.002.002-.022.019-.002.002-.046.039a6.682 6.682 0 0 0-.023.02l-.002.002-.023.019-.047.04-.001.001-.023.02h-.001l-.071.06-.072.061-1.286-1.532c.48-.402.954-.824 1.41-1.253zm-2.89 2.426 1.199 1.602c-.001 0-.002 0-.003.002l-.02.015a35.706 35.706 0 0 1-1.61 1.135l-1.108-1.666a33.874 33.874 0 0 0 1.543-1.088zm-3.143 2.089 1.012 1.725a33.735 33.735 0 0 1-.106.062l-.015.009a.25.25 0 0 0-.004.002l-.013.007-.005.003a2.47 2.47 0 0 1-.012.007l-.005.003-.012.007-.005.003a2.86 2.86 0 0 0-.016.01l-.015.008-.002.001-.016.01h-.001l-.052.03-1.455.836-.996-1.734 1.454-.836.264-.153zm-3.452 1.985.996 1.734s-.78.45-1.294.744l-.004.003-.436.25-.996-1.734 1.734-.997zm-3.468 1.993.996 1.734-.472.272-.003.002h-.002l-.002.002-.01.006-.005.003-.007.003-.002.001-.001.001-1.23.707-.996-1.734 1.734-.997zm-3.468 1.993.996 1.735-1.185.68-.02.012-.008.004-.002.002-.002.001-.002.001-.002.001-.005.003-.006.003v.001a.63.63 0 0 0-.008.004l-.494.284-.996-1.734 1.734-.997zm-3.469 1.994.997 1.734-1.734.996-.997-1.734 1.734-.996zm-3.468 1.993.997 1.734-.653.375-.005.003h-.001l-.018.01-.002.002-.009.005-.006.003-.023.014-.008.004-1.01.58-.996-1.734 1.734-.996zm-3.468 1.993.997 1.734-1.734.996-.997-1.734 1.734-.996zm-3.468 1.993.997 1.734-1.388.797-.002.002-.003.001-.002.001-.01.006-.003.002-.326.187-.997-1.734 1.734-.996zm-3.468 1.993.997 1.734-1.397.803-.005.002-.003.002-.002.001-.002.001a.182.182 0 0 0-.003.002l-.003.002-.003.001-.002.002-.003.001-.003.002-.308.177-.997-1.734 1.734-.996zm-3.468 1.993.997 1.734-.587.337-.018.01-.004.003h-.002l-1.124.646-.996-1.734 1.734-.996zm-3.468 1.993.996 1.734-.307.177-.004.002-.011.006-.002.002-.003.001-.002.001-.01.006-.002.001-.002.001-.007.004-.001.001-.015.009h-.002l-.033.02h-.001l-1.332.765-.996-1.734 1.734-.996zm-3.468 1.993.996 1.734-.69.397a.153.153 0 0 0-.004.002l-.003.002h-.001l-.003.002-.002.001-.004.002-.003.002-1.024.589-.996-1.734 1.734-.997zm-3.465 1.99.993 1.737a36 36 0 0 1-.642.358l-.001.001-.012.007-.004.002-.01.006-.003.001-.035.019c-.002 0-.004.002-.005.003l-.009.004-.007.004-.007.004-.01.005-.005.003-.014.008-.017.009-.016.008-.001.001-.014.008-.003.001-.014.008h-.001l-.016.009a35.51 35.51 0 0 1-.561.295l-.013.006-.004.002-.011.006-.006.003-.01.005a.2.2 0 0 0-.005.003l-.013.007-.009.004-.008.004-.01.005-.004.002a2.403 2.403 0 0 0-.015.008l-.01.005a35.74 35.74 0 0 1-.237.12l-.895-1.789c.56-.28 1.12-.58 1.664-.891zm-3.376 1.69.793 1.835a35.8 35.8 0 0 1-1.758.706h-.003l-.013.005-.005.002-.011.004-.005.002-.011.004-.012.005-.037.013h-.002l-.69-1.877a33.886 33.886 0 0 0 1.754-.7zm-3.543 1.3.584 1.914a35.82 35.82 0 0 1-1.929.53l-.476-1.943c.61-.15 1.222-.318 1.821-.5zm-3.666.899.366 1.966a35.86 35.86 0 0 1-1.975.312l-.257-1.984c.622-.08 1.25-.18 1.866-.294zm-3.744.485.146 1.994c-.666.049-1.331.079-1.998.09l-.035-2c.627-.01 1.262-.039 1.887-.084zm-5.66-.06c.624.06 1.258.101 1.885.125l-.077 1.999a35.942 35.942 0 0 1-1.995-.133l.187-1.99zm-3.732-.563c.613.128 1.238.24 1.858.334l-.298 1.977c-.658-.099-1.315-.217-1.968-.353l.408-1.958zm-3.647-.975c.595.196 1.204.377 1.81.539l-.517 1.932a35.779 35.779 0 0 1-.946-.267h-.001l-.014-.004-.003-.001a2.021 2.021 0 0 0-.012-.004l-.044-.013h-.002l-.012-.004-.004-.001-.01-.004a6.676 6.676 0 0 1-.016-.004l-.016-.005a11.195 11.195 0 0 1-.016-.005l-.016-.005h-.002l-.015-.005-.004-.001-.013-.004-.003-.001-.014-.004-.003-.001a35.84 35.84 0 0 1-.75-.237l.623-1.9zm-3.515-1.375c.57.26 1.155.508 1.738.737l-.729 1.862a35.812 35.812 0 0 1-1.024-.419h-.002l-.011-.006a.157.157 0 0 1-.005-.002l-.01-.004-.005-.002a1.643 1.643 0 0 1-.01-.005h-.003l-.02-.009-.008-.004a.333.333 0 0 0-.006-.002l-.01-.005-.006-.002-.011-.005a.242.242 0 0 0-.004-.002l-.014-.006h-.002c-.23-.1-.46-.203-.69-.307l.832-1.82zm-3.376-1.773.586.337c.36.207.729.41 1.095.603l-.931 1.77a36.008 36.008 0 0 1-.56-.301l-.012-.007-.005-.003a2.074 2.074 0 0 1-.012-.006l-.006-.004a1.113 1.113 0 0 0-.01-.005l-.009-.005-.007-.004-.012-.007a.313.313 0 0 0-.005-.002l-.016-.01h-.001a36.99 36.99 0 0 1-.45-.254h-.002l-.016-.01H177l-.016-.01h-.002l-.017-.01-.586-.338.996-1.734zm-3.468-1.993 1.734.997-.997 1.734-.12-.07h-.002l-.001-.001-.002-.001-.005-.003-.005-.003-.024-.014-1.575-.905.997-1.734zm-3.468-1.993 1.734.997-.997 1.734-.472-.272-.003-.001-.002-.002h-.002l-.003-.002-.002-.002h-.002l-.002-.002-.002-.001-1.244-.715.997-1.734zm-3.468-1.993 1.734.997-.997 1.734-1.734-.997.997-1.734zm-3.468-1.993 1.734.997-.997 1.734-1.366-.786-.03-.016-.002-.002-.003-.002h-.002v-.001a.195.195 0 0 0-.004-.002h-.001l-.006-.004-.006-.004-.003-.001-.002-.001-.002-.002-.307-.176.997-1.734zm-3.468-1.993 1.734.996-.997 1.735-1.734-.997.997-1.734zm-3.469-1.993 1.735.996-.997 1.734-1.734-.996.996-1.734zm-3.468-1.993 1.734.996-.996 1.734-1.041-.598h-.002l-.001-.002-.004-.002h-.002l-.684-.394.996-1.734zm-3.468-1.993 1.734.996-.996 1.734-.246-.14-.002-.002h-.001a.822.822 0 0 1-.006-.004l-.002-.001a.4.4 0 0 0-.006-.004h-.001l-.006-.004h-.002l-1.462-.841.996-1.734zm-3.468-1.993 1.734.996-.996 1.734-1.019-.585-.003-.002-.01-.005-.001-.001-.001-.001-.004-.002-.002-.001-.008-.005-.002-.001-.003-.002h-.001l-.004-.003h-.002a.745.745 0 0 0-.006-.004l-.005-.003-.006-.004-.003-.001-.002-.002-.652-.374.996-1.734zm-3.468-1.993 1.734.996-.996 1.734-.947-.544-.004-.002-.002-.001-.002-.001-.002-.001-.003-.003h-.002l-.772-.444.996-1.734zm-3.468-1.993 1.734.996-.996 1.734-1.147-.659h-.001l-.009-.005-.008-.005-.004-.002-.043-.025-.004-.002-.001-.001-.518-.297.997-1.734zm-3.409-1.977c.287.177.58.351.873.519l.802.461-.997 1.734-.778-.447-.003-.002h-.001l-.006-.004a.218.218 0 0 1-.005-.003l-.009-.005c-.311-.18-.619-.362-.924-.55l1.048-1.703zm-3.099-2.154a33.86 33.86 0 0 0 1.52 1.12l-1.142 1.643-.005-.004-.016-.011-.011-.008-.012-.008-.014-.01-.014-.01-.008-.006-.02-.013-.007-.005-.02-.014-.005-.004-.019-.013a.416.416 0 0 0-.026-.018l-.005-.004-.022-.015-.004-.003-.022-.016h-.001l-.024-.017-.003-.002-.023-.017-.002-.001a48.606 48.606 0 0 1-.05-.035v-.001a4.43 4.43 0 0 1-.025-.018h-.001l-.05-.036-.025-.018-.002-.001-.075-.054-.025-.019-.05-.036h-.002l-.024-.018-.002-.002a18.028 18.028 0 0 1-.048-.035h-.001a15.844 15.844 0 0 1-.024-.018l-.003-.002a11.19 11.19 0 0 1-.023-.017l-.002-.002-.023-.016-.001-.001-.023-.017-.004-.003-.022-.016-.003-.003a9.261 9.261 0 0 0-.022-.015l-.002-.002-.021-.016-.006-.004-.02-.015-.006-.004a4.755 4.755 0 0 1-.025-.019l-.017-.013a.97.97 0 0 1-.026-.019l-.008-.006-.018-.013-.008-.006-.014-.01a1.831 1.831 0 0 1-.026-.02l-.01-.007-.014-.011a3.419 3.419 0 0 0-.023-.017l-.017-.013-.01-.007-.011-.009a1.735 1.735 0 0 0-.009-.007l-.019-.014a.802.802 0 0 1-.005-.004l-.024-.018-.003-.002a35.86 35.86 0 0 1-.454-.35l1.231-1.575zm-2.838-2.487c.448.439.913.87 1.384 1.283l-1.318 1.504-.001-.001-.021-.018-.003-.003-.02-.018-.002-.001-.02-.019a.399.399 0 0 0-.025-.02l-.005-.005-.02-.017-.003-.003-.018-.016a.64.64 0 0 0-.004-.004l-.02-.017a1.03 1.03 0 0 1-.005-.005l-.018-.016-.007-.006-.016-.014-.006-.005-.017-.016-.006-.005a4.252 4.252 0 0 0-.018-.016l-.006-.006-.018-.016-.007-.006a2.678 2.678 0 0 1-.038-.034l-.007-.007-.017-.015-.008-.007-.013-.012-.01-.009-.014-.012-.007-.007-.017-.015-.008-.007a6.96 6.96 0 0 0-.016-.015l-.008-.007a2.374 2.374 0 0 1-.013-.012l-.008-.007-.016-.015-.008-.007-.016-.015-.008-.007-.013-.012-.01-.009-.014-.012a1.943 1.943 0 0 0-.008-.008l-.016-.014-.008-.008-.015-.014a1.846 1.846 0 0 1-.008-.007l-.014-.013-.006-.006-.017-.015-.008-.007-.017-.016a.677.677 0 0 1-.03-.027l-.014-.014a1.468 1.468 0 0 0-.007-.006l-.017-.016-.007-.007-.018-.016-.005-.005-.015-.014-.006-.005-.017-.017-.007-.006a4.328 4.328 0 0 1-.04-.037l-.005-.004-.017-.017-.005-.005-.019-.017-.005-.005-.019-.017a.267.267 0 0 1-.004-.004l-.017-.016-.004-.004-.019-.018a.299.299 0 0 1-.004-.004l-.02-.018-.004-.004a9.595 9.595 0 0 1-.018-.018l-.003-.003-.02-.018-.003-.003-.02-.018a.44.44 0 0 0-.003-.004l-.02-.02h-.002a11.436 11.436 0 0 1-.042-.041l-.003-.003-.02-.02-.003-.002-.042-.04a.12.12 0 0 0-.002-.002l-.021-.02-.002-.002a33.927 33.927 0 0 1-.156-.15v-.001l-.09-.087 1.401-1.428zm-2.54-2.79c.394.487.809.968 1.23 1.43l-1.478 1.348a35.608 35.608 0 0 1-.987-1.131l-.039-.046-.001-.002-.018-.021-.003-.004a5.289 5.289 0 0 1-.021-.026l-.016-.018-.004-.005a3.659 3.659 0 0 0-.014-.017l-.006-.007-.014-.017-.007-.01-.012-.013a4.384 4.384 0 0 0-.018-.022l-.014-.017-.006-.008c-.042-.05-.083-.1-.124-.152l1.551-1.261zm-2.213-3.056a33.76 33.76 0 0 0 1.063 1.56l-1.62 1.172c-.279-.386-.55-.777-.814-1.173l-.01-.015-.01-.015-.039-.06-.002-.002-.007-.012a.153.153 0 0 0-.003-.003l-.006-.01-.004-.006a1.092 1.092 0 0 1-.016-.025l-.002-.003a8.883 8.883 0 0 1-.019-.028l-.004-.007-.005-.007a.936.936 0 0 0-.005-.007l-.004-.007-.005-.008a.563.563 0 0 0-.004-.005l-.006-.01a37.226 37.226 0 0 1-.162-.25l1.684-1.08zm-1.855-3.286c.277.562.573 1.124.881 1.67l-1.741.983a35.719 35.719 0 0 1-.142-.255l-.01-.015v-.001l-.016-.03-.003-.006a2.542 2.542 0 0 1-.018-.032l-.003-.005-.005-.01a.478.478 0 0 1-.009-.015 35.563 35.563 0 0 1-.728-1.4l1.794-.884zm-1.474-3.472c.211.589.443 1.18.688 1.757l-1.841.781a35.49 35.49 0 0 1-.695-1.765V307a8.302 8.302 0 0 0-.005-.015l-.001-.003a6.09 6.09 0 0 0-.005-.013l-.001-.004-.006-.015-.006-.017-.003-.007c0-.003-.002-.005-.003-.008l-.003-.01-.002-.004 1.883-.676zm-1.074-3.617c.144.61.307 1.223.486 1.824l-1.918.569a35.424 35.424 0 0 1-.483-1.8l-.004-.016v-.004l-.003-.012-.002-.006a3.763 3.763 0 0 0-.022-.094l1.946-.46zm-.659-3.713c.075.622.168 1.25.277 1.866l-1.97.35a37.17 37.17 0 0 1-.044-.261l-.002-.012-.001-.006-.002-.01a.685.685 0 0 0-.003-.015l-.001-.01-.001-.007-.002-.012-.001-.004-.009-.053v-.002a35.258 35.258 0 0 1-.148-.975 28.927 28.927 0 0 1-.01-.072v-.002l-.002-.016a.677.677 0 0 0-.005-.037 15.08 15.08 0 0 1-.007-.054v-.003l-.003-.015v-.002l-.002-.015v-.003l-.003-.017-.004-.036v-.002l-.003-.016v-.003l-.002-.015v-.002l-.002-.016v-.002a16.14 16.14 0 0 1-.007-.054l-.002-.017v-.003a2.572 2.572 0 0 1-.003-.017l-.002-.016v-.002a37.72 37.72 0 0 1-.021-.175l1.985-.237zm-.235-3.765c.003.626.025 1.261.064 1.886l-1.996.125a35.513 35.513 0 0 1-.02-.358l-.001-.013v-.016l-.001-.006v-.01l-.001-.007v-.01l-.001-.014v-.01l-.001-.01v-.007l-.001-.01v-.006l-.001-.013V296.637l-.001-.004-.002-.035V296.579l-.001-.018v-.002c-.022-.47-.034-.94-.037-1.413l2-.012zm-2.001-3.988h2v2h-2v-2zm0-4h2v2h-2v-2zm0-4h2v2h-2v-2zm0-4h2v2h-2v-2zm0-4h2v2h-2v-2zm0-4h2v2h-2v-2zm0-4h2v2h-2v-2zm0-4h2v2h-2v-2zm0-4h2v2h-2v-2zm0-4h2v2h-2v-2zm0-4h2v2h-2v-2zm.002-4 2 .019-.002.327v1.654h-2V247.242l.002-.097zm.264-3.99 1.985.245a33.524 33.524 0 0 0-.178 1.878l-1.995-.132c.016-.25.035-.5.057-.748v-.002l.005-.056v-.006l.001-.01.001-.008.001-.008v-.01l.001-.006.002-.013v-.004l.003-.036.002-.018.002-.018c.032-.35.07-.7.113-1.048zm.712-3.933 1.945.467c-.146.609-.277 1.23-.388 1.846l-1.968-.357.04-.22.003-.017v-.002l.003-.014.001-.005.002-.01.002-.008.001-.01.004-.016v-.006l.003-.012v-.004c.002-.004.002-.008.003-.013v-.002l.003-.014v-.001a35.507 35.507 0 0 1 .127-.629l.003-.013v-.003l.003-.012v-.005c.002-.004.003-.007.003-.011l.001-.004.008-.035.002-.01.001-.006.002-.01.002-.007.002-.01.001-.007.003-.011v-.005l.004-.016.012-.054c.055-.253.112-.503.172-.754zm1.152-3.829 1.88.683a33.595 33.595 0 0 0-.595 1.791l-1.915-.576c.09-.3.184-.597.282-.894v-.001l.005-.013v-.002l.005-.013v-.003a2.87 2.87 0 0 1 .005-.013v-.002l.024-.071v-.002l.006-.014.005-.015.03-.088v-.001c.086-.257.176-.512.268-.766zm1.576-3.674 1.79.89a33.672 33.672 0 0 0-.792 1.713l-1.838-.788.08-.186.001-.001.005-.013.002-.004.005-.01.002-.006.004-.009c.234-.535.481-1.064.74-1.586zm1.978-3.474 1.68 1.085c-.34.526-.67 1.07-.98 1.614l-1.738-.99c.33-.58.676-1.15 1.038-1.71zm2.356-3.23 1.547 1.267a33.74 33.74 0 0 0-1.155 1.493l-1.616-1.179c.393-.538.8-1.065 1.224-1.582zm2.703-2.946 1.395 1.432c-.449.437-.891.893-1.315 1.355l-1.473-1.352c.32-.35.648-.693.982-1.03l.063-.062.004-.004.02-.02.005-.005.013-.014.011-.01.01-.01.01-.01.014-.014.01-.01a2.997 2.997 0 0 1 .023-.023l.008-.008.016-.016.007-.006.015-.015.005-.006.017-.016.005-.005.019-.018.003-.004.02-.02h.001l.044-.044.068-.065zm3.016-2.625 1.226 1.58c-.495.385-.986.788-1.458 1.2l-1.313-1.51c.502-.436 1.017-.86 1.545-1.27zm3.29-2.27 1.043 1.708c-.536.326-1.068.672-1.584 1.028l-1.136-1.647c.24-.165.481-.327.725-.486v-.001l.078-.05.002-.002.024-.015.002-.002.05-.032.003-.002.024-.015.002-.002.05-.032.002-.001.024-.016c.002 0 .002 0 .003-.002l.025-.015.024-.016c.002 0 .002-.001.003-.002l.024-.015.003-.002.025-.016.025-.016.002-.001.024-.015.004-.003.024-.015.001-.001.025-.016h.001l.025-.016.002-.002.025-.015.002-.001.05-.032.002-.001c.124-.078.248-.155.373-.23zm3.463-2.004.996 1.734-1.734.997-.996-1.734.915-.526.004-.002.008-.005.018-.01.004-.003.785-.45zm3.468-1.993.996 1.734-1.734.997-.996-1.734 1.62-.931a4.34 4.34 0 0 1 .01-.006l.006-.003.002-.002.006-.003.002-.001h.001l.004-.003.083-.048zm3.468-1.993.996 1.734-1.734.997-.996-1.734 1.008-.58h.001l.009-.005.003-.002.002-.001.032-.019h.001l.678-.39zm3.468-1.993.997 1.734-1.734.997-.997-1.734.393-.226.019-.01.006-.005.004-.002.009-.005 1.303-.749zm3.468-1.993.997 1.734-1.734.997-.997-1.734 1.734-.997zm3.468-1.993.997 1.734-1.734.997-.997-1.734s.38-.22.785-.452h.002l.018-.01.93-.535zm3.468-1.993.997 1.734-1.734.997-.997-1.734 1.734-.997zm3.468-1.993.997 1.734-1.734.997-.997-1.735.638-.366.003-.001v-.001a.236.236 0 0 0 .004-.002l.002-.001 1.087-.625zm3.469-1.993.996 1.734-1.734.996-.997-1.734 1.6-.92.004-.001.006-.003c.003-.003.007-.004.01-.006l.002-.001.02-.011.017-.01.001-.002.075-.042zm3.468-1.993.996 1.734-1.734.996-.996-1.734.005-.003h.002v-.001h.001l.001-.001h.001l.002-.002h.001l.002-.002h.001l.006-.004.003-.001.002-.001.003-.002.006-.003.006-.004.031-.018h.002l1.659-.954zm3.468-1.993.996 1.734-1.734.996-.996-1.734.97-.558h.001l.004-.002h.001l.003-.003.007-.004.004-.002.003-.001.014-.009.002-.001.018-.01.003-.002.704-.404zm3.468-1.993.996 1.734-1.734.996-.996-1.734 1.734-.996zm3.546-1.847.825 1.822c-.57.258-1.141.537-1.697.827l-.926-1.773a35.947 35.947 0 0 1 .961-.484l.05-.024h.002l.013-.007.004-.002.013-.006.003-.001.014-.007.002-.001.016-.008h.001l.014-.007.006-.003.01-.005c.002 0 .004-.002.005-.003l.01-.005.007-.002.01-.005.005-.003.01-.005.01-.004.011-.005a.682.682 0 0 1 .007-.004c.003 0 .005-.002.008-.003l.008-.004.007-.004.009-.004a.506.506 0 0 0 .006-.003l.01-.004.004-.003.037-.017h.002l.011-.006a.23.23 0 0 1 .015-.007l.004-.002.011-.005.003-.002c.16-.075.319-.148.48-.22zm3.728-1.443.617 1.902a33.95 33.95 0 0 0-1.779.632l-.722-1.865a35.801 35.801 0 0 1 1.884-.67zm3.866-1.02.401 1.96c-.614.126-1.232.27-1.838.43l-.51-1.934.29-.075.017-.004h.003l.013-.004.005-.002.012-.003h.005l.013-.004.004-.001.015-.004h.002l.016-.004a.712.712 0 0 0 .016-.005c.005 0 .01-.002.016-.004l.016-.003.014-.004c.483-.12.968-.231 1.455-.331l.014-.003.016-.003.005-.001zm3.956-.581.18 1.991a34.06 34.06 0 0 0-1.875.223l-.291-1.978c.156-.023.312-.045.469-.066l.017-.003.017-.002.018-.002.017-.002.02-.003.016-.002.017-.002.015-.002.017-.003.014-.001.058-.008.015-.002.017-.002.016-.002.31-.037.015-.002.016-.002h.002l.044-.005.012-.002.016-.002a1.538 1.538 0 0 0 .033-.003l.016-.002.052-.006.018-.002.018-.002c.23-.025.46-.048.69-.07zm3.243-.147v2c-.391 0-.787.007-1.178.02l-.07-1.998c.356-.013.71-.02 1.066-.022H194.83z" style="fill:#aeaeae;stroke:none" transform="translate(83.17 569.777)"/>
        </g>
        <g id="Group_101" data-name="Group 101" transform="translate(247.498 808.735)">
            <g id="Mask_Group_148" data-name="Mask Group 148" style="clip-path:url(#clip-path)">
                <g id="Rectangle_2822" data-name="Rectangle 2822" class="cls-4">
                    <path class="cls-7" d="M0 0h45v56H0z" transform="translate(1.502 4.252)"/>
                    <path class="cls-9" d="M1.5 1.5h42v53h-42z" transform="translate(1.502 4.252)"/>
                </g>
            </g>
            <g id="Rectangle_2823" data-name="Rectangle 2823" class="cls-4">
                <path class="cls-7" d="M0 0h29v8H0z" transform="translate(10.502 13.252)"/>
                <path class="cls-9" d="M1.5 1.5h26v5h-26z" transform="translate(10.502 13.252)"/>
            </g>
            <path id="Rectangle_2824" data-name="Rectangle 2824" class="cls-5" transform="translate(10.502 35.252)" d="M0 0h20v3H0z"/>
            <path id="Rectangle_2825" data-name="Rectangle 2825" class="cls-5" transform="translate(10.502 41.252)" d="M0 0h9v3H0z"/>
            <path id="Rectangle_2826" data-name="Rectangle 2826" class="cls-5" transform="translate(10.502 48.252)" d="M0 0h15v3H0z"/>
            <path id="stamp" d="M30.677 21.288h-7.139V17.6a8.917 8.917 0 0 1 1.379-4.586 7.136 7.136 0 1 0-13.156-4.95 7.032 7.032 0 0 0 .891 4.967 8.635 8.635 0 0 1 1.368 4.445v3.815H6.88a2.382 2.382 0 0 0-2.38 2.38v4.76a2.382 2.382 0 0 0 2.38 2.38v2.38a2.382 2.382 0 0 0 2.38 2.38H28.3a2.382 2.382 0 0 0 2.38-2.38v-2.38a2.382 2.382 0 0 0 2.38-2.38v-4.76a2.382 2.382 0 0 0-2.38-2.38zM14.1 8.489a4.76 4.76 0 1 1 8.773 3.3 11.613 11.613 0 0 0-1.639 4.739h-4.91A11.355 11.355 0 0 0 14.69 11.8a4.684 4.684 0 0 1-.59-3.311zm7.056 10.419v2.38H16.4v-2.38zM28.3 33.187H9.26v-2.38H28.3zM6.88 28.428v-4.76h23.8v4.76z" transform="translate(30.502 28.255)" style="fill:#ff5200"/>
        </g>
    </g>
</svg>
