<svg xmlns="http://www.w3.org/2000/svg" width="110" height="170" viewBox="0 0 110 170">
    <defs>
        <style>
            .cls-2{fill:#fff}.cls-3{fill:#262626}.cls-4{fill:#ffeae0}.cls-5{fill:#ff5200}.cls-6{fill:#494949}
        </style>
    </defs>
    <g id="img_mailcertified2" transform="translate(-476.991 -411)">
        <g id="Group_1663" transform="translate(480.767 412)">
            <g id="Group_3152" transform="translate(4.734 72.942)">
                <path id="Path_48698" d="M489.455 482.18l20.364-5.18 18.473 9.73 16.619-10.648 19.556 5.7-7.362 29.4s-.591 43.869-.7 43.724c-.2-.258-56.687 0-56.687 0l-2.976-45.758z" class="cls-2" transform="translate(-488.49 -475.118)"/>
                <path id="Path_48699" d="M556.52 555.991a.89.89 0 0 1-.212-.025c-1.945-.161-34.727-.075-56.472.024a.965.965 0 0 1-.963-.9l-2.973-45.664-7.261-26.879a.967.967 0 0 1 .694-1.188l20.365-5.178a.975.975 0 0 1 .687.083l17.976 9.468 16.146-10.346a.96.96 0 0 1 .79-.114l19.557 5.7a.967.967 0 0 1 .667 1.162l-7.336 29.293c-.016 1.181-.154 11.457-.307 21.737-.079 5.464-.165 10.93-.235 15.03-.131 7.519-.131 7.519-.818 7.748a.973.973 0 0 1-.305.049zm-.262-1.862l-.009-.03zm-15.5-.206c8.961 0 12.983.052 14.835.157.139-5.132.516-31.991.661-42.792a.965.965 0 0 1 .028-.22l7.137-28.5-18.243-5.316-16.247 10.408a.97.97 0 0 1-.971.041l-18.145-9.557-19.056 4.844 7.03 26.026a.991.991 0 0 1 .032.19l2.917 44.851c19.087-.087 31.693-.132 40.024-.132z" class="cls-3" transform="translate(-488.605 -475.234)"/>
            </g>
            <g id="Group_1647" transform="translate(24.445 60.764)">
                <g id="Group_1646">
                    <g id="Group_1636" transform="translate(9.761)">
                        <path id="Rectangle_2438" d="M0 0H18.375V22.363H0z" class="cls-2" transform="translate(1.136 1.137)"/>
                        <g id="Group_3153">
                            <path id="Path_44546" d="M516.258 486.985h16.783V466.21h-16.783z" class="cls-4" transform="translate(-514.328 -464.279)"/>
                            <path id="Path_44546-2" d="M533.271 466.44v20.775h-16.783V466.44h16.783m0-1.93h-16.783a1.931 1.931 0 0 0-1.93 1.93v20.775a1.93 1.93 0 0 0 1.93 1.93h16.783a1.93 1.93 0 0 0 1.931-1.93V466.44a1.931 1.931 0 0 0-1.931-1.93z" class="cls-3" transform="translate(-514.558 -464.51)"/>
                        </g>
                    </g>
                    <g id="Group_3154" transform="translate(9.233 24.208)">
                        <path id="Path_48700" d="M525.711 486.678h-2.432L515 530.518l9.359 11.872 9.631-11.872z" class="cls-5" transform="translate(-513.97 -485.713)"/>
                        <path id="Path_48701" d="M524.471 544.052l-10.378-13.166 8.509-45.058h4.032l8.51 45.066zm-8.318-13.671l8.34 10.579 8.589-10.587-8.048-42.615h-.834z" class="cls-3" transform="translate(-514.093 -485.828)"/>
                    </g>
                    <g id="Group_3155" transform="translate(12.456 20.314)">
                        <path id="Path_48702" d="M521.472 493.12l5.611.066 3.079-5.045-3.949-4.892H522.3L518.012 487z" class="cls-5" transform="translate(-516.785 -482.284)"/>
                        <path id="Path_48703" d="M527.768 494.272l-6.716-.079-4.121-7.287 5.153-4.507h4.738l4.665 5.78zm-5.583-2l4.506.053 2.439-4-3.232-4.005h-3.088l-3.425 3z" class="cls-3" transform="translate(-516.931 -482.399)"/>
                    </g>
                    <g id="Group_1645" transform="translate(0 8.376)">
                        <g id="Group_1644">
                            <g id="Group_1643">
                                <g id="Group_1641" transform="translate(20.104 0.002)">
                                    <g id="Group_3156">
                                        <path id="Path_44551" d="M534.4 472.737l-9.881 11.989 7.62 7.533 10.529-15.353z" class="cls-2" transform="translate(-523.551 -471.773)"/>
                                        <path id="Path_48704" d="M532.252 493.339a.968.968 0 0 1-.679-.278l-7.62-7.533a.964.964 0 0 1-.066-1.3l9.881-11.989a.968.968 0 0 1 1.18-.246l8.267 4.169a.966.966 0 0 1 .362 1.408l-10.529 15.35a.958.958 0 0 1-.7.414.827.827 0 0 1-.096.005zm-6.314-8.564l6.171 6.1 9.251-13.489-6.593-3.325z" class="cls-3" transform="translate(-523.667 -471.888)"/>
                                    </g>
                                </g>
                                <g id="Group_1642">
                                    <g id="Group_3157">
                                        <path id="Path_44553" d="M515.082 472.736l9.881 11.989-7.619 7.533-10.531-15.353z" class="cls-2" transform="translate(-505.847 -471.771)"/>
                                        <path id="Path_48705" d="M517.46 493.338a.829.829 0 0 1-.092 0 .96.96 0 0 1-.7-.414l-10.531-15.352a.965.965 0 0 1 .361-1.408l8.269-4.169a.961.961 0 0 1 1.179.246l9.882 11.989a.967.967 0 0 1-.066 1.3l-7.619 7.533a.965.965 0 0 1-.683.275zm-9.112-15.952l9.254 13.489 6.171-6.1-8.829-10.713z" class="cls-3" transform="translate(-505.962 -471.886)"/>
                                    </g>
                                </g>
                            </g>
                        </g>
                    </g>
                </g>
            </g>
            <g id="Group_1648" transform="translate(13.741 38.724)">
                <path id="Path_44555" d="M512.051 453.206a7.407 7.407 0 1 1-7.407-7.408 7.407 7.407 0 0 1 7.407 7.408z" class="cls-4" transform="translate(-496.441 -445.007)"/>
                <path id="Path_44556" d="M504.737 461.5a8.2 8.2 0 1 1 8.2-8.2 8.211 8.211 0 0 1-8.2 8.2zm0-14.816a6.614 6.614 0 1 0 6.614 6.614 6.622 6.622 0 0 0-6.614-6.611z" class="cls-3" transform="translate(-496.536 -445.101)"/>
            </g>
            <g id="Group_1649" transform="translate(59.265 38.724)">
                <path id="Path_44557" d="M552.139 453.206a7.408 7.408 0 1 1-7.407-7.408 7.407 7.407 0 0 1 7.407 7.408z" class="cls-4" transform="translate(-536.53 -445.007)"/>
                <path id="Path_44558" d="M544.826 461.5a8.2 8.2 0 1 1 8.2-8.2 8.211 8.211 0 0 1-8.2 8.2zm0-14.816a6.614 6.614 0 1 0 6.614 6.614 6.62 6.62 0 0 0-6.614-6.611z" class="cls-3" transform="translate(-536.625 -445.101)"/>
            </g>
            <g id="Group_1650" transform="translate(20.051 11.702)">
                <path id="Path_44559" d="M549.412 454.884a23.308 23.308 0 0 1-23.308 23.31 23.309 23.309 0 0 1-23.309-23.31v-9.571A23.309 23.309 0 0 1 526.1 422a23.308 23.308 0 0 1 23.31 23.307z" class="cls-4" transform="translate(-501.998 -421.21)"/>
                <path id="Path_44560" d="M526.2 479.084a24.132 24.132 0 0 1-24.1-24.107v-9.568a24.1 24.1 0 0 1 48.209 0v9.568a24.132 24.132 0 0 1-24.109 24.107zm0-56.19a22.54 22.54 0 0 0-22.515 22.516v9.567a22.516 22.516 0 0 0 45.031.01v-9.578a22.542 22.542 0 0 0-22.516-22.515z" class="cls-3" transform="translate(-502.093 -421.305)"/>
            </g>
            <g id="Group_1651" transform="translate(52.973 12.752)">
                <path id="Path_44561" d="M533.539 431.589c1.077.982 2.4 1.8 3.356 2.6a28.165 28.165 0 0 1 6.338 8.348c.408.763 3.024 5.054 2.588 5.805 3.167-5.414 4.157-11.812 1.441-17.665-1.406-3.031-4.17-6.5-7.489-7.5-5.039-1.507-11.023 4.035-6.234 8.412z" class="cls-6" transform="translate(-530.989 -422.135)"/>
                <path id="Path_44562" d="M545.913 449.23a.793.793 0 0 1-.793-.795.785.785 0 0 1 .048-.271c-.022-.374-.44-1.477-2.206-4.563-.152-.267-.271-.477-.336-.594a26.943 26.943 0 0 0-6.147-8.114c-.382-.32-.835-.649-1.314-1a23.555 23.555 0 0 1-2.068-1.622 5.154 5.154 0 0 1-1.684-5.811 7.269 7.269 0 0 1 6.7-4.233 6.836 6.836 0 0 1 1.979.286c3.685 1.1 6.54 4.817 7.982 7.924 2.65 5.71 2.126 12.245-1.475 18.4a.794.794 0 0 1-.686.393zm-7.8-25.417a5.715 5.715 0 0 0-5.219 3.22c-.544 1.4-.1 2.8 1.273 4.063a22.767 22.767 0 0 0 1.93 1.515c.5.365.976.71 1.4 1.065a28.489 28.489 0 0 1 6.528 8.581c.06.112.17.307.312.555.845 1.474 1.442 2.59 1.832 3.448 2.461-5.149 2.638-10.471.464-15.154-1.24-2.671-3.814-6.12-7-7.073a5.372 5.372 0 0 0-1.524-.22z" class="cls-3" transform="translate(-531.084 -422.229)"/>
            </g>
            <g id="Group_1653" transform="translate(16.405 16.246)">
                <g id="Group_1652">
                    <path id="Path_44563" d="M510.719 426.182a6.61 6.61 0 0 0-4.616.536 13.787 13.787 0 0 0-4.417 4.9c-1.938 3.636-2.108 7.877-2.108 11.984 0 4.325 3.65 10.2 3.65 10.2-1.109-3.234 1.262-5.947 3.383-8.09a41.067 41.067 0 0 0 6.518-8.773c2.336-4.039 3.561-9.613-2.41-10.757z" class="cls-6" transform="translate(-498.788 -425.214)"/>
                    <path id="Path_44564" d="M503.327 454.688a.793.793 0 0 1-.676-.376c-.153-.248-3.769-6.118-3.769-10.619 0-4.164.169-8.549 2.2-12.357a14.632 14.632 0 0 1 4.68-5.191 6.052 6.052 0 0 1 3.324-.834 10.026 10.026 0 0 1 1.879.182 5.72 5.72 0 0 1 4.49 3.089c1.424 3.121-.6 7.223-1.542 8.844a41.812 41.812 0 0 1-6.641 8.937c-2.044 2.066-4.145 4.5-3.2 7.273a.794.794 0 0 1-.5 1.007.806.806 0 0 1-.253.042zm5.76-27.787a4.573 4.573 0 0 0-2.448.571 13.016 13.016 0 0 0-4.154 4.612c-1.858 3.486-2.013 7.646-2.013 11.61a17.944 17.944 0 0 0 2 6.934c.639-2.32 2.5-4.2 3.668-5.381a39.823 39.823 0 0 0 6.4-8.616c1.7-2.929 2.245-5.689 1.469-7.387a4.236 4.236 0 0 0-3.342-2.188 8.473 8.473 0 0 0-1.58-.154z" class="cls-3" transform="translate(-498.882 -425.306)"/>
                </g>
            </g>
            <g id="Group_1654" transform="translate(55.046 14.147)">
                <path id="Path_44565" d="M545.942 448.794a.794.794 0 0 1-.795-.795c0-5.665 0-18.936-11.678-22.988a.794.794 0 1 1 .47-1.517l.05.017c12.747 4.423 12.747 19 12.747 24.488a.794.794 0 0 1-.794.795z" class="cls-3" transform="translate(-532.91 -423.458)"/>
            </g>
            <g id="Group_1655" transform="translate(26.398 0)">
                <path id="Path_44566" d="M508.639 428.193A6.486 6.486 0 0 1 509 423.6c2.709-5.786 9.767-5.721 15.231-5.713 7.4.008 13.851-1.1 19.624-6.19.351 4.443.572 9.87-1.2 14.125-5.149 12.383-16.845 12.381-25.656 10.2-3.317-.811-7.422-4.469-8.36-7.829z" class="cls-6" transform="translate(-507.587 -410.905)"/>
                <path id="Path_44567" d="M525.416 438.014a35.827 35.827 0 0 1-8.512-1.12c-3.7-.914-7.964-4.915-8.935-8.392a7.318 7.318 0 0 1 .407-5.142c2.89-6.171 10.307-6.171 15.213-6.171h.814c6.348 0 13.047-.726 19.021-5.991a.794.794 0 0 1 1.317.533c.4 5.007.517 10.227-1.256 14.494-3.249 7.821-9.33 11.789-18.069 11.789zm-1.828-19.239c-5.962 0-11.5.4-13.775 5.258a5.673 5.673 0 0 0-.315 4.04c.826 2.956 4.609 6.5 7.786 7.279a34.233 34.233 0 0 0 8.132 1.073c8.034 0 13.62-3.638 16.6-10.813 1.469-3.536 1.525-7.9 1.25-12.224-6.047 4.708-12.625 5.388-18.866 5.388z" class="cls-3" transform="translate(-507.682 -411)"/>
            </g>
            <g id="Group_1656" transform="translate(36.86 50.205)">
                <path id="Path_44568" d="M525.082 463.46a8.932 8.932 0 0 1-5.58-1.828A6.936 6.936 0 0 1 516.9 456a.794.794 0 0 1 1.589 0c0 4.029 3.419 5.864 6.6 5.864a7.657 7.657 0 0 0 4.673-1.5 5.35 5.35 0 0 0 2.044-4.364.794.794 0 0 1 1.589 0c-.002 4.9-4.185 7.46-8.313 7.46z" class="cls-3" transform="translate(-516.895 -455.211)"/>
            </g>
            <path id="Path_44569" d="M515.762 448.284a1.874 1.874 0 0 1-1.874 1.875 1.873 1.873 0 0 1-1.873-1.874v-.612a1.873 1.873 0 0 1 1.871-1.874 1.873 1.873 0 0 1 1.874 1.873z" class="cls-3" transform="translate(-480.696 -406.282)"/>
            <path id="Path_44570" d="M534.48 448.284a1.874 1.874 0 0 1-1.874 1.875 1.876 1.876 0 0 1-1.874-1.875v-.612a1.875 1.875 0 0 1 1.874-1.874 1.874 1.874 0 0 1 1.874 1.874z" class="cls-3" transform="translate(-478.159 -406.282)"/>
            <g id="Group_1657" transform="translate(43.189 35.648)">
                <path id="Path_44571" d="M523.661 456.672a.794.794 0 0 1-.68-1.2l2.357-3.938-2.078-1.22a.8.8 0 0 1-.392-.637l-.4-6.441a.795.795 0 0 1 1.586-.1l.371 6.02 2.405 1.413a.8.8 0 0 1 .282 1.089l-2.765 4.627a.8.8 0 0 1-.686.387z" class="cls-3" transform="translate(-522.469 -442.392)"/>
            </g>
            <g id="Group_1658" transform="translate(26.975 1.89)">
                <path id="Path_44572" d="M508.983 429.947a.8.8 0 0 1-.746-1.065c2.875-7.915 12.926-6.853 17.218-6.4 5.862.808 10.174.151 12.841-1.949 1.961-1.544 3.119-3.951 3.439-7.152a.794.794 0 1 1 1.581.158c-.365 3.646-1.723 6.419-4.037 8.242-3.062 2.411-7.646 3.157-14.018 2.278-6.453-.678-13.372-.572-15.532 5.367a.8.8 0 0 1-.746.521z" class="cls-3" transform="translate(-508.19 -412.665)"/>
            </g>
            <g id="Group_1659" transform="translate(27.581 0.325)">
                <path id="Path_44573" d="M526.47 431.365h-.019a26.35 26.35 0 0 1-6.038-1.073c-3.875-.98-7.883-2-10.394-.02a.794.794 0 1 1-1-1.234l.018-.015c3.126-2.457 7.716-1.3 11.768-.27a25.384 25.384 0 0 0 5.648 1.024h.02c13.811 0 14.807-8.233 15.962-17.765a.795.795 0 1 1 1.583.139l-.007.052c-1.144 9.42-2.324 19.161-17.541 19.162z" class="cls-3" transform="translate(-508.724 -411.286)"/>
            </g>
            <g id="Group_1660" transform="translate(18.882 17.259)">
                <path id="Path_44574" d="M501.946 452.114a.8.8 0 0 1-.792-.737c-.837-11.348 4.249-21.6 7.951-24.955a.795.795 0 1 1 1.1 1.142l-.039.034c-3.469 3.147-8.232 12.837-7.438 23.663a.794.794 0 0 1-.734.849z" class="cls-3" transform="translate(-501.063 -426.198)"/>
            </g>
            <g id="Group_1662" transform="translate(0 78.624)">
                <g id="Group_3158">
                    <path id="Path_44577" d="M491.649 481.088a2.577 2.577 0 0 0-1.908 2.071l-4.42 40.851a2.583 2.583 0 0 0 .276 1.659l11.235 23.764a2.58 2.58 0 0 0 4 .678l11.635-10.576a2.581 2.581 0 0 0 .523-3.156L500.372 513.5a2.579 2.579 0 0 1 .216-2.821l1.6-2.077" class="cls-2" transform="translate(-484.32 -480.123)"/>
                    <path id="Path_48706" d="M499.224 551.864a3.547 3.547 0 0 1-3.124-1.855L484.84 526.2a3.512 3.512 0 0 1-.355-2.233l4.415-40.797a3.563 3.563 0 0 1 2.63-2.9.965.965 0 0 1 .476 1.871 1.615 1.615 0 0 0-1.195 1.3l-4.412 40.8a1.681 1.681 0 0 0 .166 1.095l11.259 23.81a1.588 1.588 0 0 0 1.125.776 1.631 1.631 0 0 0 1.356-.4l11.634-10.576a1.607 1.607 0 0 0 .327-1.975l-12.621-22.884a3.544 3.544 0 0 1 .3-3.875l1.6-2.077a.965.965 0 1 1 1.529 1.178l-1.6 2.077a1.613 1.613 0 0 0-.135 1.765l12.622 22.884a3.531 3.531 0 0 1-.72 4.336L501.6 550.94a3.518 3.518 0 0 1-2.376.924z" class="cls-3" transform="translate(-484.435 -480.238)"/>
                </g>
            </g>
            <g id="Group_1662-2" transform="translate(61.261 77.702)">
                <g id="Group_3159">
                    <path id="Path_44577-2" d="M547.217 505.954l.773 6.172-8.758 23.317 9.8 24.233 12.648-33.155-3.642-44.909-3.535-1.334" class="cls-2" transform="translate(-538.268 -479.31)"/>
                    <path id="Path_48707" d="M549.147 560.756a.966.966 0 0 1-.895-.6l-9.8-24.234a.962.962 0 0 1-.009-.7l8.675-23.093-.744-5.937a.965.965 0 1 1 1.914-.24l.775 6.173a.958.958 0 0 1-.055.459l-8.626 22.963 8.737 21.607 11.696-30.654-3.574-44.081-2.964-1.12a.965.965 0 0 1 .681-1.806l3.536 1.334a.965.965 0 0 1 .621.826l3.641 44.909a.967.967 0 0 1-.06.421l-12.648 33.155a.963.963 0 0 1-.892.621z" class="cls-3" transform="translate(-538.383 -479.426)"/>
                </g>
            </g>
        </g>
        <g id="Group_3164" transform="translate(477.991 506.423)">
            <g id="Group_3160" transform="translate(0 2.392)">
                <path id="Path_48708" d="M526.964 534.613L489.849 508.9a4.466 4.466 0 0 0-7.008 3.671v51.415a4.466 4.466 0 0 0 7.008 3.671l37.115-25.708a4.466 4.466 0 0 0 0-7.336z" class="cls-2" transform="translate(-481.876 -507.142)"/>
                <path id="Path_48709" d="M487.424 569.539a5.436 5.436 0 0 1-5.433-5.434v-51.414a5.43 5.43 0 0 1 8.523-4.464l37.114 25.707a5.43 5.43 0 0 1 0 8.929l-37.114 25.708a5.429 5.429 0 0 1-3.09.968zm0-60.359a3.5 3.5 0 0 0-1.631.41 3.446 3.446 0 0 0-1.876 3.1v51.415a3.5 3.5 0 0 0 5.493 2.879l37.114-25.709a3.5 3.5 0 0 0 0-5.754l-37.114-25.707a3.473 3.473 0 0 0-1.982-.633z" class="cls-3" transform="translate(-481.991 -507.257)"/>
            </g>
            <g id="Group_3161" transform="translate(45.09 2.751)">
                <path id="Path_48710" d="M524.641 534.246l36.027-24.955a4.86 4.86 0 0 1 7.628 3.995V563.2a4.86 4.86 0 0 1-7.628 3.995l-36.027-24.955a4.859 4.859 0 0 1 0-7.994z" class="cls-2" transform="translate(-521.583 -507.458)"/>
                <path id="Path_48711" d="M563.548 569.139a5.814 5.814 0 0 1-3.313-1.04l-36.028-24.955a5.824 5.824 0 0 1 0-9.576l36.028-24.956a5.825 5.825 0 0 1 9.141 4.789v49.91a5.833 5.833 0 0 1-5.828 5.829zm-.006-59.643a3.857 3.857 0 0 0-2.209.7l-36.028 24.955a3.892 3.892 0 0 0 0 6.4l36.028 24.956a3.894 3.894 0 0 0 6.111-3.2V513.4a3.834 3.834 0 0 0-2.086-3.449 3.891 3.891 0 0 0-1.815-.451z" class="cls-3" transform="translate(-521.698 -507.573)"/>
            </g>
            <g id="Group_3162" transform="translate(0.797 19.274)">
                <path id="Path_48712" d="M524.577 524.328l-39.185 34.625a5.416 5.416 0 0 0 3.586 9.474h78.37a5.415 5.415 0 0 0 3.586-9.474l-39.185-34.625a5.415 5.415 0 0 0-7.172 0z" class="cls-2" transform="translate(-482.577 -522.008)"/>
                <path id="Path_48713" d="M567.465 569.507h-78.37a6.381 6.381 0 0 1-4.225-11.161l39.185-34.626a6.39 6.39 0 0 1 8.451 0l39.185 34.626a6.38 6.38 0 0 1-4.226 11.161zm-42.771-45.064l.639.723-39.185 34.625a4.451 4.451 0 0 0 2.947 7.785h78.37a4.45 4.45 0 0 0 2.947-7.785l-39.185-34.625a4.457 4.457 0 0 0-5.894 0z" class="cls-3" transform="translate(-482.693 -522.123)"/>
            </g>
            <g id="Group_3163" transform="translate(0.982 0)">
                <path id="Path_48714" d="M532 550.16l39.461-34.869a5.311 5.311 0 0 0-3.513-9.291h-78.924a5.311 5.311 0 0 0-3.517 9.291l39.463 34.869a5.311 5.311 0 0 0 7.03 0z" class="cls-2" transform="translate(-482.74 -505.035)"/>
                <path id="Path_48715" d="M528.6 552.569a6.262 6.262 0 0 1-4.156-1.57l-39.462-34.87a6.228 6.228 0 0 1-1.714-6.925 6.152 6.152 0 0 1 5.87-4.054h78.925a6.231 6.231 0 0 1 5.87 4.054 6.151 6.151 0 0 1-1.715 6.925L532.757 551a6.26 6.26 0 0 1-4.157 1.569zm-39.461-45.489a4.346 4.346 0 0 0-2.878 7.6l39.462 34.87a4.357 4.357 0 0 0 5.755 0l39.461-34.87a4.345 4.345 0 0 0-2.876-7.6z" class="cls-3" transform="translate(-482.855 -505.15)"/>
            </g>
        </g>
        <g id="Group_3165" transform="translate(527.398 525.028)">
            <circle id="Ellipse_469" cx="25.242" cy="25.242" r="25.242" class="cls-2" transform="translate(1.993 1.992)"/>
            <path id="Path_48716" d="M552.734 571a27.234 27.234 0 1 1 27.234-27.234A27.266 27.266 0 0 1 552.734 571zm0-50.483a23.248 23.248 0 1 0 23.249 23.248 23.275 23.275 0 0 0-23.249-23.245z" class="cls-5" transform="translate(-525.5 -516.534)"/>
            <path id="Path_48717" d="M552.309 554.609a5.3 5.3 0 0 1-3.758-1.557l-10.412-10.412a5.314 5.314 0 0 1 7.515-7.515l6.655 6.654 21.1-21.1a5.314 5.314 0 0 1 7.515 7.516l-24.855 24.855a5.3 5.3 0 0 1-3.76 1.559z" class="cls-5" transform="translate(-523.998 -517.317)"/>
        </g>
        <g id="Group_3170" transform="translate(488.161 500.451)">
            <g id="Group_3166" transform="translate(0 3.645)">
                <rect id="Rectangle_2587" width="7.841" height="5.881" class="cls-4" rx="2.589" transform="translate(5.91 0.261) rotate(73.811)"/>
                <path id="Path_48718" d="M495.4 512.794a3.923 3.923 0 0 1-3.751-2.817l-.549-1.877a3.906 3.906 0 1 1 7.5-2.179l.546 1.883a3.908 3.908 0 0 1-3.751 5zm-1.9-3.356a1.975 1.975 0 0 0 3.794-1.1l-.547-1.883a1.975 1.975 0 1 0-3.793 1.1z" class="cls-3" transform="translate(-490.948 -503.101)"/>
            </g>
            <g id="Group_3167" transform="translate(4.764 1.809)">
                <rect id="Rectangle_2588" width="9.801" height="5.881" class="cls-4" rx="2.589" transform="matrix(0.172, 0.985, -0.985, 0.172, 6.296, 0.505)"/>
                <path id="Path_48719" d="M499.718 513.16a3.917 3.917 0 0 1-3.843-3.234l-.674-3.861a3.91 3.91 0 0 1 3.175-4.52 3.914 3.914 0 0 1 4.52 3.176l.675 3.86a3.91 3.91 0 0 1-3.852 4.579zm-1.942-3.567a1.975 1.975 0 1 0 3.892-.68l-.675-3.86a1.957 1.957 0 0 0-.812-1.274 1.971 1.971 0 0 0-3.078 1.953z" class="cls-3" transform="translate(-495.142 -501.485)"/>
            </g>
            <g id="Group_3168" transform="translate(9.422 0)">
                <rect id="Rectangle_2589" width="10.781" height="5.881" class="cls-4" rx="2.589" transform="matrix(0.172, 0.985, -0.985, 0.172, 6.297, 0.505)"/>
                <path id="Path_48720" d="M503.989 512.532a3.914 3.914 0 0 1-3.843-3.233l-.844-4.827a3.906 3.906 0 0 1 7.7-1.344l.843 4.827a3.9 3.9 0 0 1-3.852 4.578zm-1.942-3.566a1.975 1.975 0 1 0 3.892-.679l-.843-4.827a1.969 1.969 0 0 0-.812-1.274 1.989 1.989 0 0 0-1.473-.333 1.985 1.985 0 0 0-1.607 2.286z" class="cls-3" transform="translate(-499.245 -499.892)"/>
            </g>
            <g id="Group_3169" transform="translate(14.723 0.092)">
                <rect id="Rectangle_2590" width="9.801" height="5.881" class="cls-4" rx="2.589" transform="translate(6.963 1.02) rotate(90.983)"/>
                <path id="Path_48721" d="M507.819 511.708h-.069a3.914 3.914 0 0 1-3.837-3.971l.067-3.921a3.879 3.879 0 0 1 1.194-2.739 3.74 3.74 0 0 1 2.779-1.1 3.913 3.913 0 0 1 3.838 3.972l-.067 3.92a3.916 3.916 0 0 1-3.9 3.838zm.066-9.8a1.985 1.985 0 0 0-1.975 1.942l-.067 3.92a1.983 1.983 0 0 0 1.941 2.008 2.055 2.055 0 0 0 1.4-.556 1.953 1.953 0 0 0 .6-1.384l.067-3.92a1.984 1.984 0 0 0-1.941-2.009z" class="cls-3" transform="translate(-503.912 -499.973)"/>
            </g>
        </g>
        <g id="Group_3175" transform="translate(542.229 498.375)">
            <g id="Group_3171" transform="translate(14.242 3.639)">
                <rect id="Rectangle_2591" width="7.841" height="5.881" class="cls-4" rx="2.589" transform="translate(8.096 1.904) rotate(106.189)"/>
                <path id="Path_48722" d="M555.005 510.966a3.867 3.867 0 0 1-1.086-.156 3.912 3.912 0 0 1-2.663-4.841l.547-1.882a3.906 3.906 0 1 1 7.5 2.178l-.546 1.882a3.916 3.916 0 0 1-3.752 2.819zm.551-7.765a1.978 1.978 0 0 0-1.9 1.426l-.547 1.882a1.975 1.975 0 0 0 3.794 1.1l.546-1.884a1.978 1.978 0 0 0-1.347-2.448 1.949 1.949 0 0 0-.546-.077z" class="cls-3" transform="translate(-551.102 -501.268)"/>
            </g>
            <g id="Group_3172" transform="translate(9.351 1.808)">
                <rect id="Rectangle_2592" width="9.801" height="5.881" class="cls-4" rx="2.589" transform="matrix(-0.172, 0.985, -0.985, -0.172, 7.983, 1.516)"/>
                <path id="Path_48723" d="M550.7 511.331a3.967 3.967 0 0 1-.671-.058 3.912 3.912 0 0 1-3.176-4.521l.675-3.862a3.906 3.906 0 0 1 7.695 1.344l-.674 3.862a3.914 3.914 0 0 1-3.849 3.235zm.674-9.744a1.987 1.987 0 0 0-1.945 1.635l-.674 3.863a1.975 1.975 0 1 0 3.89.679l.675-3.862a1.983 1.983 0 0 0-1.606-2.286 2.024 2.024 0 0 0-.339-.03z" class="cls-3" transform="translate(-546.794 -499.655)"/>
            </g>
            <g id="Group_3173" transform="translate(4.523 0)">
                <rect id="Rectangle_2593" width="10.781" height="5.881" class="cls-4" rx="2.589" transform="matrix(-0.172, 0.985, -0.985, -0.172, 8.151, 1.516)"/>
                <path id="Path_48724" d="M546.452 510.7a3.91 3.91 0 0 1-3.85-4.577l.843-4.827a3.906 3.906 0 0 1 7.695 1.344l-.843 4.828a3.91 3.91 0 0 1-3.845 3.232zm.84-10.707a1.978 1.978 0 0 0-1.945 1.635l-.843 4.827a1.975 1.975 0 0 0 3.89.68l.843-4.828a1.983 1.983 0 0 0-1.606-2.286 2.026 2.026 0 0 0-.339-.026z" class="cls-3" transform="translate(-542.543 -498.063)"/>
            </g>
            <g id="Group_3174" transform="translate(0 0.091)">
                <rect id="Rectangle_2594" width="9.801" height="5.881" class="cls-4" rx="2.589" transform="matrix(0.017, 1, -1, 0.017, 6.795, 0.918)"/>
                <path id="Path_48725" d="M542.532 509.879a3.916 3.916 0 0 1-3.905-3.839l-.067-3.92a3.914 3.914 0 0 1 3.838-3.972 3.746 3.746 0 0 1 2.779 1.1 3.879 3.879 0 0 1 1.193 2.739l.067 3.921a3.912 3.912 0 0 1-3.837 3.972zm-.066-9.8h-.035a1.983 1.983 0 0 0-1.941 2.008l.067 3.92a1.959 1.959 0 0 0 .605 1.384 2.086 2.086 0 0 0 1.4.558 1.979 1.979 0 0 0 1.941-2.009l-.067-3.92a1.981 1.981 0 0 0-1.974-1.941z" class="cls-3" transform="translate(-538.56 -498.143)"/>
            </g>
        </g>
    </g>
</svg>
