<svg xmlns="http://www.w3.org/2000/svg" width="154" height="166" viewBox="0 0 154 166">
    <defs>
        <style>
            .cls-5{fill:#fff}.cls-2{fill:#f7f8fb}.cls-3{fill:#c1c1c1}.cls-4{fill:#ff5200}
        </style>
    </defs>
    <g id="img_info2_step04" transform="translate(-201 -756.987)">
        <g id="Path_49266" data-name="Path 49266" style="stroke-dasharray:2 2;fill:#fff">
            <path d="M117.83 247.492v47.436a35.533 35.533 0 0 0 17.864 30.8l41.271 23.718a35.871 35.871 0 0 0 35.729 0l41.271-23.718a35.533 35.533 0 0 0 17.864-30.8v-47.436a35.533 35.533 0 0 0-17.864-30.8l-41.271-23.718a35.871 35.871 0 0 0-35.729 0l-41.271 23.718a35.534 35.534 0 0 0-17.864 30.8z" style="stroke:none" transform="translate(83.17 568.777)"/>
            <path d="M194.83 188.21h.255l.019.001h.089l.018.001h.053l.073.002H195.373l.071.001h.036c.45.009.9.026 1.349.05l-.111 1.998a34.071 34.071 0 0 0-1.888-.053v-2zm3.992.222c.298.034.596.07.893.112l.017.002h.002l.035.005.017.002.017.003.017.002.016.002.016.003.036.005.015.002.016.002.016.003h.005c.185.027.37.055.553.084l.076.012.014.003.016.002.015.003.017.002.016.003.021.004a.824.824 0 0 0 .017.002l.018.003.016.003.083.014-.332 1.972a34.025 34.025 0 0 0-1.87-.262l.222-1.988zm3.942.665c.65.147 1.295.313 1.937.496l-.55 1.923a33.977 33.977 0 0 0-1.829-.468l.442-1.95zm3.844 1.1.264.093h.001l.014.005.015.006c.529.189 1.054.39 1.575.605l-.76 1.85a33.925 33.925 0 0 0-1.766-.67l.657-1.889zm3.697 1.522c.416.2.83.407 1.24.623h.001l.013.007.002.002.012.006.003.001.011.006.002.001.019.01.008.005.006.003.01.005.005.002.011.007.004.002.015.007.417.226-.963 1.753a34.032 34.032 0 0 0-1.68-.862l.864-1.804zm3.516 1.903.786.452h.001l.028.017.003.002h.002l.914.526-.996 1.734-1.734-.996.996-1.735zm3.468 1.994.705.405h.002l.017.01.007.005.003.001.003.002.002.001.995.572-.996 1.734-1.734-.996.996-1.734zm3.469 1.993.16.091.024.015h.002l.009.006.002.001.003.002h.001l.002.001v.001l.003.001.002.001 1.526.877-.997 1.734-1.734-.996.997-1.734zm3.468 1.993 1.145.658.003.001.007.005.003.001.006.004.57.327-.997 1.734-1.734-.996.997-1.734zm3.468 1.993 1.734.996-.997 1.734-1.734-.996.997-1.734zm3.468 1.993.88.505v.001l.004.002.004.002.846.486-.997 1.734-1.734-.996.997-1.734zm3.468 1.993 1.734.996-.997 1.734-1.734-.996.997-1.734zm3.468 1.993 1.267.728.004.002.006.004h.002l.455.262-.996 1.735-1.735-.997.997-1.734zm3.468 1.993.648.372.017.01.001.001c.49.28 1.068.614 1.068.614l-.996 1.734-1.734-.997.996-1.734zm3.468 1.993.025.014.001.001h.001v.001h.002v.001l.005.002.002.002a.42.42 0 0 0 .006.003l.003.002h.001l.029.017 1.66.954-.997 1.734-1.734-.997.996-1.734zm3.468 1.993.866.498.007.004.003.001.002.002.004.002h.001l.003.002.004.002.004.003.005.003.002.001.022.012.811.467-.996 1.734-1.734-.997.996-1.734zm3.468 1.993 1.734.997-.996 1.734-1.734-.997.996-1.734zm3.448 2.028c.207.132.412.266.616.403l.03.02h.001l.015.01.003.003c.008.005.017.01.024.016l.01.006.017.012.01.007.012.007.017.012.01.007.014.01.01.006.017.012.007.004.021.015a.362.362 0 0 0 .006.004l.022.015h.001l.023.016.003.002.024.017h.002c.249.17.495.344.74.52l-1.17 1.622a33.937 33.937 0 0 0-1.562-1.061l1.077-1.685zm3.242 2.339a41.108 41.108 0 0 1 .147.12l.023.018.002.002.022.017v.001l.022.018a.46.46 0 0 0 .004.004l.02.016a.622.622 0 0 1 .006.004l.02.017.004.003.018.015.005.004.019.016.007.006.018.015.007.006.014.012.01.007.015.013.008.007a4.121 4.121 0 0 1 .04.033l.01.008.013.012a1.726 1.726 0 0 1 .034.028l.017.014.008.007.013.01.01.01a10.89 10.89 0 0 1 .049.041l.013.011.01.008.014.012.007.007.018.014.008.007a7.657 7.657 0 0 1 .038.033l.007.006.018.015.007.006.018.015.007.006c.005.005.01.01.015.013l.008.007.016.014.007.005.018.016.006.006.02.016.003.004.018.014.005.005.019.016.005.005.02.017.005.004.018.016.003.003.02.017a.355.355 0 0 0 .005.004l.02.017a11.976 11.976 0 0 1 .025.022l.001.002.02.017.003.003.02.018c.002 0 .003.002.005.003l.02.018.003.003.02.017.002.002a12.305 12.305 0 0 1 .025.022l.02.017.004.004.02.019h.001l.021.018.003.003.02.018a.441.441 0 0 0 .025.022l.003.003.02.018h.001l.022.02.003.003.02.018.004.003.02.019h.002l.02.018.004.004.02.018.004.004.02.017.003.004.018.015a.547.547 0 0 1 .023.021l.006.005.018.017.006.005.017.016.005.004.016.015a.555.555 0 0 0 .004.004l-1.344 1.48a33.79 33.79 0 0 0-1.433-1.228l1.26-1.554zm2.96 2.687c.47.476.923.964 1.363 1.464l-1.502 1.32c-.414-.47-.846-.934-1.286-1.38l1.426-1.404zm2.64 3.002.215.276.002.003.01.012v.002l.01.012a.1.1 0 0 0 .002.002l.02.027.003.003.008.011.004.005.006.008.005.007.005.006.005.007.005.006.006.008.004.005.006.008v.001c.3.394.592.793.874 1.199l-1.64 1.144a33.74 33.74 0 0 0-1.123-1.517l1.574-1.235zm2.288 3.28c.115.187.228.374.34.563l.002.003.006.011.004.006.005.009.004.006.004.008.004.007.005.008.004.007.004.005.02.035v.001l.008.013.008.013v.002c.1.17.199.341.296.513v.001l.008.013.03.054.006.01.003.006.005.008.003.007a.957.957 0 0 0 .013.023l.005.008a.92.92 0 0 1 .003.005l.025.046v.002c.064.112.125.224.186.337l-1.758.953c-.299-.55-.617-1.1-.946-1.633l1.703-1.05zm1.904 3.515c.284.603.551 1.214.8 1.832l-1.854.75a33.609 33.609 0 0 0-.755-1.73l1.809-.852zm1.497 3.707.057.168.005.016.001.002.005.014v.004l.005.012.001.004.005.014.004.012.002.006.004.013v.001l.005.015c.178.538.344 1.082.496 1.63l-1.927.535a33.58 33.58 0 0 0-.556-1.803l1.893-.643zm1.07 3.852c.142.65.265 1.305.37 1.965l-1.974.314a33.527 33.527 0 0 0-.35-1.854l1.954-.425zm.63 3.948c.023.237.045.475.064.713v.002l.002.013v.016l.001.005.003.04v.003l.001.01.001.008v.008l.002.01v.007l.001.011v.006l.004.053.002.018v.001c.027.356.048.712.064 1.07l-1.998.09a33.558 33.558 0 0 0-.138-1.882l1.99-.202zm-1.819 3.994h2v2h-2v-2zm0 4h2v2h-2v-2zm0 4h2v2h-2v-2zm0 4h2v2h-2v-2zm0 4h2v2h-2v-2zm0 4h2v2h-2v-2zm0 4h2v2h-2v-2zm0 4h2v2h-2v-2zm0 4h2v2h-2v-2zm0 4h2v2h-2v-2zm0 4h2v2h-2v-2zm0 4h2v2h-2v-2zm-.012 3.946 1.999.054-.012.374v.004l-.001.012v.016l-.001.01v.006l-.001.018V296.358l-.001.017v.001c-.013.302-.029.603-.049.903v.001l-.001.016v.004l-.001.014v.003l-.002.017V297.352l-.001.008v.008l-.002.01v.017l-.001.006-.001.012c-.011.16-.024.321-.037.482l-1.993-.167c.052-.624.087-1.258.105-1.884zm-.316 3.758 1.98.28c-.013.098-.028.196-.042.293v.002l-.003.013v.004l-.002.012v.004l-.002.012v.003l-.004.02-.001.009-.001.006-.002.011v.007l-.002.01-.001.007-.002.011-.001.005a1.91 1.91 0 0 1-.014.088 35.38 35.38 0 0 1-.258 1.455l-1.962-.392c.123-.614.23-1.24.317-1.86zm-.738 3.7 1.937.5a35.404 35.404 0 0 1-.556 1.922l-1.905-.61c.191-.597.367-1.206.524-1.813zm-1.15 3.592 1.868.716-.003.007-.003.009-.003.006a1.315 1.315 0 0 1-.004.01l-.002.005-.004.012-.002.004-.005.013v.002c-.232.6-.48 1.193-.743 1.778l-1.824-.82c.257-.571.501-1.157.725-1.742zm-1.547 3.44 1.775.922a32.26 32.26 0 0 1-.067.13h-.001l-.007.014a3.834 3.834 0 0 0-.008.015l-.002.004-.006.01-.003.006a.328.328 0 0 1-.003.007l-.018.033c0 .001 0 .002-.002.003l-.006.012-.001.002-.007.013v.001c-.239.45-.487.896-.745 1.336v.002l-.008.011-.001.003-.007.011-.002.004-.006.01a3.662 3.662 0 0 0-.01.02c-.002.002-.005.005-.006.008l-.003.005a1.014 1.014 0 0 1-.006.01l-.003.005-.006.01-.003.005-.006.01-.002.004-.008.013v.001l-.018.03-1.72-1.02a33.7 33.7 0 0 0 .916-1.65zm-1.925 3.246 1.66 1.115a35.57 35.57 0 0 1-.68.977l-.01.014v.002a2.812 2.812 0 0 1-.01.012s0 .002-.002.003a1.575 1.575 0 0 1-.01.014l-.008.012-.002.002-.02.028-.003.004-.007.01-.004.005-.006.008-.005.007-.005.007-.005.007-.004.005-.006.009-.003.004-.033.045-.002.003-.008.01-.001.002-.008.012h-.002c-.104.144-.21.285-.316.426l-1.595-1.206c.377-.5.746-1.017 1.095-1.537zm-2.276 3.01 1.525 1.294-.192.224-.003.003-.02.024-.002.002-.034.039-.005.006-.016.019-.007.007-.011.013-.011.013-.01.01-.01.012a4.231 4.231 0 0 1-.03.035l-.012.014a1.861 1.861 0 0 0-.007.007l-.016.019-.005.005-.016.02a.235.235 0 0 0-.004.003l-.016.018-.003.004-.018.02-.004.004-.017.02a13.455 13.455 0 0 1-.022.024v.001l-.02.022-.002.002a12.13 12.13 0 0 1-.019.022l-.002.002-.06.069c-.23.256-.462.509-.699.758l-.001.002-.02.021-.002.001-.02.022-1.45-1.377c.431-.454.856-.927 1.261-1.404zm-2.6 2.735 1.37 1.457c-.28.263-.564.522-.853.777h-.001l-.07.061v.002l-.023.02h-.001l-.046.04-.001.001-.022.02c-.001 0-.002 0-.003.002l-.045.039h-.001l-.022.02-.003.002-.021.019-.002.002-.045.038-.002.002-.022.019-.002.002-.046.039a6.682 6.682 0 0 0-.023.02l-.002.002-.023.019-.047.04-.001.001-.023.02h-.001l-.071.06-.072.061-1.286-1.532c.48-.402.954-.824 1.41-1.253zm-2.89 2.426 1.199 1.602c-.001 0-.002 0-.003.002l-.02.015a35.706 35.706 0 0 1-1.61 1.135l-1.108-1.666a33.874 33.874 0 0 0 1.543-1.088zm-3.143 2.089 1.012 1.725a33.735 33.735 0 0 1-.106.062l-.015.009a.25.25 0 0 0-.004.002l-.013.007-.005.003a2.47 2.47 0 0 1-.012.007l-.005.003-.012.007-.005.003a2.86 2.86 0 0 0-.016.01l-.015.008-.002.001-.016.01h-.001l-.052.03-1.455.836-.996-1.734 1.454-.836.264-.153zm-3.452 1.985.996 1.734s-.78.45-1.294.744l-.004.003-.436.25-.996-1.734 1.734-.997zm-3.468 1.993.996 1.734-.472.272-.003.002h-.002l-.002.002-.01.006-.005.003-.007.003-.002.001-.001.001-1.23.707-.996-1.734 1.734-.997zm-3.468 1.993.996 1.735-1.185.68-.02.012-.008.004-.002.002-.002.001-.002.001-.002.001-.005.003-.006.003v.001a.63.63 0 0 0-.008.004l-.494.284-.996-1.734 1.734-.997zm-3.469 1.994.997 1.734-1.734.996-.997-1.734 1.734-.996zm-3.468 1.993.997 1.734-.653.375-.005.003h-.001l-.018.01-.002.002-.009.005-.006.003-.023.014-.008.004-1.01.58-.996-1.734 1.734-.996zm-3.468 1.993.997 1.734-1.734.996-.997-1.734 1.734-.996zm-3.468 1.993.997 1.734-1.388.797-.002.002-.003.001-.002.001-.01.006-.003.002-.326.187-.997-1.734 1.734-.996zm-3.468 1.993.997 1.734-1.397.803-.005.002-.003.002-.002.001-.002.001a.182.182 0 0 0-.003.002l-.003.002-.003.001-.002.002-.003.001-.003.002-.308.177-.997-1.734 1.734-.996zm-3.468 1.993.997 1.734-.587.337-.018.01-.004.003h-.002l-1.124.646-.996-1.734 1.734-.996zm-3.468 1.993.996 1.734-.307.177-.004.002-.011.006-.002.002-.003.001-.002.001-.01.006-.002.001-.002.001-.007.004-.001.001-.015.009h-.002l-.033.02h-.001l-1.332.765-.996-1.734 1.734-.996zm-3.468 1.993.996 1.734-.69.397a.153.153 0 0 0-.004.002l-.003.002h-.001l-.003.002-.002.001-.004.002-.003.002-1.024.589-.996-1.734 1.734-.997zm-3.465 1.99.993 1.737a36 36 0 0 1-.642.358l-.001.001-.012.007-.004.002-.01.006-.003.001-.035.019c-.002 0-.004.002-.005.003l-.009.004-.007.004-.007.004-.01.005-.005.003-.014.008-.017.009-.016.008-.001.001-.014.008-.003.001-.014.008h-.001l-.016.009a35.51 35.51 0 0 1-.561.295l-.013.006-.004.002-.011.006-.006.003-.01.005a.2.2 0 0 0-.005.003l-.013.007-.009.004-.008.004-.01.005-.004.002a2.403 2.403 0 0 0-.015.008l-.01.005a35.74 35.74 0 0 1-.237.12l-.895-1.789c.56-.28 1.12-.58 1.664-.891zm-3.376 1.69.793 1.835a35.8 35.8 0 0 1-1.758.706h-.003l-.013.005-.005.002-.011.004-.005.002-.011.004-.012.005-.037.013h-.002l-.69-1.877a33.886 33.886 0 0 0 1.754-.7zm-3.543 1.3.584 1.914a35.82 35.82 0 0 1-1.929.53l-.476-1.943c.61-.15 1.222-.318 1.821-.5zm-3.666.899.366 1.966a35.86 35.86 0 0 1-1.975.312l-.257-1.984c.622-.08 1.25-.18 1.866-.294zm-3.744.485.146 1.994c-.666.049-1.331.079-1.998.09l-.035-2c.627-.01 1.262-.039 1.887-.084zm-5.66-.06c.624.06 1.258.101 1.885.125l-.077 1.999a35.942 35.942 0 0 1-1.995-.133l.187-1.99zm-3.732-.563c.613.128 1.238.24 1.858.334l-.298 1.977c-.658-.099-1.315-.217-1.968-.353l.408-1.958zm-3.647-.975c.595.196 1.204.377 1.81.539l-.517 1.932a35.779 35.779 0 0 1-.946-.267h-.001l-.014-.004-.003-.001a2.021 2.021 0 0 0-.012-.004l-.044-.013h-.002l-.012-.004-.004-.001-.01-.004a6.676 6.676 0 0 1-.016-.004l-.016-.005a11.195 11.195 0 0 1-.016-.005l-.016-.005h-.002l-.015-.005-.004-.001-.013-.004-.003-.001-.014-.004-.003-.001a35.84 35.84 0 0 1-.75-.237l.623-1.9zm-3.515-1.375c.57.26 1.155.508 1.738.737l-.729 1.862a35.812 35.812 0 0 1-1.024-.419h-.002l-.011-.006a.157.157 0 0 1-.005-.002l-.01-.004-.005-.002a1.643 1.643 0 0 1-.01-.005h-.003l-.02-.009-.008-.004a.333.333 0 0 0-.006-.002l-.01-.005-.006-.002-.011-.005a.242.242 0 0 0-.004-.002l-.014-.006h-.002c-.23-.1-.46-.203-.69-.307l.832-1.82zm-3.376-1.773.586.337c.36.207.729.41 1.095.603l-.931 1.77a36.008 36.008 0 0 1-.56-.301l-.012-.007-.005-.003a2.074 2.074 0 0 1-.012-.006l-.006-.004a1.113 1.113 0 0 0-.01-.005l-.009-.005-.007-.004-.012-.007a.313.313 0 0 0-.005-.002l-.016-.01h-.001a36.99 36.99 0 0 1-.45-.254h-.002l-.016-.01H177l-.016-.01h-.002l-.017-.01-.586-.338.996-1.734zm-3.468-1.993 1.734.997-.997 1.734-.12-.07h-.002l-.001-.001-.002-.001-.005-.003-.005-.003-.024-.014-1.575-.905.997-1.734zm-3.468-1.993 1.734.997-.997 1.734-.472-.272-.003-.001-.002-.002h-.002l-.003-.002-.002-.002h-.002l-.002-.002-.002-.001-1.244-.715.997-1.734zm-3.468-1.993 1.734.997-.997 1.734-1.734-.997.997-1.734zm-3.468-1.993 1.734.997-.997 1.734-1.366-.786-.03-.016-.002-.002-.003-.002h-.002v-.001a.195.195 0 0 0-.004-.002h-.001l-.006-.004-.006-.004-.003-.001-.002-.001-.002-.002-.307-.176.997-1.734zm-3.468-1.993 1.734.996-.997 1.735-1.734-.997.997-1.734zm-3.469-1.993 1.735.996-.997 1.734-1.734-.996.996-1.734zm-3.468-1.993 1.734.996-.996 1.734-1.041-.598h-.002l-.001-.002-.004-.002h-.002l-.684-.394.996-1.734zm-3.468-1.993 1.734.996-.996 1.734-.246-.14-.002-.002h-.001a.822.822 0 0 1-.006-.004l-.002-.001a.4.4 0 0 0-.006-.004h-.001l-.006-.004h-.002l-1.462-.841.996-1.734zm-3.468-1.993 1.734.996-.996 1.734-1.019-.585-.003-.002-.01-.005-.001-.001-.001-.001-.004-.002-.002-.001-.008-.005-.002-.001-.003-.002h-.001l-.004-.003h-.002a.745.745 0 0 0-.006-.004l-.005-.003-.006-.004-.003-.001-.002-.002-.652-.374.996-1.734zm-3.468-1.993 1.734.996-.996 1.734-.947-.544-.004-.002-.002-.001-.002-.001-.002-.001-.003-.003h-.002l-.772-.444.996-1.734zm-3.468-1.993 1.734.996-.996 1.734-1.147-.659h-.001l-.009-.005-.008-.005-.004-.002-.043-.025-.004-.002-.001-.001-.518-.297.997-1.734zm-3.409-1.977c.287.177.58.351.873.519l.802.461-.997 1.734-.778-.447-.003-.002h-.001l-.006-.004a.218.218 0 0 1-.005-.003l-.009-.005c-.311-.18-.619-.362-.924-.55l1.048-1.703zm-3.099-2.154a33.86 33.86 0 0 0 1.52 1.12l-1.142 1.643-.005-.004-.016-.011-.011-.008-.012-.008-.014-.01-.014-.01-.008-.006-.02-.013-.007-.005-.02-.014-.005-.004-.019-.013a.416.416 0 0 0-.026-.018l-.005-.004-.022-.015-.004-.003-.022-.016h-.001l-.024-.017-.003-.002-.023-.017-.002-.001a48.606 48.606 0 0 1-.05-.035v-.001a4.43 4.43 0 0 1-.025-.018h-.001l-.05-.036-.025-.018-.002-.001-.075-.054-.025-.019-.05-.036h-.002l-.024-.018-.002-.002a18.028 18.028 0 0 1-.048-.035h-.001a15.844 15.844 0 0 1-.024-.018l-.003-.002a11.19 11.19 0 0 1-.023-.017l-.002-.002-.023-.016-.001-.001-.023-.017-.004-.003-.022-.016-.003-.003a9.261 9.261 0 0 0-.022-.015l-.002-.002-.021-.016-.006-.004-.02-.015-.006-.004a4.755 4.755 0 0 1-.025-.019l-.017-.013a.97.97 0 0 1-.026-.019l-.008-.006-.018-.013-.008-.006-.014-.01a1.831 1.831 0 0 1-.026-.02l-.01-.007-.014-.011a3.419 3.419 0 0 0-.023-.017l-.017-.013-.01-.007-.011-.009a1.735 1.735 0 0 0-.009-.007l-.019-.014a.802.802 0 0 1-.005-.004l-.024-.018-.003-.002a35.86 35.86 0 0 1-.454-.35l1.231-1.575zm-2.838-2.487c.448.439.913.87 1.384 1.283l-1.318 1.504-.001-.001-.021-.018-.003-.003-.02-.018-.002-.001-.02-.019a.399.399 0 0 0-.025-.02l-.005-.005-.02-.017-.003-.003-.018-.016a.64.64 0 0 0-.004-.004l-.02-.017a1.03 1.03 0 0 1-.005-.005l-.018-.016-.007-.006-.016-.014-.006-.005-.017-.016-.006-.005a4.252 4.252 0 0 0-.018-.016l-.006-.006-.018-.016-.007-.006a2.678 2.678 0 0 1-.038-.034l-.007-.007-.017-.015-.008-.007-.013-.012-.01-.009-.014-.012-.007-.007-.017-.015-.008-.007a6.96 6.96 0 0 0-.016-.015l-.008-.007a2.374 2.374 0 0 1-.013-.012l-.008-.007-.016-.015-.008-.007-.016-.015-.008-.007-.013-.012-.01-.009-.014-.012a1.943 1.943 0 0 0-.008-.008l-.016-.014-.008-.008-.015-.014a1.846 1.846 0 0 1-.008-.007l-.014-.013-.006-.006-.017-.015-.008-.007-.017-.016a.677.677 0 0 1-.03-.027l-.014-.014a1.468 1.468 0 0 0-.007-.006l-.017-.016-.007-.007-.018-.016-.005-.005-.015-.014-.006-.005-.017-.017-.007-.006a4.328 4.328 0 0 1-.04-.037l-.005-.004-.017-.017-.005-.005-.019-.017-.005-.005-.019-.017a.267.267 0 0 1-.004-.004l-.017-.016-.004-.004-.019-.018a.299.299 0 0 1-.004-.004l-.02-.018-.004-.004a9.595 9.595 0 0 1-.018-.018l-.003-.003-.02-.018-.003-.003-.02-.018a.44.44 0 0 0-.003-.004l-.02-.02h-.002a11.436 11.436 0 0 1-.042-.041l-.003-.003-.02-.02-.003-.002-.042-.04a.12.12 0 0 0-.002-.002l-.021-.02-.002-.002a33.927 33.927 0 0 1-.156-.15v-.001l-.09-.087 1.401-1.428zm-2.54-2.79c.394.487.809.968 1.23 1.43l-1.478 1.348a35.608 35.608 0 0 1-.987-1.131l-.039-.046-.001-.002-.018-.021-.003-.004a5.289 5.289 0 0 1-.021-.026l-.016-.018-.004-.005a3.659 3.659 0 0 0-.014-.017l-.006-.007-.014-.017-.007-.01-.012-.013a4.384 4.384 0 0 0-.018-.022l-.014-.017-.006-.008c-.042-.05-.083-.1-.124-.152l1.551-1.261zm-2.213-3.056a33.76 33.76 0 0 0 1.063 1.56l-1.62 1.172c-.279-.386-.55-.777-.814-1.173l-.01-.015-.01-.015-.039-.06-.002-.002-.007-.012a.153.153 0 0 0-.003-.003l-.006-.01-.004-.006a1.092 1.092 0 0 1-.016-.025l-.002-.003a8.883 8.883 0 0 1-.019-.028l-.004-.007-.005-.007a.936.936 0 0 0-.005-.007l-.004-.007-.005-.008a.563.563 0 0 0-.004-.005l-.006-.01a37.226 37.226 0 0 1-.162-.25l1.684-1.08zm-1.855-3.286c.277.562.573 1.124.881 1.67l-1.741.983a35.719 35.719 0 0 1-.142-.255l-.01-.015v-.001l-.016-.03-.003-.006a2.542 2.542 0 0 1-.018-.032l-.003-.005-.005-.01a.478.478 0 0 1-.009-.015 35.563 35.563 0 0 1-.728-1.4l1.794-.884zm-1.474-3.472c.211.589.443 1.18.688 1.757l-1.841.781a35.49 35.49 0 0 1-.695-1.765V307a8.302 8.302 0 0 0-.005-.015l-.001-.003a6.09 6.09 0 0 0-.005-.013l-.001-.004-.006-.015-.006-.017-.003-.007c0-.003-.002-.005-.003-.008l-.003-.01-.002-.004 1.883-.676zm-1.074-3.617c.144.61.307 1.223.486 1.824l-1.918.569a35.424 35.424 0 0 1-.483-1.8l-.004-.016v-.004l-.003-.012-.002-.006a3.763 3.763 0 0 0-.022-.094l1.946-.46zm-.659-3.713c.075.622.168 1.25.277 1.866l-1.97.35a37.17 37.17 0 0 1-.044-.261l-.002-.012-.001-.006-.002-.01a.685.685 0 0 0-.003-.015l-.001-.01-.001-.007-.002-.012-.001-.004-.009-.053v-.002a35.258 35.258 0 0 1-.148-.975 28.927 28.927 0 0 1-.01-.072v-.002l-.002-.016a.677.677 0 0 0-.005-.037 15.08 15.08 0 0 1-.007-.054v-.003l-.003-.015v-.002l-.002-.015v-.003l-.003-.017-.004-.036v-.002l-.003-.016v-.003l-.002-.015v-.002l-.002-.016v-.002a16.14 16.14 0 0 1-.007-.054l-.002-.017v-.003a2.572 2.572 0 0 1-.003-.017l-.002-.016v-.002a37.72 37.72 0 0 1-.021-.175l1.985-.237zm-.235-3.765c.003.626.025 1.261.064 1.886l-1.996.125a35.513 35.513 0 0 1-.02-.358l-.001-.013v-.016l-.001-.006v-.01l-.001-.007v-.01l-.001-.014v-.01l-.001-.01v-.007l-.001-.01v-.006l-.001-.013V296.637l-.001-.004-.002-.035V296.579l-.001-.018v-.002c-.022-.47-.034-.94-.037-1.413l2-.012zm-2.001-3.988h2v2h-2v-2zm0-4h2v2h-2v-2zm0-4h2v2h-2v-2zm0-4h2v2h-2v-2zm0-4h2v2h-2v-2zm0-4h2v2h-2v-2zm0-4h2v2h-2v-2zm0-4h2v2h-2v-2zm0-4h2v2h-2v-2zm0-4h2v2h-2v-2zm0-4h2v2h-2v-2zm.002-4 2 .019-.002.327v1.654h-2V247.242l.002-.097zm.264-3.99 1.985.245a33.524 33.524 0 0 0-.178 1.878l-1.995-.132c.016-.25.035-.5.057-.748v-.002l.005-.056v-.006l.001-.01.001-.008.001-.008v-.01l.001-.006.002-.013v-.004l.003-.036.002-.018.002-.018c.032-.35.07-.7.113-1.048zm.712-3.933 1.945.467c-.146.609-.277 1.23-.388 1.846l-1.968-.357.04-.22.003-.017v-.002l.003-.014.001-.005.002-.01.002-.008.001-.01.004-.016v-.006l.003-.012v-.004c.002-.004.002-.008.003-.013v-.002l.003-.014v-.001a35.507 35.507 0 0 1 .127-.629l.003-.013v-.003l.003-.012v-.005c.002-.004.003-.007.003-.011l.001-.004.008-.035.002-.01.001-.006.002-.01.002-.007.002-.01.001-.007.003-.011v-.005l.004-.016.012-.054c.055-.253.112-.503.172-.754zm1.152-3.829 1.88.683a33.595 33.595 0 0 0-.595 1.791l-1.915-.576c.09-.3.184-.597.282-.894v-.001l.005-.013v-.002l.005-.013v-.003a2.87 2.87 0 0 1 .005-.013v-.002l.024-.071v-.002l.006-.014.005-.015.03-.088v-.001c.086-.257.176-.512.268-.766zm1.576-3.674 1.79.89a33.672 33.672 0 0 0-.792 1.713l-1.838-.788.08-.186.001-.001.005-.013.002-.004.005-.01.002-.006.004-.009c.234-.535.481-1.064.74-1.586zm1.978-3.474 1.68 1.085c-.34.526-.67 1.07-.98 1.614l-1.738-.99c.33-.58.676-1.15 1.038-1.71zm2.356-3.23 1.547 1.267a33.74 33.74 0 0 0-1.155 1.493l-1.616-1.179c.393-.538.8-1.065 1.224-1.582zm2.703-2.946 1.395 1.432c-.449.437-.891.893-1.315 1.355l-1.473-1.352c.32-.35.648-.693.982-1.03l.063-.062.004-.004.02-.02.005-.005.013-.014.011-.01.01-.01.01-.01.014-.014.01-.01a2.997 2.997 0 0 1 .023-.023l.008-.008.016-.016.007-.006.015-.015.005-.006.017-.016.005-.005.019-.018.003-.004.02-.02h.001l.044-.044.068-.065zm3.016-2.625 1.226 1.58c-.495.385-.986.788-1.458 1.2l-1.313-1.51c.502-.436 1.017-.86 1.545-1.27zm3.29-2.27 1.043 1.708c-.536.326-1.068.672-1.584 1.028l-1.136-1.647c.24-.165.481-.327.725-.486v-.001l.078-.05.002-.002.024-.015.002-.002.05-.032.003-.002.024-.015.002-.002.05-.032.002-.001.024-.016c.002 0 .002 0 .003-.002l.025-.015.024-.016c.002 0 .002-.001.003-.002l.024-.015.003-.002.025-.016.025-.016.002-.001.024-.015.004-.003.024-.015.001-.001.025-.016h.001l.025-.016.002-.002.025-.015.002-.001.05-.032.002-.001c.124-.078.248-.155.373-.23zm3.463-2.004.996 1.734-1.734.997-.996-1.734.915-.526.004-.002.008-.005.018-.01.004-.003.785-.45zm3.468-1.993.996 1.734-1.734.997-.996-1.734 1.62-.931a4.34 4.34 0 0 1 .01-.006l.006-.003.002-.002.006-.003.002-.001h.001l.004-.003.083-.048zm3.468-1.993.996 1.734-1.734.997-.996-1.734 1.008-.58h.001l.009-.005.003-.002.002-.001.032-.019h.001l.678-.39zm3.468-1.993.997 1.734-1.734.997-.997-1.734.393-.226.019-.01.006-.005.004-.002.009-.005 1.303-.749zm3.468-1.993.997 1.734-1.734.997-.997-1.734 1.734-.997zm3.468-1.993.997 1.734-1.734.997-.997-1.734s.38-.22.785-.452h.002l.018-.01.93-.535zm3.468-1.993.997 1.734-1.734.997-.997-1.734 1.734-.997zm3.468-1.993.997 1.734-1.734.997-.997-1.735.638-.366.003-.001v-.001a.236.236 0 0 0 .004-.002l.002-.001 1.087-.625zm3.469-1.993.996 1.734-1.734.996-.997-1.734 1.6-.92.004-.001.006-.003c.003-.003.007-.004.01-.006l.002-.001.02-.011.017-.01.001-.002.075-.042zm3.468-1.993.996 1.734-1.734.996-.996-1.734.005-.003h.002v-.001h.001l.001-.001h.001l.002-.002h.001l.002-.002h.001l.006-.004.003-.001.002-.001.003-.002.006-.003.006-.004.031-.018h.002l1.659-.954zm3.468-1.993.996 1.734-1.734.996-.996-1.734.97-.558h.001l.004-.002h.001l.003-.003.007-.004.004-.002.003-.001.014-.009.002-.001.018-.01.003-.002.704-.404zm3.468-1.993.996 1.734-1.734.996-.996-1.734 1.734-.996zm3.546-1.847.825 1.822c-.57.258-1.141.537-1.697.827l-.926-1.773a35.947 35.947 0 0 1 .961-.484l.05-.024h.002l.013-.007.004-.002.013-.006.003-.001.014-.007.002-.001.016-.008h.001l.014-.007.006-.003.01-.005c.002 0 .004-.002.005-.003l.01-.005.007-.002.01-.005.005-.003.01-.005.01-.004.011-.005a.682.682 0 0 1 .007-.004c.003 0 .005-.002.008-.003l.008-.004.007-.004.009-.004a.506.506 0 0 0 .006-.003l.01-.004.004-.003.037-.017h.002l.011-.006a.23.23 0 0 1 .015-.007l.004-.002.011-.005.003-.002c.16-.075.319-.148.48-.22zm3.728-1.443.617 1.902a33.95 33.95 0 0 0-1.779.632l-.722-1.865a35.801 35.801 0 0 1 1.884-.67zm3.866-1.02.401 1.96c-.614.126-1.232.27-1.838.43l-.51-1.934.29-.075.017-.004h.003l.013-.004.005-.002.012-.003h.005l.013-.004.004-.001.015-.004h.002l.016-.004a.712.712 0 0 0 .016-.005c.005 0 .01-.002.016-.004l.016-.003.014-.004c.483-.12.968-.231 1.455-.331l.014-.003.016-.003.005-.001zm3.956-.581.18 1.991a34.06 34.06 0 0 0-1.875.223l-.291-1.978c.156-.023.312-.045.469-.066l.017-.003.017-.002.018-.002.017-.002.02-.003.016-.002.017-.002.015-.002.017-.003.014-.001.058-.008.015-.002.017-.002.016-.002.31-.037.015-.002.016-.002h.002l.044-.005.012-.002.016-.002a1.538 1.538 0 0 0 .033-.003l.016-.002.052-.006.018-.002.018-.002c.23-.025.46-.048.69-.07zm3.243-.147v2c-.391 0-.787.007-1.178.02l-.07-1.998c.356-.013.71-.02 1.066-.022H194.83z" style="fill:#aeaeae;stroke:none" transform="translate(83.17 568.777)"/>
        </g>
        <g id="Group_188" data-name="Group 188" transform="translate(-960.772 -1701.707)">
            <g id="Group_187" data-name="Group 187" transform="translate(1206.756 2503.4)">
                <g id="Group_180" data-name="Group 180" transform="translate(11.341 35.396)">
                    <path id="Path_731" data-name="Path 731" class="cls-2" d="M1269.293 2657.441a.807.807 0 0 1 .117-.146 1.438 1.438 0 0 1 2.447-.466c.99.932 1.922 1.893 2.942 2.8a1.2 1.2 0 0 0 .874.263 1.317 1.317 0 0 0 .67-2.3 241.718 241.718 0 0 1-2.855-2.886 1.452 1.452 0 0 1-.087-2.155 1.478 1.478 0 0 1 2.156.087c.961.961 1.952 1.922 2.912 2.885.64.641 1.136.641 1.748.029.729-.7.729-1.2 0-1.922-1.165-1.2-2.359-2.36-3.524-3.554a1.356 1.356 0 0 1-.379-1.456 1.415 1.415 0 0 1 1.107-1.019 1.6 1.6 0 0 1 1.515.553l3.5 3.5a1.009 1.009 0 0 0 1.136.352 1.321 1.321 0 0 0 .553-2.331c-5.33-5.3-10.631-10.631-15.962-15.932a4.7 4.7 0 0 1-.379-.379 2.649 2.649 0 0 0-.291.262c-1.165 1.107-2.3 2.214-3.437 3.321a5.055 5.055 0 0 1-3.466 1.515c-2.476.117-4.952-2.388-5.389-4.194a6.439 6.439 0 0 1-.146-1.98 4.636 4.636 0 0 1 1.486-2.942l3.583-3.583c-.32-.291-.583-.553-.9-.844-4.514 4.6-9 9.175-13.514 13.748 1.632 1.573 3.234 3.088 4.864 4.69.2-.233.352-.437.493-.612.845-.844 1.689-1.748 2.592-2.563a3.9 3.9 0 0 1 5.155 0 4.355 4.355 0 0 1 1.719 2.971 4.577 4.577 0 0 1 3.2 2.01 4.03 4.03 0 0 1 .553 3.669 1.9 1.9 0 0 0 .175.117c1.806 1.049 3.027 3 2.359 5.01-.029.087.117.32.262.408a6.174 6.174 0 0 1 2.216 3.085z" transform="translate(-1245.701 -2624.909)"/>
                    <path id="Path_732" data-name="Path 732" class="cls-2" d="M1323.9 2743.152c.7.757 1.485 1.544 2.242 2.331a1.021 1.021 0 0 0 1.223.352 1.6 1.6 0 0 0 1.02-1.282 1.021 1.021 0 0 0-.233-.64c-1.078-1.107-2.182-2.182-3.2-3.2-.352.75-.7 1.594-1.052 2.439z" transform="translate(-1301.123 -2706.979)"/>
                </g>
                <g id="Group_181" data-name="Group 181" transform="translate(4.816 28.952)">
                    <path id="Path_733" data-name="Path 733" class="cls-3" d="M1238.362 2603.5c-5.039 5.126-10.078 10.253-15.062 15.321 1.223 1.223 2.359 2.388 3.554 3.554l15.088-15.35a183.057 183.057 0 0 1-3.58-3.525z" transform="translate(-1223.3 -2603.296)"/>
                    <path id="Path_734" data-name="Path 734" class="cls-3" d="M1353.8 2602.8c-1.253 1.252-2.418 2.418-3.5 3.467a6989.563 6989.563 0 0 0 15.234 15.467c1.223-1.223 2.418-2.389 3.5-3.466a6573.47 6573.47 0 0 1-15.234-15.468z" transform="translate(-1313.309 -2602.8)"/>
                </g>
                <path id="Path_736" data-name="Path 736" class="cls-2" d="M1331.115 2556.4c-.845-1.136-1.66-2.182-2.476-3.291a7.983 7.983 0 0 1-2.182 2.126c-.844.524-1.777.961-2.651 1.427.816 1.078 1.632 2.182 2.505 3.321.379-.9.757-1.777 1.107-2.651a.992.992 0 0 1 .757-.64c.2-.029.437-.059.641-.087.75-.041 1.484-.126 2.299-.205z" transform="translate(-1289.713 -2538.625)"/>
                <path id="Path_737" data-name="Path 737" class="cls-2" d="M1281.1 2556.6a1.869 1.869 0 0 0 .32.059c.844.087 1.689.2 2.534.291a1.027 1.027 0 0 1 .845.612 3.564 3.564 0 0 1 .2.492c.291.7.583 1.428.9 2.182.874-1.166 1.719-2.272 2.563-3.378-2.709-1.166-2.709-1.166-4.952-3.467-.84 1.027-1.593 2.104-2.41 3.209z" transform="translate(-1259.448 -2538.834)"/>
                <g id="Group_186" data-name="Group 186">
                    <g id="Group_185" data-name="Group 185">
                        <g id="Group_184" data-name="Group 184" transform="translate(0 25.232)">
                            <path id="Path_738" data-name="Path 738" class="cls-4" d="M1219.5 2620.863c-1.66-1.6-3.175-3.058-4.69-4.515a.629.629 0 0 0-.493-.146 1.568 1.568 0 0 1-1.632-.465c-1.776-1.806-3.582-3.583-5.36-5.36a1.478 1.478 0 0 1 0-2.33c1.864-1.893 3.7-3.786 5.56-5.68 3.758-3.845 7.544-7.661 11.3-11.506a1.525 1.525 0 0 1 2.563 0c1.689 1.66 3.349 3.35 5.039 5.039a1.643 1.643 0 0 1 .437 2.36c.262.262.553.525.816.757a10.129 10.129 0 0 1 1.543-1.019 4.732 4.732 0 0 1 5.3.67c.379.32.728.67 1.077 1.019 1.4 1.428 2.592 1.428 3.991.029a3.531 3.531 0 0 0 .291-.32c-.352-.352-.728-.7-1.078-1.078a1.5 1.5 0 0 1 0-2.418l5.243-5.243a1.526 1.526 0 0 1 2.476 0c1.311 1.311 2.651 2.622 3.961 3.932 4.4 4.4 8.8 8.768 13.224 13.166a1.525 1.525 0 0 1 0 2.563l-4.952 4.951c-.99.99-1.337 1.049-2.389.493-2.009 1.952-3.961 3.871-6 5.854.466.466.961.932 1.427 1.369a3.773 3.773 0 0 1 1.2 4.019 4.588 4.588 0 0 1-3.175 3.175c-.175.059-.379.087-.612.146a3.99 3.99 0 0 1-1.66 2.854 11 11 0 0 1-1.835.962c-.233.116-.379.146-.466.437a4.519 4.519 0 0 1-3.379 3.466.587.587 0 0 0-.493.493 4.557 4.557 0 0 1-4.078 3.466 3.856 3.856 0 0 1-3.026-1.223c-.786-.786-1.573-1.6-2.418-2.447-.466.466-.9.932-1.337 1.369a3.863 3.863 0 0 1-4.165 1.2 4.524 4.524 0 0 1-3.116-3.408c-.029-.117-.059-.2-.087-.292a4.867 4.867 0 0 1-3.932-3.9 4.8 4.8 0 0 1-3.932-3.932 4.585 4.585 0 0 1-3.026-1.835 3.858 3.858 0 0 1 .262-5.214c.535-.521 1.063-.965 1.621-1.458zm20.8 11.855a.789.789 0 0 1 .117-.146 1.437 1.437 0 0 1 2.447-.466c.99.932 1.922 1.893 2.942 2.8a1.2 1.2 0 0 0 .874.262 1.317 1.317 0 0 0 .67-2.3c-.961-.961-1.922-1.922-2.855-2.886a1.452 1.452 0 0 1-.087-2.155 1.477 1.477 0 0 1 2.155.087c.962.961 1.952 1.923 2.913 2.886.641.64 1.136.64 1.748.029.729-.7.729-1.2 0-1.922-1.165-1.2-2.359-2.359-3.524-3.554a1.355 1.355 0 0 1-.379-1.456 1.413 1.413 0 0 1 1.107-1.019 1.6 1.6 0 0 1 1.515.553l3.5 3.495a1.008 1.008 0 0 0 1.136.352 1.321 1.321 0 0 0 .553-2.331c-5.33-5.3-10.631-10.628-15.962-15.933a4.693 4.693 0 0 1-.379-.378 2.627 2.627 0 0 0-.291.262c-1.165 1.107-2.3 2.214-3.437 3.321a5.053 5.053 0 0 1-3.466 1.514c-2.476.116-4.952-2.388-5.388-4.194a6.431 6.431 0 0 1-.146-1.98 4.633 4.633 0 0 1 1.485-2.942l3.582-3.583c-.32-.291-.583-.553-.9-.844-4.515 4.6-9 9.175-13.513 13.748 1.631 1.573 3.233 3.088 4.864 4.69.2-.233.352-.437.493-.611.845-.845 1.689-1.748 2.592-2.564a3.9 3.9 0 0 1 5.156 0 4.356 4.356 0 0 1 1.719 2.971 4.577 4.577 0 0 1 3.2 2.009 4.032 4.032 0 0 1 .553 3.671 1.9 1.9 0 0 0 .174.116c1.806 1.049 3.027 3 2.359 5.01-.029.087.117.32.263.408a6.174 6.174 0 0 1 2.214 3.088zm7.109-31.283c-.263.262-.524.466-.757.7a5.2 5.2 0 0 1-7.428-.117c-.379-.378-.757-.786-1.165-1.136a1.846 1.846 0 0 0-2.622.058c-2.041 2.01-4.049 4.049-6.059 6.087a1.83 1.83 0 0 0-.087 2.447 5.982 5.982 0 0 0 .729.757 1.972 1.972 0 0 0 2.912.029c.844-.816 1.689-1.632 2.563-2.447.9-.874 1.835-1.748 2.738-2.622a1.445 1.445 0 0 1 1.6-.352 1.463 1.463 0 0 1 .932 1.337 1.2 1.2 0 0 0 .292.612l10.135 10.135c.844.844 1.631 1.719 2.388 2.534l5.884-5.884q-6.031-5.977-12.063-12.136zm3.437-7.865c-1.253 1.252-2.418 2.418-3.5 3.466a7719.993 7719.993 0 0 0 15.234 15.467c1.223-1.223 2.418-2.389 3.5-3.466a6772.91 6772.91 0 0 1-15.234-15.469zm-25.428.2c-5.04 5.126-10.078 10.253-15.062 15.321 1.223 1.223 2.359 2.389 3.554 3.554l15.088-15.35a175.2 175.2 0 0 1-3.582-3.527zm7.166 29.186a1.932 1.932 0 0 0-1.136-1.427c-.466-.233-.874.03-1.223.352-2.068 2.068-4.137 4.165-6.2 6.233-.553.553-.524 1.078.058 1.689.67.67 1.2.729 1.777.175 2.126-2.1 4.223-4.223 6.32-6.35a3.446 3.446 0 0 0 .408-.67zm-3.845-4.078c-.291-.378-.553-.728-.845-1.049a.93.93 0 0 0-1.4 0 665.825 665.825 0 0 0-6.4 6.4c-.553.583-.466 1.078.233 1.748a1.056 1.056 0 0 0 1.66.058c2.126-2.1 4.223-4.223 6.32-6.35a4.944 4.944 0 0 0 .437-.815zm6.264 9.525a1.871 1.871 0 0 0-1.049-1.515 1.051 1.051 0 0 0-1.223.352c-1.6 1.632-3.233 3.234-4.835 4.864a1.04 1.04 0 0 0 .058 1.573c.67.7 1.223.816 1.777.292 1.66-1.66 3.321-3.321 4.981-5.01a2.587 2.587 0 0 0 .291-.553zm-3.525 8.214a1.76 1.76 0 0 0 1.019 1.456 1.05 1.05 0 0 0 1.282-.292c1.078-1.107 2.182-2.182 3.262-3.291a1.1 1.1 0 0 0-.058-1.806c-.67-.67-1.165-.67-1.806-.029a185.57 185.57 0 0 0-3.321 3.378 1.436 1.436 0 0 0-.379.583zm8.01-.263c.7.758 1.485 1.544 2.243 2.331a1.023 1.023 0 0 0 1.223.352 1.6 1.6 0 0 0 1.019-1.281 1.019 1.019 0 0 0-.233-.641c-1.078-1.107-2.182-2.182-3.2-3.2-.352.757-.7 1.6-1.049 2.446z" transform="translate(-1206.756 -2590.025)"/>
                            <g id="Group_182" data-name="Group 182" transform="translate(54.451 17.383)">
                                <path id="Path_739" data-name="Path 739" class="cls-5" d="M1395.157 2649.7a1.428 1.428 0 1 1-1.456 1.369 1.388 1.388 0 0 1 1.456-1.369z" transform="translate(-1393.699 -2649.698)"/>
                            </g>
                            <g id="Group_183" data-name="Group 183" transform="translate(17.196 5.902)">
                                <path id="Path_740" data-name="Path 740" class="cls-5" d="M1267.229 2613.148a1.473 1.473 0 0 1-1.428-1.456 1.42 1.42 0 0 1 1.485-1.4 1.437 1.437 0 0 1 1.456 1.427 1.467 1.467 0 0 1-1.515 1.428z" transform="translate(-1265.802 -2610.292)"/>
                            </g>
                        </g>
                        <path id="Path_741" data-name="Path 741" class="cls-4" d="M1284.435 2503.4a9.188 9.188 0 0 1 9.146 9.994 13.839 13.839 0 0 1-.553 2.418.556.556 0 0 0 .088.553c1.223 1.6 2.446 3.234 3.67 4.836a1.038 1.038 0 0 1 .262.99.9.9 0 0 1-.786.67c-1.223.146-2.418.292-3.641.407a.564.564 0 0 0-.524.379c-.437 1.078-.874 2.156-1.337 3.2a.948.948 0 0 1-1.777.233c-1.282-1.719-2.592-3.437-3.871-5.127a.822.822 0 0 0-1.223 0c-1.282 1.689-2.534 3.408-3.845 5.068a1.622 1.622 0 0 1-.729.525.868.868 0 0 1-1.019-.583c-.466-1.136-.932-2.243-1.4-3.379a.5.5 0 0 0-.437-.352c-1.2-.116-2.389-.262-3.553-.408a.95.95 0 0 1-.7-1.6c1.2-1.6 2.359-3.2 3.582-4.806a.614.614 0 0 0 .088-.7 9.1 9.1 0 0 1 8.563-12.321zm.029 1.864a7.278 7.278 0 1 0 5.161 2.142 7.3 7.3 0 0 0-5.161-2.142zm9.9 15.906c-.845-1.136-1.66-2.182-2.476-3.292a7.974 7.974 0 0 1-2.182 2.126c-.844.525-1.777.961-2.651 1.427.816 1.078 1.631 2.182 2.5 3.321.379-.9.757-1.777 1.107-2.651a.993.993 0 0 1 .757-.64c.2-.029.437-.059.641-.087.748-.034 1.48-.118 2.3-.21zm-19.748 0a1.926 1.926 0 0 0 .32.059c.845.087 1.689.2 2.534.291a1.026 1.026 0 0 1 .845.611 3.584 3.584 0 0 1 .2.492c.291.7.583 1.427.9 2.182.874-1.165 1.719-2.272 2.563-3.378-2.709-1.165-2.709-1.165-4.952-3.467-.85 1.022-1.6 2.1-2.42 3.2z" transform="translate(-1252.964 -2503.4)"/>
                    </g>
                </g>
                <path id="Path_742" data-name="Path 742" class="cls-5" d="M1313.123 2528.793a1.967 1.967 0 0 1-2.534-1.893c-.262.582-.32 1.2-.845 1.6-.524.379-1.136.233-1.748.352a2.7 2.7 0 0 0 4.165 3.026 3.755 3.755 0 0 1-.233-1.776c.146-.612.73-.873 1.195-1.309z" transform="translate(-1278.512 -2520.055)"/>
                <path id="Path_743" data-name="Path 743" class="cls-4" d="M1303.98 2518.76h1.806a1.478 1.478 0 0 1 1.456 1.019 1.52 1.52 0 0 1-.524 1.689c-.408.321-.845.612-1.253.9a.331.331 0 0 0-.146.438c.175.466.292.932.437 1.369a1.46 1.46 0 0 1-.493 1.748 1.493 1.493 0 0 1-1.865-.059 16.143 16.143 0 0 1-1.136-.844.378.378 0 0 0-.553 0c-.379.291-.757.553-1.136.844a1.529 1.529 0 0 1-1.835.03 1.494 1.494 0 0 1-.524-1.719c.146-.466.291-.961.466-1.427a.332.332 0 0 0-.146-.466c-.407-.262-.786-.553-1.166-.844a1.537 1.537 0 0 1-.641-1.748 1.491 1.491 0 0 1 1.543-1.019c.466 0 .961-.029 1.427 0a.362.362 0 0 0 .407-.292c.117-.466.291-.9.437-1.337a1.478 1.478 0 0 1 1.456-1.136 1.532 1.532 0 0 1 1.485 1.166c.146.611.318 1.16.498 1.688zm.583 1.894a1.967 1.967 0 0 1-2.534-1.894c-.262.583-.32 1.2-.845 1.6-.524.379-1.136.233-1.748.352a2.7 2.7 0 0 0 4.165 3.027 3.757 3.757 0 0 1-.233-1.777c.146-.614.724-.874 1.2-1.31z" transform="translate(-1270.473 -2512.262)"/>
            </g>
        </g>
    </g>
</svg>
