<svg xmlns="http://www.w3.org/2000/svg" width="120" height="30" viewBox="0 0 120 30">
    <defs>
        <style>
            .cls-3{fill:#333}
        </style>
    </defs>
    <g id="LOGO" transform="translate(-301.372 -454.437)">
        <path id="hit" fill="#fff" d="M0 0H120V30H0z" transform="translate(301.372 454.437)"/>
        <path id="Path_116" fill="#e85413" d="M312.311 483.6h-4.939s5.529 6.889 5.66 7.058c-.131.166-5.659 7.068-5.659 7.068h5.008l5.593-7.068-5.6-7.058z" transform="translate(0 -20.243)"/>
        <path id="Path_117" d="M385.466 483.6l-5.595 7.058 5.591 7.068h5.01s-5.529-6.9-5.659-7.068c.13-.169 5.659-7.058 5.659-7.058h-5.006z" class="cls-3" transform="translate(-53.74 -20.243)"/>
        <path id="Path_118" d="M361.99 456.289v21.193h4.262v-21.193z" class="cls-3" transform="translate(-40.486 0)"/>
        <path id="Path_119" d="M656.049 482.341a4.909 4.909 0 0 0-4.074 2.325 4.3 4.3 0 0 0-4.061-2.325 5 5 0 0 0-3.943 2.067v-1.742h-3.779v14.127h4.031V489.5c0-2.845.951-3.89 2.415-3.89 1.678 0 1.817 1.656 1.817 2.984v8.2h4.028V489.5c0-2.845.952-3.89 2.419-3.89 1.674 0 1.811 1.656 1.811 2.984v8.2h4.029v-9.036c-.001-3.748-1.82-5.417-4.693-5.417z" class="cls-3" transform="translate(-246.703 -19.311)"/>
        <path id="Path_120" d="M433.463 489.343a7.722 7.722 0 1 1-7.722-7.532 7.627 7.627 0 0 1 7.722 7.532zm-7.722-4.185a4.2 4.2 0 1 0 3.89 4.185 4.044 4.044 0 0 0-3.89-4.185z" class="cls-3" transform="translate(-82.02 -18.918)"/>
        <path id="Path_121" d="M491.812 483.555a9.5 9.5 0 0 0-5.3-1.671 6.652 6.652 0 0 0-4.537 1.562 4.027 4.027 0 0 0-1.252 2.977c0 3.009 2.271 3.65 4.091 4.168 1.351.381 2.524.684 2.524 1.74a1.339 1.339 0 0 1-.474 1.067 2.578 2.578 0 0 1-1.836.466 6.276 6.276 0 0 1-3.341-1.471l-.169-.143-1.4 2.857.115.087a9.344 9.344 0 0 0 5.012 1.7 6.91 6.91 0 0 0 4.891-1.558 4.2 4.2 0 0 0 1.344-3.2c0-3.133-2.465-3.847-4.424-4.422-1.239-.359-2.214-.647-2.214-1.43a1.2 1.2 0 0 1 .4-.936 2.348 2.348 0 0 1 1.684-.47 7.154 7.154 0 0 1 3.375 1.291z" class="cls-3" transform="translate(-128.046 -18.972)"/>
        <path id="Path_122" d="M548.246 481.811a7.625 7.625 0 0 0-7.716 7.532 7.531 7.531 0 0 0 .056.925c.011.077.019.156.032.233a1.589 1.589 0 0 1-.188 1.013c-.025.049-.051.094-.077.137a3.828 3.828 0 0 1-3.245 1.876 4.2 4.2 0 0 1 0-8.368 3.6 3.6 0 0 1 1.639.4l1.752-2.971a7.827 7.827 0 0 0-3.391-.772 7.534 7.534 0 1 0 0 15.063 7.8 7.8 0 0 0 5.57-2.321 7.778 7.778 0 0 0 5.568 2.321 7.534 7.534 0 1 0 0-15.063zm0 11.716a4.2 4.2 0 1 1 3.888-4.183 4.044 4.044 0 0 1-3.888 4.183z" class="cls-3" transform="translate(-164.57 -18.918)"/>
    </g>
</svg>
