<svg id="icon_gnblogo_w" xmlns="http://www.w3.org/2000/svg" width="368" height="28" viewBox="0 0 368 28">
    <defs>
        <style>
            .cls-2{fill:#fe4d11}
        </style>
    </defs>
    <g id="Group_3680" data-name="Group 3680" transform="translate(-276.563 -23.247)">
        <g id="Group_3678" data-name="Group 3678" transform="translate(277.562 25.604)">
            <g id="Group_3677" data-name="Group 3677" transform="translate(0 7.105)">
                <g id="Group_3676" data-name="Group 3676">
                    <g id="Group_3675" data-name="Group 3675">
                        <g id="Group_3674" data-name="Group 3674">
                            <path id="Path_49194" data-name="Path 49194" class="cls-2" d="M277.562 37.044c.4.506 6.063 7.553 6.063 7.553s-5.658 7.066-6.063 7.57h4.385c.464-.569 5.318-6.718 5.98-7.566-.152-.195-5.9-7.443-5.986-7.556z" transform="translate(-277.562 -37.044)"/>
                        </g>
                    </g>
                </g>
            </g>
            <path id="Path_49195" data-name="Path 49195" d="M301.789 40.389c.158-.2 5.91-7.436 6-7.557h4.378c-.4.507-6.061 7.557-6.061 7.557s5.661 7.071 6.061 7.575h-4.392c-.481-.611-5.302-6.716-5.986-7.575zm-3.769-14.653v22.228h3.752V25.736zm90.944 6.734a5.147 5.147 0 0 0-4.263 2.447l-.187.285-.153.229-.135-.236s-.171-.312-.163-.312a4.5 4.5 0 0 0-4.239-2.413 5.216 5.216 0 0 0-4.132 2.168l-.684.979v-2.785h-3.488v15.132h3.77v-7.731c0-3.145 1.043-4.744 3.1-4.744 2.413 0 2.413 2.616 2.413 3.636v8.838h3.776v-7.817c0-3.147 1.049-4.657 3.108-4.657 2.405 0 2.405 2.524 2.405 3.636v8.838h3.776v-9.774c-.001-3.746-1.698-5.719-4.904-5.719zm-61.209 7.944a8.3 8.3 0 1 1-8.305-8.091 8.218 8.218 0 0 1 8.305 8.091zm-3.556 0a4.757 4.757 0 1 0-4.749 5.076 4.929 4.929 0 0 0 4.75-5.076zm14.809-4.138c.1-.16 1.2-2.06 1.342-2.3a10.409 10.409 0 0 0-5.462-1.631 7.142 7.142 0 0 0-4.84 1.655 4.128 4.128 0 0 0-1.293 3.072c0 3.1 2.258 3.741 4.451 4.361 1.468.415 2.985.835 2.985 2.278a1.815 1.815 0 0 1-.664 1.485 3.24 3.24 0 0 1-2.343.613 7.324 7.324 0 0 1-3.775-1.605c-.121.241-1.119 2.28-1.235 2.509a10.163 10.163 0 0 0 5.294 1.766 7.4 7.4 0 0 0 5.238-1.656 4.351 4.351 0 0 0 1.4-3.323c0-3.227-2.394-3.925-4.71-4.61-1.414-.407-2.749-.795-2.749-1.964a1.726 1.726 0 0 1 .579-1.335 2.987 2.987 0 0 1 2.164-.617 8.12 8.12 0 0 1 3.618 1.301zm27.483 4.19a4.728 4.728 0 1 0-4.723 5.044 4.9 4.9 0 0 0 4.723-5.045zm-17.178-8.042a8.426 8.426 0 0 1 4.053 1.034l-1.573 2.717a4.446 4.446 0 0 0-2.481-.765 5.062 5.062 0 0 0 .015 10.1 4.662 4.662 0 0 0 3.945-2.274c.011-.016.087-.153.087-.153a2.149 2.149 0 0 0 .256-1.384c0-.013-.023-.24-.023-.24 0 .016-.063-1-.063-1a8.251 8.251 0 1 1 8.239 8.052 8.308 8.308 0 0 1-5.966-2.489l-.257-.268-.263.268a8.29 8.29 0 0 1-5.954 2.489 8.045 8.045 0 1 1-.015-16.084z" transform="translate(-285.165 -25.736)" style="fill:#fff"/>
        </g>
        <g id="Group_3679" data-name="Group 3679" transform="translate(391.165 25.38)">
            <path id="Path_49196" data-name="Path 49196" class="cls-2" d="M458.359 25.38h5.741c6.713 0 10.552 5.549 10.552 11.28 0 5.753-3.839 11.442-10.375 11.442h-5.916zm5.514 20.51c4.706 0 7.209-4.815 7.209-9.23 0-4.393-2.5-9.068-7.209-9.068h-2.055v18.3z" transform="translate(-458.359 -25.38)"/>
            <path id="Path_49197" data-name="Path 49197" class="cls-2" d="M488.442 33.858h3.511l6.5 17.4h-3.218l-3.169-9.474c-.64-1.884-1.284-3.827-1.851-5.8h-.12c-.591 1.969-1.2 3.911-1.84 5.8l-3.218 9.474h-3.087zm-2.848 10.283h9.122v2.129h-9.122z" transform="translate(-467.125 -28.531)"/>
            <path id="Path_49198" data-name="Path 49198" class="cls-2" d="M508.618 36.106h-6.348v-2.248h15.712v2.248h-6.348v15.147h-3.015z" transform="translate(-474.678 -28.531)"/>
            <path id="Path_49199" data-name="Path 49199" class="cls-2" d="M528.344 33.858h3.511l6.5 17.4h-3.218l-3.169-9.474c-.64-1.884-1.284-3.827-1.851-5.8h-.12c-.591 1.969-1.2 3.911-1.84 5.8l-3.218 9.474h-3.087zM525.5 44.141h9.122v2.129H525.5z" transform="translate(-481.955 -28.531)"/>
        </g>
    </g>
    <g id="Group_3836" data-name="Group 3836" transform="translate(-20 1)">
        <path id="Path_49354" data-name="Path 49354" d="M3.812-3.6h5.995v1.832H1.518v-13.206h2.294zM13.7-1.768h-2.2v-9.813h2.2zM11.358-14.13a1.17 1.17 0 0 1 .322-.843 1.216 1.216 0 0 1 .921-.336 1.231 1.231 0 0 1 .925.336 1.161 1.161 0 0 1 .326.843 1.134 1.134 0 0 1-.326.83 1.241 1.241 0 0 1-.925.331 1.226 1.226 0 0 1-.921-.331 1.142 1.142 0 0 1-.322-.83zm8.77 10.783a1.993 1.993 0 0 0 1.372-.48 1.642 1.642 0 0 0 .58-1.188h2.077a3.237 3.237 0 0 1-.571 1.71 3.748 3.748 0 0 1-1.454 1.255 4.324 4.324 0 0 1-1.977.463A4.184 4.184 0 0 1 16.89-2.92a5.288 5.288 0 0 1-1.206-3.68v-.227a5.2 5.2 0 0 1 1.2-3.587 4.146 4.146 0 0 1 3.265-1.347A4.032 4.032 0 0 1 23-10.743a3.655 3.655 0 0 1 1.156 2.68h-2.078A2.018 2.018 0 0 0 21.5-9.45a1.853 1.853 0 0 0-1.374-.544 1.939 1.939 0 0 0-1.651.775 3.957 3.957 0 0 0-.59 2.354v.354a4.022 4.022 0 0 0 .576 2.381 1.938 1.938 0 0 0 1.667.783zm10.013 1.76a4.56 4.56 0 0 1-3.4-1.32 4.787 4.787 0 0 1-1.3-3.514v-.272a5.888 5.888 0 0 1 .567-2.626 4.314 4.314 0 0 1 1.592-1.8 4.208 4.208 0 0 1 2.285-.644 3.852 3.852 0 0 1 3.1 1.279 5.407 5.407 0 0 1 1.093 3.619v.889h-6.413a2.947 2.947 0 0 0 .812 1.923 2.437 2.437 0 0 0 1.791.707 2.984 2.984 0 0 0 2.467-1.224l1.188 1.134a3.968 3.968 0 0 1-1.574 1.365 4.926 4.926 0 0 1-2.208.484zm-.263-8.407a1.856 1.856 0 0 0-1.465.635 3.291 3.291 0 0 0-.713 1.768h4.2v-.163a2.679 2.679 0 0 0-.59-1.673 1.842 1.842 0 0 0-1.432-.567zm7.954-1.587.063 1.134a3.528 3.528 0 0 1 2.857-1.315q3.065 0 3.12 3.51v6.485h-2.2v-6.359a2.021 2.021 0 0 0-.4-1.383 1.7 1.7 0 0 0-1.32-.449 2.124 2.124 0 0 0-1.986 1.206v6.983h-2.2v-9.813zm13.785 7.146a1 1 0 0 0-.485-.9 5.16 5.16 0 0 0-1.61-.544 8.275 8.275 0 0 1-1.877-.6 2.506 2.506 0 0 1-1.651-2.313 2.612 2.612 0 0 1 1.07-2.122 4.231 4.231 0 0 1 2.721-.853 4.4 4.4 0 0 1 2.843.871 2.763 2.763 0 0 1 1.084 2.258h-2.2a1.358 1.358 0 0 0-.472-1.057 1.807 1.807 0 0 0-1.252-.422 1.953 1.953 0 0 0-1.184.336 1.058 1.058 0 0 0-.458.9.893.893 0 0 0 .426.789 5.861 5.861 0 0 0 1.723.567 8.157 8.157 0 0 1 2.036.68 2.883 2.883 0 0 1 1.1.948 2.417 2.417 0 0 1 .358 1.342 2.557 2.557 0 0 1-1.1 2.145 4.679 4.679 0 0 1-2.875.821 5.074 5.074 0 0 1-2.149-.435 3.537 3.537 0 0 1-1.469-1.2 2.834 2.834 0 0 1-.526-1.642h2.14a1.553 1.553 0 0 0 .59 1.2 2.291 2.291 0 0 0 1.442.422 2.229 2.229 0 0 0 1.324-.331 1.025 1.025 0 0 0 .451-.86zm6.43 2.666h-2.2v-9.813h2.2zm-2.34-12.361a1.17 1.17 0 0 1 .322-.843 1.216 1.216 0 0 1 .921-.336 1.231 1.231 0 0 1 .925.336 1.161 1.161 0 0 1 .327.843 1.134 1.134 0 0 1-.327.83 1.241 1.241 0 0 1-.925.331 1.226 1.226 0 0 1-.921-.331 1.142 1.142 0 0 1-.322-.83zm6.784 2.548.063 1.134a3.528 3.528 0 0 1 2.857-1.315q3.065 0 3.12 3.51v6.485h-2.2v-6.358a2.021 2.021 0 0 0-.4-1.383 1.7 1.7 0 0 0-1.32-.449 2.124 2.124 0 0 0-1.986 1.206v6.983h-2.2v-9.813zm7.9 4.834a5.739 5.739 0 0 1 1.075-3.65 3.449 3.449 0 0 1 2.852-1.365 3.231 3.231 0 0 1 2.639 1.17l.1-.989h1.986v9.514A3.954 3.954 0 0 1 77.841.98 4.577 4.577 0 0 1 74.6 2.1a5.226 5.226 0 0 1-2.109-.449A3.747 3.747 0 0 1 70.926.472l1.043-1.324a3.15 3.15 0 0 0 2.5 1.206A2.434 2.434 0 0 0 76.2-.24a2.277 2.277 0 0 0 .635-1.746v-.662A3.245 3.245 0 0 1 74.3-1.587a3.441 3.441 0 0 1-2.816-1.369 5.925 5.925 0 0 1-1.094-3.792zm2.195.19a3.951 3.951 0 0 0 .6 2.326 1.939 1.939 0 0 0 1.673.848 2.121 2.121 0 0 0 1.977-1.143v-4.316a2.09 2.09 0 0 0-1.956-1.115 1.947 1.947 0 0 0-1.691.862 4.424 4.424 0 0 0-.604 2.539zm13 1.224a3.021 3.021 0 0 1 .5-1.682 7.83 7.83 0 0 1 1.968-1.818 8.221 8.221 0 0 1-1.075-1.651 3.217 3.217 0 0 1-.3-1.315 3.235 3.235 0 0 1 .943-2.453 3.52 3.52 0 0 1 2.539-.9 3.35 3.35 0 0 1 2.363.848 2.74 2.74 0 0 1 .921 2.1 2.893 2.893 0 0 1-.417 1.519 4.944 4.944 0 0 1-1.369 1.383l-.9.653L93.3-5.641a5.266 5.266 0 0 0 .553-2.422h1.914a6.6 6.6 0 0 1-1.143 4l1.941 2.295h-2.558l-.744-.88a5.463 5.463 0 0 1-3.373 1.061 4.558 4.558 0 0 1-3.133-1.038 3.443 3.443 0 0 1-1.175-2.708zm4.371 1.986a3.365 3.365 0 0 0 2.086-.744l-2.884-3.4-.281.2a2.357 2.357 0 0 0-1.088 1.886 1.979 1.979 0 0 0 .59 1.487 2.171 2.171 0 0 0 1.573.572zm-1.215-8.507a3.373 3.373 0 0 0 .934 1.914l1.007-.689.281-.227a1.632 1.632 0 0 0 .562-1.279 1.171 1.171 0 0 0-.39-.884 1.385 1.385 0 0 0-.989-.367 1.293 1.293 0 0 0-1.025.435 1.606 1.606 0 0 0-.384 1.098zm18.755 5.006h-2.558v5.079h-2.295v-13.204h4.644a5.4 5.4 0 0 1 3.528 1.026 3.629 3.629 0 0 1 1.242 2.968 3.717 3.717 0 0 1-.639 2.219 4.069 4.069 0 0 1-1.782 1.375l2.966 5.5v.118h-2.458zM104.936-8.7h2.358a2.623 2.623 0 0 0 1.814-.585 2.04 2.04 0 0 0 .653-1.6 2.172 2.172 0 0 0-.6-1.642 2.562 2.562 0 0 0-1.8-.6h-2.422zm13.4 7.11a4.56 4.56 0 0 1-3.4-1.32 4.787 4.787 0 0 1-1.3-3.514v-.272a5.888 5.888 0 0 1 .567-2.626 4.314 4.314 0 0 1 1.592-1.8 4.208 4.208 0 0 1 2.285-.644 3.851 3.851 0 0 1 3.1 1.279 5.407 5.407 0 0 1 1.093 3.619v.889h-6.412a2.947 2.947 0 0 0 .812 1.923 2.437 2.437 0 0 0 1.791.707 2.984 2.984 0 0 0 2.467-1.224l1.188 1.134a3.967 3.967 0 0 1-1.574 1.365 4.926 4.926 0 0 1-2.205.487zm-.263-8.407a1.856 1.856 0 0 0-1.465.635 3.291 3.291 0 0 0-.712 1.769h4.2v-.163a2.679 2.679 0 0 0-.59-1.673 1.842 1.842 0 0 0-1.429-.565zm14.5 3.419a5.843 5.843 0 0 1-1.034 3.632 3.311 3.311 0 0 1-2.775 1.356 3.333 3.333 0 0 1-2.585-1.061V2h-2.2v-13.582h2.032l.091 1a3.237 3.237 0 0 1 2.639-1.179 3.345 3.345 0 0 1 2.816 1.338 6 6 0 0 1 1.02 3.714zm-2.195-.19A4.093 4.093 0 0 0 129.8-9.1a1.9 1.9 0 0 0-1.673-.862 2.028 2.028 0 0 0-1.941 1.116v4.353a2.047 2.047 0 0 0 1.959 1.143 1.9 1.9 0 0 0 1.646-.848 4.505 4.505 0 0 0 .593-2.568zm3.646 0a5.787 5.787 0 0 1 .571-2.6 4.173 4.173 0 0 1 1.605-1.778 4.523 4.523 0 0 1 2.376-.621 4.286 4.286 0 0 1 3.224 1.279 5.03 5.03 0 0 1 1.338 3.392l.009.517a5.838 5.838 0 0 1-.558 2.594A4.123 4.123 0 0 1 141-2.213a4.556 4.556 0 0 1-2.4.626 4.257 4.257 0 0 1-3.324-1.383 5.3 5.3 0 0 1-1.247-3.687zm2.2.19a3.954 3.954 0 0 0 .636 2.378 2.034 2.034 0 0 0 1.741.857 2.012 2.012 0 0 0 1.737-.871 4.367 4.367 0 0 0 .621-2.548 3.9 3.9 0 0 0-.639-2.358 2.042 2.042 0 0 0-1.737-.871 2.023 2.023 0 0 0-1.714.857 4.285 4.285 0 0 0-.635 2.559zm13.921-2.993a5.453 5.453 0 0 0-.9-.073 2.022 2.022 0 0 0-2.041 1.161v6.711h-2.2v-9.813h2.1l.054 1.1a2.483 2.483 0 0 1 2.213-1.279 2.063 2.063 0 0 1 .78.127zm4.607-4.4v2.385h1.748v1.632h-1.732v5.478a1.206 1.206 0 0 0 .222.812 1.03 1.03 0 0 0 .794.249 3.4 3.4 0 0 0 .771-.091V-1.8a5.428 5.428 0 0 1-1.451.209q-2.539 0-2.539-2.8v-5.56h-1.614v-1.632h1.614v-2.385zm5.759 12.2h-2.2v-9.813h2.2zm-2.34-12.362a1.17 1.17 0 0 1 .322-.843 1.216 1.216 0 0 1 .921-.336 1.231 1.231 0 0 1 .925.336 1.161 1.161 0 0 1 .326.843 1.134 1.134 0 0 1-.326.83 1.241 1.241 0 0 1-.925.331 1.226 1.226 0 0 1-.921-.331 1.142 1.142 0 0 1-.311-.827zm6.784 2.548.063 1.134a3.528 3.528 0 0 1 2.857-1.315q3.065 0 3.12 3.51v6.485h-2.2v-6.355a2.021 2.021 0 0 0-.4-1.383 1.7 1.7 0 0 0-1.32-.449 2.124 2.124 0 0 0-1.986 1.206v6.983h-2.2v-9.813zm7.9 4.834a5.739 5.739 0 0 1 1.075-3.65 3.449 3.449 0 0 1 2.852-1.365 3.231 3.231 0 0 1 2.639 1.17l.1-.989h1.986v9.514a3.954 3.954 0 0 1-1.2 3.047 4.577 4.577 0 0 1-3.233 1.124 5.226 5.226 0 0 1-2.109-.449A3.747 3.747 0 0 1 173.4.472l1.043-1.324a3.15 3.15 0 0 0 2.5 1.206 2.434 2.434 0 0 0 1.732-.594 2.277 2.277 0 0 0 .635-1.746v-.662a3.245 3.245 0 0 1-2.539 1.061 3.441 3.441 0 0 1-2.816-1.369 5.925 5.925 0 0 1-1.09-3.792zm2.195.19a3.95 3.95 0 0 0 .6 2.326 1.939 1.939 0 0 0 1.673.848A2.121 2.121 0 0 0 179.3-4.53v-4.313a2.09 2.09 0 0 0-1.959-1.116 1.947 1.947 0 0 0-1.691.862 4.423 4.423 0 0 0-.59 2.54z" transform="translate(204.813 21.982)" style="fill:#ff5200"/>
    </g>
</svg>
