<svg xmlns="http://www.w3.org/2000/svg" id="icon_gnblogo_w" width="127" height="28" viewBox="0 0 127 28">
    <defs>
        <style>
            .cls-3{fill:#fff}
        </style>
    </defs>
    <g id="logo" transform="translate(1.567 1.133)">
        <path id="Path_44589" fill="#ff5200" d="M313.056 483.6h-5.684s6.363 8.013 6.514 8.21c-.151.193-6.512 8.221-6.512 8.221h5.764l6.436-8.221-6.44-8.21z" transform="translate(-307.372 -475.379)"/>
        <path id="Path_44590" d="M386.31 483.6l-6.439 8.21 6.434 8.221h5.766s-6.362-8.028-6.512-8.221c.15-.2 6.512-8.21 6.512-8.21h-5.761z" class="cls-3" transform="translate(-358.283 -475.379)"/>
        <path id="Path_44591" d="M361.99 456.289v24.649h4.9v-24.649z" class="cls-3" transform="translate(-345.726 -456.289)"/>
        <path id="Path_44592" d="M658.44 482.341a5.636 5.636 0 0 0-4.689 2.7 4.935 4.935 0 0 0-4.674-2.7 5.739 5.739 0 0 0-4.538 2.4v-2.026h-4.35v16.43h4.639v-8.479c0-3.309 1.095-4.525 2.779-4.525 1.931 0 2.091 1.926 2.091 3.471v9.532h4.635v-8.479c0-3.309 1.1-4.525 2.784-4.525 1.927 0 2.084 1.926 2.084 3.471v9.532h4.637V488.64c.002-4.358-2.091-6.299-5.398-6.299z" class="cls-3" transform="translate(-541.087 -474.501)"/>
        <path id="Path_44593" d="M435.792 490.572a8.885 8.885 0 1 1-8.886-8.761 8.822 8.822 0 0 1 8.886 8.761zm-8.886-4.867a4.884 4.884 0 1 0 4.477 4.867 4.683 4.683 0 0 0-4.477-4.872z" class="cls-3" transform="translate(-385.074 -474.13)"/>
        <path id="Path_44594" d="M493.576 483.827a10.856 10.856 0 0 0-6.1-1.943 7.6 7.6 0 0 0-5.221 1.817 4.709 4.709 0 0 0-1.44 3.462c0 3.5 2.613 4.245 4.708 4.848 1.555.443 2.9.8 2.9 2.024a1.565 1.565 0 0 1-.545 1.241 2.942 2.942 0 0 1-2.113.542 7.185 7.185 0 0 1-3.845-1.711l-.195-.166-1.611 3.322.132.1a10.679 10.679 0 0 0 5.768 1.982 7.9 7.9 0 0 0 5.629-1.812 4.909 4.909 0 0 0 1.547-3.72c0-3.644-2.837-4.474-5.091-5.143-1.425-.418-2.548-.752-2.548-1.664a1.4 1.4 0 0 1 .463-1.088 2.682 2.682 0 0 1 1.938-.547 8.183 8.183 0 0 1 3.884 1.5z" class="cls-3" transform="translate(-428.677 -474.181)"/>
        <path id="Path_44595" d="M551.09 481.811a8.776 8.776 0 0 0-8.815 9.836c.013.09.022.181.037.271a1.864 1.864 0 0 1-.216 1.178c-.029.057-.059.11-.089.16a4.4 4.4 0 0 1-3.735 2.182 4.884 4.884 0 0 1 0-9.733 4.112 4.112 0 0 1 1.886.461l2.016-3.456a8.93 8.93 0 0 0-3.9-.9 8.76 8.76 0 1 0 0 17.519 8.932 8.932 0 0 0 6.41-2.7 8.822 8.822 0 1 0 6.408-14.82zm0 13.626a4.884 4.884 0 1 1 4.475-4.866 4.682 4.682 0 0 1-4.475 4.866z" class="cls-3" transform="translate(-463.278 -474.13)"/>
    </g>
</svg>
